%TF.GenerationSoftware,KiCad,Pcbnew,10.0.5*%
%TF.CreationDate,2026-08-30T10:19:16-07:00*%
%TF.ProjectId,daisy_buttons_breakout_1,64616973-795f-4627-9574-746f6e735f62,rev?*%
%TF.SameCoordinates,Original*%
%TF.FileFunction,Legend,Top*%
%TF.FilePolarity,Positive*%
%FSLAX46Y46*%
G04 Gerber Fmt 4.6, Leading zero omitted, Abs format (unit mm)*
G04 Created by KiCad (PCBNEW 10.0.5) date 2026-08-30 10:19:16*
%MOMM*%
%LPD*%
G01*
G04 APERTURE LIST*
%ADD10C,0.150000*%
%ADD11C,0.120000*%
G04 APERTURE END LIST*
D10*
X138124819Y-58183333D02*
X138839104Y-58183333D01*
X138839104Y-58183333D02*
X138981961Y-58230952D01*
X138981961Y-58230952D02*
X139077200Y-58326190D01*
X139077200Y-58326190D02*
X139124819Y-58469047D01*
X139124819Y-58469047D02*
X139124819Y-58564285D01*
X139124819Y-57183333D02*
X139124819Y-57754761D01*
X139124819Y-57469047D02*
X138124819Y-57469047D01*
X138124819Y-57469047D02*
X138267676Y-57564285D01*
X138267676Y-57564285D02*
X138362914Y-57659523D01*
X138362914Y-57659523D02*
X138410533Y-57754761D01*
X140430476Y-128042200D02*
X140573333Y-128089819D01*
X140573333Y-128089819D02*
X140811428Y-128089819D01*
X140811428Y-128089819D02*
X140906666Y-128042200D01*
X140906666Y-128042200D02*
X140954285Y-127994580D01*
X140954285Y-127994580D02*
X141001904Y-127899342D01*
X141001904Y-127899342D02*
X141001904Y-127804104D01*
X141001904Y-127804104D02*
X140954285Y-127708866D01*
X140954285Y-127708866D02*
X140906666Y-127661247D01*
X140906666Y-127661247D02*
X140811428Y-127613628D01*
X140811428Y-127613628D02*
X140620952Y-127566009D01*
X140620952Y-127566009D02*
X140525714Y-127518390D01*
X140525714Y-127518390D02*
X140478095Y-127470771D01*
X140478095Y-127470771D02*
X140430476Y-127375533D01*
X140430476Y-127375533D02*
X140430476Y-127280295D01*
X140430476Y-127280295D02*
X140478095Y-127185057D01*
X140478095Y-127185057D02*
X140525714Y-127137438D01*
X140525714Y-127137438D02*
X140620952Y-127089819D01*
X140620952Y-127089819D02*
X140859047Y-127089819D01*
X140859047Y-127089819D02*
X141001904Y-127137438D01*
X141335238Y-127089819D02*
X141573333Y-128089819D01*
X141573333Y-128089819D02*
X141763809Y-127375533D01*
X141763809Y-127375533D02*
X141954285Y-128089819D01*
X141954285Y-128089819D02*
X142192381Y-127089819D01*
X143097142Y-128089819D02*
X142525714Y-128089819D01*
X142811428Y-128089819D02*
X142811428Y-127089819D01*
X142811428Y-127089819D02*
X142716190Y-127232676D01*
X142716190Y-127232676D02*
X142620952Y-127327914D01*
X142620952Y-127327914D02*
X142525714Y-127375533D01*
X143573333Y-128089819D02*
X143763809Y-128089819D01*
X143763809Y-128089819D02*
X143859047Y-128042200D01*
X143859047Y-128042200D02*
X143906666Y-127994580D01*
X143906666Y-127994580D02*
X144001904Y-127851723D01*
X144001904Y-127851723D02*
X144049523Y-127661247D01*
X144049523Y-127661247D02*
X144049523Y-127280295D01*
X144049523Y-127280295D02*
X144001904Y-127185057D01*
X144001904Y-127185057D02*
X143954285Y-127137438D01*
X143954285Y-127137438D02*
X143859047Y-127089819D01*
X143859047Y-127089819D02*
X143668571Y-127089819D01*
X143668571Y-127089819D02*
X143573333Y-127137438D01*
X143573333Y-127137438D02*
X143525714Y-127185057D01*
X143525714Y-127185057D02*
X143478095Y-127280295D01*
X143478095Y-127280295D02*
X143478095Y-127518390D01*
X143478095Y-127518390D02*
X143525714Y-127613628D01*
X143525714Y-127613628D02*
X143573333Y-127661247D01*
X143573333Y-127661247D02*
X143668571Y-127708866D01*
X143668571Y-127708866D02*
X143859047Y-127708866D01*
X143859047Y-127708866D02*
X143954285Y-127661247D01*
X143954285Y-127661247D02*
X144001904Y-127613628D01*
X144001904Y-127613628D02*
X144049523Y-127518390D01*
X158065714Y-64409104D02*
X158541904Y-64409104D01*
X157970476Y-64694819D02*
X158303809Y-63694819D01*
X158303809Y-63694819D02*
X158637142Y-64694819D01*
X158922857Y-63790057D02*
X158970476Y-63742438D01*
X158970476Y-63742438D02*
X159065714Y-63694819D01*
X159065714Y-63694819D02*
X159303809Y-63694819D01*
X159303809Y-63694819D02*
X159399047Y-63742438D01*
X159399047Y-63742438D02*
X159446666Y-63790057D01*
X159446666Y-63790057D02*
X159494285Y-63885295D01*
X159494285Y-63885295D02*
X159494285Y-63980533D01*
X159494285Y-63980533D02*
X159446666Y-64123390D01*
X159446666Y-64123390D02*
X158875238Y-64694819D01*
X158875238Y-64694819D02*
X159494285Y-64694819D01*
X81811905Y-86814819D02*
X81811905Y-85814819D01*
X81811905Y-85814819D02*
X82050000Y-85814819D01*
X82050000Y-85814819D02*
X82192857Y-85862438D01*
X82192857Y-85862438D02*
X82288095Y-85957676D01*
X82288095Y-85957676D02*
X82335714Y-86052914D01*
X82335714Y-86052914D02*
X82383333Y-86243390D01*
X82383333Y-86243390D02*
X82383333Y-86386247D01*
X82383333Y-86386247D02*
X82335714Y-86576723D01*
X82335714Y-86576723D02*
X82288095Y-86671961D01*
X82288095Y-86671961D02*
X82192857Y-86767200D01*
X82192857Y-86767200D02*
X82050000Y-86814819D01*
X82050000Y-86814819D02*
X81811905Y-86814819D01*
X83335714Y-86814819D02*
X82764286Y-86814819D01*
X83050000Y-86814819D02*
X83050000Y-85814819D01*
X83050000Y-85814819D02*
X82954762Y-85957676D01*
X82954762Y-85957676D02*
X82859524Y-86052914D01*
X82859524Y-86052914D02*
X82764286Y-86100533D01*
X84828095Y-85014819D02*
X84828095Y-84014819D01*
X85399523Y-85014819D02*
X84970952Y-84443390D01*
X85399523Y-84014819D02*
X84828095Y-84586247D01*
X159480476Y-89942200D02*
X159623333Y-89989819D01*
X159623333Y-89989819D02*
X159861428Y-89989819D01*
X159861428Y-89989819D02*
X159956666Y-89942200D01*
X159956666Y-89942200D02*
X160004285Y-89894580D01*
X160004285Y-89894580D02*
X160051904Y-89799342D01*
X160051904Y-89799342D02*
X160051904Y-89704104D01*
X160051904Y-89704104D02*
X160004285Y-89608866D01*
X160004285Y-89608866D02*
X159956666Y-89561247D01*
X159956666Y-89561247D02*
X159861428Y-89513628D01*
X159861428Y-89513628D02*
X159670952Y-89466009D01*
X159670952Y-89466009D02*
X159575714Y-89418390D01*
X159575714Y-89418390D02*
X159528095Y-89370771D01*
X159528095Y-89370771D02*
X159480476Y-89275533D01*
X159480476Y-89275533D02*
X159480476Y-89180295D01*
X159480476Y-89180295D02*
X159528095Y-89085057D01*
X159528095Y-89085057D02*
X159575714Y-89037438D01*
X159575714Y-89037438D02*
X159670952Y-88989819D01*
X159670952Y-88989819D02*
X159909047Y-88989819D01*
X159909047Y-88989819D02*
X160051904Y-89037438D01*
X160385238Y-88989819D02*
X160623333Y-89989819D01*
X160623333Y-89989819D02*
X160813809Y-89275533D01*
X160813809Y-89275533D02*
X161004285Y-89989819D01*
X161004285Y-89989819D02*
X161242381Y-88989819D01*
X162147142Y-89989819D02*
X161575714Y-89989819D01*
X161861428Y-89989819D02*
X161861428Y-88989819D01*
X161861428Y-88989819D02*
X161766190Y-89132676D01*
X161766190Y-89132676D02*
X161670952Y-89227914D01*
X161670952Y-89227914D02*
X161575714Y-89275533D01*
X162766190Y-88989819D02*
X162861428Y-88989819D01*
X162861428Y-88989819D02*
X162956666Y-89037438D01*
X162956666Y-89037438D02*
X163004285Y-89085057D01*
X163004285Y-89085057D02*
X163051904Y-89180295D01*
X163051904Y-89180295D02*
X163099523Y-89370771D01*
X163099523Y-89370771D02*
X163099523Y-89608866D01*
X163099523Y-89608866D02*
X163051904Y-89799342D01*
X163051904Y-89799342D02*
X163004285Y-89894580D01*
X163004285Y-89894580D02*
X162956666Y-89942200D01*
X162956666Y-89942200D02*
X162861428Y-89989819D01*
X162861428Y-89989819D02*
X162766190Y-89989819D01*
X162766190Y-89989819D02*
X162670952Y-89942200D01*
X162670952Y-89942200D02*
X162623333Y-89894580D01*
X162623333Y-89894580D02*
X162575714Y-89799342D01*
X162575714Y-89799342D02*
X162528095Y-89608866D01*
X162528095Y-89608866D02*
X162528095Y-89370771D01*
X162528095Y-89370771D02*
X162575714Y-89180295D01*
X162575714Y-89180295D02*
X162623333Y-89085057D01*
X162623333Y-89085057D02*
X162670952Y-89037438D01*
X162670952Y-89037438D02*
X162766190Y-88989819D01*
X83280476Y-108992200D02*
X83423333Y-109039819D01*
X83423333Y-109039819D02*
X83661428Y-109039819D01*
X83661428Y-109039819D02*
X83756666Y-108992200D01*
X83756666Y-108992200D02*
X83804285Y-108944580D01*
X83804285Y-108944580D02*
X83851904Y-108849342D01*
X83851904Y-108849342D02*
X83851904Y-108754104D01*
X83851904Y-108754104D02*
X83804285Y-108658866D01*
X83804285Y-108658866D02*
X83756666Y-108611247D01*
X83756666Y-108611247D02*
X83661428Y-108563628D01*
X83661428Y-108563628D02*
X83470952Y-108516009D01*
X83470952Y-108516009D02*
X83375714Y-108468390D01*
X83375714Y-108468390D02*
X83328095Y-108420771D01*
X83328095Y-108420771D02*
X83280476Y-108325533D01*
X83280476Y-108325533D02*
X83280476Y-108230295D01*
X83280476Y-108230295D02*
X83328095Y-108135057D01*
X83328095Y-108135057D02*
X83375714Y-108087438D01*
X83375714Y-108087438D02*
X83470952Y-108039819D01*
X83470952Y-108039819D02*
X83709047Y-108039819D01*
X83709047Y-108039819D02*
X83851904Y-108087438D01*
X84185238Y-108039819D02*
X84423333Y-109039819D01*
X84423333Y-109039819D02*
X84613809Y-108325533D01*
X84613809Y-108325533D02*
X84804285Y-109039819D01*
X84804285Y-109039819D02*
X85042381Y-108039819D01*
X85947142Y-109039819D02*
X85375714Y-109039819D01*
X85661428Y-109039819D02*
X85661428Y-108039819D01*
X85661428Y-108039819D02*
X85566190Y-108182676D01*
X85566190Y-108182676D02*
X85470952Y-108277914D01*
X85470952Y-108277914D02*
X85375714Y-108325533D01*
X86899523Y-109039819D02*
X86328095Y-109039819D01*
X86613809Y-109039819D02*
X86613809Y-108039819D01*
X86613809Y-108039819D02*
X86518571Y-108182676D01*
X86518571Y-108182676D02*
X86423333Y-108277914D01*
X86423333Y-108277914D02*
X86328095Y-108325533D01*
X102330476Y-108992200D02*
X102473333Y-109039819D01*
X102473333Y-109039819D02*
X102711428Y-109039819D01*
X102711428Y-109039819D02*
X102806666Y-108992200D01*
X102806666Y-108992200D02*
X102854285Y-108944580D01*
X102854285Y-108944580D02*
X102901904Y-108849342D01*
X102901904Y-108849342D02*
X102901904Y-108754104D01*
X102901904Y-108754104D02*
X102854285Y-108658866D01*
X102854285Y-108658866D02*
X102806666Y-108611247D01*
X102806666Y-108611247D02*
X102711428Y-108563628D01*
X102711428Y-108563628D02*
X102520952Y-108516009D01*
X102520952Y-108516009D02*
X102425714Y-108468390D01*
X102425714Y-108468390D02*
X102378095Y-108420771D01*
X102378095Y-108420771D02*
X102330476Y-108325533D01*
X102330476Y-108325533D02*
X102330476Y-108230295D01*
X102330476Y-108230295D02*
X102378095Y-108135057D01*
X102378095Y-108135057D02*
X102425714Y-108087438D01*
X102425714Y-108087438D02*
X102520952Y-108039819D01*
X102520952Y-108039819D02*
X102759047Y-108039819D01*
X102759047Y-108039819D02*
X102901904Y-108087438D01*
X103235238Y-108039819D02*
X103473333Y-109039819D01*
X103473333Y-109039819D02*
X103663809Y-108325533D01*
X103663809Y-108325533D02*
X103854285Y-109039819D01*
X103854285Y-109039819D02*
X104092381Y-108039819D01*
X104997142Y-109039819D02*
X104425714Y-109039819D01*
X104711428Y-109039819D02*
X104711428Y-108039819D01*
X104711428Y-108039819D02*
X104616190Y-108182676D01*
X104616190Y-108182676D02*
X104520952Y-108277914D01*
X104520952Y-108277914D02*
X104425714Y-108325533D01*
X105378095Y-108135057D02*
X105425714Y-108087438D01*
X105425714Y-108087438D02*
X105520952Y-108039819D01*
X105520952Y-108039819D02*
X105759047Y-108039819D01*
X105759047Y-108039819D02*
X105854285Y-108087438D01*
X105854285Y-108087438D02*
X105901904Y-108135057D01*
X105901904Y-108135057D02*
X105949523Y-108230295D01*
X105949523Y-108230295D02*
X105949523Y-108325533D01*
X105949523Y-108325533D02*
X105901904Y-108468390D01*
X105901904Y-108468390D02*
X105330476Y-109039819D01*
X105330476Y-109039819D02*
X105949523Y-109039819D01*
X121380476Y-108992200D02*
X121523333Y-109039819D01*
X121523333Y-109039819D02*
X121761428Y-109039819D01*
X121761428Y-109039819D02*
X121856666Y-108992200D01*
X121856666Y-108992200D02*
X121904285Y-108944580D01*
X121904285Y-108944580D02*
X121951904Y-108849342D01*
X121951904Y-108849342D02*
X121951904Y-108754104D01*
X121951904Y-108754104D02*
X121904285Y-108658866D01*
X121904285Y-108658866D02*
X121856666Y-108611247D01*
X121856666Y-108611247D02*
X121761428Y-108563628D01*
X121761428Y-108563628D02*
X121570952Y-108516009D01*
X121570952Y-108516009D02*
X121475714Y-108468390D01*
X121475714Y-108468390D02*
X121428095Y-108420771D01*
X121428095Y-108420771D02*
X121380476Y-108325533D01*
X121380476Y-108325533D02*
X121380476Y-108230295D01*
X121380476Y-108230295D02*
X121428095Y-108135057D01*
X121428095Y-108135057D02*
X121475714Y-108087438D01*
X121475714Y-108087438D02*
X121570952Y-108039819D01*
X121570952Y-108039819D02*
X121809047Y-108039819D01*
X121809047Y-108039819D02*
X121951904Y-108087438D01*
X122285238Y-108039819D02*
X122523333Y-109039819D01*
X122523333Y-109039819D02*
X122713809Y-108325533D01*
X122713809Y-108325533D02*
X122904285Y-109039819D01*
X122904285Y-109039819D02*
X123142381Y-108039819D01*
X124047142Y-109039819D02*
X123475714Y-109039819D01*
X123761428Y-109039819D02*
X123761428Y-108039819D01*
X123761428Y-108039819D02*
X123666190Y-108182676D01*
X123666190Y-108182676D02*
X123570952Y-108277914D01*
X123570952Y-108277914D02*
X123475714Y-108325533D01*
X124380476Y-108039819D02*
X124999523Y-108039819D01*
X124999523Y-108039819D02*
X124666190Y-108420771D01*
X124666190Y-108420771D02*
X124809047Y-108420771D01*
X124809047Y-108420771D02*
X124904285Y-108468390D01*
X124904285Y-108468390D02*
X124951904Y-108516009D01*
X124951904Y-108516009D02*
X124999523Y-108611247D01*
X124999523Y-108611247D02*
X124999523Y-108849342D01*
X124999523Y-108849342D02*
X124951904Y-108944580D01*
X124951904Y-108944580D02*
X124904285Y-108992200D01*
X124904285Y-108992200D02*
X124809047Y-109039819D01*
X124809047Y-109039819D02*
X124523333Y-109039819D01*
X124523333Y-109039819D02*
X124428095Y-108992200D01*
X124428095Y-108992200D02*
X124380476Y-108944580D01*
X79946666Y-60906819D02*
X79613333Y-60430628D01*
X79375238Y-60906819D02*
X79375238Y-59906819D01*
X79375238Y-59906819D02*
X79756190Y-59906819D01*
X79756190Y-59906819D02*
X79851428Y-59954438D01*
X79851428Y-59954438D02*
X79899047Y-60002057D01*
X79899047Y-60002057D02*
X79946666Y-60097295D01*
X79946666Y-60097295D02*
X79946666Y-60240152D01*
X79946666Y-60240152D02*
X79899047Y-60335390D01*
X79899047Y-60335390D02*
X79851428Y-60383009D01*
X79851428Y-60383009D02*
X79756190Y-60430628D01*
X79756190Y-60430628D02*
X79375238Y-60430628D01*
X80375238Y-60383009D02*
X80708571Y-60383009D01*
X80851428Y-60906819D02*
X80375238Y-60906819D01*
X80375238Y-60906819D02*
X80375238Y-59906819D01*
X80375238Y-59906819D02*
X80851428Y-59906819D01*
X81613333Y-60383009D02*
X81280000Y-60383009D01*
X81280000Y-60906819D02*
X81280000Y-59906819D01*
X81280000Y-59906819D02*
X81756190Y-59906819D01*
X82280000Y-59906819D02*
X82280000Y-60144914D01*
X82041905Y-60049676D02*
X82280000Y-60144914D01*
X82280000Y-60144914D02*
X82518095Y-60049676D01*
X82137143Y-60335390D02*
X82280000Y-60144914D01*
X82280000Y-60144914D02*
X82422857Y-60335390D01*
X83041905Y-59906819D02*
X83041905Y-60144914D01*
X82803810Y-60049676D02*
X83041905Y-60144914D01*
X83041905Y-60144914D02*
X83280000Y-60049676D01*
X82899048Y-60335390D02*
X83041905Y-60144914D01*
X83041905Y-60144914D02*
X83184762Y-60335390D01*
X138961905Y-86814819D02*
X138961905Y-85814819D01*
X138961905Y-85814819D02*
X139200000Y-85814819D01*
X139200000Y-85814819D02*
X139342857Y-85862438D01*
X139342857Y-85862438D02*
X139438095Y-85957676D01*
X139438095Y-85957676D02*
X139485714Y-86052914D01*
X139485714Y-86052914D02*
X139533333Y-86243390D01*
X139533333Y-86243390D02*
X139533333Y-86386247D01*
X139533333Y-86386247D02*
X139485714Y-86576723D01*
X139485714Y-86576723D02*
X139438095Y-86671961D01*
X139438095Y-86671961D02*
X139342857Y-86767200D01*
X139342857Y-86767200D02*
X139200000Y-86814819D01*
X139200000Y-86814819D02*
X138961905Y-86814819D01*
X140390476Y-86148152D02*
X140390476Y-86814819D01*
X140152381Y-85767200D02*
X139914286Y-86481485D01*
X139914286Y-86481485D02*
X140533333Y-86481485D01*
X141978095Y-85014819D02*
X141978095Y-84014819D01*
X142549523Y-85014819D02*
X142120952Y-84443390D01*
X142549523Y-84014819D02*
X141978095Y-84586247D01*
X102330476Y-128042200D02*
X102473333Y-128089819D01*
X102473333Y-128089819D02*
X102711428Y-128089819D01*
X102711428Y-128089819D02*
X102806666Y-128042200D01*
X102806666Y-128042200D02*
X102854285Y-127994580D01*
X102854285Y-127994580D02*
X102901904Y-127899342D01*
X102901904Y-127899342D02*
X102901904Y-127804104D01*
X102901904Y-127804104D02*
X102854285Y-127708866D01*
X102854285Y-127708866D02*
X102806666Y-127661247D01*
X102806666Y-127661247D02*
X102711428Y-127613628D01*
X102711428Y-127613628D02*
X102520952Y-127566009D01*
X102520952Y-127566009D02*
X102425714Y-127518390D01*
X102425714Y-127518390D02*
X102378095Y-127470771D01*
X102378095Y-127470771D02*
X102330476Y-127375533D01*
X102330476Y-127375533D02*
X102330476Y-127280295D01*
X102330476Y-127280295D02*
X102378095Y-127185057D01*
X102378095Y-127185057D02*
X102425714Y-127137438D01*
X102425714Y-127137438D02*
X102520952Y-127089819D01*
X102520952Y-127089819D02*
X102759047Y-127089819D01*
X102759047Y-127089819D02*
X102901904Y-127137438D01*
X103235238Y-127089819D02*
X103473333Y-128089819D01*
X103473333Y-128089819D02*
X103663809Y-127375533D01*
X103663809Y-127375533D02*
X103854285Y-128089819D01*
X103854285Y-128089819D02*
X104092381Y-127089819D01*
X104997142Y-128089819D02*
X104425714Y-128089819D01*
X104711428Y-128089819D02*
X104711428Y-127089819D01*
X104711428Y-127089819D02*
X104616190Y-127232676D01*
X104616190Y-127232676D02*
X104520952Y-127327914D01*
X104520952Y-127327914D02*
X104425714Y-127375533D01*
X105330476Y-127089819D02*
X105997142Y-127089819D01*
X105997142Y-127089819D02*
X105568571Y-128089819D01*
X83756667Y-70892200D02*
X83899524Y-70939819D01*
X83899524Y-70939819D02*
X84137619Y-70939819D01*
X84137619Y-70939819D02*
X84232857Y-70892200D01*
X84232857Y-70892200D02*
X84280476Y-70844580D01*
X84280476Y-70844580D02*
X84328095Y-70749342D01*
X84328095Y-70749342D02*
X84328095Y-70654104D01*
X84328095Y-70654104D02*
X84280476Y-70558866D01*
X84280476Y-70558866D02*
X84232857Y-70511247D01*
X84232857Y-70511247D02*
X84137619Y-70463628D01*
X84137619Y-70463628D02*
X83947143Y-70416009D01*
X83947143Y-70416009D02*
X83851905Y-70368390D01*
X83851905Y-70368390D02*
X83804286Y-70320771D01*
X83804286Y-70320771D02*
X83756667Y-70225533D01*
X83756667Y-70225533D02*
X83756667Y-70130295D01*
X83756667Y-70130295D02*
X83804286Y-70035057D01*
X83804286Y-70035057D02*
X83851905Y-69987438D01*
X83851905Y-69987438D02*
X83947143Y-69939819D01*
X83947143Y-69939819D02*
X84185238Y-69939819D01*
X84185238Y-69939819D02*
X84328095Y-69987438D01*
X84661429Y-69939819D02*
X84899524Y-70939819D01*
X84899524Y-70939819D02*
X85090000Y-70225533D01*
X85090000Y-70225533D02*
X85280476Y-70939819D01*
X85280476Y-70939819D02*
X85518572Y-69939819D01*
X86423333Y-70939819D02*
X85851905Y-70939819D01*
X86137619Y-70939819D02*
X86137619Y-69939819D01*
X86137619Y-69939819D02*
X86042381Y-70082676D01*
X86042381Y-70082676D02*
X85947143Y-70177914D01*
X85947143Y-70177914D02*
X85851905Y-70225533D01*
X140430476Y-108992200D02*
X140573333Y-109039819D01*
X140573333Y-109039819D02*
X140811428Y-109039819D01*
X140811428Y-109039819D02*
X140906666Y-108992200D01*
X140906666Y-108992200D02*
X140954285Y-108944580D01*
X140954285Y-108944580D02*
X141001904Y-108849342D01*
X141001904Y-108849342D02*
X141001904Y-108754104D01*
X141001904Y-108754104D02*
X140954285Y-108658866D01*
X140954285Y-108658866D02*
X140906666Y-108611247D01*
X140906666Y-108611247D02*
X140811428Y-108563628D01*
X140811428Y-108563628D02*
X140620952Y-108516009D01*
X140620952Y-108516009D02*
X140525714Y-108468390D01*
X140525714Y-108468390D02*
X140478095Y-108420771D01*
X140478095Y-108420771D02*
X140430476Y-108325533D01*
X140430476Y-108325533D02*
X140430476Y-108230295D01*
X140430476Y-108230295D02*
X140478095Y-108135057D01*
X140478095Y-108135057D02*
X140525714Y-108087438D01*
X140525714Y-108087438D02*
X140620952Y-108039819D01*
X140620952Y-108039819D02*
X140859047Y-108039819D01*
X140859047Y-108039819D02*
X141001904Y-108087438D01*
X141335238Y-108039819D02*
X141573333Y-109039819D01*
X141573333Y-109039819D02*
X141763809Y-108325533D01*
X141763809Y-108325533D02*
X141954285Y-109039819D01*
X141954285Y-109039819D02*
X142192381Y-108039819D01*
X143097142Y-109039819D02*
X142525714Y-109039819D01*
X142811428Y-109039819D02*
X142811428Y-108039819D01*
X142811428Y-108039819D02*
X142716190Y-108182676D01*
X142716190Y-108182676D02*
X142620952Y-108277914D01*
X142620952Y-108277914D02*
X142525714Y-108325533D01*
X143954285Y-108373152D02*
X143954285Y-109039819D01*
X143716190Y-107992200D02*
X143478095Y-108706485D01*
X143478095Y-108706485D02*
X144097142Y-108706485D01*
X140906667Y-89942200D02*
X141049524Y-89989819D01*
X141049524Y-89989819D02*
X141287619Y-89989819D01*
X141287619Y-89989819D02*
X141382857Y-89942200D01*
X141382857Y-89942200D02*
X141430476Y-89894580D01*
X141430476Y-89894580D02*
X141478095Y-89799342D01*
X141478095Y-89799342D02*
X141478095Y-89704104D01*
X141478095Y-89704104D02*
X141430476Y-89608866D01*
X141430476Y-89608866D02*
X141382857Y-89561247D01*
X141382857Y-89561247D02*
X141287619Y-89513628D01*
X141287619Y-89513628D02*
X141097143Y-89466009D01*
X141097143Y-89466009D02*
X141001905Y-89418390D01*
X141001905Y-89418390D02*
X140954286Y-89370771D01*
X140954286Y-89370771D02*
X140906667Y-89275533D01*
X140906667Y-89275533D02*
X140906667Y-89180295D01*
X140906667Y-89180295D02*
X140954286Y-89085057D01*
X140954286Y-89085057D02*
X141001905Y-89037438D01*
X141001905Y-89037438D02*
X141097143Y-88989819D01*
X141097143Y-88989819D02*
X141335238Y-88989819D01*
X141335238Y-88989819D02*
X141478095Y-89037438D01*
X141811429Y-88989819D02*
X142049524Y-89989819D01*
X142049524Y-89989819D02*
X142240000Y-89275533D01*
X142240000Y-89275533D02*
X142430476Y-89989819D01*
X142430476Y-89989819D02*
X142668572Y-88989819D01*
X143097143Y-89989819D02*
X143287619Y-89989819D01*
X143287619Y-89989819D02*
X143382857Y-89942200D01*
X143382857Y-89942200D02*
X143430476Y-89894580D01*
X143430476Y-89894580D02*
X143525714Y-89751723D01*
X143525714Y-89751723D02*
X143573333Y-89561247D01*
X143573333Y-89561247D02*
X143573333Y-89180295D01*
X143573333Y-89180295D02*
X143525714Y-89085057D01*
X143525714Y-89085057D02*
X143478095Y-89037438D01*
X143478095Y-89037438D02*
X143382857Y-88989819D01*
X143382857Y-88989819D02*
X143192381Y-88989819D01*
X143192381Y-88989819D02*
X143097143Y-89037438D01*
X143097143Y-89037438D02*
X143049524Y-89085057D01*
X143049524Y-89085057D02*
X143001905Y-89180295D01*
X143001905Y-89180295D02*
X143001905Y-89418390D01*
X143001905Y-89418390D02*
X143049524Y-89513628D01*
X143049524Y-89513628D02*
X143097143Y-89561247D01*
X143097143Y-89561247D02*
X143192381Y-89608866D01*
X143192381Y-89608866D02*
X143382857Y-89608866D01*
X143382857Y-89608866D02*
X143478095Y-89561247D01*
X143478095Y-89561247D02*
X143525714Y-89513628D01*
X143525714Y-89513628D02*
X143573333Y-89418390D01*
X121856667Y-70892200D02*
X121999524Y-70939819D01*
X121999524Y-70939819D02*
X122237619Y-70939819D01*
X122237619Y-70939819D02*
X122332857Y-70892200D01*
X122332857Y-70892200D02*
X122380476Y-70844580D01*
X122380476Y-70844580D02*
X122428095Y-70749342D01*
X122428095Y-70749342D02*
X122428095Y-70654104D01*
X122428095Y-70654104D02*
X122380476Y-70558866D01*
X122380476Y-70558866D02*
X122332857Y-70511247D01*
X122332857Y-70511247D02*
X122237619Y-70463628D01*
X122237619Y-70463628D02*
X122047143Y-70416009D01*
X122047143Y-70416009D02*
X121951905Y-70368390D01*
X121951905Y-70368390D02*
X121904286Y-70320771D01*
X121904286Y-70320771D02*
X121856667Y-70225533D01*
X121856667Y-70225533D02*
X121856667Y-70130295D01*
X121856667Y-70130295D02*
X121904286Y-70035057D01*
X121904286Y-70035057D02*
X121951905Y-69987438D01*
X121951905Y-69987438D02*
X122047143Y-69939819D01*
X122047143Y-69939819D02*
X122285238Y-69939819D01*
X122285238Y-69939819D02*
X122428095Y-69987438D01*
X122761429Y-69939819D02*
X122999524Y-70939819D01*
X122999524Y-70939819D02*
X123190000Y-70225533D01*
X123190000Y-70225533D02*
X123380476Y-70939819D01*
X123380476Y-70939819D02*
X123618572Y-69939819D01*
X123904286Y-69939819D02*
X124523333Y-69939819D01*
X124523333Y-69939819D02*
X124190000Y-70320771D01*
X124190000Y-70320771D02*
X124332857Y-70320771D01*
X124332857Y-70320771D02*
X124428095Y-70368390D01*
X124428095Y-70368390D02*
X124475714Y-70416009D01*
X124475714Y-70416009D02*
X124523333Y-70511247D01*
X124523333Y-70511247D02*
X124523333Y-70749342D01*
X124523333Y-70749342D02*
X124475714Y-70844580D01*
X124475714Y-70844580D02*
X124428095Y-70892200D01*
X124428095Y-70892200D02*
X124332857Y-70939819D01*
X124332857Y-70939819D02*
X124047143Y-70939819D01*
X124047143Y-70939819D02*
X123951905Y-70892200D01*
X123951905Y-70892200D02*
X123904286Y-70844580D01*
X150385714Y-61869104D02*
X150861904Y-61869104D01*
X150290476Y-62154819D02*
X150623809Y-61154819D01*
X150623809Y-61154819D02*
X150957142Y-62154819D01*
X151814285Y-62154819D02*
X151242857Y-62154819D01*
X151528571Y-62154819D02*
X151528571Y-61154819D01*
X151528571Y-61154819D02*
X151433333Y-61297676D01*
X151433333Y-61297676D02*
X151338095Y-61392914D01*
X151338095Y-61392914D02*
X151242857Y-61440533D01*
X159480476Y-108992200D02*
X159623333Y-109039819D01*
X159623333Y-109039819D02*
X159861428Y-109039819D01*
X159861428Y-109039819D02*
X159956666Y-108992200D01*
X159956666Y-108992200D02*
X160004285Y-108944580D01*
X160004285Y-108944580D02*
X160051904Y-108849342D01*
X160051904Y-108849342D02*
X160051904Y-108754104D01*
X160051904Y-108754104D02*
X160004285Y-108658866D01*
X160004285Y-108658866D02*
X159956666Y-108611247D01*
X159956666Y-108611247D02*
X159861428Y-108563628D01*
X159861428Y-108563628D02*
X159670952Y-108516009D01*
X159670952Y-108516009D02*
X159575714Y-108468390D01*
X159575714Y-108468390D02*
X159528095Y-108420771D01*
X159528095Y-108420771D02*
X159480476Y-108325533D01*
X159480476Y-108325533D02*
X159480476Y-108230295D01*
X159480476Y-108230295D02*
X159528095Y-108135057D01*
X159528095Y-108135057D02*
X159575714Y-108087438D01*
X159575714Y-108087438D02*
X159670952Y-108039819D01*
X159670952Y-108039819D02*
X159909047Y-108039819D01*
X159909047Y-108039819D02*
X160051904Y-108087438D01*
X160385238Y-108039819D02*
X160623333Y-109039819D01*
X160623333Y-109039819D02*
X160813809Y-108325533D01*
X160813809Y-108325533D02*
X161004285Y-109039819D01*
X161004285Y-109039819D02*
X161242381Y-108039819D01*
X162147142Y-109039819D02*
X161575714Y-109039819D01*
X161861428Y-109039819D02*
X161861428Y-108039819D01*
X161861428Y-108039819D02*
X161766190Y-108182676D01*
X161766190Y-108182676D02*
X161670952Y-108277914D01*
X161670952Y-108277914D02*
X161575714Y-108325533D01*
X163051904Y-108039819D02*
X162575714Y-108039819D01*
X162575714Y-108039819D02*
X162528095Y-108516009D01*
X162528095Y-108516009D02*
X162575714Y-108468390D01*
X162575714Y-108468390D02*
X162670952Y-108420771D01*
X162670952Y-108420771D02*
X162909047Y-108420771D01*
X162909047Y-108420771D02*
X163004285Y-108468390D01*
X163004285Y-108468390D02*
X163051904Y-108516009D01*
X163051904Y-108516009D02*
X163099523Y-108611247D01*
X163099523Y-108611247D02*
X163099523Y-108849342D01*
X163099523Y-108849342D02*
X163051904Y-108944580D01*
X163051904Y-108944580D02*
X163004285Y-108992200D01*
X163004285Y-108992200D02*
X162909047Y-109039819D01*
X162909047Y-109039819D02*
X162670952Y-109039819D01*
X162670952Y-109039819D02*
X162575714Y-108992200D01*
X162575714Y-108992200D02*
X162528095Y-108944580D01*
X171640666Y-60906819D02*
X171307333Y-60430628D01*
X171069238Y-60906819D02*
X171069238Y-59906819D01*
X171069238Y-59906819D02*
X171450190Y-59906819D01*
X171450190Y-59906819D02*
X171545428Y-59954438D01*
X171545428Y-59954438D02*
X171593047Y-60002057D01*
X171593047Y-60002057D02*
X171640666Y-60097295D01*
X171640666Y-60097295D02*
X171640666Y-60240152D01*
X171640666Y-60240152D02*
X171593047Y-60335390D01*
X171593047Y-60335390D02*
X171545428Y-60383009D01*
X171545428Y-60383009D02*
X171450190Y-60430628D01*
X171450190Y-60430628D02*
X171069238Y-60430628D01*
X172069238Y-60383009D02*
X172402571Y-60383009D01*
X172545428Y-60906819D02*
X172069238Y-60906819D01*
X172069238Y-60906819D02*
X172069238Y-59906819D01*
X172069238Y-59906819D02*
X172545428Y-59906819D01*
X173307333Y-60383009D02*
X172974000Y-60383009D01*
X172974000Y-60906819D02*
X172974000Y-59906819D01*
X172974000Y-59906819D02*
X173450190Y-59906819D01*
X173974000Y-59906819D02*
X173974000Y-60144914D01*
X173735905Y-60049676D02*
X173974000Y-60144914D01*
X173974000Y-60144914D02*
X174212095Y-60049676D01*
X173831143Y-60335390D02*
X173974000Y-60144914D01*
X173974000Y-60144914D02*
X174116857Y-60335390D01*
X174735905Y-59906819D02*
X174735905Y-60144914D01*
X174497810Y-60049676D02*
X174735905Y-60144914D01*
X174735905Y-60144914D02*
X174974000Y-60049676D01*
X174593048Y-60335390D02*
X174735905Y-60144914D01*
X174735905Y-60144914D02*
X174878762Y-60335390D01*
X100385714Y-143964819D02*
X100385714Y-142964819D01*
X100385714Y-142964819D02*
X100623809Y-142964819D01*
X100623809Y-142964819D02*
X100766666Y-143012438D01*
X100766666Y-143012438D02*
X100861904Y-143107676D01*
X100861904Y-143107676D02*
X100909523Y-143202914D01*
X100909523Y-143202914D02*
X100957142Y-143393390D01*
X100957142Y-143393390D02*
X100957142Y-143536247D01*
X100957142Y-143536247D02*
X100909523Y-143726723D01*
X100909523Y-143726723D02*
X100861904Y-143821961D01*
X100861904Y-143821961D02*
X100766666Y-143917200D01*
X100766666Y-143917200D02*
X100623809Y-143964819D01*
X100623809Y-143964819D02*
X100385714Y-143964819D01*
X101909523Y-143964819D02*
X101338095Y-143964819D01*
X101623809Y-143964819D02*
X101623809Y-142964819D01*
X101623809Y-142964819D02*
X101528571Y-143107676D01*
X101528571Y-143107676D02*
X101433333Y-143202914D01*
X101433333Y-143202914D02*
X101338095Y-143250533D01*
X102242857Y-142964819D02*
X102909523Y-142964819D01*
X102909523Y-142964819D02*
X102480952Y-143964819D01*
X103878095Y-142164819D02*
X103878095Y-141164819D01*
X104449523Y-142164819D02*
X104020952Y-141593390D01*
X104449523Y-141164819D02*
X103878095Y-141736247D01*
X157535714Y-105864819D02*
X157535714Y-104864819D01*
X157535714Y-104864819D02*
X157773809Y-104864819D01*
X157773809Y-104864819D02*
X157916666Y-104912438D01*
X157916666Y-104912438D02*
X158011904Y-105007676D01*
X158011904Y-105007676D02*
X158059523Y-105102914D01*
X158059523Y-105102914D02*
X158107142Y-105293390D01*
X158107142Y-105293390D02*
X158107142Y-105436247D01*
X158107142Y-105436247D02*
X158059523Y-105626723D01*
X158059523Y-105626723D02*
X158011904Y-105721961D01*
X158011904Y-105721961D02*
X157916666Y-105817200D01*
X157916666Y-105817200D02*
X157773809Y-105864819D01*
X157773809Y-105864819D02*
X157535714Y-105864819D01*
X159059523Y-105864819D02*
X158488095Y-105864819D01*
X158773809Y-105864819D02*
X158773809Y-104864819D01*
X158773809Y-104864819D02*
X158678571Y-105007676D01*
X158678571Y-105007676D02*
X158583333Y-105102914D01*
X158583333Y-105102914D02*
X158488095Y-105150533D01*
X159678571Y-104864819D02*
X159773809Y-104864819D01*
X159773809Y-104864819D02*
X159869047Y-104912438D01*
X159869047Y-104912438D02*
X159916666Y-104960057D01*
X159916666Y-104960057D02*
X159964285Y-105055295D01*
X159964285Y-105055295D02*
X160011904Y-105245771D01*
X160011904Y-105245771D02*
X160011904Y-105483866D01*
X160011904Y-105483866D02*
X159964285Y-105674342D01*
X159964285Y-105674342D02*
X159916666Y-105769580D01*
X159916666Y-105769580D02*
X159869047Y-105817200D01*
X159869047Y-105817200D02*
X159773809Y-105864819D01*
X159773809Y-105864819D02*
X159678571Y-105864819D01*
X159678571Y-105864819D02*
X159583333Y-105817200D01*
X159583333Y-105817200D02*
X159535714Y-105769580D01*
X159535714Y-105769580D02*
X159488095Y-105674342D01*
X159488095Y-105674342D02*
X159440476Y-105483866D01*
X159440476Y-105483866D02*
X159440476Y-105245771D01*
X159440476Y-105245771D02*
X159488095Y-105055295D01*
X159488095Y-105055295D02*
X159535714Y-104960057D01*
X159535714Y-104960057D02*
X159583333Y-104912438D01*
X159583333Y-104912438D02*
X159678571Y-104864819D01*
X161028095Y-104064819D02*
X161028095Y-103064819D01*
X161599523Y-104064819D02*
X161170952Y-103493390D01*
X161599523Y-103064819D02*
X161028095Y-103636247D01*
X106334819Y-55066666D02*
X105858628Y-55399999D01*
X106334819Y-55638094D02*
X105334819Y-55638094D01*
X105334819Y-55638094D02*
X105334819Y-55257142D01*
X105334819Y-55257142D02*
X105382438Y-55161904D01*
X105382438Y-55161904D02*
X105430057Y-55114285D01*
X105430057Y-55114285D02*
X105525295Y-55066666D01*
X105525295Y-55066666D02*
X105668152Y-55066666D01*
X105668152Y-55066666D02*
X105763390Y-55114285D01*
X105763390Y-55114285D02*
X105811009Y-55161904D01*
X105811009Y-55161904D02*
X105858628Y-55257142D01*
X105858628Y-55257142D02*
X105858628Y-55638094D01*
X106334819Y-54114285D02*
X106334819Y-54685713D01*
X106334819Y-54399999D02*
X105334819Y-54399999D01*
X105334819Y-54399999D02*
X105477676Y-54495237D01*
X105477676Y-54495237D02*
X105572914Y-54590475D01*
X105572914Y-54590475D02*
X105620533Y-54685713D01*
X121380476Y-128042200D02*
X121523333Y-128089819D01*
X121523333Y-128089819D02*
X121761428Y-128089819D01*
X121761428Y-128089819D02*
X121856666Y-128042200D01*
X121856666Y-128042200D02*
X121904285Y-127994580D01*
X121904285Y-127994580D02*
X121951904Y-127899342D01*
X121951904Y-127899342D02*
X121951904Y-127804104D01*
X121951904Y-127804104D02*
X121904285Y-127708866D01*
X121904285Y-127708866D02*
X121856666Y-127661247D01*
X121856666Y-127661247D02*
X121761428Y-127613628D01*
X121761428Y-127613628D02*
X121570952Y-127566009D01*
X121570952Y-127566009D02*
X121475714Y-127518390D01*
X121475714Y-127518390D02*
X121428095Y-127470771D01*
X121428095Y-127470771D02*
X121380476Y-127375533D01*
X121380476Y-127375533D02*
X121380476Y-127280295D01*
X121380476Y-127280295D02*
X121428095Y-127185057D01*
X121428095Y-127185057D02*
X121475714Y-127137438D01*
X121475714Y-127137438D02*
X121570952Y-127089819D01*
X121570952Y-127089819D02*
X121809047Y-127089819D01*
X121809047Y-127089819D02*
X121951904Y-127137438D01*
X122285238Y-127089819D02*
X122523333Y-128089819D01*
X122523333Y-128089819D02*
X122713809Y-127375533D01*
X122713809Y-127375533D02*
X122904285Y-128089819D01*
X122904285Y-128089819D02*
X123142381Y-127089819D01*
X124047142Y-128089819D02*
X123475714Y-128089819D01*
X123761428Y-128089819D02*
X123761428Y-127089819D01*
X123761428Y-127089819D02*
X123666190Y-127232676D01*
X123666190Y-127232676D02*
X123570952Y-127327914D01*
X123570952Y-127327914D02*
X123475714Y-127375533D01*
X124618571Y-127518390D02*
X124523333Y-127470771D01*
X124523333Y-127470771D02*
X124475714Y-127423152D01*
X124475714Y-127423152D02*
X124428095Y-127327914D01*
X124428095Y-127327914D02*
X124428095Y-127280295D01*
X124428095Y-127280295D02*
X124475714Y-127185057D01*
X124475714Y-127185057D02*
X124523333Y-127137438D01*
X124523333Y-127137438D02*
X124618571Y-127089819D01*
X124618571Y-127089819D02*
X124809047Y-127089819D01*
X124809047Y-127089819D02*
X124904285Y-127137438D01*
X124904285Y-127137438D02*
X124951904Y-127185057D01*
X124951904Y-127185057D02*
X124999523Y-127280295D01*
X124999523Y-127280295D02*
X124999523Y-127327914D01*
X124999523Y-127327914D02*
X124951904Y-127423152D01*
X124951904Y-127423152D02*
X124904285Y-127470771D01*
X124904285Y-127470771D02*
X124809047Y-127518390D01*
X124809047Y-127518390D02*
X124618571Y-127518390D01*
X124618571Y-127518390D02*
X124523333Y-127566009D01*
X124523333Y-127566009D02*
X124475714Y-127613628D01*
X124475714Y-127613628D02*
X124428095Y-127708866D01*
X124428095Y-127708866D02*
X124428095Y-127899342D01*
X124428095Y-127899342D02*
X124475714Y-127994580D01*
X124475714Y-127994580D02*
X124523333Y-128042200D01*
X124523333Y-128042200D02*
X124618571Y-128089819D01*
X124618571Y-128089819D02*
X124809047Y-128089819D01*
X124809047Y-128089819D02*
X124904285Y-128042200D01*
X124904285Y-128042200D02*
X124951904Y-127994580D01*
X124951904Y-127994580D02*
X124999523Y-127899342D01*
X124999523Y-127899342D02*
X124999523Y-127708866D01*
X124999523Y-127708866D02*
X124951904Y-127613628D01*
X124951904Y-127613628D02*
X124904285Y-127566009D01*
X124904285Y-127566009D02*
X124809047Y-127518390D01*
X81335714Y-124914819D02*
X81335714Y-123914819D01*
X81335714Y-123914819D02*
X81573809Y-123914819D01*
X81573809Y-123914819D02*
X81716666Y-123962438D01*
X81716666Y-123962438D02*
X81811904Y-124057676D01*
X81811904Y-124057676D02*
X81859523Y-124152914D01*
X81859523Y-124152914D02*
X81907142Y-124343390D01*
X81907142Y-124343390D02*
X81907142Y-124486247D01*
X81907142Y-124486247D02*
X81859523Y-124676723D01*
X81859523Y-124676723D02*
X81811904Y-124771961D01*
X81811904Y-124771961D02*
X81716666Y-124867200D01*
X81716666Y-124867200D02*
X81573809Y-124914819D01*
X81573809Y-124914819D02*
X81335714Y-124914819D01*
X82859523Y-124914819D02*
X82288095Y-124914819D01*
X82573809Y-124914819D02*
X82573809Y-123914819D01*
X82573809Y-123914819D02*
X82478571Y-124057676D01*
X82478571Y-124057676D02*
X82383333Y-124152914D01*
X82383333Y-124152914D02*
X82288095Y-124200533D01*
X83811904Y-124914819D02*
X83240476Y-124914819D01*
X83526190Y-124914819D02*
X83526190Y-123914819D01*
X83526190Y-123914819D02*
X83430952Y-124057676D01*
X83430952Y-124057676D02*
X83335714Y-124152914D01*
X83335714Y-124152914D02*
X83240476Y-124200533D01*
X84828095Y-123114819D02*
X84828095Y-122114819D01*
X85399523Y-123114819D02*
X84970952Y-122543390D01*
X85399523Y-122114819D02*
X84828095Y-122686247D01*
X119911905Y-105864819D02*
X119911905Y-104864819D01*
X119911905Y-104864819D02*
X120150000Y-104864819D01*
X120150000Y-104864819D02*
X120292857Y-104912438D01*
X120292857Y-104912438D02*
X120388095Y-105007676D01*
X120388095Y-105007676D02*
X120435714Y-105102914D01*
X120435714Y-105102914D02*
X120483333Y-105293390D01*
X120483333Y-105293390D02*
X120483333Y-105436247D01*
X120483333Y-105436247D02*
X120435714Y-105626723D01*
X120435714Y-105626723D02*
X120388095Y-105721961D01*
X120388095Y-105721961D02*
X120292857Y-105817200D01*
X120292857Y-105817200D02*
X120150000Y-105864819D01*
X120150000Y-105864819D02*
X119911905Y-105864819D01*
X121054762Y-105293390D02*
X120959524Y-105245771D01*
X120959524Y-105245771D02*
X120911905Y-105198152D01*
X120911905Y-105198152D02*
X120864286Y-105102914D01*
X120864286Y-105102914D02*
X120864286Y-105055295D01*
X120864286Y-105055295D02*
X120911905Y-104960057D01*
X120911905Y-104960057D02*
X120959524Y-104912438D01*
X120959524Y-104912438D02*
X121054762Y-104864819D01*
X121054762Y-104864819D02*
X121245238Y-104864819D01*
X121245238Y-104864819D02*
X121340476Y-104912438D01*
X121340476Y-104912438D02*
X121388095Y-104960057D01*
X121388095Y-104960057D02*
X121435714Y-105055295D01*
X121435714Y-105055295D02*
X121435714Y-105102914D01*
X121435714Y-105102914D02*
X121388095Y-105198152D01*
X121388095Y-105198152D02*
X121340476Y-105245771D01*
X121340476Y-105245771D02*
X121245238Y-105293390D01*
X121245238Y-105293390D02*
X121054762Y-105293390D01*
X121054762Y-105293390D02*
X120959524Y-105341009D01*
X120959524Y-105341009D02*
X120911905Y-105388628D01*
X120911905Y-105388628D02*
X120864286Y-105483866D01*
X120864286Y-105483866D02*
X120864286Y-105674342D01*
X120864286Y-105674342D02*
X120911905Y-105769580D01*
X120911905Y-105769580D02*
X120959524Y-105817200D01*
X120959524Y-105817200D02*
X121054762Y-105864819D01*
X121054762Y-105864819D02*
X121245238Y-105864819D01*
X121245238Y-105864819D02*
X121340476Y-105817200D01*
X121340476Y-105817200D02*
X121388095Y-105769580D01*
X121388095Y-105769580D02*
X121435714Y-105674342D01*
X121435714Y-105674342D02*
X121435714Y-105483866D01*
X121435714Y-105483866D02*
X121388095Y-105388628D01*
X121388095Y-105388628D02*
X121340476Y-105341009D01*
X121340476Y-105341009D02*
X121245238Y-105293390D01*
X122928095Y-104064819D02*
X122928095Y-103064819D01*
X123499523Y-104064819D02*
X123070952Y-103493390D01*
X123499523Y-103064819D02*
X122928095Y-103636247D01*
X150385714Y-56789104D02*
X150861904Y-56789104D01*
X150290476Y-57074819D02*
X150623809Y-56074819D01*
X150623809Y-56074819D02*
X150957142Y-57074819D01*
X151480952Y-56074819D02*
X151576190Y-56074819D01*
X151576190Y-56074819D02*
X151671428Y-56122438D01*
X151671428Y-56122438D02*
X151719047Y-56170057D01*
X151719047Y-56170057D02*
X151766666Y-56265295D01*
X151766666Y-56265295D02*
X151814285Y-56455771D01*
X151814285Y-56455771D02*
X151814285Y-56693866D01*
X151814285Y-56693866D02*
X151766666Y-56884342D01*
X151766666Y-56884342D02*
X151719047Y-56979580D01*
X151719047Y-56979580D02*
X151671428Y-57027200D01*
X151671428Y-57027200D02*
X151576190Y-57074819D01*
X151576190Y-57074819D02*
X151480952Y-57074819D01*
X151480952Y-57074819D02*
X151385714Y-57027200D01*
X151385714Y-57027200D02*
X151338095Y-56979580D01*
X151338095Y-56979580D02*
X151290476Y-56884342D01*
X151290476Y-56884342D02*
X151242857Y-56693866D01*
X151242857Y-56693866D02*
X151242857Y-56455771D01*
X151242857Y-56455771D02*
X151290476Y-56265295D01*
X151290476Y-56265295D02*
X151338095Y-56170057D01*
X151338095Y-56170057D02*
X151385714Y-56122438D01*
X151385714Y-56122438D02*
X151480952Y-56074819D01*
X97329580Y-72166666D02*
X97377200Y-72214285D01*
X97377200Y-72214285D02*
X97424819Y-72357142D01*
X97424819Y-72357142D02*
X97424819Y-72452380D01*
X97424819Y-72452380D02*
X97377200Y-72595237D01*
X97377200Y-72595237D02*
X97281961Y-72690475D01*
X97281961Y-72690475D02*
X97186723Y-72738094D01*
X97186723Y-72738094D02*
X96996247Y-72785713D01*
X96996247Y-72785713D02*
X96853390Y-72785713D01*
X96853390Y-72785713D02*
X96662914Y-72738094D01*
X96662914Y-72738094D02*
X96567676Y-72690475D01*
X96567676Y-72690475D02*
X96472438Y-72595237D01*
X96472438Y-72595237D02*
X96424819Y-72452380D01*
X96424819Y-72452380D02*
X96424819Y-72357142D01*
X96424819Y-72357142D02*
X96472438Y-72214285D01*
X96472438Y-72214285D02*
X96520057Y-72166666D01*
X97424819Y-71214285D02*
X97424819Y-71785713D01*
X97424819Y-71499999D02*
X96424819Y-71499999D01*
X96424819Y-71499999D02*
X96567676Y-71595237D01*
X96567676Y-71595237D02*
X96662914Y-71690475D01*
X96662914Y-71690475D02*
X96710533Y-71785713D01*
X119435714Y-124914819D02*
X119435714Y-123914819D01*
X119435714Y-123914819D02*
X119673809Y-123914819D01*
X119673809Y-123914819D02*
X119816666Y-123962438D01*
X119816666Y-123962438D02*
X119911904Y-124057676D01*
X119911904Y-124057676D02*
X119959523Y-124152914D01*
X119959523Y-124152914D02*
X120007142Y-124343390D01*
X120007142Y-124343390D02*
X120007142Y-124486247D01*
X120007142Y-124486247D02*
X119959523Y-124676723D01*
X119959523Y-124676723D02*
X119911904Y-124771961D01*
X119911904Y-124771961D02*
X119816666Y-124867200D01*
X119816666Y-124867200D02*
X119673809Y-124914819D01*
X119673809Y-124914819D02*
X119435714Y-124914819D01*
X120959523Y-124914819D02*
X120388095Y-124914819D01*
X120673809Y-124914819D02*
X120673809Y-123914819D01*
X120673809Y-123914819D02*
X120578571Y-124057676D01*
X120578571Y-124057676D02*
X120483333Y-124152914D01*
X120483333Y-124152914D02*
X120388095Y-124200533D01*
X121292857Y-123914819D02*
X121911904Y-123914819D01*
X121911904Y-123914819D02*
X121578571Y-124295771D01*
X121578571Y-124295771D02*
X121721428Y-124295771D01*
X121721428Y-124295771D02*
X121816666Y-124343390D01*
X121816666Y-124343390D02*
X121864285Y-124391009D01*
X121864285Y-124391009D02*
X121911904Y-124486247D01*
X121911904Y-124486247D02*
X121911904Y-124724342D01*
X121911904Y-124724342D02*
X121864285Y-124819580D01*
X121864285Y-124819580D02*
X121816666Y-124867200D01*
X121816666Y-124867200D02*
X121721428Y-124914819D01*
X121721428Y-124914819D02*
X121435714Y-124914819D01*
X121435714Y-124914819D02*
X121340476Y-124867200D01*
X121340476Y-124867200D02*
X121292857Y-124819580D01*
X122928095Y-123114819D02*
X122928095Y-122114819D01*
X123499523Y-123114819D02*
X123070952Y-122543390D01*
X123499523Y-122114819D02*
X122928095Y-122686247D01*
X119911905Y-86814819D02*
X119911905Y-85814819D01*
X119911905Y-85814819D02*
X120150000Y-85814819D01*
X120150000Y-85814819D02*
X120292857Y-85862438D01*
X120292857Y-85862438D02*
X120388095Y-85957676D01*
X120388095Y-85957676D02*
X120435714Y-86052914D01*
X120435714Y-86052914D02*
X120483333Y-86243390D01*
X120483333Y-86243390D02*
X120483333Y-86386247D01*
X120483333Y-86386247D02*
X120435714Y-86576723D01*
X120435714Y-86576723D02*
X120388095Y-86671961D01*
X120388095Y-86671961D02*
X120292857Y-86767200D01*
X120292857Y-86767200D02*
X120150000Y-86814819D01*
X120150000Y-86814819D02*
X119911905Y-86814819D01*
X120816667Y-85814819D02*
X121435714Y-85814819D01*
X121435714Y-85814819D02*
X121102381Y-86195771D01*
X121102381Y-86195771D02*
X121245238Y-86195771D01*
X121245238Y-86195771D02*
X121340476Y-86243390D01*
X121340476Y-86243390D02*
X121388095Y-86291009D01*
X121388095Y-86291009D02*
X121435714Y-86386247D01*
X121435714Y-86386247D02*
X121435714Y-86624342D01*
X121435714Y-86624342D02*
X121388095Y-86719580D01*
X121388095Y-86719580D02*
X121340476Y-86767200D01*
X121340476Y-86767200D02*
X121245238Y-86814819D01*
X121245238Y-86814819D02*
X120959524Y-86814819D01*
X120959524Y-86814819D02*
X120864286Y-86767200D01*
X120864286Y-86767200D02*
X120816667Y-86719580D01*
X122928095Y-85014819D02*
X122928095Y-84014819D01*
X123499523Y-85014819D02*
X123070952Y-84443390D01*
X123499523Y-84014819D02*
X122928095Y-84586247D01*
X140906667Y-70892200D02*
X141049524Y-70939819D01*
X141049524Y-70939819D02*
X141287619Y-70939819D01*
X141287619Y-70939819D02*
X141382857Y-70892200D01*
X141382857Y-70892200D02*
X141430476Y-70844580D01*
X141430476Y-70844580D02*
X141478095Y-70749342D01*
X141478095Y-70749342D02*
X141478095Y-70654104D01*
X141478095Y-70654104D02*
X141430476Y-70558866D01*
X141430476Y-70558866D02*
X141382857Y-70511247D01*
X141382857Y-70511247D02*
X141287619Y-70463628D01*
X141287619Y-70463628D02*
X141097143Y-70416009D01*
X141097143Y-70416009D02*
X141001905Y-70368390D01*
X141001905Y-70368390D02*
X140954286Y-70320771D01*
X140954286Y-70320771D02*
X140906667Y-70225533D01*
X140906667Y-70225533D02*
X140906667Y-70130295D01*
X140906667Y-70130295D02*
X140954286Y-70035057D01*
X140954286Y-70035057D02*
X141001905Y-69987438D01*
X141001905Y-69987438D02*
X141097143Y-69939819D01*
X141097143Y-69939819D02*
X141335238Y-69939819D01*
X141335238Y-69939819D02*
X141478095Y-69987438D01*
X141811429Y-69939819D02*
X142049524Y-70939819D01*
X142049524Y-70939819D02*
X142240000Y-70225533D01*
X142240000Y-70225533D02*
X142430476Y-70939819D01*
X142430476Y-70939819D02*
X142668572Y-69939819D01*
X143478095Y-70273152D02*
X143478095Y-70939819D01*
X143240000Y-69892200D02*
X143001905Y-70606485D01*
X143001905Y-70606485D02*
X143620952Y-70606485D01*
X119435714Y-143964819D02*
X119435714Y-142964819D01*
X119435714Y-142964819D02*
X119673809Y-142964819D01*
X119673809Y-142964819D02*
X119816666Y-143012438D01*
X119816666Y-143012438D02*
X119911904Y-143107676D01*
X119911904Y-143107676D02*
X119959523Y-143202914D01*
X119959523Y-143202914D02*
X120007142Y-143393390D01*
X120007142Y-143393390D02*
X120007142Y-143536247D01*
X120007142Y-143536247D02*
X119959523Y-143726723D01*
X119959523Y-143726723D02*
X119911904Y-143821961D01*
X119911904Y-143821961D02*
X119816666Y-143917200D01*
X119816666Y-143917200D02*
X119673809Y-143964819D01*
X119673809Y-143964819D02*
X119435714Y-143964819D01*
X120959523Y-143964819D02*
X120388095Y-143964819D01*
X120673809Y-143964819D02*
X120673809Y-142964819D01*
X120673809Y-142964819D02*
X120578571Y-143107676D01*
X120578571Y-143107676D02*
X120483333Y-143202914D01*
X120483333Y-143202914D02*
X120388095Y-143250533D01*
X121530952Y-143393390D02*
X121435714Y-143345771D01*
X121435714Y-143345771D02*
X121388095Y-143298152D01*
X121388095Y-143298152D02*
X121340476Y-143202914D01*
X121340476Y-143202914D02*
X121340476Y-143155295D01*
X121340476Y-143155295D02*
X121388095Y-143060057D01*
X121388095Y-143060057D02*
X121435714Y-143012438D01*
X121435714Y-143012438D02*
X121530952Y-142964819D01*
X121530952Y-142964819D02*
X121721428Y-142964819D01*
X121721428Y-142964819D02*
X121816666Y-143012438D01*
X121816666Y-143012438D02*
X121864285Y-143060057D01*
X121864285Y-143060057D02*
X121911904Y-143155295D01*
X121911904Y-143155295D02*
X121911904Y-143202914D01*
X121911904Y-143202914D02*
X121864285Y-143298152D01*
X121864285Y-143298152D02*
X121816666Y-143345771D01*
X121816666Y-143345771D02*
X121721428Y-143393390D01*
X121721428Y-143393390D02*
X121530952Y-143393390D01*
X121530952Y-143393390D02*
X121435714Y-143441009D01*
X121435714Y-143441009D02*
X121388095Y-143488628D01*
X121388095Y-143488628D02*
X121340476Y-143583866D01*
X121340476Y-143583866D02*
X121340476Y-143774342D01*
X121340476Y-143774342D02*
X121388095Y-143869580D01*
X121388095Y-143869580D02*
X121435714Y-143917200D01*
X121435714Y-143917200D02*
X121530952Y-143964819D01*
X121530952Y-143964819D02*
X121721428Y-143964819D01*
X121721428Y-143964819D02*
X121816666Y-143917200D01*
X121816666Y-143917200D02*
X121864285Y-143869580D01*
X121864285Y-143869580D02*
X121911904Y-143774342D01*
X121911904Y-143774342D02*
X121911904Y-143583866D01*
X121911904Y-143583866D02*
X121864285Y-143488628D01*
X121864285Y-143488628D02*
X121816666Y-143441009D01*
X121816666Y-143441009D02*
X121721428Y-143393390D01*
X122928095Y-142164819D02*
X122928095Y-141164819D01*
X123499523Y-142164819D02*
X123070952Y-141593390D01*
X123499523Y-141164819D02*
X122928095Y-141736247D01*
X83280476Y-128042200D02*
X83423333Y-128089819D01*
X83423333Y-128089819D02*
X83661428Y-128089819D01*
X83661428Y-128089819D02*
X83756666Y-128042200D01*
X83756666Y-128042200D02*
X83804285Y-127994580D01*
X83804285Y-127994580D02*
X83851904Y-127899342D01*
X83851904Y-127899342D02*
X83851904Y-127804104D01*
X83851904Y-127804104D02*
X83804285Y-127708866D01*
X83804285Y-127708866D02*
X83756666Y-127661247D01*
X83756666Y-127661247D02*
X83661428Y-127613628D01*
X83661428Y-127613628D02*
X83470952Y-127566009D01*
X83470952Y-127566009D02*
X83375714Y-127518390D01*
X83375714Y-127518390D02*
X83328095Y-127470771D01*
X83328095Y-127470771D02*
X83280476Y-127375533D01*
X83280476Y-127375533D02*
X83280476Y-127280295D01*
X83280476Y-127280295D02*
X83328095Y-127185057D01*
X83328095Y-127185057D02*
X83375714Y-127137438D01*
X83375714Y-127137438D02*
X83470952Y-127089819D01*
X83470952Y-127089819D02*
X83709047Y-127089819D01*
X83709047Y-127089819D02*
X83851904Y-127137438D01*
X84185238Y-127089819D02*
X84423333Y-128089819D01*
X84423333Y-128089819D02*
X84613809Y-127375533D01*
X84613809Y-127375533D02*
X84804285Y-128089819D01*
X84804285Y-128089819D02*
X85042381Y-127089819D01*
X85947142Y-128089819D02*
X85375714Y-128089819D01*
X85661428Y-128089819D02*
X85661428Y-127089819D01*
X85661428Y-127089819D02*
X85566190Y-127232676D01*
X85566190Y-127232676D02*
X85470952Y-127327914D01*
X85470952Y-127327914D02*
X85375714Y-127375533D01*
X86804285Y-127089819D02*
X86613809Y-127089819D01*
X86613809Y-127089819D02*
X86518571Y-127137438D01*
X86518571Y-127137438D02*
X86470952Y-127185057D01*
X86470952Y-127185057D02*
X86375714Y-127327914D01*
X86375714Y-127327914D02*
X86328095Y-127518390D01*
X86328095Y-127518390D02*
X86328095Y-127899342D01*
X86328095Y-127899342D02*
X86375714Y-127994580D01*
X86375714Y-127994580D02*
X86423333Y-128042200D01*
X86423333Y-128042200D02*
X86518571Y-128089819D01*
X86518571Y-128089819D02*
X86709047Y-128089819D01*
X86709047Y-128089819D02*
X86804285Y-128042200D01*
X86804285Y-128042200D02*
X86851904Y-127994580D01*
X86851904Y-127994580D02*
X86899523Y-127899342D01*
X86899523Y-127899342D02*
X86899523Y-127661247D01*
X86899523Y-127661247D02*
X86851904Y-127566009D01*
X86851904Y-127566009D02*
X86804285Y-127518390D01*
X86804285Y-127518390D02*
X86709047Y-127470771D01*
X86709047Y-127470771D02*
X86518571Y-127470771D01*
X86518571Y-127470771D02*
X86423333Y-127518390D01*
X86423333Y-127518390D02*
X86375714Y-127566009D01*
X86375714Y-127566009D02*
X86328095Y-127661247D01*
X159956667Y-70892200D02*
X160099524Y-70939819D01*
X160099524Y-70939819D02*
X160337619Y-70939819D01*
X160337619Y-70939819D02*
X160432857Y-70892200D01*
X160432857Y-70892200D02*
X160480476Y-70844580D01*
X160480476Y-70844580D02*
X160528095Y-70749342D01*
X160528095Y-70749342D02*
X160528095Y-70654104D01*
X160528095Y-70654104D02*
X160480476Y-70558866D01*
X160480476Y-70558866D02*
X160432857Y-70511247D01*
X160432857Y-70511247D02*
X160337619Y-70463628D01*
X160337619Y-70463628D02*
X160147143Y-70416009D01*
X160147143Y-70416009D02*
X160051905Y-70368390D01*
X160051905Y-70368390D02*
X160004286Y-70320771D01*
X160004286Y-70320771D02*
X159956667Y-70225533D01*
X159956667Y-70225533D02*
X159956667Y-70130295D01*
X159956667Y-70130295D02*
X160004286Y-70035057D01*
X160004286Y-70035057D02*
X160051905Y-69987438D01*
X160051905Y-69987438D02*
X160147143Y-69939819D01*
X160147143Y-69939819D02*
X160385238Y-69939819D01*
X160385238Y-69939819D02*
X160528095Y-69987438D01*
X160861429Y-69939819D02*
X161099524Y-70939819D01*
X161099524Y-70939819D02*
X161290000Y-70225533D01*
X161290000Y-70225533D02*
X161480476Y-70939819D01*
X161480476Y-70939819D02*
X161718572Y-69939819D01*
X162575714Y-69939819D02*
X162099524Y-69939819D01*
X162099524Y-69939819D02*
X162051905Y-70416009D01*
X162051905Y-70416009D02*
X162099524Y-70368390D01*
X162099524Y-70368390D02*
X162194762Y-70320771D01*
X162194762Y-70320771D02*
X162432857Y-70320771D01*
X162432857Y-70320771D02*
X162528095Y-70368390D01*
X162528095Y-70368390D02*
X162575714Y-70416009D01*
X162575714Y-70416009D02*
X162623333Y-70511247D01*
X162623333Y-70511247D02*
X162623333Y-70749342D01*
X162623333Y-70749342D02*
X162575714Y-70844580D01*
X162575714Y-70844580D02*
X162528095Y-70892200D01*
X162528095Y-70892200D02*
X162432857Y-70939819D01*
X162432857Y-70939819D02*
X162194762Y-70939819D01*
X162194762Y-70939819D02*
X162099524Y-70892200D01*
X162099524Y-70892200D02*
X162051905Y-70844580D01*
X83756667Y-89942200D02*
X83899524Y-89989819D01*
X83899524Y-89989819D02*
X84137619Y-89989819D01*
X84137619Y-89989819D02*
X84232857Y-89942200D01*
X84232857Y-89942200D02*
X84280476Y-89894580D01*
X84280476Y-89894580D02*
X84328095Y-89799342D01*
X84328095Y-89799342D02*
X84328095Y-89704104D01*
X84328095Y-89704104D02*
X84280476Y-89608866D01*
X84280476Y-89608866D02*
X84232857Y-89561247D01*
X84232857Y-89561247D02*
X84137619Y-89513628D01*
X84137619Y-89513628D02*
X83947143Y-89466009D01*
X83947143Y-89466009D02*
X83851905Y-89418390D01*
X83851905Y-89418390D02*
X83804286Y-89370771D01*
X83804286Y-89370771D02*
X83756667Y-89275533D01*
X83756667Y-89275533D02*
X83756667Y-89180295D01*
X83756667Y-89180295D02*
X83804286Y-89085057D01*
X83804286Y-89085057D02*
X83851905Y-89037438D01*
X83851905Y-89037438D02*
X83947143Y-88989819D01*
X83947143Y-88989819D02*
X84185238Y-88989819D01*
X84185238Y-88989819D02*
X84328095Y-89037438D01*
X84661429Y-88989819D02*
X84899524Y-89989819D01*
X84899524Y-89989819D02*
X85090000Y-89275533D01*
X85090000Y-89275533D02*
X85280476Y-89989819D01*
X85280476Y-89989819D02*
X85518572Y-88989819D01*
X86328095Y-88989819D02*
X86137619Y-88989819D01*
X86137619Y-88989819D02*
X86042381Y-89037438D01*
X86042381Y-89037438D02*
X85994762Y-89085057D01*
X85994762Y-89085057D02*
X85899524Y-89227914D01*
X85899524Y-89227914D02*
X85851905Y-89418390D01*
X85851905Y-89418390D02*
X85851905Y-89799342D01*
X85851905Y-89799342D02*
X85899524Y-89894580D01*
X85899524Y-89894580D02*
X85947143Y-89942200D01*
X85947143Y-89942200D02*
X86042381Y-89989819D01*
X86042381Y-89989819D02*
X86232857Y-89989819D01*
X86232857Y-89989819D02*
X86328095Y-89942200D01*
X86328095Y-89942200D02*
X86375714Y-89894580D01*
X86375714Y-89894580D02*
X86423333Y-89799342D01*
X86423333Y-89799342D02*
X86423333Y-89561247D01*
X86423333Y-89561247D02*
X86375714Y-89466009D01*
X86375714Y-89466009D02*
X86328095Y-89418390D01*
X86328095Y-89418390D02*
X86232857Y-89370771D01*
X86232857Y-89370771D02*
X86042381Y-89370771D01*
X86042381Y-89370771D02*
X85947143Y-89418390D01*
X85947143Y-89418390D02*
X85899524Y-89466009D01*
X85899524Y-89466009D02*
X85851905Y-89561247D01*
X158011905Y-86814819D02*
X158011905Y-85814819D01*
X158011905Y-85814819D02*
X158250000Y-85814819D01*
X158250000Y-85814819D02*
X158392857Y-85862438D01*
X158392857Y-85862438D02*
X158488095Y-85957676D01*
X158488095Y-85957676D02*
X158535714Y-86052914D01*
X158535714Y-86052914D02*
X158583333Y-86243390D01*
X158583333Y-86243390D02*
X158583333Y-86386247D01*
X158583333Y-86386247D02*
X158535714Y-86576723D01*
X158535714Y-86576723D02*
X158488095Y-86671961D01*
X158488095Y-86671961D02*
X158392857Y-86767200D01*
X158392857Y-86767200D02*
X158250000Y-86814819D01*
X158250000Y-86814819D02*
X158011905Y-86814819D01*
X159488095Y-85814819D02*
X159011905Y-85814819D01*
X159011905Y-85814819D02*
X158964286Y-86291009D01*
X158964286Y-86291009D02*
X159011905Y-86243390D01*
X159011905Y-86243390D02*
X159107143Y-86195771D01*
X159107143Y-86195771D02*
X159345238Y-86195771D01*
X159345238Y-86195771D02*
X159440476Y-86243390D01*
X159440476Y-86243390D02*
X159488095Y-86291009D01*
X159488095Y-86291009D02*
X159535714Y-86386247D01*
X159535714Y-86386247D02*
X159535714Y-86624342D01*
X159535714Y-86624342D02*
X159488095Y-86719580D01*
X159488095Y-86719580D02*
X159440476Y-86767200D01*
X159440476Y-86767200D02*
X159345238Y-86814819D01*
X159345238Y-86814819D02*
X159107143Y-86814819D01*
X159107143Y-86814819D02*
X159011905Y-86767200D01*
X159011905Y-86767200D02*
X158964286Y-86719580D01*
X161028095Y-85014819D02*
X161028095Y-84014819D01*
X161599523Y-85014819D02*
X161170952Y-84443390D01*
X161599523Y-84014819D02*
X161028095Y-84586247D01*
X100385714Y-124914819D02*
X100385714Y-123914819D01*
X100385714Y-123914819D02*
X100623809Y-123914819D01*
X100623809Y-123914819D02*
X100766666Y-123962438D01*
X100766666Y-123962438D02*
X100861904Y-124057676D01*
X100861904Y-124057676D02*
X100909523Y-124152914D01*
X100909523Y-124152914D02*
X100957142Y-124343390D01*
X100957142Y-124343390D02*
X100957142Y-124486247D01*
X100957142Y-124486247D02*
X100909523Y-124676723D01*
X100909523Y-124676723D02*
X100861904Y-124771961D01*
X100861904Y-124771961D02*
X100766666Y-124867200D01*
X100766666Y-124867200D02*
X100623809Y-124914819D01*
X100623809Y-124914819D02*
X100385714Y-124914819D01*
X101909523Y-124914819D02*
X101338095Y-124914819D01*
X101623809Y-124914819D02*
X101623809Y-123914819D01*
X101623809Y-123914819D02*
X101528571Y-124057676D01*
X101528571Y-124057676D02*
X101433333Y-124152914D01*
X101433333Y-124152914D02*
X101338095Y-124200533D01*
X102290476Y-124010057D02*
X102338095Y-123962438D01*
X102338095Y-123962438D02*
X102433333Y-123914819D01*
X102433333Y-123914819D02*
X102671428Y-123914819D01*
X102671428Y-123914819D02*
X102766666Y-123962438D01*
X102766666Y-123962438D02*
X102814285Y-124010057D01*
X102814285Y-124010057D02*
X102861904Y-124105295D01*
X102861904Y-124105295D02*
X102861904Y-124200533D01*
X102861904Y-124200533D02*
X102814285Y-124343390D01*
X102814285Y-124343390D02*
X102242857Y-124914819D01*
X102242857Y-124914819D02*
X102861904Y-124914819D01*
X103878095Y-123114819D02*
X103878095Y-122114819D01*
X104449523Y-123114819D02*
X104020952Y-122543390D01*
X104449523Y-122114819D02*
X103878095Y-122686247D01*
X92424819Y-63626904D02*
X93234342Y-63626904D01*
X93234342Y-63626904D02*
X93329580Y-63579285D01*
X93329580Y-63579285D02*
X93377200Y-63531666D01*
X93377200Y-63531666D02*
X93424819Y-63436428D01*
X93424819Y-63436428D02*
X93424819Y-63245952D01*
X93424819Y-63245952D02*
X93377200Y-63150714D01*
X93377200Y-63150714D02*
X93329580Y-63103095D01*
X93329580Y-63103095D02*
X93234342Y-63055476D01*
X93234342Y-63055476D02*
X92424819Y-63055476D01*
X93424819Y-62055476D02*
X93424819Y-62626904D01*
X93424819Y-62341190D02*
X92424819Y-62341190D01*
X92424819Y-62341190D02*
X92567676Y-62436428D01*
X92567676Y-62436428D02*
X92662914Y-62531666D01*
X92662914Y-62531666D02*
X92710533Y-62626904D01*
X157535714Y-143964819D02*
X157535714Y-142964819D01*
X157535714Y-142964819D02*
X157773809Y-142964819D01*
X157773809Y-142964819D02*
X157916666Y-143012438D01*
X157916666Y-143012438D02*
X158011904Y-143107676D01*
X158011904Y-143107676D02*
X158059523Y-143202914D01*
X158059523Y-143202914D02*
X158107142Y-143393390D01*
X158107142Y-143393390D02*
X158107142Y-143536247D01*
X158107142Y-143536247D02*
X158059523Y-143726723D01*
X158059523Y-143726723D02*
X158011904Y-143821961D01*
X158011904Y-143821961D02*
X157916666Y-143917200D01*
X157916666Y-143917200D02*
X157773809Y-143964819D01*
X157773809Y-143964819D02*
X157535714Y-143964819D01*
X158488095Y-143060057D02*
X158535714Y-143012438D01*
X158535714Y-143012438D02*
X158630952Y-142964819D01*
X158630952Y-142964819D02*
X158869047Y-142964819D01*
X158869047Y-142964819D02*
X158964285Y-143012438D01*
X158964285Y-143012438D02*
X159011904Y-143060057D01*
X159011904Y-143060057D02*
X159059523Y-143155295D01*
X159059523Y-143155295D02*
X159059523Y-143250533D01*
X159059523Y-143250533D02*
X159011904Y-143393390D01*
X159011904Y-143393390D02*
X158440476Y-143964819D01*
X158440476Y-143964819D02*
X159059523Y-143964819D01*
X159678571Y-142964819D02*
X159773809Y-142964819D01*
X159773809Y-142964819D02*
X159869047Y-143012438D01*
X159869047Y-143012438D02*
X159916666Y-143060057D01*
X159916666Y-143060057D02*
X159964285Y-143155295D01*
X159964285Y-143155295D02*
X160011904Y-143345771D01*
X160011904Y-143345771D02*
X160011904Y-143583866D01*
X160011904Y-143583866D02*
X159964285Y-143774342D01*
X159964285Y-143774342D02*
X159916666Y-143869580D01*
X159916666Y-143869580D02*
X159869047Y-143917200D01*
X159869047Y-143917200D02*
X159773809Y-143964819D01*
X159773809Y-143964819D02*
X159678571Y-143964819D01*
X159678571Y-143964819D02*
X159583333Y-143917200D01*
X159583333Y-143917200D02*
X159535714Y-143869580D01*
X159535714Y-143869580D02*
X159488095Y-143774342D01*
X159488095Y-143774342D02*
X159440476Y-143583866D01*
X159440476Y-143583866D02*
X159440476Y-143345771D01*
X159440476Y-143345771D02*
X159488095Y-143155295D01*
X159488095Y-143155295D02*
X159535714Y-143060057D01*
X159535714Y-143060057D02*
X159583333Y-143012438D01*
X159583333Y-143012438D02*
X159678571Y-142964819D01*
X161028095Y-142164819D02*
X161028095Y-141164819D01*
X161599523Y-142164819D02*
X161170952Y-141593390D01*
X161599523Y-141164819D02*
X161028095Y-141736247D01*
X157535714Y-124914819D02*
X157535714Y-123914819D01*
X157535714Y-123914819D02*
X157773809Y-123914819D01*
X157773809Y-123914819D02*
X157916666Y-123962438D01*
X157916666Y-123962438D02*
X158011904Y-124057676D01*
X158011904Y-124057676D02*
X158059523Y-124152914D01*
X158059523Y-124152914D02*
X158107142Y-124343390D01*
X158107142Y-124343390D02*
X158107142Y-124486247D01*
X158107142Y-124486247D02*
X158059523Y-124676723D01*
X158059523Y-124676723D02*
X158011904Y-124771961D01*
X158011904Y-124771961D02*
X157916666Y-124867200D01*
X157916666Y-124867200D02*
X157773809Y-124914819D01*
X157773809Y-124914819D02*
X157535714Y-124914819D01*
X159059523Y-124914819D02*
X158488095Y-124914819D01*
X158773809Y-124914819D02*
X158773809Y-123914819D01*
X158773809Y-123914819D02*
X158678571Y-124057676D01*
X158678571Y-124057676D02*
X158583333Y-124152914D01*
X158583333Y-124152914D02*
X158488095Y-124200533D01*
X159964285Y-123914819D02*
X159488095Y-123914819D01*
X159488095Y-123914819D02*
X159440476Y-124391009D01*
X159440476Y-124391009D02*
X159488095Y-124343390D01*
X159488095Y-124343390D02*
X159583333Y-124295771D01*
X159583333Y-124295771D02*
X159821428Y-124295771D01*
X159821428Y-124295771D02*
X159916666Y-124343390D01*
X159916666Y-124343390D02*
X159964285Y-124391009D01*
X159964285Y-124391009D02*
X160011904Y-124486247D01*
X160011904Y-124486247D02*
X160011904Y-124724342D01*
X160011904Y-124724342D02*
X159964285Y-124819580D01*
X159964285Y-124819580D02*
X159916666Y-124867200D01*
X159916666Y-124867200D02*
X159821428Y-124914819D01*
X159821428Y-124914819D02*
X159583333Y-124914819D01*
X159583333Y-124914819D02*
X159488095Y-124867200D01*
X159488095Y-124867200D02*
X159440476Y-124819580D01*
X161028095Y-123114819D02*
X161028095Y-122114819D01*
X161599523Y-123114819D02*
X161170952Y-122543390D01*
X161599523Y-122114819D02*
X161028095Y-122686247D01*
X100861905Y-105864819D02*
X100861905Y-104864819D01*
X100861905Y-104864819D02*
X101100000Y-104864819D01*
X101100000Y-104864819D02*
X101242857Y-104912438D01*
X101242857Y-104912438D02*
X101338095Y-105007676D01*
X101338095Y-105007676D02*
X101385714Y-105102914D01*
X101385714Y-105102914D02*
X101433333Y-105293390D01*
X101433333Y-105293390D02*
X101433333Y-105436247D01*
X101433333Y-105436247D02*
X101385714Y-105626723D01*
X101385714Y-105626723D02*
X101338095Y-105721961D01*
X101338095Y-105721961D02*
X101242857Y-105817200D01*
X101242857Y-105817200D02*
X101100000Y-105864819D01*
X101100000Y-105864819D02*
X100861905Y-105864819D01*
X101766667Y-104864819D02*
X102433333Y-104864819D01*
X102433333Y-104864819D02*
X102004762Y-105864819D01*
X103878095Y-104064819D02*
X103878095Y-103064819D01*
X104449523Y-104064819D02*
X104020952Y-103493390D01*
X104449523Y-103064819D02*
X103878095Y-103636247D01*
X81811905Y-105864819D02*
X81811905Y-104864819D01*
X81811905Y-104864819D02*
X82050000Y-104864819D01*
X82050000Y-104864819D02*
X82192857Y-104912438D01*
X82192857Y-104912438D02*
X82288095Y-105007676D01*
X82288095Y-105007676D02*
X82335714Y-105102914D01*
X82335714Y-105102914D02*
X82383333Y-105293390D01*
X82383333Y-105293390D02*
X82383333Y-105436247D01*
X82383333Y-105436247D02*
X82335714Y-105626723D01*
X82335714Y-105626723D02*
X82288095Y-105721961D01*
X82288095Y-105721961D02*
X82192857Y-105817200D01*
X82192857Y-105817200D02*
X82050000Y-105864819D01*
X82050000Y-105864819D02*
X81811905Y-105864819D01*
X83240476Y-104864819D02*
X83050000Y-104864819D01*
X83050000Y-104864819D02*
X82954762Y-104912438D01*
X82954762Y-104912438D02*
X82907143Y-104960057D01*
X82907143Y-104960057D02*
X82811905Y-105102914D01*
X82811905Y-105102914D02*
X82764286Y-105293390D01*
X82764286Y-105293390D02*
X82764286Y-105674342D01*
X82764286Y-105674342D02*
X82811905Y-105769580D01*
X82811905Y-105769580D02*
X82859524Y-105817200D01*
X82859524Y-105817200D02*
X82954762Y-105864819D01*
X82954762Y-105864819D02*
X83145238Y-105864819D01*
X83145238Y-105864819D02*
X83240476Y-105817200D01*
X83240476Y-105817200D02*
X83288095Y-105769580D01*
X83288095Y-105769580D02*
X83335714Y-105674342D01*
X83335714Y-105674342D02*
X83335714Y-105436247D01*
X83335714Y-105436247D02*
X83288095Y-105341009D01*
X83288095Y-105341009D02*
X83240476Y-105293390D01*
X83240476Y-105293390D02*
X83145238Y-105245771D01*
X83145238Y-105245771D02*
X82954762Y-105245771D01*
X82954762Y-105245771D02*
X82859524Y-105293390D01*
X82859524Y-105293390D02*
X82811905Y-105341009D01*
X82811905Y-105341009D02*
X82764286Y-105436247D01*
X84828095Y-104064819D02*
X84828095Y-103064819D01*
X85399523Y-104064819D02*
X84970952Y-103493390D01*
X85399523Y-103064819D02*
X84828095Y-103636247D01*
X138485714Y-124914819D02*
X138485714Y-123914819D01*
X138485714Y-123914819D02*
X138723809Y-123914819D01*
X138723809Y-123914819D02*
X138866666Y-123962438D01*
X138866666Y-123962438D02*
X138961904Y-124057676D01*
X138961904Y-124057676D02*
X139009523Y-124152914D01*
X139009523Y-124152914D02*
X139057142Y-124343390D01*
X139057142Y-124343390D02*
X139057142Y-124486247D01*
X139057142Y-124486247D02*
X139009523Y-124676723D01*
X139009523Y-124676723D02*
X138961904Y-124771961D01*
X138961904Y-124771961D02*
X138866666Y-124867200D01*
X138866666Y-124867200D02*
X138723809Y-124914819D01*
X138723809Y-124914819D02*
X138485714Y-124914819D01*
X140009523Y-124914819D02*
X139438095Y-124914819D01*
X139723809Y-124914819D02*
X139723809Y-123914819D01*
X139723809Y-123914819D02*
X139628571Y-124057676D01*
X139628571Y-124057676D02*
X139533333Y-124152914D01*
X139533333Y-124152914D02*
X139438095Y-124200533D01*
X140866666Y-124248152D02*
X140866666Y-124914819D01*
X140628571Y-123867200D02*
X140390476Y-124581485D01*
X140390476Y-124581485D02*
X141009523Y-124581485D01*
X141978095Y-123114819D02*
X141978095Y-122114819D01*
X142549523Y-123114819D02*
X142120952Y-122543390D01*
X142549523Y-122114819D02*
X141978095Y-122686247D01*
X85788666Y-147774819D02*
X85455333Y-147298628D01*
X85217238Y-147774819D02*
X85217238Y-146774819D01*
X85217238Y-146774819D02*
X85598190Y-146774819D01*
X85598190Y-146774819D02*
X85693428Y-146822438D01*
X85693428Y-146822438D02*
X85741047Y-146870057D01*
X85741047Y-146870057D02*
X85788666Y-146965295D01*
X85788666Y-146965295D02*
X85788666Y-147108152D01*
X85788666Y-147108152D02*
X85741047Y-147203390D01*
X85741047Y-147203390D02*
X85693428Y-147251009D01*
X85693428Y-147251009D02*
X85598190Y-147298628D01*
X85598190Y-147298628D02*
X85217238Y-147298628D01*
X86217238Y-147251009D02*
X86550571Y-147251009D01*
X86693428Y-147774819D02*
X86217238Y-147774819D01*
X86217238Y-147774819D02*
X86217238Y-146774819D01*
X86217238Y-146774819D02*
X86693428Y-146774819D01*
X87455333Y-147251009D02*
X87122000Y-147251009D01*
X87122000Y-147774819D02*
X87122000Y-146774819D01*
X87122000Y-146774819D02*
X87598190Y-146774819D01*
X88122000Y-146774819D02*
X88122000Y-147012914D01*
X87883905Y-146917676D02*
X88122000Y-147012914D01*
X88122000Y-147012914D02*
X88360095Y-146917676D01*
X87979143Y-147203390D02*
X88122000Y-147012914D01*
X88122000Y-147012914D02*
X88264857Y-147203390D01*
X88883905Y-146774819D02*
X88883905Y-147012914D01*
X88645810Y-146917676D02*
X88883905Y-147012914D01*
X88883905Y-147012914D02*
X89122000Y-146917676D01*
X88741048Y-147203390D02*
X88883905Y-147012914D01*
X88883905Y-147012914D02*
X89026762Y-147203390D01*
X159480476Y-128042200D02*
X159623333Y-128089819D01*
X159623333Y-128089819D02*
X159861428Y-128089819D01*
X159861428Y-128089819D02*
X159956666Y-128042200D01*
X159956666Y-128042200D02*
X160004285Y-127994580D01*
X160004285Y-127994580D02*
X160051904Y-127899342D01*
X160051904Y-127899342D02*
X160051904Y-127804104D01*
X160051904Y-127804104D02*
X160004285Y-127708866D01*
X160004285Y-127708866D02*
X159956666Y-127661247D01*
X159956666Y-127661247D02*
X159861428Y-127613628D01*
X159861428Y-127613628D02*
X159670952Y-127566009D01*
X159670952Y-127566009D02*
X159575714Y-127518390D01*
X159575714Y-127518390D02*
X159528095Y-127470771D01*
X159528095Y-127470771D02*
X159480476Y-127375533D01*
X159480476Y-127375533D02*
X159480476Y-127280295D01*
X159480476Y-127280295D02*
X159528095Y-127185057D01*
X159528095Y-127185057D02*
X159575714Y-127137438D01*
X159575714Y-127137438D02*
X159670952Y-127089819D01*
X159670952Y-127089819D02*
X159909047Y-127089819D01*
X159909047Y-127089819D02*
X160051904Y-127137438D01*
X160385238Y-127089819D02*
X160623333Y-128089819D01*
X160623333Y-128089819D02*
X160813809Y-127375533D01*
X160813809Y-127375533D02*
X161004285Y-128089819D01*
X161004285Y-128089819D02*
X161242381Y-127089819D01*
X161575714Y-127185057D02*
X161623333Y-127137438D01*
X161623333Y-127137438D02*
X161718571Y-127089819D01*
X161718571Y-127089819D02*
X161956666Y-127089819D01*
X161956666Y-127089819D02*
X162051904Y-127137438D01*
X162051904Y-127137438D02*
X162099523Y-127185057D01*
X162099523Y-127185057D02*
X162147142Y-127280295D01*
X162147142Y-127280295D02*
X162147142Y-127375533D01*
X162147142Y-127375533D02*
X162099523Y-127518390D01*
X162099523Y-127518390D02*
X161528095Y-128089819D01*
X161528095Y-128089819D02*
X162147142Y-128089819D01*
X162766190Y-127089819D02*
X162861428Y-127089819D01*
X162861428Y-127089819D02*
X162956666Y-127137438D01*
X162956666Y-127137438D02*
X163004285Y-127185057D01*
X163004285Y-127185057D02*
X163051904Y-127280295D01*
X163051904Y-127280295D02*
X163099523Y-127470771D01*
X163099523Y-127470771D02*
X163099523Y-127708866D01*
X163099523Y-127708866D02*
X163051904Y-127899342D01*
X163051904Y-127899342D02*
X163004285Y-127994580D01*
X163004285Y-127994580D02*
X162956666Y-128042200D01*
X162956666Y-128042200D02*
X162861428Y-128089819D01*
X162861428Y-128089819D02*
X162766190Y-128089819D01*
X162766190Y-128089819D02*
X162670952Y-128042200D01*
X162670952Y-128042200D02*
X162623333Y-127994580D01*
X162623333Y-127994580D02*
X162575714Y-127899342D01*
X162575714Y-127899342D02*
X162528095Y-127708866D01*
X162528095Y-127708866D02*
X162528095Y-127470771D01*
X162528095Y-127470771D02*
X162575714Y-127280295D01*
X162575714Y-127280295D02*
X162623333Y-127185057D01*
X162623333Y-127185057D02*
X162670952Y-127137438D01*
X162670952Y-127137438D02*
X162766190Y-127089819D01*
X102806667Y-70892200D02*
X102949524Y-70939819D01*
X102949524Y-70939819D02*
X103187619Y-70939819D01*
X103187619Y-70939819D02*
X103282857Y-70892200D01*
X103282857Y-70892200D02*
X103330476Y-70844580D01*
X103330476Y-70844580D02*
X103378095Y-70749342D01*
X103378095Y-70749342D02*
X103378095Y-70654104D01*
X103378095Y-70654104D02*
X103330476Y-70558866D01*
X103330476Y-70558866D02*
X103282857Y-70511247D01*
X103282857Y-70511247D02*
X103187619Y-70463628D01*
X103187619Y-70463628D02*
X102997143Y-70416009D01*
X102997143Y-70416009D02*
X102901905Y-70368390D01*
X102901905Y-70368390D02*
X102854286Y-70320771D01*
X102854286Y-70320771D02*
X102806667Y-70225533D01*
X102806667Y-70225533D02*
X102806667Y-70130295D01*
X102806667Y-70130295D02*
X102854286Y-70035057D01*
X102854286Y-70035057D02*
X102901905Y-69987438D01*
X102901905Y-69987438D02*
X102997143Y-69939819D01*
X102997143Y-69939819D02*
X103235238Y-69939819D01*
X103235238Y-69939819D02*
X103378095Y-69987438D01*
X103711429Y-69939819D02*
X103949524Y-70939819D01*
X103949524Y-70939819D02*
X104140000Y-70225533D01*
X104140000Y-70225533D02*
X104330476Y-70939819D01*
X104330476Y-70939819D02*
X104568572Y-69939819D01*
X104901905Y-70035057D02*
X104949524Y-69987438D01*
X104949524Y-69987438D02*
X105044762Y-69939819D01*
X105044762Y-69939819D02*
X105282857Y-69939819D01*
X105282857Y-69939819D02*
X105378095Y-69987438D01*
X105378095Y-69987438D02*
X105425714Y-70035057D01*
X105425714Y-70035057D02*
X105473333Y-70130295D01*
X105473333Y-70130295D02*
X105473333Y-70225533D01*
X105473333Y-70225533D02*
X105425714Y-70368390D01*
X105425714Y-70368390D02*
X104854286Y-70939819D01*
X104854286Y-70939819D02*
X105473333Y-70939819D01*
X138485714Y-143964819D02*
X138485714Y-142964819D01*
X138485714Y-142964819D02*
X138723809Y-142964819D01*
X138723809Y-142964819D02*
X138866666Y-143012438D01*
X138866666Y-143012438D02*
X138961904Y-143107676D01*
X138961904Y-143107676D02*
X139009523Y-143202914D01*
X139009523Y-143202914D02*
X139057142Y-143393390D01*
X139057142Y-143393390D02*
X139057142Y-143536247D01*
X139057142Y-143536247D02*
X139009523Y-143726723D01*
X139009523Y-143726723D02*
X138961904Y-143821961D01*
X138961904Y-143821961D02*
X138866666Y-143917200D01*
X138866666Y-143917200D02*
X138723809Y-143964819D01*
X138723809Y-143964819D02*
X138485714Y-143964819D01*
X140009523Y-143964819D02*
X139438095Y-143964819D01*
X139723809Y-143964819D02*
X139723809Y-142964819D01*
X139723809Y-142964819D02*
X139628571Y-143107676D01*
X139628571Y-143107676D02*
X139533333Y-143202914D01*
X139533333Y-143202914D02*
X139438095Y-143250533D01*
X140485714Y-143964819D02*
X140676190Y-143964819D01*
X140676190Y-143964819D02*
X140771428Y-143917200D01*
X140771428Y-143917200D02*
X140819047Y-143869580D01*
X140819047Y-143869580D02*
X140914285Y-143726723D01*
X140914285Y-143726723D02*
X140961904Y-143536247D01*
X140961904Y-143536247D02*
X140961904Y-143155295D01*
X140961904Y-143155295D02*
X140914285Y-143060057D01*
X140914285Y-143060057D02*
X140866666Y-143012438D01*
X140866666Y-143012438D02*
X140771428Y-142964819D01*
X140771428Y-142964819D02*
X140580952Y-142964819D01*
X140580952Y-142964819D02*
X140485714Y-143012438D01*
X140485714Y-143012438D02*
X140438095Y-143060057D01*
X140438095Y-143060057D02*
X140390476Y-143155295D01*
X140390476Y-143155295D02*
X140390476Y-143393390D01*
X140390476Y-143393390D02*
X140438095Y-143488628D01*
X140438095Y-143488628D02*
X140485714Y-143536247D01*
X140485714Y-143536247D02*
X140580952Y-143583866D01*
X140580952Y-143583866D02*
X140771428Y-143583866D01*
X140771428Y-143583866D02*
X140866666Y-143536247D01*
X140866666Y-143536247D02*
X140914285Y-143488628D01*
X140914285Y-143488628D02*
X140961904Y-143393390D01*
X141978095Y-142164819D02*
X141978095Y-141164819D01*
X142549523Y-142164819D02*
X142120952Y-141593390D01*
X142549523Y-141164819D02*
X141978095Y-141736247D01*
X81335714Y-143964819D02*
X81335714Y-142964819D01*
X81335714Y-142964819D02*
X81573809Y-142964819D01*
X81573809Y-142964819D02*
X81716666Y-143012438D01*
X81716666Y-143012438D02*
X81811904Y-143107676D01*
X81811904Y-143107676D02*
X81859523Y-143202914D01*
X81859523Y-143202914D02*
X81907142Y-143393390D01*
X81907142Y-143393390D02*
X81907142Y-143536247D01*
X81907142Y-143536247D02*
X81859523Y-143726723D01*
X81859523Y-143726723D02*
X81811904Y-143821961D01*
X81811904Y-143821961D02*
X81716666Y-143917200D01*
X81716666Y-143917200D02*
X81573809Y-143964819D01*
X81573809Y-143964819D02*
X81335714Y-143964819D01*
X82859523Y-143964819D02*
X82288095Y-143964819D01*
X82573809Y-143964819D02*
X82573809Y-142964819D01*
X82573809Y-142964819D02*
X82478571Y-143107676D01*
X82478571Y-143107676D02*
X82383333Y-143202914D01*
X82383333Y-143202914D02*
X82288095Y-143250533D01*
X83716666Y-142964819D02*
X83526190Y-142964819D01*
X83526190Y-142964819D02*
X83430952Y-143012438D01*
X83430952Y-143012438D02*
X83383333Y-143060057D01*
X83383333Y-143060057D02*
X83288095Y-143202914D01*
X83288095Y-143202914D02*
X83240476Y-143393390D01*
X83240476Y-143393390D02*
X83240476Y-143774342D01*
X83240476Y-143774342D02*
X83288095Y-143869580D01*
X83288095Y-143869580D02*
X83335714Y-143917200D01*
X83335714Y-143917200D02*
X83430952Y-143964819D01*
X83430952Y-143964819D02*
X83621428Y-143964819D01*
X83621428Y-143964819D02*
X83716666Y-143917200D01*
X83716666Y-143917200D02*
X83764285Y-143869580D01*
X83764285Y-143869580D02*
X83811904Y-143774342D01*
X83811904Y-143774342D02*
X83811904Y-143536247D01*
X83811904Y-143536247D02*
X83764285Y-143441009D01*
X83764285Y-143441009D02*
X83716666Y-143393390D01*
X83716666Y-143393390D02*
X83621428Y-143345771D01*
X83621428Y-143345771D02*
X83430952Y-143345771D01*
X83430952Y-143345771D02*
X83335714Y-143393390D01*
X83335714Y-143393390D02*
X83288095Y-143441009D01*
X83288095Y-143441009D02*
X83240476Y-143536247D01*
X84828095Y-142164819D02*
X84828095Y-141164819D01*
X85399523Y-142164819D02*
X84970952Y-141593390D01*
X85399523Y-141164819D02*
X84828095Y-141736247D01*
X100861905Y-86814819D02*
X100861905Y-85814819D01*
X100861905Y-85814819D02*
X101100000Y-85814819D01*
X101100000Y-85814819D02*
X101242857Y-85862438D01*
X101242857Y-85862438D02*
X101338095Y-85957676D01*
X101338095Y-85957676D02*
X101385714Y-86052914D01*
X101385714Y-86052914D02*
X101433333Y-86243390D01*
X101433333Y-86243390D02*
X101433333Y-86386247D01*
X101433333Y-86386247D02*
X101385714Y-86576723D01*
X101385714Y-86576723D02*
X101338095Y-86671961D01*
X101338095Y-86671961D02*
X101242857Y-86767200D01*
X101242857Y-86767200D02*
X101100000Y-86814819D01*
X101100000Y-86814819D02*
X100861905Y-86814819D01*
X101814286Y-85910057D02*
X101861905Y-85862438D01*
X101861905Y-85862438D02*
X101957143Y-85814819D01*
X101957143Y-85814819D02*
X102195238Y-85814819D01*
X102195238Y-85814819D02*
X102290476Y-85862438D01*
X102290476Y-85862438D02*
X102338095Y-85910057D01*
X102338095Y-85910057D02*
X102385714Y-86005295D01*
X102385714Y-86005295D02*
X102385714Y-86100533D01*
X102385714Y-86100533D02*
X102338095Y-86243390D01*
X102338095Y-86243390D02*
X101766667Y-86814819D01*
X101766667Y-86814819D02*
X102385714Y-86814819D01*
X103878095Y-85014819D02*
X103878095Y-84014819D01*
X104449523Y-85014819D02*
X104020952Y-84443390D01*
X104449523Y-84014819D02*
X103878095Y-84586247D01*
X121856667Y-89942200D02*
X121999524Y-89989819D01*
X121999524Y-89989819D02*
X122237619Y-89989819D01*
X122237619Y-89989819D02*
X122332857Y-89942200D01*
X122332857Y-89942200D02*
X122380476Y-89894580D01*
X122380476Y-89894580D02*
X122428095Y-89799342D01*
X122428095Y-89799342D02*
X122428095Y-89704104D01*
X122428095Y-89704104D02*
X122380476Y-89608866D01*
X122380476Y-89608866D02*
X122332857Y-89561247D01*
X122332857Y-89561247D02*
X122237619Y-89513628D01*
X122237619Y-89513628D02*
X122047143Y-89466009D01*
X122047143Y-89466009D02*
X121951905Y-89418390D01*
X121951905Y-89418390D02*
X121904286Y-89370771D01*
X121904286Y-89370771D02*
X121856667Y-89275533D01*
X121856667Y-89275533D02*
X121856667Y-89180295D01*
X121856667Y-89180295D02*
X121904286Y-89085057D01*
X121904286Y-89085057D02*
X121951905Y-89037438D01*
X121951905Y-89037438D02*
X122047143Y-88989819D01*
X122047143Y-88989819D02*
X122285238Y-88989819D01*
X122285238Y-88989819D02*
X122428095Y-89037438D01*
X122761429Y-88989819D02*
X122999524Y-89989819D01*
X122999524Y-89989819D02*
X123190000Y-89275533D01*
X123190000Y-89275533D02*
X123380476Y-89989819D01*
X123380476Y-89989819D02*
X123618572Y-88989819D01*
X124142381Y-89418390D02*
X124047143Y-89370771D01*
X124047143Y-89370771D02*
X123999524Y-89323152D01*
X123999524Y-89323152D02*
X123951905Y-89227914D01*
X123951905Y-89227914D02*
X123951905Y-89180295D01*
X123951905Y-89180295D02*
X123999524Y-89085057D01*
X123999524Y-89085057D02*
X124047143Y-89037438D01*
X124047143Y-89037438D02*
X124142381Y-88989819D01*
X124142381Y-88989819D02*
X124332857Y-88989819D01*
X124332857Y-88989819D02*
X124428095Y-89037438D01*
X124428095Y-89037438D02*
X124475714Y-89085057D01*
X124475714Y-89085057D02*
X124523333Y-89180295D01*
X124523333Y-89180295D02*
X124523333Y-89227914D01*
X124523333Y-89227914D02*
X124475714Y-89323152D01*
X124475714Y-89323152D02*
X124428095Y-89370771D01*
X124428095Y-89370771D02*
X124332857Y-89418390D01*
X124332857Y-89418390D02*
X124142381Y-89418390D01*
X124142381Y-89418390D02*
X124047143Y-89466009D01*
X124047143Y-89466009D02*
X123999524Y-89513628D01*
X123999524Y-89513628D02*
X123951905Y-89608866D01*
X123951905Y-89608866D02*
X123951905Y-89799342D01*
X123951905Y-89799342D02*
X123999524Y-89894580D01*
X123999524Y-89894580D02*
X124047143Y-89942200D01*
X124047143Y-89942200D02*
X124142381Y-89989819D01*
X124142381Y-89989819D02*
X124332857Y-89989819D01*
X124332857Y-89989819D02*
X124428095Y-89942200D01*
X124428095Y-89942200D02*
X124475714Y-89894580D01*
X124475714Y-89894580D02*
X124523333Y-89799342D01*
X124523333Y-89799342D02*
X124523333Y-89608866D01*
X124523333Y-89608866D02*
X124475714Y-89513628D01*
X124475714Y-89513628D02*
X124428095Y-89466009D01*
X124428095Y-89466009D02*
X124332857Y-89418390D01*
X165798666Y-148282819D02*
X165465333Y-147806628D01*
X165227238Y-148282819D02*
X165227238Y-147282819D01*
X165227238Y-147282819D02*
X165608190Y-147282819D01*
X165608190Y-147282819D02*
X165703428Y-147330438D01*
X165703428Y-147330438D02*
X165751047Y-147378057D01*
X165751047Y-147378057D02*
X165798666Y-147473295D01*
X165798666Y-147473295D02*
X165798666Y-147616152D01*
X165798666Y-147616152D02*
X165751047Y-147711390D01*
X165751047Y-147711390D02*
X165703428Y-147759009D01*
X165703428Y-147759009D02*
X165608190Y-147806628D01*
X165608190Y-147806628D02*
X165227238Y-147806628D01*
X166227238Y-147759009D02*
X166560571Y-147759009D01*
X166703428Y-148282819D02*
X166227238Y-148282819D01*
X166227238Y-148282819D02*
X166227238Y-147282819D01*
X166227238Y-147282819D02*
X166703428Y-147282819D01*
X167465333Y-147759009D02*
X167132000Y-147759009D01*
X167132000Y-148282819D02*
X167132000Y-147282819D01*
X167132000Y-147282819D02*
X167608190Y-147282819D01*
X168132000Y-147282819D02*
X168132000Y-147520914D01*
X167893905Y-147425676D02*
X168132000Y-147520914D01*
X168132000Y-147520914D02*
X168370095Y-147425676D01*
X167989143Y-147711390D02*
X168132000Y-147520914D01*
X168132000Y-147520914D02*
X168274857Y-147711390D01*
X168893905Y-147282819D02*
X168893905Y-147520914D01*
X168655810Y-147425676D02*
X168893905Y-147520914D01*
X168893905Y-147520914D02*
X169132000Y-147425676D01*
X168751048Y-147711390D02*
X168893905Y-147520914D01*
X168893905Y-147520914D02*
X169036762Y-147711390D01*
X102806667Y-89942200D02*
X102949524Y-89989819D01*
X102949524Y-89989819D02*
X103187619Y-89989819D01*
X103187619Y-89989819D02*
X103282857Y-89942200D01*
X103282857Y-89942200D02*
X103330476Y-89894580D01*
X103330476Y-89894580D02*
X103378095Y-89799342D01*
X103378095Y-89799342D02*
X103378095Y-89704104D01*
X103378095Y-89704104D02*
X103330476Y-89608866D01*
X103330476Y-89608866D02*
X103282857Y-89561247D01*
X103282857Y-89561247D02*
X103187619Y-89513628D01*
X103187619Y-89513628D02*
X102997143Y-89466009D01*
X102997143Y-89466009D02*
X102901905Y-89418390D01*
X102901905Y-89418390D02*
X102854286Y-89370771D01*
X102854286Y-89370771D02*
X102806667Y-89275533D01*
X102806667Y-89275533D02*
X102806667Y-89180295D01*
X102806667Y-89180295D02*
X102854286Y-89085057D01*
X102854286Y-89085057D02*
X102901905Y-89037438D01*
X102901905Y-89037438D02*
X102997143Y-88989819D01*
X102997143Y-88989819D02*
X103235238Y-88989819D01*
X103235238Y-88989819D02*
X103378095Y-89037438D01*
X103711429Y-88989819D02*
X103949524Y-89989819D01*
X103949524Y-89989819D02*
X104140000Y-89275533D01*
X104140000Y-89275533D02*
X104330476Y-89989819D01*
X104330476Y-89989819D02*
X104568572Y-88989819D01*
X104854286Y-88989819D02*
X105520952Y-88989819D01*
X105520952Y-88989819D02*
X105092381Y-89989819D01*
X138961905Y-105864819D02*
X138961905Y-104864819D01*
X138961905Y-104864819D02*
X139200000Y-104864819D01*
X139200000Y-104864819D02*
X139342857Y-104912438D01*
X139342857Y-104912438D02*
X139438095Y-105007676D01*
X139438095Y-105007676D02*
X139485714Y-105102914D01*
X139485714Y-105102914D02*
X139533333Y-105293390D01*
X139533333Y-105293390D02*
X139533333Y-105436247D01*
X139533333Y-105436247D02*
X139485714Y-105626723D01*
X139485714Y-105626723D02*
X139438095Y-105721961D01*
X139438095Y-105721961D02*
X139342857Y-105817200D01*
X139342857Y-105817200D02*
X139200000Y-105864819D01*
X139200000Y-105864819D02*
X138961905Y-105864819D01*
X140009524Y-105864819D02*
X140200000Y-105864819D01*
X140200000Y-105864819D02*
X140295238Y-105817200D01*
X140295238Y-105817200D02*
X140342857Y-105769580D01*
X140342857Y-105769580D02*
X140438095Y-105626723D01*
X140438095Y-105626723D02*
X140485714Y-105436247D01*
X140485714Y-105436247D02*
X140485714Y-105055295D01*
X140485714Y-105055295D02*
X140438095Y-104960057D01*
X140438095Y-104960057D02*
X140390476Y-104912438D01*
X140390476Y-104912438D02*
X140295238Y-104864819D01*
X140295238Y-104864819D02*
X140104762Y-104864819D01*
X140104762Y-104864819D02*
X140009524Y-104912438D01*
X140009524Y-104912438D02*
X139961905Y-104960057D01*
X139961905Y-104960057D02*
X139914286Y-105055295D01*
X139914286Y-105055295D02*
X139914286Y-105293390D01*
X139914286Y-105293390D02*
X139961905Y-105388628D01*
X139961905Y-105388628D02*
X140009524Y-105436247D01*
X140009524Y-105436247D02*
X140104762Y-105483866D01*
X140104762Y-105483866D02*
X140295238Y-105483866D01*
X140295238Y-105483866D02*
X140390476Y-105436247D01*
X140390476Y-105436247D02*
X140438095Y-105388628D01*
X140438095Y-105388628D02*
X140485714Y-105293390D01*
X141978095Y-104064819D02*
X141978095Y-103064819D01*
X142549523Y-104064819D02*
X142120952Y-103493390D01*
X142549523Y-103064819D02*
X141978095Y-103636247D01*
%TO.C,J1*%
D11*
X116790000Y-53500000D02*
X116790000Y-59499999D01*
X119390000Y-53500000D02*
X119390000Y-59500000D01*
X121930000Y-53500000D02*
X121930000Y-59500000D01*
X117760000Y-59500000D02*
X117760000Y-59910000D01*
X117760000Y-62010000D02*
X117760000Y-62450000D01*
X118480000Y-59500000D02*
X118480000Y-59910000D01*
X118480000Y-62010000D02*
X118480000Y-62450000D01*
X120300000Y-59500000D02*
X120300000Y-59910000D01*
X120300000Y-62010000D02*
X120300000Y-62450000D01*
X121020000Y-59500000D02*
X121020000Y-59910000D01*
X121020000Y-62010000D02*
X121020000Y-62450000D01*
X122840000Y-59499999D02*
X122840000Y-59910000D01*
X122840000Y-62009999D02*
X122840000Y-62449999D01*
X123560000Y-59500000D02*
X123560000Y-59910000D01*
X123560000Y-62010000D02*
X123560000Y-62450000D01*
X124470000Y-53500000D02*
X124470000Y-59499999D01*
X125380000Y-59500000D02*
X125380000Y-59910000D01*
X125380000Y-62010000D02*
X125380000Y-62450000D01*
X126100000Y-59499999D02*
X126100000Y-59910000D01*
X126100000Y-62009999D02*
X126100000Y-62449999D01*
X127010000Y-53500000D02*
X127010000Y-59500000D01*
X127920000Y-59500000D02*
X127920000Y-59910000D01*
X127920000Y-62010000D02*
X127920000Y-62450000D01*
X128640000Y-59500000D02*
X128640000Y-59910000D01*
X128640000Y-62010000D02*
X128640000Y-62450000D01*
X129550000Y-53500000D02*
X129550000Y-59500000D01*
X130460000Y-59500000D02*
X130460000Y-59910000D01*
X130460000Y-62010000D02*
X130460000Y-62450000D01*
X131180000Y-59500000D02*
X131180000Y-59910000D01*
X131180000Y-62010000D02*
X131180000Y-62450000D01*
X132090000Y-53500000D02*
X132090000Y-59500000D01*
X133000000Y-59500000D02*
X133000000Y-59910000D01*
X133000000Y-62010000D02*
X133000000Y-62450000D01*
X133720000Y-59500000D02*
X133720000Y-59910000D01*
X133720000Y-62010000D02*
X133720000Y-62450000D01*
X134630000Y-53500000D02*
X134630000Y-59499999D01*
X134748095Y-53500000D02*
X134748095Y-59500000D01*
X134866190Y-53500000D02*
X134866190Y-59500000D01*
X134984286Y-53500000D02*
X134984286Y-59499999D01*
X135102381Y-53500000D02*
X135102381Y-59500000D01*
X135220476Y-53500000D02*
X135220476Y-59500000D01*
X135338571Y-53500000D02*
X135338571Y-59500000D01*
X135456667Y-53500000D02*
X135456667Y-59500000D01*
X135540000Y-59499999D02*
X135540000Y-59910000D01*
X135540000Y-62009999D02*
X135540000Y-62390000D01*
X135574762Y-53500000D02*
X135574762Y-59500000D01*
X135692857Y-53500000D02*
X135692857Y-59500000D01*
X135810952Y-53500000D02*
X135810952Y-59499999D01*
X135929048Y-53500000D02*
X135929048Y-59500000D01*
X136047143Y-53500000D02*
X136047143Y-59500000D01*
X136165238Y-53500000D02*
X136165238Y-59499999D01*
X136260000Y-59499999D02*
X136260000Y-59910000D01*
X136260000Y-62009999D02*
X136260000Y-62390000D01*
X136283332Y-53500000D02*
X136283332Y-59500000D01*
X136401429Y-53500000D02*
X136401429Y-59500000D01*
X136519524Y-53500000D02*
X136519524Y-59499999D01*
X136637619Y-53500000D02*
X136637619Y-59499999D01*
X136755714Y-53500000D02*
X136755714Y-59500000D01*
X136873810Y-53500000D02*
X136873810Y-59500000D01*
X136991905Y-53500000D02*
X136991905Y-59499999D01*
X137110000Y-53500000D02*
X137110000Y-59500000D01*
X137230000Y-53500000D02*
X116790000Y-53500001D01*
X137230000Y-53500000D02*
X137230000Y-59500000D01*
X137230000Y-59500000D02*
X116790000Y-59499999D01*
X137230000Y-63500000D02*
X137230000Y-64610001D01*
X137230000Y-64610001D02*
X135900000Y-64610001D01*
%TO.C,SW19*%
X139940000Y-128510000D02*
X139940000Y-131020000D01*
X139940000Y-128510000D02*
X152160000Y-128510000D01*
X139940000Y-133320000D02*
X139940000Y-135920000D01*
X139940000Y-138220000D02*
X139940000Y-140730000D01*
X152160000Y-128510000D02*
X152160000Y-131020000D01*
X152160000Y-133320000D02*
X152160000Y-135920000D01*
X152160000Y-138220000D02*
X152160000Y-140730000D01*
X152160000Y-140730000D02*
X139940000Y-140730000D01*
%TO.C,A2*%
X156730000Y-66340000D02*
X156730000Y-65740000D01*
X157280000Y-67540000D02*
X157880000Y-67540000D01*
X157380000Y-65040000D02*
X160180000Y-65040000D01*
X157580000Y-67240000D02*
X157280000Y-67540000D01*
X157580000Y-67240000D02*
X157880000Y-67540000D01*
X160180000Y-67040000D02*
X157380000Y-67040000D01*
X160830000Y-65740000D02*
X160830000Y-66340000D01*
X156730000Y-65740000D02*
G75*
G02*
X157430000Y-65040000I699999J1D01*
G01*
X157430000Y-67040000D02*
G75*
G02*
X156730000Y-66340000I-1J699999D01*
G01*
X160130000Y-65040000D02*
G75*
G02*
X160830000Y-65740000I0J-700000D01*
G01*
X160830000Y-66340000D02*
G75*
G02*
X160130000Y-67040000I-700000J0D01*
G01*
%TO.C,D1*%
X86130000Y-86360000D02*
X86780000Y-86360000D01*
X87380000Y-85240000D02*
X87380000Y-87480000D01*
X87500000Y-85240000D02*
X87500000Y-87480000D01*
X87620000Y-85240000D02*
X87620000Y-87480000D01*
X91670000Y-86360000D02*
X91020000Y-86360000D01*
X86780000Y-85240000D02*
X91020000Y-85240000D01*
X91020000Y-87480000D01*
X86780000Y-87480000D01*
X86780000Y-85240000D01*
%TO.C,SW10*%
X158990000Y-90410000D02*
X158990000Y-92920000D01*
X158990000Y-90410000D02*
X171210000Y-90410000D01*
X158990000Y-95220000D02*
X158990000Y-97820000D01*
X158990000Y-100120000D02*
X158990000Y-102630000D01*
X171210000Y-90410000D02*
X171210000Y-92920000D01*
X171210000Y-95220000D02*
X171210000Y-97820000D01*
X171210000Y-100120000D02*
X171210000Y-102630000D01*
X171210000Y-102630000D02*
X158990000Y-102630000D01*
%TO.C,SW11*%
X82790000Y-109460000D02*
X82790000Y-111970000D01*
X82790000Y-109460000D02*
X95010000Y-109460000D01*
X82790000Y-114270000D02*
X82790000Y-116870000D01*
X82790000Y-119170000D02*
X82790000Y-121680000D01*
X95010000Y-109460000D02*
X95010000Y-111970000D01*
X95010000Y-114270000D02*
X95010000Y-116870000D01*
X95010000Y-119170000D02*
X95010000Y-121680000D01*
X95010000Y-121680000D02*
X82790000Y-121680000D01*
%TO.C,SW12*%
X101840000Y-109460000D02*
X101840000Y-111970000D01*
X101840000Y-109460000D02*
X114060000Y-109460000D01*
X101840000Y-114270000D02*
X101840000Y-116870000D01*
X101840000Y-119170000D02*
X101840000Y-121680000D01*
X114060000Y-109460000D02*
X114060000Y-111970000D01*
X114060000Y-114270000D02*
X114060000Y-116870000D01*
X114060000Y-119170000D02*
X114060000Y-121680000D01*
X114060000Y-121680000D02*
X101840000Y-121680000D01*
%TO.C,SW13*%
X120890000Y-109460000D02*
X120890000Y-111970000D01*
X120890000Y-109460000D02*
X133110000Y-109460000D01*
X120890000Y-114270000D02*
X120890000Y-116870000D01*
X120890000Y-119170000D02*
X120890000Y-121680000D01*
X133110000Y-109460000D02*
X133110000Y-111970000D01*
X133110000Y-114270000D02*
X133110000Y-116870000D01*
X133110000Y-119170000D02*
X133110000Y-121680000D01*
X133110000Y-121680000D02*
X120890000Y-121680000D01*
%TO.C,D4*%
X143280000Y-86360000D02*
X143930000Y-86360000D01*
X144530000Y-85240000D02*
X144530000Y-87480000D01*
X144650000Y-85240000D02*
X144650000Y-87480000D01*
X144770000Y-85240000D02*
X144770000Y-87480000D01*
X148820000Y-86360000D02*
X148170000Y-86360000D01*
X143930000Y-85240000D02*
X148170000Y-85240000D01*
X148170000Y-87480000D01*
X143930000Y-87480000D01*
X143930000Y-85240000D01*
%TO.C,SW17*%
X101840000Y-128510000D02*
X101840000Y-131020000D01*
X101840000Y-128510000D02*
X114060000Y-128510000D01*
X101840000Y-133320000D02*
X101840000Y-135920000D01*
X101840000Y-138220000D02*
X101840000Y-140730000D01*
X114060000Y-128510000D02*
X114060000Y-131020000D01*
X114060000Y-133320000D02*
X114060000Y-135920000D01*
X114060000Y-138220000D02*
X114060000Y-140730000D01*
X114060000Y-140730000D02*
X101840000Y-140730000D01*
%TO.C,SW1*%
X82790000Y-71360000D02*
X82790000Y-73870000D01*
X82790000Y-71360000D02*
X95010000Y-71360000D01*
X82790000Y-76170000D02*
X82790000Y-78770000D01*
X82790000Y-81070000D02*
X82790000Y-83580000D01*
X95010000Y-71360000D02*
X95010000Y-73870000D01*
X95010000Y-76170000D02*
X95010000Y-78770000D01*
X95010000Y-81070000D02*
X95010000Y-83580000D01*
X95010000Y-83580000D02*
X82790000Y-83580000D01*
%TO.C,SW14*%
X139940000Y-109460000D02*
X139940000Y-111970000D01*
X139940000Y-109460000D02*
X152160000Y-109460000D01*
X139940000Y-114270000D02*
X139940000Y-116870000D01*
X139940000Y-119170000D02*
X139940000Y-121680000D01*
X152160000Y-109460000D02*
X152160000Y-111970000D01*
X152160000Y-114270000D02*
X152160000Y-116870000D01*
X152160000Y-119170000D02*
X152160000Y-121680000D01*
X152160000Y-121680000D02*
X139940000Y-121680000D01*
%TO.C,SW9*%
X139940000Y-90410000D02*
X139940000Y-92920000D01*
X139940000Y-90410000D02*
X152160000Y-90410000D01*
X139940000Y-95220000D02*
X139940000Y-97820000D01*
X139940000Y-100120000D02*
X139940000Y-102630000D01*
X152160000Y-90410000D02*
X152160000Y-92920000D01*
X152160000Y-95220000D02*
X152160000Y-97820000D01*
X152160000Y-100120000D02*
X152160000Y-102630000D01*
X152160000Y-102630000D02*
X139940000Y-102630000D01*
%TO.C,SW3*%
X120890000Y-71360000D02*
X120890000Y-73870000D01*
X120890000Y-71360000D02*
X133110000Y-71360000D01*
X120890000Y-76170000D02*
X120890000Y-78770000D01*
X120890000Y-81070000D02*
X120890000Y-83580000D01*
X133110000Y-71360000D02*
X133110000Y-73870000D01*
X133110000Y-76170000D02*
X133110000Y-78770000D01*
X133110000Y-81070000D02*
X133110000Y-83580000D01*
X133110000Y-83580000D02*
X120890000Y-83580000D01*
%TO.C,A1*%
X149050000Y-63800000D02*
X149050000Y-63200000D01*
X149600000Y-65000000D02*
X150200000Y-65000000D01*
X149700000Y-62500000D02*
X152500000Y-62500000D01*
X149900000Y-64700000D02*
X149600000Y-65000000D01*
X149900000Y-64700000D02*
X150200000Y-65000000D01*
X152500000Y-64500000D02*
X149700000Y-64500000D01*
X153150000Y-63200000D02*
X153150000Y-63800000D01*
X149050000Y-63200000D02*
G75*
G02*
X149750000Y-62500000I699999J1D01*
G01*
X149750000Y-64500000D02*
G75*
G02*
X149050000Y-63800000I-1J699999D01*
G01*
X152450000Y-62500000D02*
G75*
G02*
X153150000Y-63200000I0J-700000D01*
G01*
X153150000Y-63800000D02*
G75*
G02*
X152450000Y-64500000I-700000J0D01*
G01*
%TO.C,SW15*%
X158990000Y-109460000D02*
X158990000Y-111970000D01*
X158990000Y-109460000D02*
X171210000Y-109460000D01*
X158990000Y-114270000D02*
X158990000Y-116870000D01*
X158990000Y-119170000D02*
X158990000Y-121680000D01*
X171210000Y-109460000D02*
X171210000Y-111970000D01*
X171210000Y-114270000D02*
X171210000Y-116870000D01*
X171210000Y-119170000D02*
X171210000Y-121680000D01*
X171210000Y-121680000D02*
X158990000Y-121680000D01*
%TO.C,D17*%
X105180000Y-143510000D02*
X105830000Y-143510000D01*
X106430000Y-142390000D02*
X106430000Y-144630000D01*
X106550000Y-142390000D02*
X106550000Y-144630000D01*
X106670000Y-142390000D02*
X106670000Y-144630000D01*
X110720000Y-143510000D02*
X110070000Y-143510000D01*
X105830000Y-142390000D02*
X110070000Y-142390000D01*
X110070000Y-144630000D01*
X105830000Y-144630000D01*
X105830000Y-142390000D01*
%TO.C,D10*%
X162330000Y-105410000D02*
X162980000Y-105410000D01*
X163580000Y-104290000D02*
X163580000Y-106530000D01*
X163700000Y-104290000D02*
X163700000Y-106530000D01*
X163820000Y-104290000D02*
X163820000Y-106530000D01*
X167870000Y-105410000D02*
X167220000Y-105410000D01*
X162980000Y-104290000D02*
X167220000Y-104290000D01*
X167220000Y-106530000D01*
X162980000Y-106530000D01*
X162980000Y-104290000D01*
%TO.C,R1*%
X106787500Y-55154724D02*
X106787500Y-54645276D01*
X107832500Y-55154724D02*
X107832500Y-54645276D01*
%TO.C,SW18*%
X120890000Y-128510000D02*
X120890000Y-131020000D01*
X120890000Y-128510000D02*
X133110000Y-128510000D01*
X120890000Y-133320000D02*
X120890000Y-135920000D01*
X120890000Y-138220000D02*
X120890000Y-140730000D01*
X133110000Y-128510000D02*
X133110000Y-131020000D01*
X133110000Y-133320000D02*
X133110000Y-135920000D01*
X133110000Y-138220000D02*
X133110000Y-140730000D01*
X133110000Y-140730000D02*
X120890000Y-140730000D01*
%TO.C,D11*%
X86130000Y-124460000D02*
X86780000Y-124460000D01*
X87380000Y-123340000D02*
X87380000Y-125580000D01*
X87500000Y-123340000D02*
X87500000Y-125580000D01*
X87620000Y-123340000D02*
X87620000Y-125580000D01*
X91670000Y-124460000D02*
X91020000Y-124460000D01*
X86780000Y-123340000D02*
X91020000Y-123340000D01*
X91020000Y-125580000D01*
X86780000Y-125580000D01*
X86780000Y-123340000D01*
%TO.C,D8*%
X124230000Y-105410000D02*
X124880000Y-105410000D01*
X125480000Y-104290000D02*
X125480000Y-106530000D01*
X125600000Y-104290000D02*
X125600000Y-106530000D01*
X125720000Y-104290000D02*
X125720000Y-106530000D01*
X129770000Y-105410000D02*
X129120000Y-105410000D01*
X124880000Y-104290000D02*
X129120000Y-104290000D01*
X129120000Y-106530000D01*
X124880000Y-106530000D01*
X124880000Y-104290000D01*
%TO.C,A0*%
X149050000Y-58720000D02*
X149050000Y-58120000D01*
X149600000Y-59920000D02*
X150200000Y-59920000D01*
X149700000Y-57420000D02*
X152500000Y-57420000D01*
X149900000Y-59620000D02*
X149600000Y-59920000D01*
X149900000Y-59620000D02*
X150200000Y-59920000D01*
X152500000Y-59420000D02*
X149700000Y-59420000D01*
X153150000Y-58120000D02*
X153150000Y-58720000D01*
X149050000Y-58120000D02*
G75*
G02*
X149750000Y-57420000I699999J1D01*
G01*
X149750000Y-59420000D02*
G75*
G02*
X149050000Y-58720000I-1J699999D01*
G01*
X152450000Y-57420000D02*
G75*
G02*
X153150000Y-58120000I0J-700000D01*
G01*
X153150000Y-58720000D02*
G75*
G02*
X152450000Y-59420000I-700000J0D01*
G01*
%TO.C,C1*%
X97890000Y-72146267D02*
X97890000Y-71853733D01*
X98910000Y-72146267D02*
X98910000Y-71853733D01*
%TO.C,D13*%
X124230000Y-124460000D02*
X124880000Y-124460000D01*
X125480000Y-123340000D02*
X125480000Y-125580000D01*
X125600000Y-123340000D02*
X125600000Y-125580000D01*
X125720000Y-123340000D02*
X125720000Y-125580000D01*
X129770000Y-124460000D02*
X129120000Y-124460000D01*
X124880000Y-123340000D02*
X129120000Y-123340000D01*
X129120000Y-125580000D01*
X124880000Y-125580000D01*
X124880000Y-123340000D01*
%TO.C,D3*%
X124230000Y-86360000D02*
X124880000Y-86360000D01*
X125480000Y-85240000D02*
X125480000Y-87480000D01*
X125600000Y-85240000D02*
X125600000Y-87480000D01*
X125720000Y-85240000D02*
X125720000Y-87480000D01*
X129770000Y-86360000D02*
X129120000Y-86360000D01*
X124880000Y-85240000D02*
X129120000Y-85240000D01*
X129120000Y-87480000D01*
X124880000Y-87480000D01*
X124880000Y-85240000D01*
%TO.C,SW4*%
X139940000Y-71360000D02*
X139940000Y-73870000D01*
X139940000Y-71360000D02*
X152160000Y-71360000D01*
X139940000Y-76170000D02*
X139940000Y-78770000D01*
X139940000Y-81070000D02*
X139940000Y-83580000D01*
X152160000Y-71360000D02*
X152160000Y-73870000D01*
X152160000Y-76170000D02*
X152160000Y-78770000D01*
X152160000Y-81070000D02*
X152160000Y-83580000D01*
X152160000Y-83580000D02*
X139940000Y-83580000D01*
%TO.C,D18*%
X124230000Y-143510000D02*
X124880000Y-143510000D01*
X125480000Y-142390000D02*
X125480000Y-144630000D01*
X125600000Y-142390000D02*
X125600000Y-144630000D01*
X125720000Y-142390000D02*
X125720000Y-144630000D01*
X129770000Y-143510000D02*
X129120000Y-143510000D01*
X124880000Y-142390000D02*
X129120000Y-142390000D01*
X129120000Y-144630000D01*
X124880000Y-144630000D01*
X124880000Y-142390000D01*
%TO.C,SW16*%
X82790000Y-128510000D02*
X82790000Y-131020000D01*
X82790000Y-128510000D02*
X95010000Y-128510000D01*
X82790000Y-133320000D02*
X82790000Y-135920000D01*
X82790000Y-138220000D02*
X82790000Y-140730000D01*
X95010000Y-128510000D02*
X95010000Y-131020000D01*
X95010000Y-133320000D02*
X95010000Y-135920000D01*
X95010000Y-138220000D02*
X95010000Y-140730000D01*
X95010000Y-140730000D02*
X82790000Y-140730000D01*
%TO.C,SW5*%
X158990000Y-71360000D02*
X158990000Y-73870000D01*
X158990000Y-71360000D02*
X171210000Y-71360000D01*
X158990000Y-76170000D02*
X158990000Y-78770000D01*
X158990000Y-81070000D02*
X158990000Y-83580000D01*
X171210000Y-71360000D02*
X171210000Y-73870000D01*
X171210000Y-76170000D02*
X171210000Y-78770000D01*
X171210000Y-81070000D02*
X171210000Y-83580000D01*
X171210000Y-83580000D02*
X158990000Y-83580000D01*
%TO.C,SW6*%
X82790000Y-90410000D02*
X82790000Y-92920000D01*
X82790000Y-90410000D02*
X95010000Y-90410000D01*
X82790000Y-95220000D02*
X82790000Y-97820000D01*
X82790000Y-100120000D02*
X82790000Y-102630000D01*
X95010000Y-90410000D02*
X95010000Y-92920000D01*
X95010000Y-95220000D02*
X95010000Y-97820000D01*
X95010000Y-100120000D02*
X95010000Y-102630000D01*
X95010000Y-102630000D02*
X82790000Y-102630000D01*
%TO.C,D5*%
X162330000Y-86360000D02*
X162980000Y-86360000D01*
X163580000Y-85240000D02*
X163580000Y-87480000D01*
X163700000Y-85240000D02*
X163700000Y-87480000D01*
X163820000Y-85240000D02*
X163820000Y-87480000D01*
X167870000Y-86360000D02*
X167220000Y-86360000D01*
X162980000Y-85240000D02*
X167220000Y-85240000D01*
X167220000Y-87480000D01*
X162980000Y-87480000D01*
X162980000Y-85240000D01*
%TO.C,D12*%
X105180000Y-124460000D02*
X105830000Y-124460000D01*
X106430000Y-123340000D02*
X106430000Y-125580000D01*
X106550000Y-123340000D02*
X106550000Y-125580000D01*
X106670000Y-123340000D02*
X106670000Y-125580000D01*
X110720000Y-124460000D02*
X110070000Y-124460000D01*
X105830000Y-123340000D02*
X110070000Y-123340000D01*
X110070000Y-125580000D01*
X105830000Y-125580000D01*
X105830000Y-123340000D01*
%TO.C,U1*%
X93810000Y-59005000D02*
X94055000Y-59005000D01*
X93810000Y-66725000D02*
X93810000Y-59005000D01*
X94055000Y-66725000D02*
X93810000Y-66725000D01*
X111685000Y-59005000D02*
X111930000Y-59005000D01*
X111930000Y-59005000D02*
X111930000Y-66725000D01*
X111930000Y-66725000D02*
X111685000Y-66725000D01*
X94050000Y-67515000D02*
X93580000Y-67855000D01*
X93580000Y-67175000D01*
X94050000Y-67515000D01*
G36*
X94050000Y-67515000D02*
G01*
X93580000Y-67855000D01*
X93580000Y-67175000D01*
X94050000Y-67515000D01*
G37*
%TO.C,D20*%
X162330000Y-143510000D02*
X162980000Y-143510000D01*
X163580000Y-142390000D02*
X163580000Y-144630000D01*
X163700000Y-142390000D02*
X163700000Y-144630000D01*
X163820000Y-142390000D02*
X163820000Y-144630000D01*
X167870000Y-143510000D02*
X167220000Y-143510000D01*
X162980000Y-142390000D02*
X167220000Y-142390000D01*
X167220000Y-144630000D01*
X162980000Y-144630000D01*
X162980000Y-142390000D01*
%TO.C,D15*%
X162330000Y-124460000D02*
X162980000Y-124460000D01*
X163580000Y-123340000D02*
X163580000Y-125580000D01*
X163700000Y-123340000D02*
X163700000Y-125580000D01*
X163820000Y-123340000D02*
X163820000Y-125580000D01*
X167870000Y-124460000D02*
X167220000Y-124460000D01*
X162980000Y-123340000D02*
X167220000Y-123340000D01*
X167220000Y-125580000D01*
X162980000Y-125580000D01*
X162980000Y-123340000D01*
%TO.C,D7*%
X105180000Y-105410000D02*
X105830000Y-105410000D01*
X106430000Y-104290000D02*
X106430000Y-106530000D01*
X106550000Y-104290000D02*
X106550000Y-106530000D01*
X106670000Y-104290000D02*
X106670000Y-106530000D01*
X110720000Y-105410000D02*
X110070000Y-105410000D01*
X105830000Y-104290000D02*
X110070000Y-104290000D01*
X110070000Y-106530000D01*
X105830000Y-106530000D01*
X105830000Y-104290000D01*
%TO.C,D6*%
X86130000Y-105410000D02*
X86780000Y-105410000D01*
X87380000Y-104290000D02*
X87380000Y-106530000D01*
X87500000Y-104290000D02*
X87500000Y-106530000D01*
X87620000Y-104290000D02*
X87620000Y-106530000D01*
X91670000Y-105410000D02*
X91020000Y-105410000D01*
X86780000Y-104290000D02*
X91020000Y-104290000D01*
X91020000Y-106530000D01*
X86780000Y-106530000D01*
X86780000Y-104290000D01*
%TO.C,D14*%
X143280000Y-124460000D02*
X143930000Y-124460000D01*
X144530000Y-123340000D02*
X144530000Y-125580000D01*
X144650000Y-123340000D02*
X144650000Y-125580000D01*
X144770000Y-123340000D02*
X144770000Y-125580000D01*
X148820000Y-124460000D02*
X148170000Y-124460000D01*
X143930000Y-123340000D02*
X148170000Y-123340000D01*
X148170000Y-125580000D01*
X143930000Y-125580000D01*
X143930000Y-123340000D01*
%TO.C,SW20*%
X158990000Y-128510000D02*
X158990000Y-131020000D01*
X158990000Y-128510000D02*
X171210000Y-128510000D01*
X158990000Y-133320000D02*
X158990000Y-135920000D01*
X158990000Y-138220000D02*
X158990000Y-140730000D01*
X171210000Y-128510000D02*
X171210000Y-131020000D01*
X171210000Y-133320000D02*
X171210000Y-135920000D01*
X171210000Y-138220000D02*
X171210000Y-140730000D01*
X171210000Y-140730000D02*
X158990000Y-140730000D01*
%TO.C,SW2*%
X101840000Y-71360000D02*
X101840000Y-73870000D01*
X101840000Y-71360000D02*
X114060000Y-71360000D01*
X101840000Y-76170000D02*
X101840000Y-78770000D01*
X101840000Y-81070000D02*
X101840000Y-83580000D01*
X114060000Y-71360000D02*
X114060000Y-73870000D01*
X114060000Y-76170000D02*
X114060000Y-78770000D01*
X114060000Y-81070000D02*
X114060000Y-83580000D01*
X114060000Y-83580000D02*
X101840000Y-83580000D01*
%TO.C,D19*%
X143280000Y-143510000D02*
X143930000Y-143510000D01*
X144530000Y-142390000D02*
X144530000Y-144630000D01*
X144650000Y-142390000D02*
X144650000Y-144630000D01*
X144770000Y-142390000D02*
X144770000Y-144630000D01*
X148820000Y-143510000D02*
X148170000Y-143510000D01*
X143930000Y-142390000D02*
X148170000Y-142390000D01*
X148170000Y-144630000D01*
X143930000Y-144630000D01*
X143930000Y-142390000D01*
%TO.C,D16*%
X86130000Y-143510000D02*
X86780000Y-143510000D01*
X87380000Y-142390000D02*
X87380000Y-144630000D01*
X87500000Y-142390000D02*
X87500000Y-144630000D01*
X87620000Y-142390000D02*
X87620000Y-144630000D01*
X91670000Y-143510000D02*
X91020000Y-143510000D01*
X86780000Y-142390000D02*
X91020000Y-142390000D01*
X91020000Y-144630000D01*
X86780000Y-144630000D01*
X86780000Y-142390000D01*
%TO.C,D2*%
X105180000Y-86360000D02*
X105830000Y-86360000D01*
X106430000Y-85240000D02*
X106430000Y-87480000D01*
X106550000Y-85240000D02*
X106550000Y-87480000D01*
X106670000Y-85240000D02*
X106670000Y-87480000D01*
X110720000Y-86360000D02*
X110070000Y-86360000D01*
X105830000Y-85240000D02*
X110070000Y-85240000D01*
X110070000Y-87480000D01*
X105830000Y-87480000D01*
X105830000Y-85240000D01*
%TO.C,SW8*%
X120890000Y-90410000D02*
X120890000Y-92920000D01*
X120890000Y-90410000D02*
X133110000Y-90410000D01*
X120890000Y-95220000D02*
X120890000Y-97820000D01*
X120890000Y-100120000D02*
X120890000Y-102630000D01*
X133110000Y-90410000D02*
X133110000Y-92920000D01*
X133110000Y-95220000D02*
X133110000Y-97820000D01*
X133110000Y-100120000D02*
X133110000Y-102630000D01*
X133110000Y-102630000D02*
X120890000Y-102630000D01*
%TO.C,SW7*%
X101840000Y-90410000D02*
X101840000Y-92920000D01*
X101840000Y-90410000D02*
X114060000Y-90410000D01*
X101840000Y-95220000D02*
X101840000Y-97820000D01*
X101840000Y-100120000D02*
X101840000Y-102630000D01*
X114060000Y-90410000D02*
X114060000Y-92920000D01*
X114060000Y-95220000D02*
X114060000Y-97820000D01*
X114060000Y-100120000D02*
X114060000Y-102630000D01*
X114060000Y-102630000D02*
X101840000Y-102630000D01*
%TO.C,D9*%
X143280000Y-105410000D02*
X143930000Y-105410000D01*
X144530000Y-104290000D02*
X144530000Y-106530000D01*
X144650000Y-104290000D02*
X144650000Y-106530000D01*
X144770000Y-104290000D02*
X144770000Y-106530000D01*
X148820000Y-105410000D02*
X148170000Y-105410000D01*
X143930000Y-104290000D02*
X148170000Y-104290000D01*
X148170000Y-106530000D01*
X143930000Y-106530000D01*
X143930000Y-104290000D01*
%TD*%
M02*
