M48
; DRILL file KiCad 10.0.5 date 2026-08-30T10:19:21
; FORMAT={-:-/ absolute / metric / decimal}
; #@! TF.CreationDate,2026-08-30T10:19:21-07:00
; #@! TF.GenerationSoftware,Kicad,Pcbnew,10.0.5
; #@! TF.FileFunction,NonPlated,1,2,NPTH
FMAT,2
METRIC
; #@! TA.AperFunction,NonPlated,NPTH,ComponentDrill
T1C1.800
%
G90
G05
T1
X88.9Y-72.97
X88.9Y-81.97
X88.9Y-92.02
X88.9Y-101.02
X88.9Y-111.07
X88.9Y-120.07
X88.9Y-130.12
X88.9Y-139.12
X107.95Y-72.97
X107.95Y-81.97
X107.95Y-92.02
X107.95Y-101.02
X107.95Y-111.07
X107.95Y-120.07
X107.95Y-130.12
X107.95Y-139.12
X127.0Y-72.97
X127.0Y-81.97
X127.0Y-92.02
X127.0Y-101.02
X127.0Y-111.07
X127.0Y-120.07
X127.0Y-130.12
X127.0Y-139.12
X146.05Y-72.97
X146.05Y-81.97
X146.05Y-92.02
X146.05Y-101.02
X146.05Y-111.07
X146.05Y-120.07
X146.05Y-130.12
X146.05Y-139.12
X165.1Y-72.97
X165.1Y-81.97
X165.1Y-92.02
X165.1Y-101.02
X165.1Y-111.07
X165.1Y-120.07
X165.1Y-130.12
X165.1Y-139.12
M30
