M48
; DRILL file KiCad 10.0.5 date 2026-08-30T10:19:21
; FORMAT={-:-/ absolute / metric / decimal}
; #@! TF.CreationDate,2026-08-30T10:19:21-07:00
; #@! TF.GenerationSoftware,Kicad,Pcbnew,10.0.5
; #@! TF.FileFunction,Plated,1,2,PTH
FMAT,2
METRIC
; #@! TA.AperFunction,Plated,PTH,ViaDrill
T1C0.300
; #@! TA.AperFunction,Plated,PTH,ComponentDrill
T2C0.800
; #@! TA.AperFunction,Plated,PTH,ComponentDrill
T3C1.000
; #@! TA.AperFunction,Plated,PTH,ComponentDrill
T4C1.200
; #@! TA.AperFunction,Plated,PTH,ComponentDrill
T5C3.200
%
G90
G05
T1
X94.615Y-69.85
X95.885Y-69.85
X97.155Y-69.85
X98.425Y-69.85
X99.695Y-69.85
X103.2Y-69.7
X104.78Y-55.6
X106.045Y-69.215
X107.31Y-53.8
X107.31Y-57.0
X116.5Y-57.4
X148.3Y-58.42
X148.3Y-63.5
X152.4Y-57.0
X156.0Y-66.04
X160.08Y-57.0
T2
X85.09Y-86.36
X85.09Y-105.41
X85.09Y-124.46
X85.09Y-143.51
X92.71Y-86.36
X92.71Y-105.41
X92.71Y-124.46
X92.71Y-143.51
X104.14Y-86.36
X104.14Y-105.41
X104.14Y-124.46
X104.14Y-143.51
X111.76Y-86.36
X111.76Y-105.41
X111.76Y-124.46
X111.76Y-143.51
X123.19Y-86.36
X123.19Y-105.41
X123.19Y-124.46
X123.19Y-143.51
X130.81Y-86.36
X130.81Y-105.41
X130.81Y-124.46
X130.81Y-143.51
X142.24Y-86.36
X142.24Y-105.41
X142.24Y-124.46
X142.24Y-143.51
X149.86Y-86.36
X149.86Y-105.41
X149.86Y-124.46
X149.86Y-143.51
X161.29Y-86.36
X161.29Y-105.41
X161.29Y-124.46
X161.29Y-143.51
X168.91Y-86.36
X168.91Y-105.41
X168.91Y-124.46
X168.91Y-143.51
T3
X118.12Y-63.5
X118.12Y-60.96
X120.66Y-60.96
X120.66Y-63.5
X123.2Y-60.96
X123.2Y-63.5
X125.74Y-60.96
X125.74Y-63.5
X128.28Y-60.96
X128.28Y-63.5
X130.82Y-60.96
X130.82Y-63.5
X133.36Y-60.96
X133.36Y-63.5
X135.9Y-60.96
X135.9Y-63.5
T4
X82.65Y-74.97
X82.65Y-79.97
X82.65Y-94.02
X82.65Y-99.02
X82.65Y-113.07
X82.65Y-118.07
X82.65Y-132.12
X82.65Y-137.12
X95.15Y-74.97
X95.15Y-79.97
X95.15Y-94.02
X95.15Y-99.02
X95.15Y-113.07
X95.15Y-118.07
X95.15Y-132.12
X95.15Y-137.12
X101.7Y-74.97
X101.7Y-79.97
X101.7Y-94.02
X101.7Y-99.02
X101.7Y-113.07
X101.7Y-118.07
X101.7Y-132.12
X101.7Y-137.12
X114.2Y-74.97
X114.2Y-79.97
X114.2Y-94.02
X114.2Y-99.02
X114.2Y-113.07
X114.2Y-118.07
X114.2Y-132.12
X114.2Y-137.12
X120.75Y-74.97
X120.75Y-79.97
X120.75Y-94.02
X120.75Y-99.02
X120.75Y-113.07
X120.75Y-118.07
X120.75Y-132.12
X120.75Y-137.12
X133.25Y-74.97
X133.25Y-79.97
X133.25Y-94.02
X133.25Y-99.02
X133.25Y-113.07
X133.25Y-118.07
X133.25Y-132.12
X133.25Y-137.12
X139.8Y-74.97
X139.8Y-79.97
X139.8Y-94.02
X139.8Y-99.02
X139.8Y-113.07
X139.8Y-118.07
X139.8Y-132.12
X139.8Y-137.12
X152.3Y-74.97
X152.3Y-79.97
X152.3Y-94.02
X152.3Y-99.02
X152.3Y-113.07
X152.3Y-118.07
X152.3Y-132.12
X152.3Y-137.12
X158.85Y-74.97
X158.85Y-79.97
X158.85Y-94.02
X158.85Y-99.02
X158.85Y-113.07
X158.85Y-118.07
X158.85Y-132.12
X158.85Y-137.12
X171.35Y-74.97
X171.35Y-79.97
X171.35Y-94.02
X171.35Y-99.02
X171.35Y-113.07
X171.35Y-118.07
X171.35Y-132.12
X171.35Y-137.12
T5
X81.28Y-55.88
X81.28Y-147.32
X172.72Y-55.88
X172.72Y-147.32
M30
