%TF.GenerationSoftware,KiCad,Pcbnew,10.0.5*%
%TF.CreationDate,2026-08-30T10:19:16-07:00*%
%TF.ProjectId,daisy_buttons_breakout_1,64616973-795f-4627-9574-746f6e735f62,rev?*%
%TF.SameCoordinates,Original*%
%TF.FileFunction,Copper,L1,Top*%
%TF.FilePolarity,Positive*%
%FSLAX46Y46*%
G04 Gerber Fmt 4.6, Leading zero omitted, Abs format (unit mm)*
G04 Created by KiCad (PCBNEW 10.0.5) date 2026-08-30 10:19:16*
%MOMM*%
%LPD*%
G01*
G04 APERTURE LIST*
G04 Aperture macros list*
%AMRoundRect*
0 Rectangle with rounded corners*
0 $1 Rounding radius*
0 $2 $3 $4 $5 $6 $7 $8 $9 X,Y pos of 4 corners*
0 Add a 4 corners polygon primitive as box body*
4,1,4,$2,$3,$4,$5,$6,$7,$8,$9,$2,$3,0*
0 Add four circle primitives for the rounded corners*
1,1,$1+$1,$2,$3*
1,1,$1+$1,$4,$5*
1,1,$1+$1,$6,$7*
1,1,$1+$1,$8,$9*
0 Add four rect primitives between the rounded corners*
20,1,$1+$1,$2,$3,$4,$5,0*
20,1,$1+$1,$4,$5,$6,$7,0*
20,1,$1+$1,$6,$7,$8,$9,0*
20,1,$1+$1,$8,$9,$2,$3,0*%
%AMFreePoly0*
4,1,23,0.550000,-0.750000,0.000000,-0.750000,0.000000,-0.745722,-0.065263,-0.745722,-0.191342,-0.711940,-0.304381,-0.646677,-0.396677,-0.554381,-0.461940,-0.441342,-0.495722,-0.315263,-0.495722,-0.250000,-0.500000,-0.250000,-0.500000,0.250000,-0.495722,0.250000,-0.495722,0.315263,-0.461940,0.441342,-0.396677,0.554381,-0.304381,0.646677,-0.191342,0.711940,-0.065263,0.745722,0.000000,0.745722,
0.000000,0.750000,0.550000,0.750000,0.550000,-0.750000,0.550000,-0.750000,$1*%
%AMFreePoly1*
4,1,23,0.000000,0.745722,0.065263,0.745722,0.191342,0.711940,0.304381,0.646677,0.396677,0.554381,0.461940,0.441342,0.495722,0.315263,0.495722,0.250000,0.500000,0.250000,0.500000,-0.250000,0.495722,-0.250000,0.495722,-0.315263,0.461940,-0.441342,0.396677,-0.554381,0.304381,-0.646677,0.191342,-0.711940,0.065263,-0.745722,0.000000,-0.745722,0.000000,-0.750000,-0.550000,-0.750000,
-0.550000,0.750000,0.000000,0.750000,0.000000,0.745722,0.000000,0.745722,$1*%
G04 Aperture macros list end*
%TA.AperFunction,EtchedComponent*%
%ADD10C,0.000000*%
%TD*%
%TA.AperFunction,ComponentPad*%
%ADD11R,1.700000X1.700000*%
%TD*%
%TA.AperFunction,ComponentPad*%
%ADD12C,1.700000*%
%TD*%
%TA.AperFunction,ComponentPad*%
%ADD13O,2.900000X1.700000*%
%TD*%
%TA.AperFunction,SMDPad,CuDef*%
%ADD14FreePoly0,0.000000*%
%TD*%
%TA.AperFunction,SMDPad,CuDef*%
%ADD15R,1.000000X1.500000*%
%TD*%
%TA.AperFunction,SMDPad,CuDef*%
%ADD16FreePoly1,0.000000*%
%TD*%
%TA.AperFunction,ComponentPad*%
%ADD17RoundRect,0.250000X-0.550000X-0.550000X0.550000X-0.550000X0.550000X0.550000X-0.550000X0.550000X0*%
%TD*%
%TA.AperFunction,ComponentPad*%
%ADD18C,1.600000*%
%TD*%
%TA.AperFunction,ComponentPad*%
%ADD19C,6.400000*%
%TD*%
%TA.AperFunction,SMDPad,CuDef*%
%ADD20RoundRect,0.237500X0.237500X-0.250000X0.237500X0.250000X-0.237500X0.250000X-0.237500X-0.250000X0*%
%TD*%
%TA.AperFunction,SMDPad,CuDef*%
%ADD21RoundRect,0.237500X0.237500X-0.300000X0.237500X0.300000X-0.237500X0.300000X-0.237500X-0.300000X0*%
%TD*%
%TA.AperFunction,SMDPad,CuDef*%
%ADD22RoundRect,0.150000X0.150000X-0.875000X0.150000X0.875000X-0.150000X0.875000X-0.150000X-0.875000X0*%
%TD*%
%TA.AperFunction,ViaPad*%
%ADD23C,0.600000*%
%TD*%
%TA.AperFunction,Conductor*%
%ADD24C,0.200000*%
%TD*%
G04 APERTURE END LIST*
D10*
%TA.AperFunction,EtchedComponent*%
%TO.C,A2*%
G36*
X158380000Y-66340000D02*
G01*
X157880000Y-66340000D01*
X157880000Y-65740000D01*
X158380000Y-65740000D01*
X158380000Y-66340000D01*
G37*
%TD.AperFunction*%
%TA.AperFunction,EtchedComponent*%
%TO.C,A1*%
G36*
X150700000Y-63800000D02*
G01*
X150200000Y-63800000D01*
X150200000Y-63200000D01*
X150700000Y-63200000D01*
X150700000Y-63800000D01*
G37*
%TD.AperFunction*%
%TA.AperFunction,EtchedComponent*%
%TO.C,A0*%
G36*
X150700000Y-58720000D02*
G01*
X150200000Y-58720000D01*
X150200000Y-58120000D01*
X150700000Y-58120000D01*
X150700000Y-58720000D01*
G37*
%TD.AperFunction*%
%TD*%
D11*
%TO.P,J1,1,Pin_1_1*%
%TO.N,GND*%
X135900000Y-63500000D03*
D12*
%TO.P,J1,2,Pin_2_2*%
%TO.N,unconnected-(J1-Pin_2-Pad2)*%
X135900000Y-60960000D03*
%TO.P,J1,3,Pin_3_3*%
%TO.N,GND*%
X133360000Y-63500000D03*
%TO.P,J1,4,Pin_4_4*%
%TO.N,VCC*%
X133360000Y-60960000D03*
%TO.P,J1,5,Pin_5_5*%
%TO.N,/SDA*%
X130820001Y-63500000D03*
%TO.P,J1,6,Pin_6_6*%
%TO.N,/SCK*%
X130820000Y-60960000D03*
%TO.P,J1,7,Pin_7_7*%
%TO.N,unconnected-(J1-Pin_7-Pad7)*%
X128280000Y-63500000D03*
%TO.P,J1,8,Pin_8_8*%
%TO.N,unconnected-(J1-Pin_8-Pad8)*%
X128280000Y-60960000D03*
%TO.P,J1,9,Pin_9_9*%
%TO.N,unconnected-(J1-Pin_9-Pad9)*%
X125740000Y-63500000D03*
%TO.P,J1,10,Pin_10_10*%
%TO.N,/INT_A*%
X125740000Y-60960000D03*
%TO.P,J1,11,Pin_11_11*%
%TO.N,/RST*%
X123200000Y-63500000D03*
%TO.P,J1,12,Pin_12_12*%
%TO.N,unconnected-(J1-Pin_12-Pad12)*%
X123200000Y-60960000D03*
%TO.P,J1,13,Pin_13_13*%
%TO.N,GND*%
X120660000Y-63500000D03*
%TO.P,J1,14,Pin_14_14*%
%TO.N,unconnected-(J1-Pin_14-Pad14)*%
X120660000Y-60960000D03*
%TO.P,J1,15,Pin_15_15*%
%TO.N,unconnected-(J1-Pin_15-Pad15)*%
X118119999Y-63500000D03*
%TO.P,J1,16,Pin_16_16*%
%TO.N,GND*%
X118120000Y-60960000D03*
%TD*%
D13*
%TO.P,SW19,1,1_1*%
%TO.N,Net-(D19-A)*%
X139800000Y-132120000D03*
X152300000Y-132120000D03*
%TO.P,SW19,2,2_2*%
%TO.N,/B3*%
X139800000Y-137120000D03*
X152300000Y-137120000D03*
%TD*%
D14*
%TO.P,A2,1,A_1*%
%TO.N,GND*%
X157480000Y-66040000D03*
D15*
%TO.P,A2,2,C_2*%
%TO.N,Net-(A2-C)*%
X158780000Y-66040000D03*
D16*
%TO.P,A2,3,B_3*%
%TO.N,VCC*%
X160080000Y-66040000D03*
%TD*%
D17*
%TO.P,D1,1,K_1*%
%TO.N,/A0*%
X85090000Y-86360000D03*
D18*
%TO.P,D1,2,A_2*%
%TO.N,Net-(D1-A)*%
X92710000Y-86360000D03*
%TD*%
D13*
%TO.P,SW10,1,1_1*%
%TO.N,Net-(D10-A)*%
X158850000Y-94020000D03*
X171350000Y-94020000D03*
%TO.P,SW10,2,2_2*%
%TO.N,/B4*%
X158850000Y-99020000D03*
X171350000Y-99020000D03*
%TD*%
%TO.P,SW11,1,1_1*%
%TO.N,Net-(D11-A)*%
X82650000Y-113070000D03*
X95150000Y-113070000D03*
%TO.P,SW11,2,2_2*%
%TO.N,/B0*%
X82650000Y-118070000D03*
X95150000Y-118070000D03*
%TD*%
%TO.P,SW12,1,1_1*%
%TO.N,Net-(D12-A)*%
X101700000Y-113070000D03*
X114200000Y-113070000D03*
%TO.P,SW12,2,2_2*%
%TO.N,/B1*%
X101700000Y-118070000D03*
X114200000Y-118070000D03*
%TD*%
%TO.P,SW13,1,1_1*%
%TO.N,Net-(D13-A)*%
X120750000Y-113070000D03*
X133250000Y-113070000D03*
%TO.P,SW13,2,2_2*%
%TO.N,/B2*%
X120750000Y-118070000D03*
X133250000Y-118070000D03*
%TD*%
D19*
%TO.P,REF\u002A\u002A,1*%
%TO.N,N/C*%
X81280000Y-55880000D03*
%TD*%
D17*
%TO.P,D4,1,K_1*%
%TO.N,/A0*%
X142240000Y-86360000D03*
D18*
%TO.P,D4,2,A_2*%
%TO.N,Net-(D4-A)*%
X149860000Y-86360000D03*
%TD*%
D13*
%TO.P,SW17,1,1_1*%
%TO.N,Net-(D17-A)*%
X101700000Y-132120000D03*
X114200000Y-132120000D03*
%TO.P,SW17,2,2_2*%
%TO.N,/B1*%
X101700000Y-137120000D03*
X114200000Y-137120000D03*
%TD*%
%TO.P,SW1,1,1_1*%
%TO.N,Net-(D1-A)*%
X82650000Y-74970000D03*
X95150000Y-74970000D03*
%TO.P,SW1,2,2_2*%
%TO.N,/B0*%
X82650000Y-79970000D03*
X95150000Y-79970000D03*
%TD*%
%TO.P,SW14,1,1_1*%
%TO.N,Net-(D14-A)*%
X139800000Y-113070000D03*
X152300000Y-113070000D03*
%TO.P,SW14,2,2_2*%
%TO.N,/B3*%
X139800000Y-118070000D03*
X152300000Y-118070000D03*
%TD*%
%TO.P,SW9,1,1_1*%
%TO.N,Net-(D9-A)*%
X139800000Y-94020000D03*
X152300000Y-94020000D03*
%TO.P,SW9,2,2_2*%
%TO.N,/B3*%
X139800000Y-99020000D03*
X152300000Y-99020000D03*
%TD*%
%TO.P,SW3,1,1_1*%
%TO.N,Net-(D3-A)*%
X120750000Y-74970000D03*
X133250000Y-74970000D03*
%TO.P,SW3,2,2_2*%
%TO.N,/B2*%
X120750000Y-79970000D03*
X133250000Y-79970000D03*
%TD*%
D14*
%TO.P,A1,1,A_1*%
%TO.N,GND*%
X149800000Y-63500000D03*
D15*
%TO.P,A1,2,C_2*%
%TO.N,Net-(A1-C)*%
X151100000Y-63500000D03*
D16*
%TO.P,A1,3,B_3*%
%TO.N,VCC*%
X152400000Y-63500000D03*
%TD*%
D13*
%TO.P,SW15,1,1_1*%
%TO.N,Net-(D15-A)*%
X158850000Y-113070000D03*
X171350000Y-113070000D03*
%TO.P,SW15,2,2_2*%
%TO.N,/B4*%
X158850000Y-118070000D03*
X171350000Y-118070000D03*
%TD*%
D19*
%TO.P,REF\u002A\u002A,1*%
%TO.N,N/C*%
X172720000Y-55880000D03*
%TD*%
D17*
%TO.P,D17,1,K_1*%
%TO.N,/A3*%
X104140000Y-143510000D03*
D18*
%TO.P,D17,2,A_2*%
%TO.N,Net-(D17-A)*%
X111760000Y-143510000D03*
%TD*%
D17*
%TO.P,D10,1,K_1*%
%TO.N,/A1*%
X161290000Y-105410000D03*
D18*
%TO.P,D10,2,A_2*%
%TO.N,Net-(D10-A)*%
X168910000Y-105410000D03*
%TD*%
D20*
%TO.P,R1,1*%
%TO.N,/RST*%
X107310000Y-55812500D03*
%TO.P,R1,2*%
%TO.N,VCC*%
X107310000Y-53987500D03*
%TD*%
D13*
%TO.P,SW18,1,1_1*%
%TO.N,Net-(D18-A)*%
X120750000Y-132120000D03*
X133250000Y-132120000D03*
%TO.P,SW18,2,2_2*%
%TO.N,/B2*%
X120750000Y-137120000D03*
X133250000Y-137120000D03*
%TD*%
D17*
%TO.P,D11,1,K_1*%
%TO.N,/A2*%
X85090000Y-124460000D03*
D18*
%TO.P,D11,2,A_2*%
%TO.N,Net-(D11-A)*%
X92710000Y-124460000D03*
%TD*%
D17*
%TO.P,D8,1,K_1*%
%TO.N,/A1*%
X123190000Y-105410000D03*
D18*
%TO.P,D8,2,A_2*%
%TO.N,Net-(D8-A)*%
X130810000Y-105410000D03*
%TD*%
D14*
%TO.P,A0,1,A_1*%
%TO.N,GND*%
X149800000Y-58420000D03*
D15*
%TO.P,A0,2,C_2*%
%TO.N,Net-(A0-C)*%
X151100000Y-58420000D03*
D16*
%TO.P,A0,3,B_3*%
%TO.N,VCC*%
X152400000Y-58420000D03*
%TD*%
D21*
%TO.P,C1,1*%
%TO.N,GND*%
X98400000Y-72862500D03*
%TO.P,C1,2*%
%TO.N,VCC*%
X98400000Y-71137500D03*
%TD*%
D17*
%TO.P,D13,1,K_1*%
%TO.N,/A2*%
X123190000Y-124460000D03*
D18*
%TO.P,D13,2,A_2*%
%TO.N,Net-(D13-A)*%
X130810000Y-124460000D03*
%TD*%
D17*
%TO.P,D3,1,K_1*%
%TO.N,/A0*%
X123190000Y-86360000D03*
D18*
%TO.P,D3,2,A_2*%
%TO.N,Net-(D3-A)*%
X130810000Y-86360000D03*
%TD*%
D13*
%TO.P,SW4,1,1_1*%
%TO.N,Net-(D4-A)*%
X139800000Y-74970000D03*
X152300000Y-74970000D03*
%TO.P,SW4,2,2_2*%
%TO.N,/B3*%
X139800000Y-79970000D03*
X152300000Y-79970000D03*
%TD*%
D17*
%TO.P,D18,1,K_1*%
%TO.N,/A3*%
X123190000Y-143510000D03*
D18*
%TO.P,D18,2,A_2*%
%TO.N,Net-(D18-A)*%
X130810000Y-143510000D03*
%TD*%
D13*
%TO.P,SW16,1,1_1*%
%TO.N,Net-(D16-A)*%
X82650000Y-132120000D03*
X95150000Y-132120000D03*
%TO.P,SW16,2,2_2*%
%TO.N,/B0*%
X82650000Y-137120000D03*
X95150000Y-137120000D03*
%TD*%
%TO.P,SW5,1,1_1*%
%TO.N,Net-(D5-A)*%
X158850000Y-74970000D03*
X171350000Y-74970000D03*
%TO.P,SW5,2,2_2*%
%TO.N,/B4*%
X158850000Y-79970000D03*
X171350000Y-79970000D03*
%TD*%
%TO.P,SW6,1,1_1*%
%TO.N,Net-(D6-A)*%
X82650000Y-94020000D03*
X95150000Y-94020000D03*
%TO.P,SW6,2,2_2*%
%TO.N,/B0*%
X82650000Y-99020000D03*
X95150000Y-99020000D03*
%TD*%
D17*
%TO.P,D5,1,K_1*%
%TO.N,/A0*%
X161290000Y-86360000D03*
D18*
%TO.P,D5,2,A_2*%
%TO.N,Net-(D5-A)*%
X168910000Y-86360000D03*
%TD*%
D17*
%TO.P,D12,1,K_1*%
%TO.N,/A2*%
X104140000Y-124460000D03*
D18*
%TO.P,D12,2,A_2*%
%TO.N,Net-(D12-A)*%
X111760000Y-124460000D03*
%TD*%
D22*
%TO.P,U1,1,GPB0_1*%
%TO.N,/B0*%
X94615000Y-67515000D03*
%TO.P,U1,2,GPB1_2*%
%TO.N,/B1*%
X95885001Y-67515000D03*
%TO.P,U1,3,GPB2_3*%
%TO.N,/B2*%
X97155001Y-67515000D03*
%TO.P,U1,4,GPB3_4*%
%TO.N,/B3*%
X98425000Y-67515000D03*
%TO.P,U1,5,GPB4_5*%
%TO.N,/B4*%
X99695000Y-67515001D03*
%TO.P,U1,6,GPB5_6*%
%TO.N,/B5*%
X100965000Y-67515000D03*
%TO.P,U1,7,GPB6_7*%
%TO.N,/B6*%
X102235000Y-67515000D03*
%TO.P,U1,8,GPB7_8*%
%TO.N,/B7*%
X103505000Y-67515000D03*
%TO.P,U1,9,V_{DD}_9*%
%TO.N,VCC*%
X104775000Y-67515000D03*
%TO.P,U1,10,V_{SS}_10*%
%TO.N,GND*%
X106045000Y-67515001D03*
%TO.P,U1,11,NC_11*%
%TO.N,unconnected-(U1-NC-Pad11)*%
X107315000Y-67515000D03*
%TO.P,U1,12,SCK_12*%
%TO.N,/SCK*%
X108585000Y-67515000D03*
%TO.P,U1,13,SDA_13*%
%TO.N,/SDA*%
X109854999Y-67515000D03*
%TO.P,U1,14,NC_14*%
%TO.N,unconnected-(U1-NC-Pad14)*%
X111125000Y-67515000D03*
%TO.P,U1,15,A0_15*%
%TO.N,Net-(A0-C)*%
X111125000Y-58215000D03*
%TO.P,U1,16,A1_16*%
%TO.N,Net-(A1-C)*%
X109854999Y-58215000D03*
%TO.P,U1,17,A2_17*%
%TO.N,Net-(A2-C)*%
X108584999Y-58215000D03*
%TO.P,U1,18,~{RESET}_18*%
%TO.N,/RST*%
X107315000Y-58215000D03*
%TO.P,U1,19,INTB_19*%
%TO.N,/INT_B*%
X106045000Y-58214999D03*
%TO.P,U1,20,INTA_20*%
%TO.N,/INT_A*%
X104775000Y-58215000D03*
%TO.P,U1,21,GPA0_21*%
%TO.N,/A0*%
X103505000Y-58215000D03*
%TO.P,U1,22,GPA1_22*%
%TO.N,/A1*%
X102235000Y-58215000D03*
%TO.P,U1,23,GPA2_23*%
%TO.N,/A2*%
X100965000Y-58215000D03*
%TO.P,U1,24,GPA3_24*%
%TO.N,/A3*%
X99695000Y-58214999D03*
%TO.P,U1,25,GPA4_25*%
%TO.N,/A4*%
X98425000Y-58215000D03*
%TO.P,U1,26,GPA5_26*%
%TO.N,/A5*%
X97155000Y-58215000D03*
%TO.P,U1,27,GPA6_27*%
%TO.N,/A6*%
X95885001Y-58215000D03*
%TO.P,U1,28,GPA7_28*%
%TO.N,/A7*%
X94615000Y-58215000D03*
%TD*%
D17*
%TO.P,D20,1,K_1*%
%TO.N,/A3*%
X161290000Y-143510000D03*
D18*
%TO.P,D20,2,A_2*%
%TO.N,Net-(D20-A)*%
X168910000Y-143510000D03*
%TD*%
D17*
%TO.P,D15,1,K_1*%
%TO.N,/A2*%
X161290000Y-124460000D03*
D18*
%TO.P,D15,2,A_2*%
%TO.N,Net-(D15-A)*%
X168910000Y-124460000D03*
%TD*%
D17*
%TO.P,D7,1,K_1*%
%TO.N,/A1*%
X104140000Y-105410000D03*
D18*
%TO.P,D7,2,A_2*%
%TO.N,Net-(D7-A)*%
X111760000Y-105410000D03*
%TD*%
D17*
%TO.P,D6,1,K_1*%
%TO.N,/A1*%
X85090000Y-105410000D03*
D18*
%TO.P,D6,2,A_2*%
%TO.N,Net-(D6-A)*%
X92710000Y-105410000D03*
%TD*%
D17*
%TO.P,D14,1,K_1*%
%TO.N,/A2*%
X142240000Y-124460000D03*
D18*
%TO.P,D14,2,A_2*%
%TO.N,Net-(D14-A)*%
X149860000Y-124460000D03*
%TD*%
D19*
%TO.P,REF\u002A\u002A,1*%
%TO.N,N/C*%
X81280000Y-147320000D03*
%TD*%
D13*
%TO.P,SW20,1,1_1*%
%TO.N,Net-(D20-A)*%
X158850000Y-132120000D03*
X171350000Y-132120000D03*
%TO.P,SW20,2,2_2*%
%TO.N,/B4*%
X158850000Y-137120000D03*
X171350000Y-137120000D03*
%TD*%
%TO.P,SW2,1,1_1*%
%TO.N,Net-(D2-A)*%
X101700000Y-74970000D03*
X114200000Y-74970000D03*
%TO.P,SW2,2,2_2*%
%TO.N,/B1*%
X101700000Y-79970000D03*
X114200000Y-79970000D03*
%TD*%
D17*
%TO.P,D19,1,K_1*%
%TO.N,/A3*%
X142240000Y-143510000D03*
D18*
%TO.P,D19,2,A_2*%
%TO.N,Net-(D19-A)*%
X149860000Y-143510000D03*
%TD*%
D17*
%TO.P,D16,1,K_1*%
%TO.N,/A3*%
X85090000Y-143510000D03*
D18*
%TO.P,D16,2,A_2*%
%TO.N,Net-(D16-A)*%
X92710000Y-143510000D03*
%TD*%
D17*
%TO.P,D2,1,K_1*%
%TO.N,/A0*%
X104140000Y-86360000D03*
D18*
%TO.P,D2,2,A_2*%
%TO.N,Net-(D2-A)*%
X111760000Y-86360000D03*
%TD*%
D13*
%TO.P,SW8,1,1_1*%
%TO.N,Net-(D8-A)*%
X120750000Y-94020000D03*
X133250000Y-94020000D03*
%TO.P,SW8,2,2_2*%
%TO.N,/B2*%
X120750000Y-99020000D03*
X133250000Y-99020000D03*
%TD*%
D19*
%TO.P,REF\u002A\u002A,1*%
%TO.N,N/C*%
X172720000Y-147320000D03*
%TD*%
D13*
%TO.P,SW7,1,1_1*%
%TO.N,Net-(D7-A)*%
X101700000Y-94020000D03*
X114200000Y-94020000D03*
%TO.P,SW7,2,2_2*%
%TO.N,/B1*%
X101700000Y-99020000D03*
X114200000Y-99020000D03*
%TD*%
D17*
%TO.P,D9,1,K_1*%
%TO.N,/A1*%
X142240000Y-105410000D03*
D18*
%TO.P,D9,2,A_2*%
%TO.N,Net-(D9-A)*%
X149860000Y-105410000D03*
%TD*%
D23*
%TO.N,/B3*%
X98425000Y-69850000D03*
%TO.N,GND*%
X156000000Y-66040000D03*
X148300000Y-63500000D03*
X148300000Y-58420000D03*
X106045000Y-69215000D03*
%TO.N,VCC*%
X103200000Y-69700000D03*
X107310000Y-53800000D03*
X152400000Y-57000000D03*
X160080000Y-57000000D03*
%TO.N,/INT_A*%
X104780000Y-55600000D03*
%TO.N,/RST*%
X116500000Y-57400000D03*
X107310000Y-57000000D03*
%TO.N,/B4*%
X99695000Y-69850000D03*
%TO.N,/B0*%
X94614999Y-69850000D03*
%TO.N,/B1*%
X95885000Y-69850000D03*
%TO.N,/B2*%
X97155001Y-69850000D03*
%TD*%
%TO.N,Net-(D19-A)*%
D24*
X152300000Y-132120000D02*
X139800000Y-132120000D01*
X149860000Y-134560000D02*
X152300000Y-132120000D01*
X149860000Y-143510000D02*
X149860000Y-134560000D01*
%TO.N,/B3*%
X98425000Y-69850000D02*
X98425000Y-67515000D01*
%TO.N,GND*%
X149800000Y-58420000D02*
X148300000Y-58420000D01*
X103600000Y-73460000D02*
X105200000Y-71860000D01*
X157480000Y-66040000D02*
X156000000Y-66040000D01*
X149800000Y-63500000D02*
X148300000Y-63500000D01*
X105200000Y-69600000D02*
X106050000Y-69220000D01*
X105200000Y-71860000D02*
X105200000Y-69600000D01*
X106045000Y-67515001D02*
X106045000Y-69215000D01*
X99000000Y-73460000D02*
X103600000Y-73460000D01*
X98400000Y-72862500D02*
X99000000Y-73460000D01*
%TO.N,VCC*%
X152400000Y-57000000D02*
X152400000Y-63500000D01*
X104000000Y-69700000D02*
X102562500Y-71137500D01*
X102562500Y-71137500D02*
X98400000Y-71137500D01*
X104780000Y-68900000D02*
X104000000Y-69700000D01*
X107310000Y-53800000D02*
X107310000Y-53987500D01*
X104780000Y-67520000D02*
X104780000Y-68900000D01*
X104000000Y-69700000D02*
X103200000Y-69700000D01*
X160080000Y-57000000D02*
X160080000Y-66040000D01*
%TO.N,/SDA*%
X129400000Y-69000000D02*
X130820000Y-67580000D01*
X109850000Y-68300000D02*
X110550000Y-69000000D01*
X109850000Y-67520000D02*
X109850000Y-68300000D01*
X110550000Y-69000000D02*
X129400000Y-69000000D01*
X130820000Y-67580000D02*
X130820000Y-63500000D01*
%TO.N,/SCK*%
X137200000Y-69700000D02*
X138500000Y-68400000D01*
X109700000Y-69700000D02*
X137200000Y-69700000D01*
X108580000Y-67520000D02*
X108580000Y-68600000D01*
X138500000Y-59600000D02*
X137900000Y-59000000D01*
X138500000Y-68400000D02*
X138500000Y-59600000D01*
X108580000Y-68600000D02*
X109700000Y-69700000D01*
X137900000Y-59000000D02*
X131400000Y-59000000D01*
X130820000Y-59580000D02*
X130820000Y-60960000D01*
X131400000Y-59000000D02*
X130820000Y-59580000D01*
%TO.N,/INT_A*%
X104780000Y-58220000D02*
X104780000Y-55600000D01*
%TO.N,/RST*%
X107310000Y-58220000D02*
X107310000Y-55812500D01*
X116500000Y-65300000D02*
X123200000Y-65300000D01*
X116500000Y-57400000D02*
X116500000Y-65300000D01*
X123200000Y-65300000D02*
X123200000Y-63500000D01*
%TO.N,Net-(A2-C)*%
X108580000Y-55200000D02*
X158780000Y-55200000D01*
X108580000Y-58220000D02*
X108580000Y-55200000D01*
X158780000Y-55200000D02*
X158780000Y-66040000D01*
%TO.N,/A0*%
X104140000Y-86360000D02*
X95250000Y-86360000D01*
X80772000Y-82042000D02*
X80772000Y-71628000D01*
X114300000Y-86360000D02*
X113030000Y-87630000D01*
X132080000Y-87630000D02*
X124460000Y-87630000D01*
X152400000Y-86360000D02*
X151130000Y-87630000D01*
X86360000Y-87630000D02*
X85090000Y-86360000D01*
X133350000Y-86360000D02*
X132080000Y-87630000D01*
X93980000Y-87630000D02*
X86360000Y-87630000D01*
X124460000Y-87630000D02*
X123190000Y-86360000D01*
X103505000Y-58801000D02*
X103505000Y-58215000D01*
X151130000Y-87630000D02*
X143510000Y-87630000D01*
X123190000Y-86360000D02*
X114300000Y-86360000D01*
X113030000Y-87630000D02*
X105410000Y-87630000D01*
X143510000Y-87630000D02*
X142240000Y-86360000D01*
X95250000Y-86360000D02*
X93980000Y-87630000D01*
X105410000Y-87630000D02*
X104140000Y-86360000D01*
X90875000Y-61525000D02*
X100781000Y-61525000D01*
X142240000Y-86360000D02*
X133350000Y-86360000D01*
X80772000Y-71628000D02*
X90875000Y-61525000D01*
X161290000Y-86360000D02*
X152400000Y-86360000D01*
X100781000Y-61525000D02*
X103505000Y-58801000D01*
X85090000Y-86360000D02*
X80772000Y-82042000D01*
%TO.N,Net-(D1-A)*%
X95150000Y-74970000D02*
X82650000Y-74970000D01*
X95150000Y-74970000D02*
X92710000Y-77410000D01*
X92710000Y-77410000D02*
X92710000Y-86360000D01*
%TO.N,Net-(D10-A)*%
X168910000Y-96460000D02*
X168910000Y-105410000D01*
X171350000Y-94020000D02*
X168910000Y-96460000D01*
X171350000Y-94020000D02*
X158850000Y-94020000D01*
%TO.N,/B4*%
X99695000Y-69850000D02*
X99695000Y-67515001D01*
%TO.N,Net-(D11-A)*%
X92710000Y-115510000D02*
X95150000Y-113070000D01*
X95150000Y-113070000D02*
X82650000Y-113070000D01*
X92710000Y-124460000D02*
X92710000Y-115510000D01*
%TO.N,/B0*%
X94614999Y-69850000D02*
X94615000Y-67515000D01*
%TO.N,Net-(D12-A)*%
X111760000Y-115510000D02*
X114200000Y-113070000D01*
X114200000Y-113070000D02*
X101700000Y-113070000D01*
X111760000Y-124460000D02*
X111760000Y-115510000D01*
%TO.N,/B1*%
X95885000Y-69850000D02*
X95885001Y-67515000D01*
%TO.N,Net-(D13-A)*%
X130810000Y-115510000D02*
X133250000Y-113070000D01*
X133250000Y-113070000D02*
X120750000Y-113070000D01*
X130810000Y-124460000D02*
X130810000Y-115510000D01*
%TO.N,/B2*%
X97155001Y-69850000D02*
X97155001Y-67515000D01*
%TO.N,Net-(D4-A)*%
X152300000Y-74970000D02*
X149860000Y-77410000D01*
X152300000Y-74970000D02*
X139800000Y-74970000D01*
X149860000Y-77410000D02*
X149860000Y-86360000D01*
%TO.N,Net-(D17-A)*%
X114200000Y-132120000D02*
X101700000Y-132120000D01*
X111760000Y-134560000D02*
X114200000Y-132120000D01*
X111760000Y-143510000D02*
X111760000Y-134560000D01*
%TO.N,Net-(D14-A)*%
X149860000Y-124460000D02*
X149860000Y-115510000D01*
X149860000Y-115510000D02*
X152300000Y-113070000D01*
X152300000Y-113070000D02*
X139800000Y-113070000D01*
%TO.N,Net-(D9-A)*%
X149860000Y-105410000D02*
X149860000Y-96460000D01*
X149860000Y-96460000D02*
X152300000Y-94020000D01*
X152300000Y-94020000D02*
X139800000Y-94020000D01*
%TO.N,Net-(D3-A)*%
X130810000Y-77410000D02*
X130810000Y-86360000D01*
X133250000Y-74970000D02*
X130810000Y-77410000D01*
X133250000Y-74970000D02*
X120750000Y-74970000D01*
%TO.N,Net-(A1-C)*%
X153700000Y-65600000D02*
X151100000Y-65600000D01*
X151100000Y-65600000D02*
X151100000Y-63500000D01*
X109850000Y-55800000D02*
X153700000Y-55800000D01*
X109850000Y-58220000D02*
X109850000Y-55800000D01*
X153700000Y-55800000D02*
X153700000Y-65600000D01*
%TO.N,Net-(D15-A)*%
X171350000Y-113070000D02*
X158850000Y-113070000D01*
X168910000Y-115510000D02*
X171350000Y-113070000D01*
X168910000Y-124460000D02*
X168910000Y-115510000D01*
%TO.N,/A3*%
X104140000Y-143510000D02*
X95250000Y-143510000D01*
X79572000Y-82539055D02*
X79572000Y-71130943D01*
X123190000Y-143510000D02*
X114300000Y-143510000D01*
X151130000Y-144780000D02*
X143510000Y-144780000D01*
X99695000Y-58801000D02*
X99695000Y-58214999D01*
X85090000Y-143510000D02*
X80518000Y-138938000D01*
X90366315Y-60325000D02*
X98171000Y-60325000D01*
X113030000Y-144780000D02*
X105410000Y-144780000D01*
X133350000Y-143510000D02*
X132080000Y-144780000D01*
X142240000Y-143510000D02*
X133350000Y-143510000D01*
X161290000Y-143510000D02*
X152400000Y-143510000D01*
X132080000Y-144780000D02*
X124460000Y-144780000D01*
X79610000Y-71092940D02*
X79610000Y-71081314D01*
X80518000Y-120453686D02*
X80372000Y-120307685D01*
X143510000Y-144780000D02*
X142240000Y-143510000D01*
X152400000Y-143510000D02*
X151130000Y-144780000D01*
X80372000Y-120307685D02*
X80372000Y-101823371D01*
X114300000Y-143510000D02*
X113030000Y-144780000D01*
X80518000Y-138938000D02*
X80518000Y-120453686D01*
X86360000Y-144780000D02*
X85090000Y-143510000D01*
X79845000Y-101296370D02*
X79845000Y-82812056D01*
X124460000Y-144780000D02*
X123190000Y-143510000D01*
X79572002Y-71130937D02*
X79610000Y-71092940D01*
X98171000Y-60325000D02*
X99695000Y-58801000D01*
X79610000Y-71081314D02*
X90366315Y-60325000D01*
X95250000Y-143510000D02*
X93980000Y-144780000D01*
X80372000Y-101823371D02*
X79845000Y-101296370D01*
X79572000Y-71130943D02*
X79572002Y-71130937D01*
X105410000Y-144780000D02*
X104140000Y-143510000D01*
X79845000Y-82812056D02*
X79572000Y-82539055D01*
X93980000Y-144780000D02*
X86360000Y-144780000D01*
%TO.N,/A1*%
X86360000Y-106680000D02*
X85090000Y-105410000D01*
X152400000Y-105410000D02*
X161290000Y-105410000D01*
X104140000Y-105410000D02*
X105410000Y-106680000D01*
X133350000Y-105410000D02*
X142240000Y-105410000D01*
X93980000Y-106680000D02*
X86360000Y-106680000D01*
X80645000Y-100965000D02*
X80645000Y-82480686D01*
X123190000Y-105410000D02*
X124460000Y-106680000D01*
X80372000Y-71462314D02*
X90709315Y-61125000D01*
X102235000Y-58766499D02*
X102235000Y-58215000D01*
X114300000Y-105410000D02*
X123190000Y-105410000D01*
X151130000Y-106680000D02*
X152400000Y-105410000D01*
X85090000Y-105410000D02*
X80645000Y-100965000D01*
X90709315Y-61125000D02*
X99876499Y-61125000D01*
X99876499Y-61125000D02*
X102235000Y-58766499D01*
X124460000Y-106680000D02*
X132080000Y-106680000D01*
X80372000Y-82207685D02*
X80372000Y-71462314D01*
X95250000Y-105410000D02*
X93980000Y-106680000D01*
X142240000Y-105410000D02*
X143510000Y-106680000D01*
X105410000Y-106680000D02*
X113030000Y-106680000D01*
X113030000Y-106680000D02*
X114300000Y-105410000D01*
X132080000Y-106680000D02*
X133350000Y-105410000D01*
X80645000Y-82480686D02*
X80372000Y-82207685D01*
X143510000Y-106680000D02*
X151130000Y-106680000D01*
X104140000Y-105410000D02*
X95250000Y-105410000D01*
%TO.N,Net-(D18-A)*%
X130810000Y-143510000D02*
X130810000Y-134560000D01*
X130810000Y-134560000D02*
X133250000Y-132120000D01*
X133250000Y-132120000D02*
X120750000Y-132120000D01*
%TO.N,/A2*%
X152400000Y-124460000D02*
X151130000Y-125730000D01*
X80245000Y-82646370D02*
X79972000Y-82373370D01*
X113030000Y-125730000D02*
X105410000Y-125730000D01*
X90532000Y-60725000D02*
X99060000Y-60725000D01*
X161290000Y-124460000D02*
X152400000Y-124460000D01*
X132080000Y-125730000D02*
X124460000Y-125730000D01*
X143510000Y-125730000D02*
X142240000Y-124460000D01*
X114300000Y-124460000D02*
X113030000Y-125730000D01*
X85090000Y-124460000D02*
X80772000Y-120142000D01*
X124460000Y-125730000D02*
X123190000Y-124460000D01*
X95250000Y-124460000D02*
X93980000Y-125730000D01*
X79972000Y-82373370D02*
X79972000Y-71296628D01*
X133350000Y-124460000D02*
X132080000Y-125730000D01*
X99060000Y-60725000D02*
X100965000Y-58820000D01*
X86360000Y-125730000D02*
X85090000Y-124460000D01*
X100965000Y-58820000D02*
X100965000Y-58215000D01*
X80772000Y-101657685D02*
X80245000Y-101130685D01*
X123190000Y-124460000D02*
X114300000Y-124460000D01*
X105410000Y-125730000D02*
X104140000Y-124460000D01*
X80772000Y-120142000D02*
X80772000Y-101657685D01*
X79972000Y-71296628D02*
X80010000Y-71258629D01*
X80010000Y-71258629D02*
X80010000Y-71247000D01*
X80245000Y-101130685D02*
X80245000Y-82646370D01*
X80010000Y-71247000D02*
X90532000Y-60725000D01*
X93980000Y-125730000D02*
X86360000Y-125730000D01*
X104140000Y-124460000D02*
X95250000Y-124460000D01*
X142240000Y-124460000D02*
X133350000Y-124460000D01*
X151130000Y-125730000D02*
X143510000Y-125730000D01*
%TO.N,Net-(D8-A)*%
X133250000Y-94020000D02*
X120750000Y-94020000D01*
X130810000Y-105410000D02*
X130810000Y-96460000D01*
X130810000Y-96460000D02*
X133250000Y-94020000D01*
%TO.N,Net-(A0-C)*%
X151100000Y-56400000D02*
X151100000Y-58420000D01*
X111120000Y-56400000D02*
X151100000Y-56400000D01*
X111120000Y-58220000D02*
X111120000Y-56400000D01*
%TO.N,Net-(D16-A)*%
X92710000Y-134560000D02*
X95150000Y-132120000D01*
X92710000Y-143510000D02*
X92710000Y-134560000D01*
X95150000Y-132120000D02*
X82650000Y-132120000D01*
%TO.N,Net-(D5-A)*%
X171350000Y-74970000D02*
X158850000Y-74970000D01*
X168910000Y-77410000D02*
X168910000Y-86360000D01*
X171350000Y-74970000D02*
X168910000Y-77410000D01*
%TO.N,Net-(D6-A)*%
X92710000Y-105410000D02*
X92710000Y-96460000D01*
X92710000Y-96460000D02*
X95150000Y-94020000D01*
X95150000Y-94020000D02*
X82650000Y-94020000D01*
%TO.N,Net-(D20-A)*%
X168910000Y-134560000D02*
X171350000Y-132120000D01*
X171350000Y-132120000D02*
X158850000Y-132120000D01*
X168910000Y-143510000D02*
X168910000Y-134560000D01*
%TO.N,Net-(D7-A)*%
X111760000Y-96460000D02*
X114200000Y-94020000D01*
X111760000Y-105410000D02*
X111760000Y-96460000D01*
X114200000Y-94020000D02*
X101700000Y-94020000D01*
%TO.N,Net-(D2-A)*%
X114200000Y-74970000D02*
X101700000Y-74970000D01*
X111760000Y-77410000D02*
X111760000Y-86360000D01*
X114200000Y-74970000D02*
X111760000Y-77410000D01*
%TD*%
M02*
