%TF.GenerationSoftware,KiCad,Pcbnew,10.0.5*%
%TF.CreationDate,2026-08-30T10:19:17-07:00*%
%TF.ProjectId,daisy_buttons_breakout_1,64616973-795f-4627-9574-746f6e735f62,rev?*%
%TF.SameCoordinates,Original*%
%TF.FileFunction,Soldermask,Bot*%
%TF.FilePolarity,Negative*%
%FSLAX46Y46*%
G04 Gerber Fmt 4.6, Leading zero omitted, Abs format (unit mm)*
G04 Created by KiCad (PCBNEW 10.0.5) date 2026-08-30 10:19:17*
%MOMM*%
%LPD*%
G01*
G04 APERTURE LIST*
G04 Aperture macros list*
%AMRoundRect*
0 Rectangle with rounded corners*
0 $1 Rounding radius*
0 $2 $3 $4 $5 $6 $7 $8 $9 X,Y pos of 4 corners*
0 Add a 4 corners polygon primitive as box body*
4,1,4,$2,$3,$4,$5,$6,$7,$8,$9,$2,$3,0*
0 Add four circle primitives for the rounded corners*
1,1,$1+$1,$2,$3*
1,1,$1+$1,$4,$5*
1,1,$1+$1,$6,$7*
1,1,$1+$1,$8,$9*
0 Add four rect primitives between the rounded corners*
20,1,$1+$1,$2,$3,$4,$5,0*
20,1,$1+$1,$4,$5,$6,$7,0*
20,1,$1+$1,$6,$7,$8,$9,0*
20,1,$1+$1,$8,$9,$2,$3,0*%
G04 Aperture macros list end*
%ADD10R,1.700000X1.700000*%
%ADD11C,1.700000*%
%ADD12C,1.800000*%
%ADD13O,2.900000X1.700000*%
%ADD14RoundRect,0.250000X-0.550000X-0.550000X0.550000X-0.550000X0.550000X0.550000X-0.550000X0.550000X0*%
%ADD15C,1.600000*%
%ADD16C,6.400000*%
G04 APERTURE END LIST*
D10*
%TO.C,J1*%
X135900000Y-63500000D03*
D11*
X135900000Y-60960000D03*
X133360000Y-63500000D03*
X133360000Y-60960000D03*
X130820001Y-63500000D03*
X130820000Y-60960000D03*
X128280000Y-63500000D03*
X128280000Y-60960000D03*
X125740000Y-63500000D03*
X125740000Y-60960000D03*
X123200000Y-63500000D03*
X123200000Y-60960000D03*
X120660000Y-63500000D03*
X120660000Y-60960000D03*
X118119999Y-63500000D03*
X118120000Y-60960000D03*
%TD*%
D12*
%TO.C,SW19*%
X146050000Y-130120000D03*
X146050000Y-139120000D03*
D13*
X139800000Y-132120000D03*
X152300000Y-132120000D03*
X139800000Y-137120000D03*
X152300000Y-137120000D03*
%TD*%
D14*
%TO.C,D1*%
X85090000Y-86360000D03*
D15*
X92710000Y-86360000D03*
%TD*%
D12*
%TO.C,SW10*%
X165100000Y-92020000D03*
X165100000Y-101020000D03*
D13*
X158850000Y-94020000D03*
X171350000Y-94020000D03*
X158850000Y-99020000D03*
X171350000Y-99020000D03*
%TD*%
D12*
%TO.C,SW11*%
X88900000Y-111070000D03*
X88900000Y-120070000D03*
D13*
X82650000Y-113070000D03*
X95150000Y-113070000D03*
X82650000Y-118070000D03*
X95150000Y-118070000D03*
%TD*%
D12*
%TO.C,SW12*%
X107950000Y-111070000D03*
X107950000Y-120070000D03*
D13*
X101700000Y-113070000D03*
X114200000Y-113070000D03*
X101700000Y-118070000D03*
X114200000Y-118070000D03*
%TD*%
D12*
%TO.C,SW13*%
X127000000Y-111070000D03*
X127000000Y-120070000D03*
D13*
X120750000Y-113070000D03*
X133250000Y-113070000D03*
X120750000Y-118070000D03*
X133250000Y-118070000D03*
%TD*%
D16*
%TO.C,REF\u002A\u002A*%
X81280000Y-55880000D03*
%TD*%
D14*
%TO.C,D4*%
X142240000Y-86360000D03*
D15*
X149860000Y-86360000D03*
%TD*%
D12*
%TO.C,SW17*%
X107950000Y-130120000D03*
X107950000Y-139120000D03*
D13*
X101700000Y-132120000D03*
X114200000Y-132120000D03*
X101700000Y-137120000D03*
X114200000Y-137120000D03*
%TD*%
D12*
%TO.C,SW1*%
X88900000Y-72970000D03*
X88900000Y-81970000D03*
D13*
X82650000Y-74970000D03*
X95150000Y-74970000D03*
X82650000Y-79970000D03*
X95150000Y-79970000D03*
%TD*%
D12*
%TO.C,SW14*%
X146050000Y-111070000D03*
X146050000Y-120070000D03*
D13*
X139800000Y-113070000D03*
X152300000Y-113070000D03*
X139800000Y-118070000D03*
X152300000Y-118070000D03*
%TD*%
D12*
%TO.C,SW9*%
X146050000Y-92020000D03*
X146050000Y-101020000D03*
D13*
X139800000Y-94020000D03*
X152300000Y-94020000D03*
X139800000Y-99020000D03*
X152300000Y-99020000D03*
%TD*%
D12*
%TO.C,SW3*%
X127000000Y-72970000D03*
X127000000Y-81970000D03*
D13*
X120750000Y-74970000D03*
X133250000Y-74970000D03*
X120750000Y-79970000D03*
X133250000Y-79970000D03*
%TD*%
D12*
%TO.C,SW15*%
X165100000Y-111070000D03*
X165100000Y-120070000D03*
D13*
X158850000Y-113070000D03*
X171350000Y-113070000D03*
X158850000Y-118070000D03*
X171350000Y-118070000D03*
%TD*%
D16*
%TO.C,REF\u002A\u002A*%
X172720000Y-55880000D03*
%TD*%
D14*
%TO.C,D17*%
X104140000Y-143510000D03*
D15*
X111760000Y-143510000D03*
%TD*%
D14*
%TO.C,D10*%
X161290000Y-105410000D03*
D15*
X168910000Y-105410000D03*
%TD*%
D12*
%TO.C,SW18*%
X127000000Y-130120000D03*
X127000000Y-139120000D03*
D13*
X120750000Y-132120000D03*
X133250000Y-132120000D03*
X120750000Y-137120000D03*
X133250000Y-137120000D03*
%TD*%
D14*
%TO.C,D11*%
X85090000Y-124460000D03*
D15*
X92710000Y-124460000D03*
%TD*%
D14*
%TO.C,D8*%
X123190000Y-105410000D03*
D15*
X130810000Y-105410000D03*
%TD*%
D14*
%TO.C,D13*%
X123190000Y-124460000D03*
D15*
X130810000Y-124460000D03*
%TD*%
D14*
%TO.C,D3*%
X123190000Y-86360000D03*
D15*
X130810000Y-86360000D03*
%TD*%
D12*
%TO.C,SW4*%
X146050000Y-72970000D03*
X146050000Y-81970000D03*
D13*
X139800000Y-74970000D03*
X152300000Y-74970000D03*
X139800000Y-79970000D03*
X152300000Y-79970000D03*
%TD*%
D14*
%TO.C,D18*%
X123190000Y-143510000D03*
D15*
X130810000Y-143510000D03*
%TD*%
D12*
%TO.C,SW16*%
X88900000Y-130120000D03*
X88900000Y-139120000D03*
D13*
X82650000Y-132120000D03*
X95150000Y-132120000D03*
X82650000Y-137120000D03*
X95150000Y-137120000D03*
%TD*%
D12*
%TO.C,SW5*%
X165100000Y-72970000D03*
X165100000Y-81970000D03*
D13*
X158850000Y-74970000D03*
X171350000Y-74970000D03*
X158850000Y-79970000D03*
X171350000Y-79970000D03*
%TD*%
D12*
%TO.C,SW6*%
X88900000Y-92020000D03*
X88900000Y-101020000D03*
D13*
X82650000Y-94020000D03*
X95150000Y-94020000D03*
X82650000Y-99020000D03*
X95150000Y-99020000D03*
%TD*%
D14*
%TO.C,D5*%
X161290000Y-86360000D03*
D15*
X168910000Y-86360000D03*
%TD*%
D14*
%TO.C,D12*%
X104140000Y-124460000D03*
D15*
X111760000Y-124460000D03*
%TD*%
D14*
%TO.C,D20*%
X161290000Y-143510000D03*
D15*
X168910000Y-143510000D03*
%TD*%
D14*
%TO.C,D15*%
X161290000Y-124460000D03*
D15*
X168910000Y-124460000D03*
%TD*%
D14*
%TO.C,D7*%
X104140000Y-105410000D03*
D15*
X111760000Y-105410000D03*
%TD*%
D14*
%TO.C,D6*%
X85090000Y-105410000D03*
D15*
X92710000Y-105410000D03*
%TD*%
D14*
%TO.C,D14*%
X142240000Y-124460000D03*
D15*
X149860000Y-124460000D03*
%TD*%
D16*
%TO.C,REF\u002A\u002A*%
X81280000Y-147320000D03*
%TD*%
D12*
%TO.C,SW20*%
X165100000Y-130120000D03*
X165100000Y-139120000D03*
D13*
X158850000Y-132120000D03*
X171350000Y-132120000D03*
X158850000Y-137120000D03*
X171350000Y-137120000D03*
%TD*%
D12*
%TO.C,SW2*%
X107950000Y-72970000D03*
X107950000Y-81970000D03*
D13*
X101700000Y-74970000D03*
X114200000Y-74970000D03*
X101700000Y-79970000D03*
X114200000Y-79970000D03*
%TD*%
D14*
%TO.C,D19*%
X142240000Y-143510000D03*
D15*
X149860000Y-143510000D03*
%TD*%
D14*
%TO.C,D16*%
X85090000Y-143510000D03*
D15*
X92710000Y-143510000D03*
%TD*%
D14*
%TO.C,D2*%
X104140000Y-86360000D03*
D15*
X111760000Y-86360000D03*
%TD*%
D12*
%TO.C,SW8*%
X127000000Y-92020000D03*
X127000000Y-101020000D03*
D13*
X120750000Y-94020000D03*
X133250000Y-94020000D03*
X120750000Y-99020000D03*
X133250000Y-99020000D03*
%TD*%
D16*
%TO.C,REF\u002A\u002A*%
X172720000Y-147320000D03*
%TD*%
D12*
%TO.C,SW7*%
X107950000Y-92020000D03*
X107950000Y-101020000D03*
D13*
X101700000Y-94020000D03*
X114200000Y-94020000D03*
X101700000Y-99020000D03*
X114200000Y-99020000D03*
%TD*%
D14*
%TO.C,D9*%
X142240000Y-105410000D03*
D15*
X149860000Y-105410000D03*
%TD*%
M02*
