%TF.GenerationSoftware,KiCad,Pcbnew,10.0.5*%
%TF.CreationDate,2026-08-29T00:27:55-07:00*%
%TF.ProjectId,daisy_carrier,64616973-795f-4636-9172-726965722e6b,rev?*%
%TF.SameCoordinates,Original*%
%TF.FileFunction,Soldermask,Bot*%
%TF.FilePolarity,Negative*%
%FSLAX46Y46*%
G04 Gerber Fmt 4.6, Leading zero omitted, Abs format (unit mm)*
G04 Created by KiCad (PCBNEW 10.0.5) date 2026-08-29 00:27:55*
%MOMM*%
%LPD*%
G01*
G04 APERTURE LIST*
%ADD10C,1.700000*%
%ADD11R,1.700000X1.700000*%
%ADD12C,6.400000*%
G04 APERTURE END LIST*
D10*
%TO.C,J8*%
X55952000Y-92710001D03*
X58492000Y-92710000D03*
X55952000Y-95250001D03*
X58492000Y-95250001D03*
X55952000Y-97790001D03*
X58492000Y-97790001D03*
X55952000Y-100330001D03*
X58492000Y-100330001D03*
X55952000Y-102870001D03*
X58492000Y-102870001D03*
X55952000Y-105410001D03*
X58492000Y-105410002D03*
X55952000Y-107950001D03*
X58492000Y-107950001D03*
X55952000Y-110490001D03*
D11*
X58492000Y-110490001D03*
%TD*%
D12*
%TO.C,REF\u002A\u002A*%
X55880000Y-147320000D03*
%TD*%
%TO.C,REF\u002A\u002A*%
X147320000Y-147320000D03*
%TD*%
%TO.C,REF\u002A\u002A*%
X55880000Y-55880000D03*
%TD*%
%TO.C,REF\u002A\u002A*%
X147320000Y-55880000D03*
%TD*%
D11*
%TO.C,U1*%
X148590000Y-123190000D03*
D10*
X146050000Y-123190000D03*
X143510001Y-123190000D03*
X140970000Y-123190000D03*
X138430000Y-123190000D03*
X135890000Y-123190000D03*
X133350000Y-123190000D03*
X130809999Y-123190000D03*
X128270000Y-123190000D03*
X125730000Y-123190000D03*
X123190000Y-123190000D03*
X120650001Y-123190000D03*
X118110000Y-123190000D03*
X115570000Y-123190000D03*
X113030000Y-123190000D03*
X110490001Y-123190000D03*
X107949999Y-123190000D03*
X105410000Y-123190000D03*
X102870000Y-123190000D03*
X100330000Y-123190000D03*
X100330000Y-138430000D03*
X102870000Y-138430000D03*
X105410000Y-138430000D03*
X107950000Y-138430000D03*
X110490000Y-138430000D03*
X113030000Y-138430000D03*
X115570000Y-138430000D03*
X118110000Y-138430000D03*
X120650000Y-138430000D03*
X123190000Y-138430000D03*
X125730000Y-138430000D03*
X128270000Y-138430000D03*
X130810000Y-138430000D03*
X133350000Y-138430000D03*
X135890000Y-138430000D03*
X138430000Y-138430000D03*
X140970000Y-138430000D03*
X143510000Y-138430000D03*
X146050000Y-138430000D03*
X148590000Y-138430000D03*
%TD*%
D11*
%TO.C,J6*%
X92710000Y-58365000D03*
D10*
X92710000Y-55825000D03*
X95250000Y-58365000D03*
X95250000Y-55825000D03*
X97789999Y-58365000D03*
X97790000Y-55825000D03*
X100330000Y-58365000D03*
X100330000Y-55825000D03*
X102870000Y-58365000D03*
X102870000Y-55825000D03*
X105410000Y-58365000D03*
X105410000Y-55825000D03*
X107950000Y-58365000D03*
X107950000Y-55825000D03*
X110490001Y-58365000D03*
X110490000Y-55825000D03*
%TD*%
D11*
%TO.C,J1*%
X104140000Y-66040000D03*
D10*
X101600000Y-66040000D03*
X99060001Y-66040000D03*
X96520000Y-66040000D03*
X93980000Y-66040000D03*
X91440000Y-66040000D03*
X88900000Y-66040000D03*
X86359999Y-66040000D03*
X83820000Y-66040000D03*
%TD*%
D11*
%TO.C,J5*%
X130810000Y-117475000D03*
D10*
X130810000Y-114935000D03*
X130810000Y-112395001D03*
X130810000Y-109855000D03*
X130810000Y-107315000D03*
X130810000Y-104775000D03*
X130810000Y-102235000D03*
X130810000Y-99694999D03*
X130810000Y-97155000D03*
%TD*%
D11*
%TO.C,J7*%
X110490001Y-144708000D03*
D10*
X110490001Y-147248000D03*
X107950001Y-144708000D03*
X107950001Y-147248000D03*
X105410002Y-144708000D03*
X105410001Y-147248000D03*
X102870001Y-144708000D03*
X102870001Y-147248000D03*
X100330001Y-144708000D03*
X100330001Y-147248000D03*
X97790001Y-144708000D03*
X97790001Y-147248000D03*
X95250001Y-144708000D03*
X95250001Y-147248000D03*
X92710000Y-144708000D03*
X92710001Y-147248000D03*
%TD*%
D11*
%TO.C,J3*%
X134620000Y-83820000D03*
D10*
X137160000Y-83820000D03*
%TD*%
D11*
%TO.C,J4*%
X149860000Y-73659999D03*
D10*
X149860000Y-71119999D03*
X149860000Y-68580000D03*
%TD*%
D11*
%TO.C,J2*%
X147319999Y-63500000D03*
D10*
X144779999Y-63500000D03*
X142240000Y-63500000D03*
X139699999Y-63500000D03*
X137159999Y-63500000D03*
X134619999Y-63500000D03*
%TD*%
M02*
