%TF.GenerationSoftware,KiCad,Pcbnew,10.0.5*%
%TF.CreationDate,2026-08-29T00:27:55-07:00*%
%TF.ProjectId,daisy_carrier,64616973-795f-4636-9172-726965722e6b,rev?*%
%TF.SameCoordinates,Original*%
%TF.FileFunction,Legend,Top*%
%TF.FilePolarity,Positive*%
%FSLAX46Y46*%
G04 Gerber Fmt 4.6, Leading zero omitted, Abs format (unit mm)*
G04 Created by KiCad (PCBNEW 10.0.5) date 2026-08-29 00:27:55*
%MOMM*%
%LPD*%
G01*
G04 APERTURE LIST*
%ADD10C,0.100000*%
%ADD11C,0.150000*%
%ADD12C,0.081280*%
%ADD13C,0.120000*%
G04 APERTURE END LIST*
D10*
G36*
X134040230Y-146707017D02*
G01*
X134083427Y-146713379D01*
X134110877Y-146730098D01*
X134127640Y-146757561D01*
X134134019Y-146800806D01*
X134127509Y-146844053D01*
X134110205Y-146872186D01*
X134082073Y-146889489D01*
X134038825Y-146896000D01*
X133543196Y-146896000D01*
X133499948Y-146889489D01*
X133471816Y-146872186D01*
X133454512Y-146844053D01*
X133448002Y-146800806D01*
X133454366Y-146757555D01*
X133471083Y-146730098D01*
X133498584Y-146713376D01*
X133541791Y-146707017D01*
X133702808Y-146707017D01*
X133702808Y-146421375D01*
X133697609Y-146385669D01*
X133683879Y-146362573D01*
X133661328Y-146348361D01*
X133625811Y-146342973D01*
X133573970Y-146342973D01*
X133529311Y-146336615D01*
X133500514Y-146319892D01*
X133487515Y-146302915D01*
X133479130Y-146279998D01*
X133476029Y-146249244D01*
X133479113Y-146218437D01*
X133487488Y-146195224D01*
X133500514Y-146177803D01*
X133529383Y-146160525D01*
X133573970Y-146153990D01*
X133744818Y-146153990D01*
X133799227Y-146159302D01*
X133840153Y-146173699D01*
X133870786Y-146196000D01*
X133893084Y-146226634D01*
X133907482Y-146267578D01*
X133912796Y-146322029D01*
X133912796Y-146707017D01*
X134040230Y-146707017D01*
G37*
G36*
X133798002Y-146032235D02*
G01*
X133760784Y-146028664D01*
X133730713Y-146018701D01*
X133706289Y-146002864D01*
X133687409Y-145981203D01*
X133675988Y-145955043D01*
X133671973Y-145922997D01*
X133675987Y-145890994D01*
X133687408Y-145864875D01*
X133706289Y-145843252D01*
X133730718Y-145827380D01*
X133760788Y-145817397D01*
X133798002Y-145813821D01*
X133835215Y-145817399D01*
X133865263Y-145827382D01*
X133889654Y-145843252D01*
X133908535Y-145864875D01*
X133919956Y-145890994D01*
X133923970Y-145922997D01*
X133919955Y-145955043D01*
X133908534Y-145981203D01*
X133889654Y-146002864D01*
X133865267Y-146018699D01*
X133835219Y-146028663D01*
X133798002Y-146032235D01*
G37*
G36*
X134410441Y-146896000D02*
G01*
X134369427Y-146892297D01*
X134336616Y-146882036D01*
X134310301Y-146865897D01*
X134290600Y-146843206D01*
X134277941Y-146811776D01*
X134273237Y-146768627D01*
X134280198Y-146721732D01*
X134289829Y-146701175D01*
X134305416Y-146681799D01*
X134624642Y-146363978D01*
X134672880Y-146311526D01*
X134705792Y-146265303D01*
X134724720Y-146223355D01*
X134731010Y-146182017D01*
X134728606Y-146148262D01*
X134721912Y-146120406D01*
X134710354Y-146095776D01*
X134694617Y-146076321D01*
X134674589Y-146061245D01*
X134649799Y-146050431D01*
X134622025Y-146044237D01*
X134588189Y-146042004D01*
X134548804Y-146044742D01*
X134506978Y-146053240D01*
X134466788Y-146067371D01*
X134431446Y-146086823D01*
X134404429Y-146100939D01*
X134380353Y-146105810D01*
X134357929Y-146102882D01*
X134327122Y-146086682D01*
X134301203Y-146057392D01*
X134288943Y-146032390D01*
X134284997Y-146008733D01*
X134288564Y-145985340D01*
X134304595Y-145952744D01*
X134330635Y-145925806D01*
X134372069Y-145900934D01*
X134427904Y-145878911D01*
X134492714Y-145865332D01*
X134588189Y-145859982D01*
X134664656Y-145864361D01*
X134731681Y-145876835D01*
X134793015Y-145898973D01*
X134842995Y-145930019D01*
X134883833Y-145971271D01*
X134915108Y-146023808D01*
X134934128Y-146084741D01*
X134940997Y-146161012D01*
X134938708Y-146204027D01*
X134931899Y-146245703D01*
X134920419Y-146286426D01*
X134903872Y-146326914D01*
X134882833Y-146366143D01*
X134856306Y-146405987D01*
X134825304Y-146444426D01*
X134787002Y-146484389D01*
X134578419Y-146690225D01*
X134577015Y-146700727D01*
X134581439Y-146705218D01*
X134590997Y-146707017D01*
X134875235Y-146707017D01*
X134917018Y-146713529D01*
X134943806Y-146730830D01*
X134960088Y-146758608D01*
X134966215Y-146800806D01*
X134960115Y-146843123D01*
X134943806Y-146871514D01*
X134927265Y-146884548D01*
X134905016Y-146892914D01*
X134875235Y-146896000D01*
X134410441Y-146896000D01*
G37*
G36*
X135105434Y-146506799D02*
G01*
X135108771Y-146437040D01*
X135118135Y-146377546D01*
X135132728Y-146326914D01*
X135153810Y-146278635D01*
X135178582Y-146238127D01*
X135206917Y-146204426D01*
X135258055Y-146163190D01*
X135318230Y-146134389D01*
X135384382Y-146117698D01*
X135456838Y-146111980D01*
X135517996Y-146115484D01*
X135569556Y-146125291D01*
X135617046Y-146141268D01*
X135656324Y-146161012D01*
X135690674Y-146185252D01*
X135716530Y-146210715D01*
X135736684Y-146238829D01*
X135749441Y-146265975D01*
X135756603Y-146306129D01*
X135750113Y-146343705D01*
X135731328Y-146375458D01*
X135701814Y-146396218D01*
X135677116Y-146402618D01*
X135648630Y-146402507D01*
X135622619Y-146393869D01*
X135603811Y-146375213D01*
X135578416Y-146342797D01*
X135548551Y-146319953D01*
X135514021Y-146305835D01*
X135475034Y-146301024D01*
X135445963Y-146303623D01*
X135416905Y-146311526D01*
X135390091Y-146325490D01*
X135365797Y-146347247D01*
X135346096Y-146375241D01*
X135329405Y-146413009D01*
X135319212Y-146456122D01*
X135315422Y-146512416D01*
X135318788Y-146564970D01*
X135328000Y-146606938D01*
X135343255Y-146644154D01*
X135361645Y-146672029D01*
X135384617Y-146694045D01*
X135410615Y-146709093D01*
X135439291Y-146718015D01*
X135469417Y-146721000D01*
X135507558Y-146718981D01*
X135540125Y-146713306D01*
X135570737Y-146701940D01*
X135602407Y-146681799D01*
X135632151Y-146663892D01*
X135664750Y-146655237D01*
X135697653Y-146657282D01*
X135728436Y-146672029D01*
X135740929Y-146683287D01*
X135750785Y-146697919D01*
X135762020Y-146732174D01*
X135761287Y-146768627D01*
X135755795Y-146785602D01*
X135746632Y-146799401D01*
X135714903Y-146833013D01*
X135685022Y-146857531D01*
X135653323Y-146876873D01*
X135620603Y-146891115D01*
X135586328Y-146900873D01*
X135549895Y-146906502D01*
X135472226Y-146909982D01*
X135393316Y-146903851D01*
X135323787Y-146886230D01*
X135261087Y-146855969D01*
X135208321Y-146813445D01*
X135179154Y-146778710D01*
X135153920Y-146737256D01*
X135132728Y-146688149D01*
X135118097Y-146636557D01*
X135108751Y-146576535D01*
X135105434Y-146506799D01*
G37*
G36*
X137269490Y-146115582D02*
G01*
X137312382Y-146125647D01*
X137348072Y-146141411D01*
X137380178Y-146163559D01*
X137407345Y-146190698D01*
X137429954Y-146223294D01*
X137454952Y-146279402D01*
X137471964Y-146349323D01*
X137480773Y-146424510D01*
X137483871Y-146509607D01*
X137480590Y-146578402D01*
X137470560Y-146649620D01*
X137451785Y-146718261D01*
X137422932Y-146779129D01*
X137397426Y-146815364D01*
X137366560Y-146846739D01*
X137329876Y-146873590D01*
X137289113Y-146893044D01*
X137239387Y-146905502D01*
X137178689Y-146909982D01*
X137135110Y-146905720D01*
X137096479Y-146893348D01*
X137061758Y-146872919D01*
X137033162Y-146845160D01*
X137012955Y-146810880D01*
X137000881Y-146768627D01*
X137000881Y-147057017D01*
X136997575Y-147091538D01*
X136988674Y-147117184D01*
X136974991Y-147136090D01*
X136956083Y-147149771D01*
X136930419Y-147158673D01*
X136895856Y-147161980D01*
X136861335Y-147158675D01*
X136835689Y-147149774D01*
X136816782Y-147136090D01*
X136803099Y-147117184D01*
X136794198Y-147091538D01*
X136790893Y-147057017D01*
X136790893Y-146482985D01*
X137000881Y-146482985D01*
X137000881Y-146538978D01*
X137003358Y-146574744D01*
X137010650Y-146608281D01*
X137022743Y-146639624D01*
X137038677Y-146666411D01*
X137059029Y-146689062D01*
X137083435Y-146706345D01*
X137111247Y-146717282D01*
X137142297Y-146721000D01*
X137181345Y-146715771D01*
X137210136Y-146701399D01*
X137232951Y-146679005D01*
X137250069Y-146650291D01*
X137261661Y-146617638D01*
X137268937Y-146580987D01*
X137273883Y-146508203D01*
X137268937Y-146436823D01*
X137261819Y-146401510D01*
X137250741Y-146370328D01*
X137234560Y-146342710D01*
X137212944Y-146320624D01*
X137185872Y-146306161D01*
X137150662Y-146301024D01*
X137120568Y-146304170D01*
X137091861Y-146313602D01*
X137066003Y-146328977D01*
X137044295Y-146349995D01*
X137026901Y-146375736D01*
X137012787Y-146407392D01*
X137003981Y-146442303D01*
X137000881Y-146482985D01*
X136790893Y-146482985D01*
X136790893Y-146214196D01*
X136794032Y-146180521D01*
X136802467Y-146155552D01*
X136815378Y-146137198D01*
X136833377Y-146123955D01*
X136858479Y-146115247D01*
X136893047Y-146111980D01*
X136927684Y-146115179D01*
X136953880Y-146123844D01*
X136973586Y-146137198D01*
X136988111Y-146155788D01*
X136997439Y-146180774D01*
X137000881Y-146214196D01*
X137000881Y-146278615D01*
X137028175Y-146214196D01*
X137046631Y-146185414D01*
X137069452Y-146161012D01*
X137096935Y-146141184D01*
X137131062Y-146125291D01*
X137169489Y-146115539D01*
X137217890Y-146111980D01*
X137269490Y-146115582D01*
G37*
G36*
X138089288Y-146217004D02*
G01*
X138092593Y-146182483D01*
X138101494Y-146156837D01*
X138115177Y-146137931D01*
X138134090Y-146124215D01*
X138159754Y-146115293D01*
X138194312Y-146111980D01*
X138228828Y-146115292D01*
X138254474Y-146124212D01*
X138273386Y-146137931D01*
X138287069Y-146156837D01*
X138295970Y-146182483D01*
X138299275Y-146217004D01*
X138299275Y-146807828D01*
X138296136Y-146841503D01*
X138287701Y-146866472D01*
X138274790Y-146884825D01*
X138256907Y-146898265D01*
X138233437Y-146906843D01*
X138202677Y-146909982D01*
X138158628Y-146903355D01*
X138125680Y-146884825D01*
X138109948Y-146866063D01*
X138099967Y-146841065D01*
X138096310Y-146807828D01*
X138096310Y-146755987D01*
X138077730Y-146803331D01*
X138054326Y-146840847D01*
X138026273Y-146870110D01*
X137992702Y-146892101D01*
X137954840Y-146905391D01*
X137911479Y-146909982D01*
X137846851Y-146904150D01*
X137792472Y-146887634D01*
X137744377Y-146860794D01*
X137704972Y-146826024D01*
X137673793Y-146783872D01*
X137651116Y-146735043D01*
X137637571Y-146681738D01*
X137632920Y-146622997D01*
X137632920Y-146217004D01*
X137636225Y-146182483D01*
X137645126Y-146156837D01*
X137658810Y-146137931D01*
X137677721Y-146124212D01*
X137703367Y-146115292D01*
X137737883Y-146111980D01*
X137772399Y-146115292D01*
X137798045Y-146124212D01*
X137816957Y-146137931D01*
X137830676Y-146156842D01*
X137839596Y-146182489D01*
X137842908Y-146217004D01*
X137842908Y-146580987D01*
X137848464Y-146628615D01*
X137855904Y-146651399D01*
X137866660Y-146671357D01*
X137881021Y-146688466D01*
X137898900Y-146702132D01*
X137920168Y-146710825D01*
X137947871Y-146713978D01*
X137979064Y-146710941D01*
X138006673Y-146702132D01*
X138031426Y-146688134D01*
X138051491Y-146670624D01*
X138067481Y-146649433D01*
X138079457Y-146624401D01*
X138086781Y-146597024D01*
X138089288Y-146567004D01*
X138089288Y-146217004D01*
G37*
G36*
X138875322Y-146517973D02*
G01*
X138878582Y-146590517D01*
X138886887Y-146640464D01*
X138898403Y-146673433D01*
X138917084Y-146700763D01*
X138939300Y-146715907D01*
X138966303Y-146721000D01*
X139005504Y-146717519D01*
X139044705Y-146705612D01*
X139075021Y-146695688D01*
X139099442Y-146693905D01*
X139119626Y-146698651D01*
X139146343Y-146716442D01*
X139169330Y-146747622D01*
X139182030Y-146776312D01*
X139186115Y-146800324D01*
X139183251Y-146821078D01*
X139167455Y-146848572D01*
X139137090Y-146870781D01*
X139087269Y-146890664D01*
X139037011Y-146902289D01*
X138985386Y-146908033D01*
X138931315Y-146909982D01*
X138868075Y-146904464D01*
X138815788Y-146888978D01*
X138770355Y-146862043D01*
X138732501Y-146822482D01*
X138703896Y-146772644D01*
X138682126Y-146707017D01*
X138669865Y-146633566D01*
X138665334Y-146540382D01*
X138665334Y-146145624D01*
X138659590Y-146107431D01*
X138644330Y-146082610D01*
X138619509Y-146067349D01*
X138581315Y-146061605D01*
X138539305Y-146061605D01*
X138496098Y-146055245D01*
X138468597Y-146038524D01*
X138451876Y-146011023D01*
X138445516Y-145967816D01*
X138451880Y-145924565D01*
X138468597Y-145897107D01*
X138496098Y-145880386D01*
X138539305Y-145874026D01*
X138707283Y-145874026D01*
X138761734Y-145879340D01*
X138802678Y-145893739D01*
X138833312Y-145916036D01*
X138855608Y-145946633D01*
X138870007Y-145987554D01*
X138875322Y-146042004D01*
X138875322Y-146517973D01*
G37*
G36*
X139714541Y-146517973D02*
G01*
X139717800Y-146590517D01*
X139726105Y-146640464D01*
X139737622Y-146673433D01*
X139756303Y-146700763D01*
X139778519Y-146715907D01*
X139805521Y-146721000D01*
X139844722Y-146717519D01*
X139883923Y-146705612D01*
X139914239Y-146695688D01*
X139938660Y-146693905D01*
X139958845Y-146698651D01*
X139985562Y-146716442D01*
X140008548Y-146747622D01*
X140021248Y-146776312D01*
X140025334Y-146800324D01*
X140022470Y-146821078D01*
X140006674Y-146848572D01*
X139976308Y-146870781D01*
X139926487Y-146890664D01*
X139876229Y-146902289D01*
X139824604Y-146908033D01*
X139770533Y-146909982D01*
X139707294Y-146904464D01*
X139655006Y-146888978D01*
X139609574Y-146862043D01*
X139571720Y-146822482D01*
X139543114Y-146772644D01*
X139521345Y-146707017D01*
X139509083Y-146633566D01*
X139504553Y-146540382D01*
X139504553Y-146145624D01*
X139498809Y-146107431D01*
X139483548Y-146082610D01*
X139458727Y-146067349D01*
X139420533Y-146061605D01*
X139378524Y-146061605D01*
X139335316Y-146055245D01*
X139307815Y-146038524D01*
X139291094Y-146011023D01*
X139284734Y-145967816D01*
X139291099Y-145924565D01*
X139307815Y-145897107D01*
X139335316Y-145880386D01*
X139378524Y-145874026D01*
X139546502Y-145874026D01*
X139600953Y-145879340D01*
X139641897Y-145893739D01*
X139672531Y-145916036D01*
X139694826Y-145946633D01*
X139709225Y-145987554D01*
X139714541Y-146042004D01*
X139714541Y-146517973D01*
G37*
G36*
X140606943Y-146217004D02*
G01*
X140610248Y-146182483D01*
X140619149Y-146156837D01*
X140632833Y-146137931D01*
X140651745Y-146124215D01*
X140677410Y-146115293D01*
X140711967Y-146111980D01*
X140746483Y-146115292D01*
X140772130Y-146124212D01*
X140791041Y-146137931D01*
X140804725Y-146156837D01*
X140813625Y-146182483D01*
X140816931Y-146217004D01*
X140816931Y-146807828D01*
X140813792Y-146841503D01*
X140805357Y-146866472D01*
X140792445Y-146884825D01*
X140774562Y-146898265D01*
X140751092Y-146906843D01*
X140720333Y-146909982D01*
X140676283Y-146903355D01*
X140643335Y-146884825D01*
X140627603Y-146866063D01*
X140617622Y-146841065D01*
X140613965Y-146807828D01*
X140613965Y-146755987D01*
X140595386Y-146803331D01*
X140571981Y-146840847D01*
X140543928Y-146870110D01*
X140510357Y-146892101D01*
X140472495Y-146905391D01*
X140429134Y-146909982D01*
X140364506Y-146904150D01*
X140310127Y-146887634D01*
X140262032Y-146860794D01*
X140222627Y-146826024D01*
X140191448Y-146783872D01*
X140168771Y-146735043D01*
X140155227Y-146681738D01*
X140150575Y-146622997D01*
X140150575Y-146217004D01*
X140153881Y-146182483D01*
X140162781Y-146156837D01*
X140176465Y-146137931D01*
X140195376Y-146124212D01*
X140221023Y-146115292D01*
X140255539Y-146111980D01*
X140290054Y-146115292D01*
X140315701Y-146124212D01*
X140334612Y-146137931D01*
X140348331Y-146156842D01*
X140357251Y-146182489D01*
X140360563Y-146217004D01*
X140360563Y-146580987D01*
X140366120Y-146628615D01*
X140373559Y-146651399D01*
X140384316Y-146671357D01*
X140398676Y-146688466D01*
X140416556Y-146702132D01*
X140437823Y-146710825D01*
X140465526Y-146713978D01*
X140496719Y-146710941D01*
X140524328Y-146702132D01*
X140549081Y-146688134D01*
X140569146Y-146670624D01*
X140585136Y-146649433D01*
X140597112Y-146624401D01*
X140604436Y-146597024D01*
X140606943Y-146567004D01*
X140606943Y-146217004D01*
G37*
G36*
X141465582Y-146115582D02*
G01*
X141508474Y-146125647D01*
X141544164Y-146141411D01*
X141576270Y-146163559D01*
X141603437Y-146190698D01*
X141626046Y-146223294D01*
X141651044Y-146279402D01*
X141668056Y-146349323D01*
X141676865Y-146424510D01*
X141679963Y-146509607D01*
X141676682Y-146578402D01*
X141666652Y-146649620D01*
X141647877Y-146718261D01*
X141619024Y-146779129D01*
X141593518Y-146815364D01*
X141562652Y-146846739D01*
X141525968Y-146873590D01*
X141485205Y-146893044D01*
X141435479Y-146905502D01*
X141374781Y-146909982D01*
X141331202Y-146905720D01*
X141292571Y-146893348D01*
X141257850Y-146872919D01*
X141229254Y-146845160D01*
X141209047Y-146810880D01*
X141196973Y-146768627D01*
X141196973Y-147057017D01*
X141193667Y-147091538D01*
X141184767Y-147117184D01*
X141171083Y-147136090D01*
X141152175Y-147149771D01*
X141126512Y-147158673D01*
X141091948Y-147161980D01*
X141057427Y-147158675D01*
X141031781Y-147149774D01*
X141012875Y-147136090D01*
X140999191Y-147117184D01*
X140990290Y-147091538D01*
X140986985Y-147057017D01*
X140986985Y-146482985D01*
X141196973Y-146482985D01*
X141196973Y-146538978D01*
X141199450Y-146574744D01*
X141206742Y-146608281D01*
X141218835Y-146639624D01*
X141234769Y-146666411D01*
X141255122Y-146689062D01*
X141279527Y-146706345D01*
X141307339Y-146717282D01*
X141338389Y-146721000D01*
X141377437Y-146715771D01*
X141406228Y-146701399D01*
X141429043Y-146679005D01*
X141446161Y-146650291D01*
X141457753Y-146617638D01*
X141465029Y-146580987D01*
X141469975Y-146508203D01*
X141465029Y-146436823D01*
X141457911Y-146401510D01*
X141446833Y-146370328D01*
X141430652Y-146342710D01*
X141409036Y-146320624D01*
X141381964Y-146306161D01*
X141346755Y-146301024D01*
X141316661Y-146304170D01*
X141287953Y-146313602D01*
X141262095Y-146328977D01*
X141240387Y-146349995D01*
X141222993Y-146375736D01*
X141208879Y-146407392D01*
X141200073Y-146442303D01*
X141196973Y-146482985D01*
X140986985Y-146482985D01*
X140986985Y-146214196D01*
X140990124Y-146180521D01*
X140998559Y-146155552D01*
X141011470Y-146137198D01*
X141029469Y-146123955D01*
X141054571Y-146115247D01*
X141089139Y-146111980D01*
X141123776Y-146115179D01*
X141149972Y-146123844D01*
X141169678Y-146137198D01*
X141184203Y-146155788D01*
X141193532Y-146180774D01*
X141196973Y-146214196D01*
X141196973Y-146278615D01*
X141224267Y-146214196D01*
X141242723Y-146185414D01*
X141265544Y-146161012D01*
X141293027Y-146141184D01*
X141327154Y-146125291D01*
X141365581Y-146115539D01*
X141413982Y-146111980D01*
X141465582Y-146115582D01*
G37*
G36*
X142162159Y-146909982D02*
G01*
X142073988Y-146905098D01*
X142034398Y-146898332D01*
X141999066Y-146888306D01*
X141965770Y-146874621D01*
X141934708Y-146857531D01*
X141905765Y-146836567D01*
X141877983Y-146810576D01*
X141860491Y-146790177D01*
X141848551Y-146770031D01*
X141841343Y-146747857D01*
X141838782Y-146721000D01*
X141844376Y-146682129D01*
X141859787Y-146653833D01*
X141884248Y-146635092D01*
X141917184Y-146628615D01*
X141945882Y-146632828D01*
X141975985Y-146648215D01*
X142018432Y-146680124D01*
X142064157Y-146705612D01*
X142112734Y-146722479D01*
X142162159Y-146728021D01*
X142210458Y-146725945D01*
X142251064Y-146718191D01*
X142267153Y-146710991D01*
X142279091Y-146701399D01*
X142286850Y-146688793D01*
X142289593Y-146672029D01*
X142286949Y-146656192D01*
X142279091Y-146642598D01*
X142251064Y-146620249D01*
X142210458Y-146604129D01*
X142162159Y-146592222D01*
X142053654Y-146566333D01*
X142001965Y-146548378D01*
X141957056Y-146524995D01*
X141918489Y-146494108D01*
X141887752Y-146454286D01*
X141873637Y-146423754D01*
X141864503Y-146385828D01*
X141861191Y-146338821D01*
X141866544Y-146282646D01*
X141881463Y-146237338D01*
X141906313Y-146198310D01*
X141940265Y-146166629D01*
X141982039Y-146142775D01*
X142034787Y-146125291D01*
X142092841Y-146115497D01*
X142162159Y-146111980D01*
X142245642Y-146118251D01*
X142321772Y-146136526D01*
X142369435Y-146156071D01*
X142407179Y-146179229D01*
X142436566Y-146205769D01*
X142456167Y-146234529D01*
X142462248Y-146253702D01*
X142464593Y-146281423D01*
X142458494Y-146322239D01*
X142442184Y-146349323D01*
X142416749Y-146366447D01*
X142383382Y-146372404D01*
X142345586Y-146366115D01*
X142328500Y-146357923D01*
X142313407Y-146345781D01*
X142291954Y-146329078D01*
X142256681Y-146310794D01*
X142215578Y-146298520D01*
X142162159Y-146294002D01*
X142122958Y-146297543D01*
X142094260Y-146307313D01*
X142076796Y-146324105D01*
X142071179Y-146348590D01*
X142073162Y-146363144D01*
X142078872Y-146375213D01*
X142099145Y-146394080D01*
X142128576Y-146406720D01*
X142162159Y-146415818D01*
X142274877Y-146443112D01*
X142332461Y-146462374D01*
X142384054Y-146487198D01*
X142429640Y-146519663D01*
X142466669Y-146560715D01*
X142484456Y-146592560D01*
X142495617Y-146630561D01*
X142499581Y-146676181D01*
X142496054Y-146723081D01*
X142486238Y-146761540D01*
X142470882Y-146793112D01*
X142437616Y-146833720D01*
X142395289Y-146864492D01*
X142345831Y-146886037D01*
X142287456Y-146900152D01*
X142226024Y-146907499D01*
X142162159Y-146909982D01*
G37*
G36*
X64847397Y-130613970D02*
G01*
X64977465Y-130633031D01*
X65061536Y-130683396D01*
X65113357Y-130765987D01*
X65132978Y-130895521D01*
X65113447Y-131025264D01*
X65061536Y-131109661D01*
X64977287Y-131161418D01*
X64847397Y-131180919D01*
X64230073Y-131180919D01*
X64230073Y-131705919D01*
X64239852Y-131923553D01*
X64264766Y-132073393D01*
X64299316Y-132172301D01*
X64355358Y-132254289D01*
X64422006Y-132299721D01*
X64503014Y-132315000D01*
X64620617Y-132304558D01*
X64738220Y-132268838D01*
X64829171Y-132239058D01*
X64902367Y-132233718D01*
X64962801Y-132247955D01*
X65042953Y-132301328D01*
X65111912Y-132394867D01*
X65150124Y-132480947D01*
X65162434Y-132552980D01*
X65153860Y-132615235D01*
X65106472Y-132697718D01*
X65015375Y-132764345D01*
X64865913Y-132823994D01*
X64715139Y-132858867D01*
X64560263Y-132876101D01*
X64398051Y-132881948D01*
X64208332Y-132865394D01*
X64051470Y-132818934D01*
X63915172Y-132738131D01*
X63801610Y-132619448D01*
X63715753Y-132469938D01*
X63650301Y-132273051D01*
X63613517Y-132052699D01*
X63599926Y-131773147D01*
X63599926Y-131180919D01*
X63255544Y-131180919D01*
X63129607Y-131161989D01*
X63047632Y-131111676D01*
X62997332Y-131029830D01*
X62978389Y-130903764D01*
X62987513Y-130808399D01*
X63012077Y-130737585D01*
X63049830Y-130685411D01*
X63102004Y-130647658D01*
X63172818Y-130623094D01*
X63268183Y-130613970D01*
X63599926Y-130613970D01*
X63599926Y-130193934D01*
X63609842Y-130090370D01*
X63636544Y-130013432D01*
X63677595Y-129956713D01*
X63734426Y-129915654D01*
X63811433Y-129888955D01*
X63915000Y-129879043D01*
X64018564Y-129888959D01*
X64095501Y-129915662D01*
X64152220Y-129956713D01*
X64193376Y-130013447D01*
X64220137Y-130090386D01*
X64230073Y-130193934D01*
X64230073Y-130613970D01*
X64847397Y-130613970D01*
G37*
G36*
X66856200Y-130499421D02*
G01*
X67000985Y-130531687D01*
X67123435Y-130582463D01*
X67286167Y-130693084D01*
X67413229Y-130832506D01*
X67508052Y-130997652D01*
X67572964Y-131189528D01*
X67609196Y-131392817D01*
X67621324Y-131600956D01*
X67603812Y-131727303D01*
X67558309Y-131806852D01*
X67482901Y-131855690D01*
X67365052Y-131874080D01*
X66226941Y-131874080D01*
X66259157Y-131993316D01*
X66300214Y-132084007D01*
X66353406Y-132161638D01*
X66411589Y-132220661D01*
X66477796Y-132265533D01*
X66548060Y-132294117D01*
X66697170Y-132315000D01*
X66829914Y-132304027D01*
X66959670Y-132271036D01*
X67077052Y-132222527D01*
X67142486Y-132180544D01*
X67228581Y-132130169D01*
X67318890Y-132113316D01*
X67389620Y-132123830D01*
X67447327Y-132154152D01*
X67495294Y-132205823D01*
X67542355Y-132303802D01*
X67558309Y-132415750D01*
X67551867Y-132480962D01*
X67533030Y-132539764D01*
X67497298Y-132595176D01*
X67423853Y-132667808D01*
X67285184Y-132758117D01*
X67115191Y-132825345D01*
X66909295Y-132867294D01*
X66663647Y-132881948D01*
X66492080Y-132870935D01*
X66342669Y-132839580D01*
X66212103Y-132789624D01*
X66091096Y-132719692D01*
X65985879Y-132635231D01*
X65895015Y-132535551D01*
X65785721Y-132362651D01*
X65705971Y-132159661D01*
X65659114Y-131940977D01*
X65643140Y-131705919D01*
X65656843Y-131477115D01*
X65668821Y-131411912D01*
X66230971Y-131411912D01*
X67041735Y-131411912D01*
X67079471Y-131399455D01*
X67092110Y-131353110D01*
X67085774Y-131295838D01*
X67066831Y-131241919D01*
X67035557Y-131192846D01*
X66989162Y-131147397D01*
X66932182Y-131110377D01*
X66860935Y-131080352D01*
X66781814Y-131061782D01*
X66684713Y-131055073D01*
X66595147Y-131061674D01*
X66518750Y-131080352D01*
X66448996Y-131110969D01*
X66388508Y-131151610D01*
X66336340Y-131202226D01*
X66291971Y-131262984D01*
X66257229Y-131331576D01*
X66230971Y-131411912D01*
X65668821Y-131411912D01*
X65697728Y-131254558D01*
X65770470Y-131044807D01*
X65876147Y-130864014D01*
X65966256Y-130758878D01*
X66073430Y-130668036D01*
X66199464Y-130590889D01*
X66336276Y-130535474D01*
X66496544Y-130500382D01*
X66684713Y-130487941D01*
X66856200Y-130499421D01*
G37*
G36*
X69160237Y-132881948D02*
G01*
X68895722Y-132867294D01*
X68776952Y-132846997D01*
X68670957Y-132816919D01*
X68571069Y-132775864D01*
X68477883Y-132724595D01*
X68391053Y-132661703D01*
X68307707Y-132583728D01*
X68255232Y-132522533D01*
X68219413Y-132462095D01*
X68197787Y-132395572D01*
X68190104Y-132315000D01*
X68206886Y-132198388D01*
X68253119Y-132113499D01*
X68326503Y-132057278D01*
X68425310Y-132037845D01*
X68511406Y-132050484D01*
X68601714Y-132096646D01*
X68729056Y-132192374D01*
X68866229Y-132268838D01*
X69011960Y-132319438D01*
X69160237Y-132336065D01*
X69305134Y-132329837D01*
X69426950Y-132306573D01*
X69475217Y-132284974D01*
X69511031Y-132256198D01*
X69534309Y-132218381D01*
X69542538Y-132168087D01*
X69534605Y-132120578D01*
X69511031Y-132079794D01*
X69426950Y-132012749D01*
X69305134Y-131964389D01*
X69160237Y-131928668D01*
X68834722Y-131850999D01*
X68679654Y-131797134D01*
X68544928Y-131726985D01*
X68429227Y-131634325D01*
X68337016Y-131514860D01*
X68294670Y-131423262D01*
X68267268Y-131309486D01*
X68257332Y-131168463D01*
X68273390Y-130999940D01*
X68318148Y-130864014D01*
X68392698Y-130746931D01*
X68494553Y-130651889D01*
X68619874Y-130580326D01*
X68778119Y-130527875D01*
X68952281Y-130498493D01*
X69160237Y-130487941D01*
X69410686Y-130506753D01*
X69639075Y-130561580D01*
X69782063Y-130620213D01*
X69895295Y-130689689D01*
X69983457Y-130769309D01*
X70042259Y-130855587D01*
X70060503Y-130913106D01*
X70067538Y-130996271D01*
X70049241Y-131118719D01*
X70000310Y-131199970D01*
X69924005Y-131251343D01*
X69823906Y-131269213D01*
X69710516Y-131250345D01*
X69659258Y-131225769D01*
X69613979Y-131189345D01*
X69549620Y-131139234D01*
X69443803Y-131084382D01*
X69320494Y-131047560D01*
X69160237Y-131034007D01*
X69042634Y-131044631D01*
X68956538Y-131073941D01*
X68904148Y-131124316D01*
X68887295Y-131197772D01*
X68893244Y-131241432D01*
X68910376Y-131277639D01*
X68971193Y-131334242D01*
X69059487Y-131372161D01*
X69160237Y-131399455D01*
X69498391Y-131481338D01*
X69671141Y-131539124D01*
X69825921Y-131613595D01*
X69962680Y-131710990D01*
X70073766Y-131834146D01*
X70127127Y-131929680D01*
X70160610Y-132043683D01*
X70172501Y-132180544D01*
X70161921Y-132321243D01*
X70132474Y-132436621D01*
X70086406Y-132531338D01*
X69986606Y-132653162D01*
X69859626Y-132745478D01*
X69711252Y-132810112D01*
X69536127Y-132852456D01*
X69351829Y-132874497D01*
X69160237Y-132881948D01*
G37*
G36*
X72400362Y-130613970D02*
G01*
X72530431Y-130633031D01*
X72614502Y-130683396D01*
X72666323Y-130765987D01*
X72685943Y-130895521D01*
X72666412Y-131025264D01*
X72614502Y-131109661D01*
X72530253Y-131161418D01*
X72400362Y-131180919D01*
X71783039Y-131180919D01*
X71783039Y-131705919D01*
X71792817Y-131923553D01*
X71817731Y-132073393D01*
X71852281Y-132172301D01*
X71908324Y-132254289D01*
X71974972Y-132299721D01*
X72055980Y-132315000D01*
X72173583Y-132304558D01*
X72291186Y-132268838D01*
X72382137Y-132239058D01*
X72455333Y-132233718D01*
X72515767Y-132247955D01*
X72595919Y-132301328D01*
X72664877Y-132394867D01*
X72703090Y-132480947D01*
X72715400Y-132552980D01*
X72706826Y-132615235D01*
X72659438Y-132697718D01*
X72568340Y-132764345D01*
X72418878Y-132823994D01*
X72268105Y-132858867D01*
X72113229Y-132876101D01*
X71951017Y-132881948D01*
X71761298Y-132865394D01*
X71604436Y-132818934D01*
X71468138Y-132738131D01*
X71354576Y-132619448D01*
X71268719Y-132469938D01*
X71203267Y-132273051D01*
X71166483Y-132052699D01*
X71152892Y-131773147D01*
X71152892Y-131180919D01*
X70808510Y-131180919D01*
X70682573Y-131161989D01*
X70600598Y-131111676D01*
X70550298Y-131029830D01*
X70531355Y-130903764D01*
X70540479Y-130808399D01*
X70565043Y-130737585D01*
X70602796Y-130685411D01*
X70654970Y-130647658D01*
X70725783Y-130623094D01*
X70821149Y-130613970D01*
X71152892Y-130613970D01*
X71152892Y-130193934D01*
X71162808Y-130090370D01*
X71189510Y-130013432D01*
X71230561Y-129956713D01*
X71287391Y-129915654D01*
X71364399Y-129888955D01*
X71467965Y-129879043D01*
X71571529Y-129888959D01*
X71648467Y-129915662D01*
X71705186Y-129956713D01*
X71746342Y-130013447D01*
X71773103Y-130090386D01*
X71783039Y-130193934D01*
X71783039Y-130613970D01*
X72400362Y-130613970D01*
G37*
G36*
X76123898Y-129741888D02*
G01*
X76200891Y-129768652D01*
X76257629Y-129809801D01*
X76298680Y-129866520D01*
X76325382Y-129943457D01*
X76335298Y-130047021D01*
X76335298Y-130912191D01*
X76371522Y-130785432D01*
X76432141Y-130682592D01*
X76517930Y-130599316D01*
X76622105Y-130537921D01*
X76737997Y-130500746D01*
X76868724Y-130487941D01*
X77050804Y-130501403D01*
X77199982Y-130538836D01*
X77322283Y-130597301D01*
X77432323Y-130677865D01*
X77524922Y-130772047D01*
X77601453Y-130880867D01*
X77688086Y-131063038D01*
X77744335Y-131267198D01*
X77774347Y-131479341D01*
X77784269Y-131689249D01*
X77774979Y-131944399D01*
X77748548Y-132170102D01*
X77697512Y-132379866D01*
X77622519Y-132548190D01*
X77554709Y-132645873D01*
X77473210Y-132727298D01*
X77376871Y-132793838D01*
X77269815Y-132841027D01*
X77141138Y-132871162D01*
X76986327Y-132881948D01*
X76841124Y-132871272D01*
X76725842Y-132842015D01*
X76623468Y-132794478D01*
X76541011Y-132735036D01*
X76472548Y-132661830D01*
X76417180Y-132575484D01*
X76335298Y-132382227D01*
X76335298Y-132575484D01*
X76324975Y-132675750D01*
X76296988Y-132750708D01*
X76253415Y-132806477D01*
X76194311Y-132846435D01*
X76115725Y-132872371D01*
X76011798Y-132881948D01*
X75908076Y-132872167D01*
X75832772Y-132846102D01*
X75778790Y-132806477D01*
X75740057Y-132751417D01*
X75714752Y-132676510D01*
X75705334Y-132575484D01*
X75705334Y-131600956D01*
X76335298Y-131600956D01*
X76335298Y-131768934D01*
X76344596Y-131891004D01*
X76371018Y-131995896D01*
X76413359Y-132090862D01*
X76465540Y-132168087D01*
X76530646Y-132231033D01*
X76608239Y-132277264D01*
X76694362Y-132305562D01*
X76784644Y-132315000D01*
X76890273Y-132299589D01*
X76971489Y-132256198D01*
X77036336Y-132189940D01*
X77084879Y-132107088D01*
X77118124Y-132013406D01*
X77139467Y-131907602D01*
X77154305Y-131693463D01*
X77139467Y-131472911D01*
X77117697Y-131364737D01*
X77082864Y-131267198D01*
X77031510Y-131181057D01*
X76963063Y-131113874D01*
X76876691Y-131070758D01*
X76759548Y-131055073D01*
X76666409Y-131066268D01*
X76582960Y-131099220D01*
X76509753Y-131150925D01*
X76448688Y-131218838D01*
X76400895Y-131299047D01*
X76364607Y-131393044D01*
X76342729Y-131493656D01*
X76335298Y-131600956D01*
X75705334Y-131600956D01*
X75705334Y-130047021D01*
X75715250Y-129943457D01*
X75741953Y-129866520D01*
X75783004Y-129809801D01*
X75839738Y-129768645D01*
X75916677Y-129741884D01*
X76020225Y-129731948D01*
X76123898Y-129741888D01*
G37*
G36*
X79402319Y-130499418D02*
G01*
X79552421Y-130532198D01*
X79684417Y-130584661D01*
X79862124Y-130698616D01*
X80005718Y-130844963D01*
X80116707Y-131020015D01*
X80196960Y-131225066D01*
X80243920Y-131446042D01*
X80259975Y-131685036D01*
X80243989Y-131920357D01*
X80196960Y-132140793D01*
X80116815Y-132346050D01*
X80005718Y-132522911D01*
X79913417Y-132625546D01*
X79806777Y-132712803D01*
X79684417Y-132785411D01*
X79552431Y-132837772D01*
X79402329Y-132870492D01*
X79230858Y-132881948D01*
X79059511Y-132870497D01*
X78909401Y-132837782D01*
X78777299Y-132785411D01*
X78654939Y-132712803D01*
X78548299Y-132625546D01*
X78455997Y-132522911D01*
X78345043Y-132346063D01*
X78264938Y-132140793D01*
X78217910Y-131920357D01*
X78201924Y-131685036D01*
X78831887Y-131685036D01*
X78837771Y-131817452D01*
X78854968Y-131941125D01*
X78885628Y-132057806D01*
X78928424Y-132155448D01*
X78986165Y-132239446D01*
X79054453Y-132302360D01*
X79135531Y-132343037D01*
X79230858Y-132356948D01*
X79326314Y-132343025D01*
X79407262Y-132302360D01*
X79475662Y-132239424D01*
X79533292Y-132155448D01*
X79576088Y-132057806D01*
X79606748Y-131941125D01*
X79624081Y-131817447D01*
X79630012Y-131685036D01*
X79624031Y-131548751D01*
X79606748Y-131424551D01*
X79575997Y-131308183D01*
X79533292Y-131212426D01*
X79475797Y-131130131D01*
X79407262Y-131067529D01*
X79326314Y-131026864D01*
X79230858Y-131012941D01*
X79135531Y-131026853D01*
X79054453Y-131067529D01*
X78986177Y-131130473D01*
X78928424Y-131214624D01*
X78885635Y-131312109D01*
X78854968Y-131428764D01*
X78837773Y-131552460D01*
X78831887Y-131685036D01*
X78201924Y-131685036D01*
X78217910Y-131449715D01*
X78264938Y-131229279D01*
X78345061Y-131023883D01*
X78455997Y-130847161D01*
X78548299Y-130744526D01*
X78654939Y-130657269D01*
X78777299Y-130584661D01*
X78909411Y-130532187D01*
X79059520Y-130499412D01*
X79230858Y-130487941D01*
X79402319Y-130499418D01*
G37*
G36*
X82542709Y-130496953D02*
G01*
X82605757Y-130520346D01*
X82647388Y-130555169D01*
X82681812Y-130634129D01*
X82680910Y-130765279D01*
X82630535Y-131206198D01*
X82609652Y-131649316D01*
X82615338Y-131875491D01*
X82632733Y-132111301D01*
X82663050Y-132351234D01*
X82710403Y-132613220D01*
X82721194Y-132744988D01*
X82697763Y-132818934D01*
X82663885Y-132850841D01*
X82606031Y-132873057D01*
X82512932Y-132881948D01*
X82374680Y-132864780D01*
X82267285Y-132816919D01*
X82210470Y-132766906D01*
X82167801Y-132700294D01*
X82139241Y-132613220D01*
X82113961Y-132470338D01*
X82076226Y-132537566D01*
X81960730Y-132687233D01*
X81822152Y-132793838D01*
X81716592Y-132841616D01*
X81595106Y-132871464D01*
X81454506Y-132881948D01*
X81305836Y-132867327D01*
X81160498Y-132823147D01*
X81026960Y-132748548D01*
X80906425Y-132638499D01*
X80808203Y-132499110D01*
X80725807Y-132315000D01*
X80675165Y-132106263D01*
X80656564Y-131840375D01*
X80657548Y-131823522D01*
X81286528Y-131823522D01*
X81306403Y-132026020D01*
X81359984Y-132176514D01*
X81419049Y-132254265D01*
X81493651Y-132299312D01*
X81588961Y-132315000D01*
X81667597Y-132304822D01*
X81748513Y-132273051D01*
X81823053Y-132221353D01*
X81893410Y-132144823D01*
X81950492Y-132050362D01*
X81998374Y-131924455D01*
X82027524Y-131782684D01*
X82038307Y-131600956D01*
X82025668Y-131378389D01*
X82007690Y-131282025D01*
X81981704Y-131206198D01*
X81944035Y-131141502D01*
X81897623Y-131095006D01*
X81839985Y-131065553D01*
X81765366Y-131055073D01*
X81654048Y-131071147D01*
X81559469Y-131118087D01*
X81479207Y-131190296D01*
X81410359Y-131286065D01*
X81357794Y-131397026D01*
X81318035Y-131529698D01*
X81294579Y-131670778D01*
X81286528Y-131823522D01*
X80657548Y-131823522D01*
X80672690Y-131564281D01*
X80719579Y-131311161D01*
X80799060Y-131075525D01*
X80904410Y-130880683D01*
X80993093Y-130766519D01*
X81093632Y-130671151D01*
X81206844Y-130593087D01*
X81331067Y-130535471D01*
X81468731Y-130500146D01*
X81622667Y-130487941D01*
X81751287Y-130499132D01*
X81857616Y-130530542D01*
X81945983Y-130580448D01*
X82034541Y-130660604D01*
X82109748Y-130761065D01*
X82148867Y-130639954D01*
X82218925Y-130555169D01*
X82314064Y-130506136D01*
X82449918Y-130487941D01*
X82542709Y-130496953D01*
G37*
G36*
X83657271Y-132881948D02*
G01*
X83553755Y-132871931D01*
X83478363Y-132845167D01*
X83424080Y-132804279D01*
X83385430Y-132747916D01*
X83360079Y-132671003D01*
X83350624Y-132567058D01*
X83350624Y-130794588D01*
X83360281Y-130693761D01*
X83386289Y-130618841D01*
X83426278Y-130563595D01*
X83481524Y-130523606D01*
X83556445Y-130497598D01*
X83657271Y-130487941D01*
X83758072Y-130497653D01*
X83832150Y-130523695D01*
X83886065Y-130563595D01*
X83924904Y-130618671D01*
X83950267Y-130693579D01*
X83959705Y-130794588D01*
X83959705Y-130949926D01*
X84008426Y-130845711D01*
X84068881Y-130754654D01*
X84142363Y-130675400D01*
X84228433Y-130609757D01*
X84325704Y-130558371D01*
X84438360Y-130519448D01*
X84559149Y-130496076D01*
X84694631Y-130487941D01*
X84866724Y-130503643D01*
X85001278Y-130546742D01*
X85116348Y-130618750D01*
X85209190Y-130716919D01*
X85278936Y-130836752D01*
X85328808Y-130983632D01*
X85356837Y-131143716D01*
X85366727Y-131328014D01*
X85366727Y-131369963D01*
X85356795Y-131473512D01*
X85330037Y-131550521D01*
X85288874Y-131607367D01*
X85232155Y-131648418D01*
X85155217Y-131675120D01*
X85051653Y-131685036D01*
X84948087Y-131675125D01*
X84871079Y-131648425D01*
X84814249Y-131607367D01*
X84773191Y-131550537D01*
X84746491Y-131473529D01*
X84736580Y-131369963D01*
X84736580Y-131361536D01*
X84728154Y-131235690D01*
X84696646Y-131132742D01*
X84668111Y-131093135D01*
X84627404Y-131061301D01*
X84576581Y-131041455D01*
X84505587Y-131034007D01*
X84405681Y-131041830D01*
X84306102Y-131065514D01*
X84212165Y-131103835D01*
X84131713Y-131153808D01*
X84062942Y-131216313D01*
X84007882Y-131290279D01*
X83971729Y-131373238D01*
X83959705Y-131462470D01*
X83959705Y-132567058D01*
X83950473Y-132671186D01*
X83925772Y-132748087D01*
X83888264Y-132804279D01*
X83835303Y-132845078D01*
X83760760Y-132871876D01*
X83657271Y-132881948D01*
G37*
G36*
X87580532Y-129741884D02*
G01*
X87657471Y-129768645D01*
X87714206Y-129809801D01*
X87755257Y-129866520D01*
X87781959Y-129943457D01*
X87791875Y-130047021D01*
X87791875Y-132575484D01*
X87782457Y-132676510D01*
X87757153Y-132751417D01*
X87718419Y-132806477D01*
X87664433Y-132846095D01*
X87589077Y-132872163D01*
X87485228Y-132881948D01*
X87381427Y-132872374D01*
X87302895Y-132846442D01*
X87243794Y-132806477D01*
X87200222Y-132750708D01*
X87172235Y-132675750D01*
X87161912Y-132575484D01*
X87161912Y-132382227D01*
X87079846Y-132575484D01*
X87024586Y-132661809D01*
X86956015Y-132735036D01*
X86873684Y-132794458D01*
X86771184Y-132842015D01*
X86655923Y-132871276D01*
X86510882Y-132881948D01*
X86356072Y-132871165D01*
X86227329Y-132841034D01*
X86120155Y-132793838D01*
X86023816Y-132727298D01*
X85942318Y-132645873D01*
X85874508Y-132548190D01*
X85799654Y-132379879D01*
X85748661Y-132170102D01*
X85722230Y-131944399D01*
X85713094Y-131693463D01*
X86342904Y-131693463D01*
X86357559Y-131907602D01*
X86378902Y-132013406D01*
X86412147Y-132107088D01*
X86460797Y-132189961D01*
X86525537Y-132256198D01*
X86606907Y-132299596D01*
X86712566Y-132315000D01*
X86806184Y-132305407D01*
X86890985Y-132277264D01*
X86966895Y-132231167D01*
X87031669Y-132168087D01*
X87083850Y-132090862D01*
X87126191Y-131995896D01*
X87152613Y-131891004D01*
X87161912Y-131768934D01*
X87161912Y-131600956D01*
X87154435Y-131493663D01*
X87132419Y-131393044D01*
X87096273Y-131299052D01*
X87048522Y-131218838D01*
X86987425Y-131150938D01*
X86914066Y-131099220D01*
X86830773Y-131066273D01*
X86737662Y-131055073D01*
X86620358Y-131070764D01*
X86533963Y-131113874D01*
X86465625Y-131181036D01*
X86414162Y-131267198D01*
X86379329Y-131364737D01*
X86357559Y-131472911D01*
X86342904Y-131693463D01*
X85713094Y-131693463D01*
X85712941Y-131689249D01*
X85722817Y-131479337D01*
X85752691Y-131267198D01*
X85808940Y-131063038D01*
X85895573Y-130880867D01*
X85972211Y-130772040D01*
X86064874Y-130677858D01*
X86174926Y-130597301D01*
X86297227Y-130538836D01*
X86446406Y-130501403D01*
X86628485Y-130487941D01*
X86759209Y-130500749D01*
X86875036Y-130537927D01*
X86979096Y-130599316D01*
X87064902Y-130682589D01*
X87125583Y-130785431D01*
X87161912Y-130912191D01*
X87161912Y-130047021D01*
X87171827Y-129943457D01*
X87198530Y-129866520D01*
X87239581Y-129809801D01*
X87296319Y-129768652D01*
X87373311Y-129741888D01*
X87476985Y-129731948D01*
X87580532Y-129741884D01*
G37*
G36*
X61795036Y-126625919D02*
G01*
X61804815Y-126843553D01*
X61829729Y-126993393D01*
X61864279Y-127092301D01*
X61920322Y-127174289D01*
X61986970Y-127219721D01*
X62067978Y-127235000D01*
X62185580Y-127224558D01*
X62303183Y-127188838D01*
X62394131Y-127159064D01*
X62467395Y-127153716D01*
X62527948Y-127167955D01*
X62608099Y-127221328D01*
X62677058Y-127314867D01*
X62715159Y-127400936D01*
X62727415Y-127472972D01*
X62718824Y-127535235D01*
X62671435Y-127617718D01*
X62580338Y-127684345D01*
X62430876Y-127743994D01*
X62280102Y-127778867D01*
X62125227Y-127796101D01*
X61963014Y-127801948D01*
X61773295Y-127785394D01*
X61616434Y-127738934D01*
X61480135Y-127658131D01*
X61366573Y-127539448D01*
X61280757Y-127389933D01*
X61215448Y-127193051D01*
X61178664Y-126972699D01*
X61165073Y-126693147D01*
X61165073Y-125508874D01*
X61147840Y-125394293D01*
X61102058Y-125319830D01*
X61027595Y-125274049D01*
X60913014Y-125256816D01*
X60786985Y-125256816D01*
X60657363Y-125237736D01*
X60574860Y-125187573D01*
X60524697Y-125105070D01*
X60505617Y-124975448D01*
X60524710Y-124845696D01*
X60574860Y-124763323D01*
X60657363Y-124713160D01*
X60786985Y-124694080D01*
X61290919Y-124694080D01*
X61454273Y-124710022D01*
X61577105Y-124753217D01*
X61669007Y-124820109D01*
X61735892Y-124911900D01*
X61779089Y-125034663D01*
X61795036Y-125198014D01*
X61795036Y-126625919D01*
G37*
G36*
X64913346Y-127193051D02*
G01*
X65042937Y-127212137D01*
X65125287Y-127262294D01*
X65175576Y-127344685D01*
X65194713Y-127474419D01*
X65175182Y-127604161D01*
X65123272Y-127688558D01*
X65038875Y-127740469D01*
X64909132Y-127760000D01*
X63422243Y-127760000D01*
X63292500Y-127740469D01*
X63208103Y-127688558D01*
X63156193Y-127604161D01*
X63136662Y-127474419D01*
X63155755Y-127344667D01*
X63205905Y-127262294D01*
X63288408Y-127212130D01*
X63418030Y-127193051D01*
X63901081Y-127193051D01*
X63901081Y-126336125D01*
X63885484Y-126229009D01*
X63844295Y-126159720D01*
X63776639Y-126117083D01*
X63670088Y-126100919D01*
X63514567Y-126100919D01*
X63380590Y-126081845D01*
X63294199Y-126031676D01*
X63255201Y-125980747D01*
X63230045Y-125911996D01*
X63220743Y-125819734D01*
X63229995Y-125727313D01*
X63255121Y-125657674D01*
X63294199Y-125605411D01*
X63380804Y-125553575D01*
X63514567Y-125533970D01*
X64027110Y-125533970D01*
X64190339Y-125549908D01*
X64313116Y-125593099D01*
X64405015Y-125660000D01*
X64471908Y-125751902D01*
X64515102Y-125874734D01*
X64531045Y-126038087D01*
X64531045Y-127193051D01*
X64913346Y-127193051D01*
G37*
G36*
X64186662Y-125168705D02*
G01*
X64075008Y-125157994D01*
X63984796Y-125128104D01*
X63911523Y-125080594D01*
X63854884Y-125015610D01*
X63820619Y-124937129D01*
X63808574Y-124840992D01*
X63820618Y-124744983D01*
X63854881Y-124666625D01*
X63911523Y-124601756D01*
X63984810Y-124554141D01*
X64075021Y-124524193D01*
X64186662Y-124513463D01*
X64298301Y-124524197D01*
X64388444Y-124554148D01*
X64461618Y-124601756D01*
X64518260Y-124666625D01*
X64552523Y-124744983D01*
X64564567Y-124840992D01*
X64552522Y-124937129D01*
X64518257Y-125015610D01*
X64461618Y-125080594D01*
X64388458Y-125128097D01*
X64298314Y-125157990D01*
X64186662Y-125168705D01*
G37*
G36*
X67342707Y-125533970D02*
G01*
X67472776Y-125553031D01*
X67556847Y-125603396D01*
X67608667Y-125685987D01*
X67628288Y-125815521D01*
X67608757Y-125945264D01*
X67556847Y-126029661D01*
X67472597Y-126081418D01*
X67342707Y-126100919D01*
X66725383Y-126100919D01*
X66725383Y-126625919D01*
X66735162Y-126843553D01*
X66760076Y-126993393D01*
X66794626Y-127092301D01*
X66850669Y-127174289D01*
X66917317Y-127219721D01*
X66998325Y-127235000D01*
X67115928Y-127224558D01*
X67233531Y-127188838D01*
X67324481Y-127159058D01*
X67397677Y-127153718D01*
X67458112Y-127167955D01*
X67538263Y-127221328D01*
X67607222Y-127314867D01*
X67645434Y-127400947D01*
X67657744Y-127472980D01*
X67649171Y-127535235D01*
X67601782Y-127617718D01*
X67510685Y-127684345D01*
X67361223Y-127743994D01*
X67210450Y-127778867D01*
X67055574Y-127796101D01*
X66893361Y-127801948D01*
X66703642Y-127785394D01*
X66546781Y-127738934D01*
X66410483Y-127658131D01*
X66296920Y-127539448D01*
X66211064Y-127389938D01*
X66145612Y-127193051D01*
X66108828Y-126972699D01*
X66095237Y-126693147D01*
X66095237Y-126100919D01*
X65750854Y-126100919D01*
X65624918Y-126081989D01*
X65542943Y-126031676D01*
X65492643Y-125949830D01*
X65473700Y-125823764D01*
X65482824Y-125728399D01*
X65507388Y-125657585D01*
X65545141Y-125605411D01*
X65597315Y-125567658D01*
X65668128Y-125543094D01*
X65763494Y-125533970D01*
X66095237Y-125533970D01*
X66095237Y-125113934D01*
X66105153Y-125010370D01*
X66131855Y-124933432D01*
X66172906Y-124876713D01*
X66229736Y-124835654D01*
X66306744Y-124808955D01*
X66410310Y-124799043D01*
X66513874Y-124808959D01*
X66590812Y-124835662D01*
X66647531Y-124876713D01*
X66688687Y-124933447D01*
X66715448Y-125010386D01*
X66725383Y-125113934D01*
X66725383Y-125533970D01*
X67342707Y-125533970D01*
G37*
G36*
X69860362Y-125533970D02*
G01*
X69990431Y-125553031D01*
X70074502Y-125603396D01*
X70126323Y-125685987D01*
X70145943Y-125815521D01*
X70126412Y-125945264D01*
X70074502Y-126029661D01*
X69990253Y-126081418D01*
X69860362Y-126100919D01*
X69243039Y-126100919D01*
X69243039Y-126625919D01*
X69252817Y-126843553D01*
X69277731Y-126993393D01*
X69312281Y-127092301D01*
X69368324Y-127174289D01*
X69434972Y-127219721D01*
X69515980Y-127235000D01*
X69633583Y-127224558D01*
X69751186Y-127188838D01*
X69842137Y-127159058D01*
X69915333Y-127153718D01*
X69975767Y-127167955D01*
X70055919Y-127221328D01*
X70124877Y-127314867D01*
X70163090Y-127400947D01*
X70175400Y-127472980D01*
X70166826Y-127535235D01*
X70119438Y-127617718D01*
X70028340Y-127684345D01*
X69878878Y-127743994D01*
X69728105Y-127778867D01*
X69573229Y-127796101D01*
X69411017Y-127801948D01*
X69221298Y-127785394D01*
X69064436Y-127738934D01*
X68928138Y-127658131D01*
X68814576Y-127539448D01*
X68728719Y-127389938D01*
X68663267Y-127193051D01*
X68626483Y-126972699D01*
X68612892Y-126693147D01*
X68612892Y-126100919D01*
X68268510Y-126100919D01*
X68142573Y-126081989D01*
X68060598Y-126031676D01*
X68010298Y-125949830D01*
X67991355Y-125823764D01*
X68000479Y-125728399D01*
X68025043Y-125657585D01*
X68062796Y-125605411D01*
X68114970Y-125567658D01*
X68185783Y-125543094D01*
X68281149Y-125533970D01*
X68612892Y-125533970D01*
X68612892Y-125113934D01*
X68622808Y-125010370D01*
X68649510Y-124933432D01*
X68690561Y-124876713D01*
X68747391Y-124835654D01*
X68824399Y-124808955D01*
X68927965Y-124799043D01*
X69031529Y-124808959D01*
X69108467Y-124835662D01*
X69165186Y-124876713D01*
X69206342Y-124933447D01*
X69233103Y-125010386D01*
X69243039Y-125113934D01*
X69243039Y-125533970D01*
X69860362Y-125533970D01*
G37*
G36*
X71865657Y-126625919D02*
G01*
X71875436Y-126843553D01*
X71900350Y-126993393D01*
X71934900Y-127092301D01*
X71990943Y-127174289D01*
X72057591Y-127219721D01*
X72138599Y-127235000D01*
X72256202Y-127224558D01*
X72373804Y-127188838D01*
X72464752Y-127159064D01*
X72538016Y-127153716D01*
X72598569Y-127167955D01*
X72678721Y-127221328D01*
X72747679Y-127314867D01*
X72785781Y-127400936D01*
X72798036Y-127472972D01*
X72789445Y-127535235D01*
X72742056Y-127617718D01*
X72650959Y-127684345D01*
X72501497Y-127743994D01*
X72350724Y-127778867D01*
X72195848Y-127796101D01*
X72033635Y-127801948D01*
X71843916Y-127785394D01*
X71687055Y-127738934D01*
X71550757Y-127658131D01*
X71437194Y-127539448D01*
X71351378Y-127389933D01*
X71286069Y-127193051D01*
X71249285Y-126972699D01*
X71235694Y-126693147D01*
X71235694Y-125508874D01*
X71218461Y-125394293D01*
X71172679Y-125319830D01*
X71098216Y-125274049D01*
X70983635Y-125256816D01*
X70857606Y-125256816D01*
X70727984Y-125237736D01*
X70645481Y-125187573D01*
X70595318Y-125105070D01*
X70576238Y-124975448D01*
X70595331Y-124845696D01*
X70645481Y-124763323D01*
X70727984Y-124713160D01*
X70857606Y-124694080D01*
X71361540Y-124694080D01*
X71524894Y-124710022D01*
X71647726Y-124753217D01*
X71739628Y-124820109D01*
X71806513Y-124911900D01*
X71849710Y-125034663D01*
X71865657Y-125198014D01*
X71865657Y-126625919D01*
G37*
G36*
X74386821Y-125419421D02*
G01*
X74531606Y-125451687D01*
X74654056Y-125502463D01*
X74816788Y-125613084D01*
X74943850Y-125752506D01*
X75038673Y-125917652D01*
X75103585Y-126109528D01*
X75139817Y-126312817D01*
X75151945Y-126520956D01*
X75134433Y-126647303D01*
X75088930Y-126726852D01*
X75013522Y-126775690D01*
X74895673Y-126794080D01*
X73757562Y-126794080D01*
X73789778Y-126913316D01*
X73830835Y-127004007D01*
X73884027Y-127081638D01*
X73942210Y-127140661D01*
X74008417Y-127185533D01*
X74078681Y-127214117D01*
X74227791Y-127235000D01*
X74360535Y-127224027D01*
X74490291Y-127191036D01*
X74607673Y-127142527D01*
X74673107Y-127100544D01*
X74759202Y-127050169D01*
X74849511Y-127033316D01*
X74920241Y-127043830D01*
X74977948Y-127074152D01*
X75025915Y-127125823D01*
X75072976Y-127223802D01*
X75088930Y-127335750D01*
X75082488Y-127400962D01*
X75063651Y-127459764D01*
X75027919Y-127515176D01*
X74954474Y-127587808D01*
X74815806Y-127678117D01*
X74645812Y-127745345D01*
X74439916Y-127787294D01*
X74194269Y-127801948D01*
X74022701Y-127790935D01*
X73873290Y-127759580D01*
X73742725Y-127709624D01*
X73621717Y-127639692D01*
X73516500Y-127555231D01*
X73425636Y-127455551D01*
X73316342Y-127282651D01*
X73236592Y-127079661D01*
X73189735Y-126860977D01*
X73173761Y-126625919D01*
X73187464Y-126397115D01*
X73199442Y-126331912D01*
X73761592Y-126331912D01*
X74572356Y-126331912D01*
X74610092Y-126319455D01*
X74622732Y-126273110D01*
X74616395Y-126215838D01*
X74597452Y-126161919D01*
X74566178Y-126112846D01*
X74519783Y-126067397D01*
X74462803Y-126030377D01*
X74391556Y-126000352D01*
X74312435Y-125981782D01*
X74215334Y-125975073D01*
X74125768Y-125981674D01*
X74049371Y-126000352D01*
X73979617Y-126030969D01*
X73919129Y-126071610D01*
X73866961Y-126122226D01*
X73822592Y-126182984D01*
X73787850Y-126251576D01*
X73761592Y-126331912D01*
X73199442Y-126331912D01*
X73228349Y-126174558D01*
X73301091Y-125964807D01*
X73406769Y-125784014D01*
X73496877Y-125678878D01*
X73604051Y-125588036D01*
X73730085Y-125510889D01*
X73866897Y-125455474D01*
X74027166Y-125420382D01*
X74215334Y-125407941D01*
X74386821Y-125419421D01*
G37*
G36*
X80002709Y-125416953D02*
G01*
X80065757Y-125440346D01*
X80107388Y-125475169D01*
X80141812Y-125554129D01*
X80140910Y-125685279D01*
X80090535Y-126126198D01*
X80069652Y-126569316D01*
X80075338Y-126795491D01*
X80092733Y-127031301D01*
X80123050Y-127271234D01*
X80170403Y-127533220D01*
X80181194Y-127664988D01*
X80157763Y-127738934D01*
X80123885Y-127770841D01*
X80066031Y-127793057D01*
X79972932Y-127801948D01*
X79834680Y-127784780D01*
X79727285Y-127736919D01*
X79670470Y-127686906D01*
X79627801Y-127620294D01*
X79599241Y-127533220D01*
X79573961Y-127390338D01*
X79536226Y-127457566D01*
X79420730Y-127607233D01*
X79282152Y-127713838D01*
X79176592Y-127761616D01*
X79055106Y-127791464D01*
X78914506Y-127801948D01*
X78765836Y-127787327D01*
X78620498Y-127743147D01*
X78486960Y-127668548D01*
X78366425Y-127558499D01*
X78268203Y-127419110D01*
X78185807Y-127235000D01*
X78135165Y-127026263D01*
X78116564Y-126760375D01*
X78117548Y-126743522D01*
X78746528Y-126743522D01*
X78766403Y-126946020D01*
X78819984Y-127096514D01*
X78879049Y-127174265D01*
X78953651Y-127219312D01*
X79048961Y-127235000D01*
X79127597Y-127224822D01*
X79208513Y-127193051D01*
X79283053Y-127141353D01*
X79353410Y-127064823D01*
X79410492Y-126970362D01*
X79458374Y-126844455D01*
X79487524Y-126702684D01*
X79498307Y-126520956D01*
X79485668Y-126298389D01*
X79467690Y-126202025D01*
X79441704Y-126126198D01*
X79404035Y-126061502D01*
X79357623Y-126015006D01*
X79299985Y-125985553D01*
X79225366Y-125975073D01*
X79114048Y-125991147D01*
X79019469Y-126038087D01*
X78939207Y-126110296D01*
X78870359Y-126206065D01*
X78817794Y-126317026D01*
X78778035Y-126449698D01*
X78754579Y-126590778D01*
X78746528Y-126743522D01*
X78117548Y-126743522D01*
X78132690Y-126484281D01*
X78179579Y-126231161D01*
X78259060Y-125995525D01*
X78364410Y-125800683D01*
X78453093Y-125686519D01*
X78553632Y-125591151D01*
X78666844Y-125513087D01*
X78791067Y-125455471D01*
X78928731Y-125420146D01*
X79082667Y-125407941D01*
X79211287Y-125419132D01*
X79317616Y-125450542D01*
X79405983Y-125500448D01*
X79494541Y-125580604D01*
X79569748Y-125681065D01*
X79608867Y-125559954D01*
X79678925Y-125475169D01*
X79774064Y-125426136D01*
X79909918Y-125407941D01*
X80002709Y-125416953D01*
G37*
G36*
X82095830Y-125723014D02*
G01*
X82105746Y-125619450D01*
X82132448Y-125542512D01*
X82173499Y-125485793D01*
X82230237Y-125444645D01*
X82307230Y-125417881D01*
X82410903Y-125407941D01*
X82514451Y-125417877D01*
X82591390Y-125444637D01*
X82648124Y-125485793D01*
X82689175Y-125542512D01*
X82715877Y-125619450D01*
X82725793Y-125723014D01*
X82725793Y-127495484D01*
X82716376Y-127596510D01*
X82691071Y-127671417D01*
X82652337Y-127726477D01*
X82598687Y-127766797D01*
X82528278Y-127792531D01*
X82435999Y-127801948D01*
X82303850Y-127782067D01*
X82205006Y-127726477D01*
X82157811Y-127670191D01*
X82127868Y-127595195D01*
X82116896Y-127495484D01*
X82116896Y-127339963D01*
X82061158Y-127481994D01*
X81990943Y-127594542D01*
X81906786Y-127682330D01*
X81806073Y-127748305D01*
X81692486Y-127788175D01*
X81562404Y-127801948D01*
X81368519Y-127784450D01*
X81205382Y-127734904D01*
X81061097Y-127654383D01*
X80942882Y-127550073D01*
X80849345Y-127423616D01*
X80781315Y-127277131D01*
X80740681Y-127117215D01*
X80726727Y-126940992D01*
X80726727Y-125723014D01*
X80736643Y-125619450D01*
X80763345Y-125542512D01*
X80804396Y-125485793D01*
X80861130Y-125444637D01*
X80938069Y-125417877D01*
X81041617Y-125407941D01*
X81145164Y-125417877D01*
X81222103Y-125444637D01*
X81278838Y-125485793D01*
X81319993Y-125542528D01*
X81346754Y-125619467D01*
X81356690Y-125723014D01*
X81356690Y-126814963D01*
X81373360Y-126957845D01*
X81395679Y-127026198D01*
X81427948Y-127086072D01*
X81471030Y-127137400D01*
X81524668Y-127178396D01*
X81588471Y-127204476D01*
X81671580Y-127213934D01*
X81765158Y-127204823D01*
X81847984Y-127178396D01*
X81922244Y-127136404D01*
X81982440Y-127083874D01*
X82030409Y-127020300D01*
X82066338Y-126945205D01*
X82088310Y-126863074D01*
X82095830Y-126773014D01*
X82095830Y-125723014D01*
G37*
G36*
X85040532Y-124661884D02*
G01*
X85117471Y-124688645D01*
X85174206Y-124729801D01*
X85215257Y-124786520D01*
X85241959Y-124863457D01*
X85251875Y-124967021D01*
X85251875Y-127495484D01*
X85242457Y-127596510D01*
X85217153Y-127671417D01*
X85178419Y-127726477D01*
X85124433Y-127766095D01*
X85049077Y-127792163D01*
X84945228Y-127801948D01*
X84841427Y-127792374D01*
X84762895Y-127766442D01*
X84703794Y-127726477D01*
X84660222Y-127670708D01*
X84632235Y-127595750D01*
X84621912Y-127495484D01*
X84621912Y-127302227D01*
X84539846Y-127495484D01*
X84484586Y-127581809D01*
X84416015Y-127655036D01*
X84333684Y-127714458D01*
X84231184Y-127762015D01*
X84115923Y-127791276D01*
X83970882Y-127801948D01*
X83816072Y-127791165D01*
X83687329Y-127761034D01*
X83580155Y-127713838D01*
X83483816Y-127647298D01*
X83402318Y-127565873D01*
X83334508Y-127468190D01*
X83259654Y-127299879D01*
X83208661Y-127090102D01*
X83182230Y-126864399D01*
X83173094Y-126613463D01*
X83802904Y-126613463D01*
X83817559Y-126827602D01*
X83838902Y-126933406D01*
X83872147Y-127027088D01*
X83920797Y-127109961D01*
X83985537Y-127176198D01*
X84066907Y-127219596D01*
X84172566Y-127235000D01*
X84266184Y-127225407D01*
X84350985Y-127197264D01*
X84426895Y-127151167D01*
X84491669Y-127088087D01*
X84543850Y-127010862D01*
X84586191Y-126915896D01*
X84612613Y-126811004D01*
X84621912Y-126688934D01*
X84621912Y-126520956D01*
X84614435Y-126413663D01*
X84592419Y-126313044D01*
X84556273Y-126219052D01*
X84508522Y-126138838D01*
X84447425Y-126070938D01*
X84374066Y-126019220D01*
X84290773Y-125986273D01*
X84197662Y-125975073D01*
X84080358Y-125990764D01*
X83993963Y-126033874D01*
X83925625Y-126101036D01*
X83874162Y-126187198D01*
X83839329Y-126284737D01*
X83817559Y-126392911D01*
X83802904Y-126613463D01*
X83173094Y-126613463D01*
X83172941Y-126609249D01*
X83182817Y-126399337D01*
X83212691Y-126187198D01*
X83268940Y-125983038D01*
X83355573Y-125800867D01*
X83432211Y-125692040D01*
X83524874Y-125597858D01*
X83634926Y-125517301D01*
X83757227Y-125458836D01*
X83906406Y-125421403D01*
X84088485Y-125407941D01*
X84219209Y-125420749D01*
X84335036Y-125457927D01*
X84439096Y-125519316D01*
X84524902Y-125602589D01*
X84585583Y-125705431D01*
X84621912Y-125832191D01*
X84621912Y-124967021D01*
X84631827Y-124863457D01*
X84658530Y-124786520D01*
X84699581Y-124729801D01*
X84756319Y-124688652D01*
X84833311Y-124661888D01*
X84936985Y-124651948D01*
X85040532Y-124661884D01*
G37*
G36*
X87572243Y-127193051D02*
G01*
X87701835Y-127212137D01*
X87784185Y-127262294D01*
X87834474Y-127344685D01*
X87853611Y-127474419D01*
X87834080Y-127604161D01*
X87782170Y-127688558D01*
X87697773Y-127740469D01*
X87568030Y-127760000D01*
X86081140Y-127760000D01*
X85951398Y-127740469D01*
X85867001Y-127688558D01*
X85815090Y-127604161D01*
X85795560Y-127474419D01*
X85814652Y-127344667D01*
X85864802Y-127262294D01*
X85947305Y-127212130D01*
X86076927Y-127193051D01*
X86559979Y-127193051D01*
X86559979Y-126336125D01*
X86544382Y-126229009D01*
X86503192Y-126159720D01*
X86435536Y-126117083D01*
X86328986Y-126100919D01*
X86173464Y-126100919D01*
X86039487Y-126081845D01*
X85953096Y-126031676D01*
X85914098Y-125980747D01*
X85888943Y-125911996D01*
X85879640Y-125819734D01*
X85888893Y-125727313D01*
X85914019Y-125657674D01*
X85953096Y-125605411D01*
X86039701Y-125553575D01*
X86173464Y-125533970D01*
X86686008Y-125533970D01*
X86849236Y-125549908D01*
X86972014Y-125593099D01*
X87063913Y-125660000D01*
X87130805Y-125751902D01*
X87174000Y-125874734D01*
X87189942Y-126038087D01*
X87189942Y-127193051D01*
X87572243Y-127193051D01*
G37*
G36*
X86845560Y-125168705D02*
G01*
X86733905Y-125157994D01*
X86643694Y-125128104D01*
X86570420Y-125080594D01*
X86513781Y-125015610D01*
X86479516Y-124937129D01*
X86467472Y-124840992D01*
X86479515Y-124744983D01*
X86513778Y-124666625D01*
X86570420Y-124601756D01*
X86643707Y-124554141D01*
X86733919Y-124524193D01*
X86845560Y-124513463D01*
X86957198Y-124524197D01*
X87047342Y-124554148D01*
X87120516Y-124601756D01*
X87177158Y-124666625D01*
X87211420Y-124744983D01*
X87223464Y-124840992D01*
X87211420Y-124937129D01*
X87177155Y-125015610D01*
X87120516Y-125080594D01*
X87047356Y-125128097D01*
X86957212Y-125157990D01*
X86845560Y-125168705D01*
G37*
G36*
X89450596Y-125419418D02*
G01*
X89600697Y-125452198D01*
X89732693Y-125504661D01*
X89910400Y-125618616D01*
X90053995Y-125764963D01*
X90164983Y-125940015D01*
X90245237Y-126145066D01*
X90292197Y-126366042D01*
X90308251Y-126605036D01*
X90292266Y-126840357D01*
X90245237Y-127060793D01*
X90165091Y-127266050D01*
X90053995Y-127442911D01*
X89961693Y-127545546D01*
X89855053Y-127632803D01*
X89732693Y-127705411D01*
X89600707Y-127757772D01*
X89450605Y-127790492D01*
X89279134Y-127801948D01*
X89107787Y-127790497D01*
X88957677Y-127757782D01*
X88825575Y-127705411D01*
X88703215Y-127632803D01*
X88596575Y-127545546D01*
X88504274Y-127442911D01*
X88393320Y-127266063D01*
X88313215Y-127060793D01*
X88266186Y-126840357D01*
X88250200Y-126605036D01*
X88880163Y-126605036D01*
X88886048Y-126737452D01*
X88903244Y-126861125D01*
X88933904Y-126977806D01*
X88976700Y-127075448D01*
X89034441Y-127159446D01*
X89102730Y-127222360D01*
X89183808Y-127263037D01*
X89279134Y-127276948D01*
X89374590Y-127263025D01*
X89455539Y-127222360D01*
X89523938Y-127159424D01*
X89581568Y-127075448D01*
X89624364Y-126977806D01*
X89655024Y-126861125D01*
X89672358Y-126737447D01*
X89678288Y-126605036D01*
X89672307Y-126468751D01*
X89655024Y-126344551D01*
X89624273Y-126228183D01*
X89581568Y-126132426D01*
X89524074Y-126050131D01*
X89455539Y-125987529D01*
X89374590Y-125946864D01*
X89279134Y-125932941D01*
X89183808Y-125946853D01*
X89102730Y-125987529D01*
X89034453Y-126050473D01*
X88976700Y-126134624D01*
X88933912Y-126232109D01*
X88903244Y-126348764D01*
X88886050Y-126472460D01*
X88880163Y-126605036D01*
X88250200Y-126605036D01*
X88266186Y-126369715D01*
X88313215Y-126149279D01*
X88393337Y-125943883D01*
X88504274Y-125767161D01*
X88596575Y-125664526D01*
X88703215Y-125577269D01*
X88825575Y-125504661D01*
X88957688Y-125452187D01*
X89107797Y-125419412D01*
X89279134Y-125407941D01*
X89450596Y-125419418D01*
G37*
G36*
X133401598Y-87329980D02*
G01*
X133488310Y-87342687D01*
X133544357Y-87376264D01*
X133578904Y-87431325D01*
X133591985Y-87517681D01*
X133578964Y-87604176D01*
X133544357Y-87660441D01*
X133488191Y-87694945D01*
X133401598Y-87707946D01*
X132990048Y-87707946D01*
X132990048Y-88057946D01*
X132996568Y-88203035D01*
X133013177Y-88302929D01*
X133036210Y-88368867D01*
X133073572Y-88423526D01*
X133118004Y-88453814D01*
X133172009Y-88464000D01*
X133250411Y-88457039D01*
X133328813Y-88433225D01*
X133389447Y-88413372D01*
X133438244Y-88409812D01*
X133478534Y-88419303D01*
X133531968Y-88454885D01*
X133577941Y-88517244D01*
X133603416Y-88574631D01*
X133611622Y-88622653D01*
X133605907Y-88664157D01*
X133574314Y-88719145D01*
X133513583Y-88763563D01*
X133413942Y-88803329D01*
X133313426Y-88826578D01*
X133210175Y-88838067D01*
X133102034Y-88841965D01*
X132975554Y-88830929D01*
X132870980Y-88799956D01*
X132780115Y-88746087D01*
X132704406Y-88666965D01*
X132647168Y-88567292D01*
X132603534Y-88436034D01*
X132579011Y-88289132D01*
X132569951Y-88102764D01*
X132569951Y-87707946D01*
X132340362Y-87707946D01*
X132256405Y-87695326D01*
X132201755Y-87661784D01*
X132168221Y-87607220D01*
X132155593Y-87523176D01*
X132161675Y-87459599D01*
X132178051Y-87412390D01*
X132203220Y-87377607D01*
X132238002Y-87352439D01*
X132285212Y-87336063D01*
X132348789Y-87329980D01*
X132569951Y-87329980D01*
X132569951Y-87049956D01*
X132576561Y-86980913D01*
X132594363Y-86929621D01*
X132621730Y-86891808D01*
X132659617Y-86864436D01*
X132710955Y-86846636D01*
X132780000Y-86840029D01*
X132849042Y-86846639D01*
X132900334Y-86864441D01*
X132938147Y-86891808D01*
X132965584Y-86929631D01*
X132983425Y-86980924D01*
X132990048Y-87049956D01*
X132990048Y-87329980D01*
X133401598Y-87329980D01*
G37*
G36*
X134883670Y-87253165D02*
G01*
X134969454Y-87273295D01*
X135040833Y-87304823D01*
X135105046Y-87349118D01*
X135159380Y-87403397D01*
X135204598Y-87468588D01*
X135254594Y-87580804D01*
X135288618Y-87720646D01*
X135306236Y-87871021D01*
X135312431Y-88041215D01*
X135305869Y-88178805D01*
X135285809Y-88321240D01*
X135248261Y-88458523D01*
X135190554Y-88580259D01*
X135139541Y-88652729D01*
X135077809Y-88715478D01*
X135004441Y-88769181D01*
X134922916Y-88808089D01*
X134823463Y-88833004D01*
X134702069Y-88841965D01*
X134614910Y-88833441D01*
X134537648Y-88808697D01*
X134468206Y-88767838D01*
X134411013Y-88712320D01*
X134370600Y-88643760D01*
X134346451Y-88559254D01*
X134346451Y-89136034D01*
X134339840Y-89205076D01*
X134322039Y-89256368D01*
X134294672Y-89294181D01*
X134256857Y-89321543D01*
X134205529Y-89339347D01*
X134136402Y-89345960D01*
X134067359Y-89339350D01*
X134016068Y-89321548D01*
X133978255Y-89294181D01*
X133950888Y-89256368D01*
X133933086Y-89205076D01*
X133926475Y-89136034D01*
X133926475Y-87987970D01*
X134346451Y-87987970D01*
X134346451Y-88099956D01*
X134351405Y-88171488D01*
X134365990Y-88238563D01*
X134390177Y-88301248D01*
X134422044Y-88354823D01*
X134462749Y-88400124D01*
X134511559Y-88434690D01*
X134567185Y-88456565D01*
X134629284Y-88464000D01*
X134707380Y-88453542D01*
X134764961Y-88424799D01*
X134810592Y-88380010D01*
X134844829Y-88322583D01*
X134868012Y-88257277D01*
X134882564Y-88183975D01*
X134892456Y-88038406D01*
X134882564Y-87895646D01*
X134868327Y-87825021D01*
X134846172Y-87762656D01*
X134813810Y-87707421D01*
X134770579Y-87663249D01*
X134716434Y-87634322D01*
X134646015Y-87624048D01*
X134585827Y-87630340D01*
X134528412Y-87649205D01*
X134476697Y-87679954D01*
X134433279Y-87721990D01*
X134398492Y-87773473D01*
X134370265Y-87836784D01*
X134352653Y-87906606D01*
X134346451Y-87987970D01*
X133926475Y-87987970D01*
X133926475Y-87450392D01*
X133932754Y-87383042D01*
X133949623Y-87333104D01*
X133975446Y-87296397D01*
X134011445Y-87269910D01*
X134061648Y-87252495D01*
X134130785Y-87245960D01*
X134200058Y-87252359D01*
X134252450Y-87269688D01*
X134291863Y-87296397D01*
X134320911Y-87333576D01*
X134339569Y-87383548D01*
X134346451Y-87450392D01*
X134346451Y-87579230D01*
X134401039Y-87450392D01*
X134437951Y-87392828D01*
X134483593Y-87344024D01*
X134538560Y-87304369D01*
X134606814Y-87272583D01*
X134683668Y-87253078D01*
X134780471Y-87245960D01*
X134883670Y-87253165D01*
G37*
G36*
X136806289Y-87251969D02*
G01*
X136848320Y-87267564D01*
X136876074Y-87290779D01*
X136899024Y-87343419D01*
X136898422Y-87430852D01*
X136864839Y-87724799D01*
X136850917Y-88020210D01*
X136854707Y-88170994D01*
X136866304Y-88328200D01*
X136886515Y-88488156D01*
X136918084Y-88662813D01*
X136925278Y-88750659D01*
X136909658Y-88799956D01*
X136887072Y-88821227D01*
X136848503Y-88836038D01*
X136786437Y-88841965D01*
X136694269Y-88830520D01*
X136622672Y-88798612D01*
X136584796Y-88765270D01*
X136556350Y-88720862D01*
X136537309Y-88662813D01*
X136520457Y-88567558D01*
X136495300Y-88612377D01*
X136418302Y-88712155D01*
X136325917Y-88783225D01*
X136255543Y-88815077D01*
X136174553Y-88834976D01*
X136080819Y-88841965D01*
X135981706Y-88832218D01*
X135884815Y-88802764D01*
X135795789Y-88753032D01*
X135715432Y-88679666D01*
X135649951Y-88586740D01*
X135595020Y-88464000D01*
X135561259Y-88324842D01*
X135548859Y-88147583D01*
X135549515Y-88136348D01*
X135968834Y-88136348D01*
X135982084Y-88271347D01*
X136017805Y-88371676D01*
X136057181Y-88423510D01*
X136106916Y-88453541D01*
X136170457Y-88464000D01*
X136222880Y-88457214D01*
X136276824Y-88436034D01*
X136326518Y-88401568D01*
X136373422Y-88350549D01*
X136411477Y-88287575D01*
X136443398Y-88203637D01*
X136462832Y-88109123D01*
X136470020Y-87987970D01*
X136461594Y-87839593D01*
X136449609Y-87775350D01*
X136432285Y-87724799D01*
X136407172Y-87681668D01*
X136376231Y-87650671D01*
X136337805Y-87631035D01*
X136288060Y-87624048D01*
X136213848Y-87634765D01*
X136150795Y-87666058D01*
X136097287Y-87714197D01*
X136051388Y-87778043D01*
X136016345Y-87852017D01*
X135989839Y-87940465D01*
X135974202Y-88034518D01*
X135968834Y-88136348D01*
X135549515Y-88136348D01*
X135559609Y-87963520D01*
X135590868Y-87794774D01*
X135643855Y-87637683D01*
X135714089Y-87507789D01*
X135773211Y-87431679D01*
X135840237Y-87368101D01*
X135915711Y-87316058D01*
X135998527Y-87277647D01*
X136090303Y-87254097D01*
X136192927Y-87245960D01*
X136278673Y-87253421D01*
X136349559Y-87274361D01*
X136408471Y-87307632D01*
X136467510Y-87361069D01*
X136517648Y-87428043D01*
X136543727Y-87347302D01*
X136590432Y-87290779D01*
X136653859Y-87258090D01*
X136744427Y-87245960D01*
X136806289Y-87251969D01*
G37*
G36*
X138210577Y-86750024D02*
G01*
X138254947Y-86771397D01*
X138286834Y-86804593D01*
X138302452Y-86842838D01*
X138303027Y-86885004D01*
X138287065Y-86932475D01*
X138256491Y-86976513D01*
X138207320Y-87019181D01*
X138071231Y-87122820D01*
X137961148Y-87228228D01*
X137874050Y-87335598D01*
X137801110Y-87453297D01*
X137736527Y-87588881D01*
X137680854Y-87744460D01*
X137773300Y-87640779D01*
X137823001Y-87599596D01*
X137875516Y-87566651D01*
X137931893Y-87540852D01*
X137993119Y-87521833D01*
X138058254Y-87510483D01*
X138134535Y-87506445D01*
X138252857Y-87519083D01*
X138354354Y-87555416D01*
X138443556Y-87613484D01*
X138518119Y-87689872D01*
X138576457Y-87781773D01*
X138620212Y-87892838D01*
X138646257Y-88013581D01*
X138655261Y-88147583D01*
X138648746Y-88262385D01*
X138630183Y-88363019D01*
X138600673Y-88451421D01*
X138535080Y-88571974D01*
X138450830Y-88668431D01*
X138348228Y-88744044D01*
X138228325Y-88798612D01*
X138097695Y-88830916D01*
X137955261Y-88841965D01*
X137808028Y-88830813D01*
X137676702Y-88798612D01*
X137557034Y-88743982D01*
X137455540Y-88668431D01*
X137372753Y-88572039D01*
X137308506Y-88451421D01*
X137279740Y-88363090D01*
X137261624Y-88262450D01*
X137256966Y-88178357D01*
X137647271Y-88178357D01*
X137657578Y-88269985D01*
X137686704Y-88344813D01*
X137734099Y-88406602D01*
X137796496Y-88453599D01*
X137869209Y-88482049D01*
X137955261Y-88491965D01*
X138041392Y-88482043D01*
X138114099Y-88453589D01*
X138176423Y-88406602D01*
X138223819Y-88344813D01*
X138252945Y-88269985D01*
X138263251Y-88178357D01*
X138254009Y-88072547D01*
X138228266Y-87986640D01*
X138187658Y-87916651D01*
X138130446Y-87862867D01*
X138054966Y-87829392D01*
X137955261Y-87817244D01*
X137880271Y-87824266D01*
X137819462Y-87843867D01*
X137766727Y-87875823D01*
X137724207Y-87917995D01*
X137691426Y-87969313D01*
X137666810Y-88031445D01*
X137652368Y-88099451D01*
X137647271Y-88178357D01*
X137256966Y-88178357D01*
X137255261Y-88147583D01*
X137261371Y-88000370D01*
X137280418Y-87841058D01*
X137312418Y-87683549D01*
X137356133Y-87540029D01*
X137447682Y-87324778D01*
X137549330Y-87153637D01*
X137672763Y-87002250D01*
X137823736Y-86862377D01*
X137891418Y-86814253D01*
X137966496Y-86775671D01*
X138048645Y-86750748D01*
X138145771Y-86741965D01*
X138210577Y-86750024D01*
G37*
G36*
X139171713Y-88814000D02*
G01*
X139112402Y-88807535D01*
X139067888Y-88789921D01*
X139034570Y-88762220D01*
X139001851Y-88703082D01*
X138989752Y-88617995D01*
X139001851Y-88532907D01*
X139034570Y-88473769D01*
X139067888Y-88446068D01*
X139112402Y-88428454D01*
X139171713Y-88421990D01*
X139532948Y-88421990D01*
X139532948Y-87363563D01*
X139523056Y-87297862D01*
X139510060Y-87282055D01*
X139490938Y-87276857D01*
X139460041Y-87283818D01*
X139420963Y-87307632D01*
X139314595Y-87399956D01*
X139258337Y-87441912D01*
X139212257Y-87465779D01*
X139166873Y-87479786D01*
X139129703Y-87483975D01*
X139083185Y-87470223D01*
X139044340Y-87425235D01*
X139021410Y-87358201D01*
X139012100Y-87248769D01*
X139018463Y-87186165D01*
X139037257Y-87128480D01*
X139068649Y-87076862D01*
X139112972Y-87033225D01*
X139378953Y-86825985D01*
X139452782Y-86779135D01*
X139517561Y-86756009D01*
X139586382Y-86745746D01*
X139672899Y-86741965D01*
X139765715Y-86750771D01*
X139834209Y-86774405D01*
X139884291Y-86810598D01*
X139920494Y-86860751D01*
X139944123Y-86929256D01*
X139952923Y-87021990D01*
X139952923Y-88421990D01*
X140207791Y-88421990D01*
X140267102Y-88428454D01*
X140311616Y-88446068D01*
X140344933Y-88473769D01*
X140377653Y-88532907D01*
X140389752Y-88617995D01*
X140377653Y-88703082D01*
X140344933Y-88762220D01*
X140311616Y-88789921D01*
X140267102Y-88807535D01*
X140207791Y-88814000D01*
X139171713Y-88814000D01*
G37*
G36*
X140749399Y-88735598D02*
G01*
X140693282Y-88692772D01*
X140659762Y-88632039D01*
X140652677Y-88562351D01*
X140676615Y-88489157D01*
X140719051Y-88434116D01*
X140780174Y-88396833D01*
X140826956Y-88385723D01*
X140878425Y-88388780D01*
X140936978Y-88407946D01*
X141004621Y-88433782D01*
X141085355Y-88451421D01*
X141259012Y-88464000D01*
X141349729Y-88455236D01*
X141421600Y-88430976D01*
X141478709Y-88392681D01*
X141521503Y-88339890D01*
X141548651Y-88270217D01*
X141558576Y-88178357D01*
X141547094Y-88103402D01*
X141515101Y-88048176D01*
X141466198Y-88005670D01*
X141403115Y-87974048D01*
X141332264Y-87953606D01*
X141251929Y-87941808D01*
X141088164Y-87934847D01*
X141012571Y-87926421D01*
X140946748Y-87896990D01*
X140920946Y-87872301D01*
X140900586Y-87838249D01*
X140888397Y-87797045D01*
X140883733Y-87738842D01*
X140890766Y-87671995D01*
X140909158Y-87626340D01*
X140936978Y-87595960D01*
X140998189Y-87567759D01*
X141093782Y-87556759D01*
X141236542Y-87544181D01*
X141301354Y-87527743D01*
X141356953Y-87504980D01*
X141405061Y-87473430D01*
X141440973Y-87433661D01*
X141463719Y-87385103D01*
X141471748Y-87324362D01*
X141464900Y-87274059D01*
X141445125Y-87232039D01*
X141415387Y-87196287D01*
X141379424Y-87167681D01*
X141338159Y-87146112D01*
X141291130Y-87131288D01*
X141194532Y-87120053D01*
X141095125Y-87131288D01*
X141041544Y-87147068D01*
X140987414Y-87173176D01*
X140932195Y-87196636D01*
X140882273Y-87201143D01*
X140834762Y-87188685D01*
X140773409Y-87146841D01*
X140732547Y-87086348D01*
X140713265Y-87027839D01*
X140709633Y-86975389D01*
X140719968Y-86926857D01*
X140758322Y-86863628D01*
X140822184Y-86817558D01*
X140909084Y-86783912D01*
X141005610Y-86760161D01*
X141105389Y-86746511D01*
X141205767Y-86741965D01*
X141331053Y-86748983D01*
X141455017Y-86770053D01*
X141572807Y-86807290D01*
X141674836Y-86861034D01*
X141761947Y-86933804D01*
X141831517Y-87027607D01*
X141864062Y-87098989D01*
X141884505Y-87182168D01*
X141891723Y-87279544D01*
X141876336Y-87422426D01*
X141855938Y-87493023D01*
X141825900Y-87558225D01*
X141785272Y-87617059D01*
X141732110Y-87668867D01*
X141668164Y-87708204D01*
X141589351Y-87733225D01*
X141673164Y-87751010D01*
X141747498Y-87780852D01*
X141814191Y-87822991D01*
X141870718Y-87876107D01*
X141916344Y-87939262D01*
X141950586Y-88013249D01*
X141971327Y-88094399D01*
X141978551Y-88186784D01*
X141965574Y-88330495D01*
X141928115Y-88457039D01*
X141866309Y-88570091D01*
X141782547Y-88664279D01*
X141678885Y-88738906D01*
X141551615Y-88795803D01*
X141410429Y-88829911D01*
X141244968Y-88841965D01*
X141116273Y-88835359D01*
X140985949Y-88815343D01*
X140860106Y-88781610D01*
X140749399Y-88735598D01*
G37*
G36*
X142593066Y-88814000D02*
G01*
X142511038Y-88806595D01*
X142445416Y-88786073D01*
X142392787Y-88753794D01*
X142353384Y-88708413D01*
X142328066Y-88645552D01*
X142318660Y-88559254D01*
X142332581Y-88465465D01*
X142351842Y-88424350D01*
X142383018Y-88385598D01*
X143021468Y-87749956D01*
X143117944Y-87645053D01*
X143183768Y-87552607D01*
X143221625Y-87468710D01*
X143234204Y-87386034D01*
X143229398Y-87318525D01*
X143216008Y-87262813D01*
X143192893Y-87213553D01*
X143161420Y-87174642D01*
X143121363Y-87144490D01*
X143071782Y-87122862D01*
X143016234Y-87110475D01*
X142948562Y-87106009D01*
X142869794Y-87111484D01*
X142786140Y-87128480D01*
X142705760Y-87156742D01*
X142635076Y-87195646D01*
X142581042Y-87223878D01*
X142532891Y-87233620D01*
X142488042Y-87227764D01*
X142426428Y-87195365D01*
X142374591Y-87136784D01*
X142350071Y-87086780D01*
X142342179Y-87039467D01*
X142349312Y-86992681D01*
X142381375Y-86927488D01*
X142433454Y-86873612D01*
X142516322Y-86823869D01*
X142627993Y-86779823D01*
X142757612Y-86752665D01*
X142948562Y-86741965D01*
X143101496Y-86750722D01*
X143235547Y-86775671D01*
X143358215Y-86819947D01*
X143458175Y-86882039D01*
X143539851Y-86964543D01*
X143602400Y-87069617D01*
X143640441Y-87191482D01*
X143654180Y-87344024D01*
X143649601Y-87430055D01*
X143635983Y-87513406D01*
X143613022Y-87594853D01*
X143579930Y-87675828D01*
X143537850Y-87754286D01*
X143484797Y-87833975D01*
X143422792Y-87910853D01*
X143346189Y-87990779D01*
X142929023Y-88402450D01*
X142926214Y-88423455D01*
X142935063Y-88432437D01*
X142954180Y-88436034D01*
X143522655Y-88436034D01*
X143606222Y-88449058D01*
X143659797Y-88483661D01*
X143692360Y-88539216D01*
X143704616Y-88623612D01*
X143692414Y-88708247D01*
X143659797Y-88765029D01*
X143626714Y-88791096D01*
X143582217Y-88807828D01*
X143522655Y-88814000D01*
X142593066Y-88814000D01*
G37*
G36*
X146876910Y-87251969D02*
G01*
X146918942Y-87267564D01*
X146946695Y-87290779D01*
X146969645Y-87343419D01*
X146969043Y-87430852D01*
X146935460Y-87724799D01*
X146921538Y-88020210D01*
X146925329Y-88170994D01*
X146936926Y-88328200D01*
X146957136Y-88488156D01*
X146988705Y-88662813D01*
X146995899Y-88750659D01*
X146980279Y-88799956D01*
X146957693Y-88821227D01*
X146919124Y-88836038D01*
X146857058Y-88841965D01*
X146764890Y-88830520D01*
X146693293Y-88798612D01*
X146655417Y-88765270D01*
X146626971Y-88720862D01*
X146607930Y-88662813D01*
X146591078Y-88567558D01*
X146565921Y-88612377D01*
X146488924Y-88712155D01*
X146396538Y-88783225D01*
X146326164Y-88815077D01*
X146245174Y-88834976D01*
X146151441Y-88841965D01*
X146052327Y-88832218D01*
X145955436Y-88802764D01*
X145866410Y-88753032D01*
X145786053Y-88679666D01*
X145720572Y-88586740D01*
X145665642Y-88464000D01*
X145631880Y-88324842D01*
X145619480Y-88147583D01*
X145620136Y-88136348D01*
X146039455Y-88136348D01*
X146052705Y-88271347D01*
X146088426Y-88371676D01*
X146127802Y-88423510D01*
X146177538Y-88453541D01*
X146241078Y-88464000D01*
X146293501Y-88457214D01*
X146347445Y-88436034D01*
X146397139Y-88401568D01*
X146444043Y-88350549D01*
X146482098Y-88287575D01*
X146514019Y-88203637D01*
X146533453Y-88109123D01*
X146540642Y-87987970D01*
X146532215Y-87839593D01*
X146520230Y-87775350D01*
X146502906Y-87724799D01*
X146477793Y-87681668D01*
X146446852Y-87650671D01*
X146408427Y-87631035D01*
X146358681Y-87624048D01*
X146284469Y-87634765D01*
X146221416Y-87666058D01*
X146167908Y-87714197D01*
X146122009Y-87778043D01*
X146086966Y-87852017D01*
X146060460Y-87940465D01*
X146044823Y-88034518D01*
X146039455Y-88136348D01*
X145620136Y-88136348D01*
X145630230Y-87963520D01*
X145661489Y-87794774D01*
X145714476Y-87637683D01*
X145784710Y-87507789D01*
X145843832Y-87431679D01*
X145910858Y-87368101D01*
X145986332Y-87316058D01*
X146069148Y-87277647D01*
X146160924Y-87254097D01*
X146263548Y-87245960D01*
X146349294Y-87253421D01*
X146420180Y-87274361D01*
X146479092Y-87307632D01*
X146538131Y-87361069D01*
X146588269Y-87428043D01*
X146614348Y-87347302D01*
X146661053Y-87290779D01*
X146724480Y-87258090D01*
X146815048Y-87245960D01*
X146876910Y-87251969D01*
G37*
G36*
X147468764Y-88841965D02*
G01*
X147386963Y-88828281D01*
X147328691Y-88790186D01*
X147302048Y-88752549D01*
X147284769Y-88702091D01*
X147278377Y-88634847D01*
X147278377Y-87416808D01*
X147285166Y-87359693D01*
X147303645Y-87317562D01*
X147332965Y-87286627D01*
X147392320Y-87256494D01*
X147465956Y-87245960D01*
X147546142Y-87257864D01*
X147604563Y-87290779D01*
X147642809Y-87343284D01*
X147656343Y-87416808D01*
X147656343Y-87470053D01*
X147690532Y-87375449D01*
X147744515Y-87306166D01*
X147791795Y-87273874D01*
X147851748Y-87253381D01*
X147927941Y-87245960D01*
X148007151Y-87254529D01*
X148066706Y-87277884D01*
X148111367Y-87314593D01*
X148160856Y-87388080D01*
X148188304Y-87470053D01*
X148217002Y-87388466D01*
X148270858Y-87314593D01*
X148319090Y-87278039D01*
X148383258Y-87254587D01*
X148468328Y-87245960D01*
X148535960Y-87251788D01*
X148594235Y-87268431D01*
X148645980Y-87296251D01*
X148688025Y-87334254D01*
X148720816Y-87381625D01*
X148745422Y-87440622D01*
X148759952Y-87505949D01*
X148765083Y-87582039D01*
X148765083Y-88634847D01*
X148758985Y-88702328D01*
X148742569Y-88752773D01*
X148717456Y-88790186D01*
X148682579Y-88818114D01*
X148637860Y-88835632D01*
X148580314Y-88841965D01*
X148522773Y-88835595D01*
X148476476Y-88817718D01*
X148438897Y-88788842D01*
X148411356Y-88750193D01*
X148393632Y-88699172D01*
X148387117Y-88632039D01*
X148387117Y-87713563D01*
X148381586Y-87665944D01*
X148366113Y-87628200D01*
X148339570Y-87602137D01*
X148300289Y-87593152D01*
X148261300Y-87602184D01*
X148235931Y-87628200D01*
X148221561Y-87665843D01*
X148216392Y-87713563D01*
X148216392Y-88648769D01*
X148209556Y-88711793D01*
X148190937Y-88759082D01*
X148161681Y-88794460D01*
X148101436Y-88829736D01*
X148025882Y-88841965D01*
X147950550Y-88829692D01*
X147891427Y-88794460D01*
X147863095Y-88759214D01*
X147844974Y-88711935D01*
X147838304Y-88648769D01*
X147838304Y-87713563D01*
X147832414Y-87666046D01*
X147815833Y-87628200D01*
X147787829Y-87602236D01*
X147745980Y-87593152D01*
X147706412Y-87602090D01*
X147678691Y-87628200D01*
X147662203Y-87666037D01*
X147656343Y-87713563D01*
X147656343Y-88632039D01*
X147650120Y-88699403D01*
X147633255Y-88750413D01*
X147607250Y-88788842D01*
X147571382Y-88817619D01*
X147526154Y-88835533D01*
X147468764Y-88841965D01*
G37*
G36*
X149989602Y-87253165D02*
G01*
X150075386Y-87273295D01*
X150146765Y-87304823D01*
X150210978Y-87349118D01*
X150265311Y-87403397D01*
X150310530Y-87468588D01*
X150360525Y-87580804D01*
X150394549Y-87720646D01*
X150412168Y-87871021D01*
X150418363Y-88041215D01*
X150411801Y-88178805D01*
X150391741Y-88321240D01*
X150354192Y-88458523D01*
X150296486Y-88580259D01*
X150245473Y-88652729D01*
X150183741Y-88715478D01*
X150110373Y-88769181D01*
X150028847Y-88808089D01*
X149929395Y-88833004D01*
X149808000Y-88841965D01*
X149720841Y-88833441D01*
X149643579Y-88808697D01*
X149574138Y-88767838D01*
X149516945Y-88712320D01*
X149476532Y-88643760D01*
X149452383Y-88559254D01*
X149452383Y-89136034D01*
X149445772Y-89205076D01*
X149427970Y-89256368D01*
X149400603Y-89294181D01*
X149362788Y-89321543D01*
X149311460Y-89339347D01*
X149242334Y-89345960D01*
X149173291Y-89339350D01*
X149121999Y-89321548D01*
X149084187Y-89294181D01*
X149056819Y-89256368D01*
X149039018Y-89205076D01*
X149032407Y-89136034D01*
X149032407Y-87987970D01*
X149452383Y-87987970D01*
X149452383Y-88099956D01*
X149457337Y-88171488D01*
X149471922Y-88238563D01*
X149496108Y-88301248D01*
X149527976Y-88354823D01*
X149568681Y-88400124D01*
X149617491Y-88434690D01*
X149673116Y-88456565D01*
X149735216Y-88464000D01*
X149813312Y-88453542D01*
X149870893Y-88424799D01*
X149916524Y-88380010D01*
X149950760Y-88322583D01*
X149973944Y-88257277D01*
X149988496Y-88183975D01*
X149998387Y-88038406D01*
X149988496Y-87895646D01*
X149974259Y-87825021D01*
X149952103Y-87762656D01*
X149919742Y-87707421D01*
X149876510Y-87663249D01*
X149822366Y-87634322D01*
X149751946Y-87624048D01*
X149691758Y-87630340D01*
X149634344Y-87649205D01*
X149582628Y-87679954D01*
X149539211Y-87721990D01*
X149504423Y-87773473D01*
X149476196Y-87836784D01*
X149458584Y-87906606D01*
X149452383Y-87987970D01*
X149032407Y-87987970D01*
X149032407Y-87450392D01*
X149038685Y-87383042D01*
X149055555Y-87333104D01*
X149081378Y-87296397D01*
X149117376Y-87269910D01*
X149167580Y-87252495D01*
X149236716Y-87245960D01*
X149305990Y-87252359D01*
X149358381Y-87269688D01*
X149397794Y-87296397D01*
X149426843Y-87333576D01*
X149445500Y-87383548D01*
X149452383Y-87450392D01*
X149452383Y-87579230D01*
X149506971Y-87450392D01*
X149543883Y-87392828D01*
X149589525Y-87344024D01*
X149644491Y-87304369D01*
X149712745Y-87272583D01*
X149789600Y-87253078D01*
X149886402Y-87245960D01*
X149989602Y-87253165D01*
G37*
G36*
X134902833Y-94175965D02*
G01*
X134821032Y-94162281D01*
X134762759Y-94124186D01*
X134736116Y-94086549D01*
X134718837Y-94036091D01*
X134712445Y-93968847D01*
X134712445Y-92750808D01*
X134719234Y-92693693D01*
X134737714Y-92651562D01*
X134767034Y-92620627D01*
X134826388Y-92590494D01*
X134900024Y-92579960D01*
X134980210Y-92591864D01*
X135038632Y-92624779D01*
X135076878Y-92677284D01*
X135090411Y-92750808D01*
X135090411Y-92804053D01*
X135124600Y-92709449D01*
X135178583Y-92640166D01*
X135225863Y-92607874D01*
X135285816Y-92587381D01*
X135362009Y-92579960D01*
X135441220Y-92588529D01*
X135500775Y-92611884D01*
X135545436Y-92648593D01*
X135594924Y-92722080D01*
X135622372Y-92804053D01*
X135651071Y-92722466D01*
X135704926Y-92648593D01*
X135753158Y-92612039D01*
X135817326Y-92588587D01*
X135902397Y-92579960D01*
X135970028Y-92585788D01*
X136028304Y-92602431D01*
X136080049Y-92630251D01*
X136122093Y-92668254D01*
X136154884Y-92715625D01*
X136179490Y-92774622D01*
X136194020Y-92839949D01*
X136199152Y-92916039D01*
X136199152Y-93968847D01*
X136193054Y-94036328D01*
X136176637Y-94086773D01*
X136151524Y-94124186D01*
X136116648Y-94152114D01*
X136071928Y-94169632D01*
X136014382Y-94175965D01*
X135956841Y-94169595D01*
X135910544Y-94151718D01*
X135872965Y-94122842D01*
X135845424Y-94084193D01*
X135827700Y-94033172D01*
X135821186Y-93966039D01*
X135821186Y-93047563D01*
X135815654Y-92999944D01*
X135800181Y-92962200D01*
X135773639Y-92936137D01*
X135734357Y-92927152D01*
X135695368Y-92936184D01*
X135670000Y-92962200D01*
X135655629Y-92999843D01*
X135650460Y-93047563D01*
X135650460Y-93982769D01*
X135643624Y-94045793D01*
X135625005Y-94093082D01*
X135595750Y-94128460D01*
X135535505Y-94163736D01*
X135459951Y-94175965D01*
X135384618Y-94163692D01*
X135325495Y-94128460D01*
X135297164Y-94093214D01*
X135279043Y-94045935D01*
X135272372Y-93982769D01*
X135272372Y-93047563D01*
X135266482Y-93000046D01*
X135249902Y-92962200D01*
X135221898Y-92936236D01*
X135180048Y-92927152D01*
X135140480Y-92936090D01*
X135112759Y-92962200D01*
X135096271Y-93000037D01*
X135090411Y-93047563D01*
X135090411Y-93966039D01*
X135084188Y-94033403D01*
X135067323Y-94084413D01*
X135041318Y-94122842D01*
X135005451Y-94151619D01*
X134960222Y-94169533D01*
X134902833Y-94175965D01*
G37*
G36*
X137678897Y-93770034D02*
G01*
X137765291Y-93782758D01*
X137820191Y-93816196D01*
X137853717Y-93871123D01*
X137866475Y-93957612D01*
X137853455Y-94044107D01*
X137818848Y-94100372D01*
X137762583Y-94134979D01*
X137676088Y-94148000D01*
X136684829Y-94148000D01*
X136598333Y-94134979D01*
X136542069Y-94100372D01*
X136507462Y-94044107D01*
X136494441Y-93957612D01*
X136507170Y-93871111D01*
X136540603Y-93816196D01*
X136595605Y-93782753D01*
X136682020Y-93770034D01*
X137004054Y-93770034D01*
X137004054Y-93198750D01*
X136993656Y-93127339D01*
X136966196Y-93081147D01*
X136921092Y-93052722D01*
X136850059Y-93041946D01*
X136746378Y-93041946D01*
X136657060Y-93029230D01*
X136599466Y-92995784D01*
X136573467Y-92961831D01*
X136556697Y-92915997D01*
X136550495Y-92854489D01*
X136556663Y-92792875D01*
X136573414Y-92746449D01*
X136599466Y-92711607D01*
X136657203Y-92677050D01*
X136746378Y-92663980D01*
X137088073Y-92663980D01*
X137196892Y-92674605D01*
X137278744Y-92703399D01*
X137340010Y-92748000D01*
X137384605Y-92809268D01*
X137413401Y-92891156D01*
X137424030Y-93000058D01*
X137424030Y-93770034D01*
X137678897Y-93770034D01*
G37*
G36*
X137194441Y-92420470D02*
G01*
X137120005Y-92413329D01*
X137059864Y-92393403D01*
X137011015Y-92361729D01*
X136973256Y-92318407D01*
X136950412Y-92266086D01*
X136942383Y-92201995D01*
X136950412Y-92137989D01*
X136973254Y-92085750D01*
X137011015Y-92042504D01*
X137059873Y-92010761D01*
X137120014Y-91990795D01*
X137194441Y-91983642D01*
X137268867Y-91990798D01*
X137328963Y-92010765D01*
X137377745Y-92042504D01*
X137415507Y-92085750D01*
X137438348Y-92137989D01*
X137446378Y-92201995D01*
X137438348Y-92266086D01*
X137415505Y-92318407D01*
X137377745Y-92361729D01*
X137328972Y-92393398D01*
X137268876Y-92413326D01*
X137194441Y-92420470D01*
G37*
G36*
X138130868Y-93369598D02*
G01*
X138137543Y-93230080D01*
X138156271Y-93111093D01*
X138185457Y-93009828D01*
X138227620Y-92913271D01*
X138277164Y-92832255D01*
X138333834Y-92764852D01*
X138436111Y-92682380D01*
X138556461Y-92624779D01*
X138688764Y-92591396D01*
X138833677Y-92579960D01*
X138955992Y-92586968D01*
X139059113Y-92606583D01*
X139154093Y-92638537D01*
X139232648Y-92678024D01*
X139301348Y-92726505D01*
X139353060Y-92777431D01*
X139393369Y-92833659D01*
X139418883Y-92887951D01*
X139433207Y-92968259D01*
X139420226Y-93043411D01*
X139382656Y-93106917D01*
X139323628Y-93148436D01*
X139274232Y-93161236D01*
X139217260Y-93161014D01*
X139165239Y-93143739D01*
X139127623Y-93106426D01*
X139076832Y-93041594D01*
X139017103Y-92995906D01*
X138948043Y-92967670D01*
X138870069Y-92958048D01*
X138811927Y-92963247D01*
X138753810Y-92979053D01*
X138700182Y-93006981D01*
X138651594Y-93050494D01*
X138612192Y-93106483D01*
X138578810Y-93182019D01*
X138558424Y-93268245D01*
X138550844Y-93380833D01*
X138557576Y-93485941D01*
X138576001Y-93569877D01*
X138606511Y-93644308D01*
X138643290Y-93700058D01*
X138689234Y-93744090D01*
X138741231Y-93774186D01*
X138798583Y-93792031D01*
X138858834Y-93798000D01*
X138935116Y-93793962D01*
X139000251Y-93782612D01*
X139061475Y-93759881D01*
X139124815Y-93719598D01*
X139184302Y-93683785D01*
X139249501Y-93666475D01*
X139315306Y-93670564D01*
X139376873Y-93700058D01*
X139401858Y-93722574D01*
X139421570Y-93751838D01*
X139444040Y-93820348D01*
X139442575Y-93893254D01*
X139431591Y-93927205D01*
X139413265Y-93954803D01*
X139349807Y-94022026D01*
X139290045Y-94071063D01*
X139226646Y-94109747D01*
X139161207Y-94138230D01*
X139092656Y-94157746D01*
X139019790Y-94169004D01*
X138864452Y-94175965D01*
X138706632Y-94163703D01*
X138567575Y-94128460D01*
X138442175Y-94067939D01*
X138336643Y-93982891D01*
X138278309Y-93913421D01*
X138227840Y-93830512D01*
X138185457Y-93732298D01*
X138156195Y-93629115D01*
X138137502Y-93509071D01*
X138130868Y-93369598D01*
G37*
G36*
X140089330Y-94175965D02*
G01*
X140020319Y-94169287D01*
X139970058Y-94151445D01*
X139933869Y-94124186D01*
X139908102Y-94086611D01*
X139891202Y-94035335D01*
X139884898Y-93966039D01*
X139884898Y-92784392D01*
X139891336Y-92717174D01*
X139908675Y-92667227D01*
X139935334Y-92630397D01*
X139972165Y-92603737D01*
X140022112Y-92586398D01*
X140089330Y-92579960D01*
X140156530Y-92586435D01*
X140205916Y-92603796D01*
X140241859Y-92630397D01*
X140267751Y-92667114D01*
X140284660Y-92717053D01*
X140290952Y-92784392D01*
X140290952Y-92887951D01*
X140323433Y-92818474D01*
X140363736Y-92757769D01*
X140412724Y-92704933D01*
X140470104Y-92661171D01*
X140534952Y-92626914D01*
X140610055Y-92600965D01*
X140690582Y-92585384D01*
X140780903Y-92579960D01*
X140895631Y-92590428D01*
X140985334Y-92619161D01*
X141062047Y-92667167D01*
X141123942Y-92732612D01*
X141170439Y-92812501D01*
X141203688Y-92910421D01*
X141222374Y-93017144D01*
X141228967Y-93140009D01*
X141228967Y-93167975D01*
X141222346Y-93237008D01*
X141204507Y-93288347D01*
X141177065Y-93326244D01*
X141139252Y-93353612D01*
X141087961Y-93371413D01*
X141018918Y-93378024D01*
X140949874Y-93371416D01*
X140898535Y-93353617D01*
X140860648Y-93326244D01*
X140833276Y-93288358D01*
X140815477Y-93237019D01*
X140808869Y-93167975D01*
X140808869Y-93162357D01*
X140803251Y-93078460D01*
X140782247Y-93009828D01*
X140763223Y-92983423D01*
X140736085Y-92962200D01*
X140702203Y-92948970D01*
X140654874Y-92944004D01*
X140588269Y-92949220D01*
X140521884Y-92965009D01*
X140459259Y-92990556D01*
X140405624Y-93023872D01*
X140359777Y-93065542D01*
X140323070Y-93114852D01*
X140298969Y-93170159D01*
X140290952Y-93229646D01*
X140290952Y-93966039D01*
X140284798Y-94035457D01*
X140268330Y-94086725D01*
X140243325Y-94124186D01*
X140208017Y-94151385D01*
X140158322Y-94169250D01*
X140089330Y-94175965D01*
G37*
G36*
X142288006Y-92587612D02*
G01*
X142388073Y-92609465D01*
X142476071Y-92644441D01*
X142594542Y-92720410D01*
X142690272Y-92817975D01*
X142764264Y-92934677D01*
X142817766Y-93071377D01*
X142849073Y-93218694D01*
X142859776Y-93378024D01*
X142849119Y-93534905D01*
X142817766Y-93681862D01*
X142764336Y-93818700D01*
X142690272Y-93936607D01*
X142628737Y-94005031D01*
X142557644Y-94063202D01*
X142476071Y-94111607D01*
X142388080Y-94146514D01*
X142288012Y-94168328D01*
X142173698Y-94175965D01*
X142059467Y-94168331D01*
X141959393Y-94146521D01*
X141871325Y-94111607D01*
X141789752Y-94063202D01*
X141718659Y-94005031D01*
X141657124Y-93936607D01*
X141583155Y-93818708D01*
X141529752Y-93681862D01*
X141498399Y-93534905D01*
X141487742Y-93378024D01*
X141907718Y-93378024D01*
X141911640Y-93466301D01*
X141923105Y-93548750D01*
X141943545Y-93626537D01*
X141972076Y-93691632D01*
X142010569Y-93747631D01*
X142056095Y-93789573D01*
X142110147Y-93816691D01*
X142173698Y-93825965D01*
X142237335Y-93816683D01*
X142291301Y-93789573D01*
X142336901Y-93747616D01*
X142375321Y-93691632D01*
X142403851Y-93626537D01*
X142424291Y-93548750D01*
X142435847Y-93466298D01*
X142439801Y-93378024D01*
X142435814Y-93287167D01*
X142424291Y-93204367D01*
X142403791Y-93126789D01*
X142375321Y-93062951D01*
X142336991Y-93008087D01*
X142291301Y-92966353D01*
X142237335Y-92939243D01*
X142173698Y-92929960D01*
X142110147Y-92939235D01*
X142056095Y-92966353D01*
X142010577Y-93008315D01*
X141972076Y-93064416D01*
X141943550Y-93129406D01*
X141923105Y-93207176D01*
X141911642Y-93289640D01*
X141907718Y-93378024D01*
X141487742Y-93378024D01*
X141498399Y-93221143D01*
X141529752Y-93074186D01*
X141583167Y-92937255D01*
X141657124Y-92819441D01*
X141718659Y-92751017D01*
X141789752Y-92692846D01*
X141871325Y-92644441D01*
X141959400Y-92609458D01*
X142059473Y-92587608D01*
X142173698Y-92579960D01*
X142288006Y-92587612D01*
G37*
G36*
X145530572Y-94175965D02*
G01*
X145354228Y-94166196D01*
X145275048Y-94152664D01*
X145204385Y-94132612D01*
X145137793Y-94105242D01*
X145075669Y-94071063D01*
X145017783Y-94029135D01*
X144962219Y-93977152D01*
X144927235Y-93936355D01*
X144903356Y-93896063D01*
X144888938Y-93851715D01*
X144883817Y-93798000D01*
X144895004Y-93720259D01*
X144925826Y-93663666D01*
X144974749Y-93626185D01*
X145040621Y-93613230D01*
X145098018Y-93621656D01*
X145158224Y-93652431D01*
X145243118Y-93716249D01*
X145334567Y-93767225D01*
X145431720Y-93800959D01*
X145530572Y-93812043D01*
X145627170Y-93807891D01*
X145708381Y-93792382D01*
X145740559Y-93777982D01*
X145764434Y-93758799D01*
X145779953Y-93733587D01*
X145785439Y-93700058D01*
X145780151Y-93668385D01*
X145764434Y-93641196D01*
X145708381Y-93596499D01*
X145627170Y-93564259D01*
X145530572Y-93540445D01*
X145313562Y-93488666D01*
X145210183Y-93452756D01*
X145120366Y-93405990D01*
X145043232Y-93344216D01*
X144981758Y-93264573D01*
X144953527Y-93203508D01*
X144935259Y-93127657D01*
X144928635Y-93033642D01*
X144939341Y-92921293D01*
X144969180Y-92830676D01*
X145018879Y-92752621D01*
X145086782Y-92689259D01*
X145170330Y-92641550D01*
X145275826Y-92606583D01*
X145391935Y-92586995D01*
X145530572Y-92579960D01*
X145697538Y-92592502D01*
X145849797Y-92629053D01*
X145945122Y-92668142D01*
X146020610Y-92714459D01*
X146079385Y-92767539D01*
X146118586Y-92825058D01*
X146130749Y-92863404D01*
X146135439Y-92918847D01*
X146123241Y-93000479D01*
X146090621Y-93054646D01*
X146039751Y-93088895D01*
X145973018Y-93100808D01*
X145897424Y-93088230D01*
X145863253Y-93071846D01*
X145833066Y-93047563D01*
X145790160Y-93014156D01*
X145719616Y-92977588D01*
X145637410Y-92953040D01*
X145530572Y-92944004D01*
X145452170Y-92951087D01*
X145394773Y-92970627D01*
X145359846Y-93004210D01*
X145348611Y-93053181D01*
X145352577Y-93082288D01*
X145363998Y-93106426D01*
X145404542Y-93144161D01*
X145463405Y-93169441D01*
X145530572Y-93187637D01*
X145756008Y-93242225D01*
X145871175Y-93280749D01*
X145974361Y-93330397D01*
X146065534Y-93395326D01*
X146139591Y-93477431D01*
X146175165Y-93541120D01*
X146197487Y-93617122D01*
X146205415Y-93708362D01*
X146198361Y-93802162D01*
X146178730Y-93879080D01*
X146148018Y-93942225D01*
X146081485Y-94023441D01*
X145996831Y-94084985D01*
X145897915Y-94128074D01*
X145781165Y-94156304D01*
X145658300Y-94170998D01*
X145530572Y-94175965D01*
G37*
G36*
X147740148Y-92082589D02*
G01*
X147791440Y-92100430D01*
X147829263Y-92127867D01*
X147856631Y-92165680D01*
X147874432Y-92216971D01*
X147881043Y-92286014D01*
X147881043Y-93971656D01*
X147874764Y-94039006D01*
X147857895Y-94088944D01*
X147832072Y-94125651D01*
X147796082Y-94152063D01*
X147745844Y-94169442D01*
X147676612Y-94175965D01*
X147607411Y-94169583D01*
X147555056Y-94152295D01*
X147515655Y-94125651D01*
X147486607Y-94088472D01*
X147467949Y-94038500D01*
X147461067Y-93971656D01*
X147461067Y-93842818D01*
X147406357Y-93971656D01*
X147369517Y-94029206D01*
X147323803Y-94078024D01*
X147268915Y-94117638D01*
X147200582Y-94149343D01*
X147123742Y-94168850D01*
X147027048Y-94175965D01*
X146923841Y-94168777D01*
X146838012Y-94148689D01*
X146766563Y-94117225D01*
X146702337Y-94072865D01*
X146648004Y-94018582D01*
X146602798Y-93953460D01*
X146552895Y-93841253D01*
X146518900Y-93701401D01*
X146501280Y-93550933D01*
X146495189Y-93383642D01*
X146915062Y-93383642D01*
X146924832Y-93526401D01*
X146939061Y-93596937D01*
X146961224Y-93659392D01*
X146993658Y-93714640D01*
X147036817Y-93758799D01*
X147091064Y-93787730D01*
X147161503Y-93798000D01*
X147223916Y-93791605D01*
X147280450Y-93772842D01*
X147331056Y-93742111D01*
X147374239Y-93700058D01*
X147409026Y-93648574D01*
X147437254Y-93585264D01*
X147454868Y-93515336D01*
X147461067Y-93433956D01*
X147461067Y-93321970D01*
X147456083Y-93250442D01*
X147441406Y-93183362D01*
X147417308Y-93120701D01*
X147385474Y-93067225D01*
X147344743Y-93021959D01*
X147295837Y-92987480D01*
X147240308Y-92965515D01*
X147178234Y-92958048D01*
X147100032Y-92968509D01*
X147042435Y-92997249D01*
X146996876Y-93042024D01*
X146962568Y-93099465D01*
X146939345Y-93164491D01*
X146924832Y-93236607D01*
X146915062Y-93383642D01*
X146495189Y-93383642D01*
X146495087Y-93380833D01*
X146501671Y-93240891D01*
X146521587Y-93099465D01*
X146559086Y-92963359D01*
X146616842Y-92841911D01*
X146667934Y-92769360D01*
X146729709Y-92706572D01*
X146803077Y-92652867D01*
X146884611Y-92613890D01*
X146984063Y-92588935D01*
X147105450Y-92579960D01*
X147192599Y-92588499D01*
X147269817Y-92613284D01*
X147339190Y-92654210D01*
X147396394Y-92709726D01*
X147436848Y-92778287D01*
X147461067Y-92862794D01*
X147461067Y-92286014D01*
X147467678Y-92216971D01*
X147485479Y-92165680D01*
X147512847Y-92127867D01*
X147550672Y-92100435D01*
X147602000Y-92082592D01*
X147671116Y-92075965D01*
X147740148Y-92082589D01*
G37*
G36*
X121259090Y-141358589D02*
G01*
X121310382Y-141376430D01*
X121348205Y-141403867D01*
X121375573Y-141441680D01*
X121393374Y-141492971D01*
X121399985Y-141562014D01*
X121399985Y-143247656D01*
X121393706Y-143315006D01*
X121376837Y-143364944D01*
X121351014Y-143401651D01*
X121315024Y-143428063D01*
X121264786Y-143445442D01*
X121195554Y-143451965D01*
X121126353Y-143445583D01*
X121073999Y-143428295D01*
X121034598Y-143401651D01*
X121005549Y-143364472D01*
X120986891Y-143314500D01*
X120980009Y-143247656D01*
X120980009Y-143118818D01*
X120925299Y-143247656D01*
X120888459Y-143305206D01*
X120842745Y-143354024D01*
X120787857Y-143393638D01*
X120719524Y-143425343D01*
X120642684Y-143444850D01*
X120545990Y-143451965D01*
X120442783Y-143444777D01*
X120356954Y-143424689D01*
X120285505Y-143393225D01*
X120221279Y-143348865D01*
X120166947Y-143294582D01*
X120121740Y-143229460D01*
X120071837Y-143117253D01*
X120037842Y-142977401D01*
X120020222Y-142826933D01*
X120014131Y-142659642D01*
X120434004Y-142659642D01*
X120443774Y-142802401D01*
X120458003Y-142872937D01*
X120480166Y-142935392D01*
X120512600Y-142990640D01*
X120555759Y-143034799D01*
X120610007Y-143063730D01*
X120680445Y-143074000D01*
X120742858Y-143067605D01*
X120799392Y-143048842D01*
X120849998Y-143018111D01*
X120893181Y-142976058D01*
X120927968Y-142924574D01*
X120956196Y-142861264D01*
X120973810Y-142791336D01*
X120980009Y-142709956D01*
X120980009Y-142597970D01*
X120975025Y-142526442D01*
X120960348Y-142459362D01*
X120936250Y-142396701D01*
X120904416Y-142343225D01*
X120863685Y-142297959D01*
X120814779Y-142263480D01*
X120759250Y-142241515D01*
X120697176Y-142234048D01*
X120618974Y-142244509D01*
X120561377Y-142273249D01*
X120515818Y-142318024D01*
X120481510Y-142375465D01*
X120458288Y-142440491D01*
X120443774Y-142512607D01*
X120434004Y-142659642D01*
X120014131Y-142659642D01*
X120014029Y-142656833D01*
X120020613Y-142516891D01*
X120040529Y-142375465D01*
X120078028Y-142239359D01*
X120135784Y-142117911D01*
X120186876Y-142045360D01*
X120248651Y-141982572D01*
X120322019Y-141928867D01*
X120403553Y-141889890D01*
X120503005Y-141864935D01*
X120624392Y-141855960D01*
X120711541Y-141864499D01*
X120788759Y-141889284D01*
X120858132Y-141930210D01*
X120915336Y-141985726D01*
X120955791Y-142054287D01*
X120980009Y-142138794D01*
X120980009Y-141562014D01*
X120986620Y-141492971D01*
X121004421Y-141441680D01*
X121031789Y-141403867D01*
X121069614Y-141376435D01*
X121120943Y-141358592D01*
X121190058Y-141351965D01*
X121259090Y-141358589D01*
G37*
G36*
X122935852Y-141861969D02*
G01*
X122977884Y-141877564D01*
X123005637Y-141900779D01*
X123028587Y-141953419D01*
X123027986Y-142040852D01*
X122994402Y-142334799D01*
X122980480Y-142630210D01*
X122984271Y-142780994D01*
X122995868Y-142938200D01*
X123016079Y-143098156D01*
X123047647Y-143272813D01*
X123054842Y-143360659D01*
X123039221Y-143409956D01*
X123016636Y-143431227D01*
X122978066Y-143446038D01*
X122916000Y-143451965D01*
X122823832Y-143440520D01*
X122752235Y-143408612D01*
X122714359Y-143375270D01*
X122685913Y-143330862D01*
X122666872Y-143272813D01*
X122650020Y-143177558D01*
X122624863Y-143222377D01*
X122547866Y-143322155D01*
X122455480Y-143393225D01*
X122385107Y-143425077D01*
X122304116Y-143444976D01*
X122210383Y-143451965D01*
X122111269Y-143442218D01*
X122014378Y-143412764D01*
X121925352Y-143363032D01*
X121844995Y-143289666D01*
X121779514Y-143196740D01*
X121724584Y-143074000D01*
X121690822Y-142934842D01*
X121678422Y-142757583D01*
X121679078Y-142746348D01*
X122098397Y-142746348D01*
X122111648Y-142881347D01*
X122147368Y-142981676D01*
X122186744Y-143033510D01*
X122236480Y-143063541D01*
X122300020Y-143074000D01*
X122352443Y-143067214D01*
X122406387Y-143046034D01*
X122456081Y-143011568D01*
X122502986Y-142960549D01*
X122541040Y-142897575D01*
X122572961Y-142813637D01*
X122592395Y-142719123D01*
X122599584Y-142597970D01*
X122591157Y-142449593D01*
X122579172Y-142385350D01*
X122561848Y-142334799D01*
X122536735Y-142291668D01*
X122505794Y-142260671D01*
X122467369Y-142241035D01*
X122417623Y-142234048D01*
X122343411Y-142244765D01*
X122280358Y-142276058D01*
X122226850Y-142324197D01*
X122180951Y-142388043D01*
X122145908Y-142462017D01*
X122119402Y-142550465D01*
X122103765Y-142644518D01*
X122098397Y-142746348D01*
X121679078Y-142746348D01*
X121689172Y-142573520D01*
X121720431Y-142404774D01*
X121773419Y-142247683D01*
X121843652Y-142117789D01*
X121902774Y-142041679D01*
X121969800Y-141978101D01*
X122045274Y-141926058D01*
X122128090Y-141887647D01*
X122219866Y-141864097D01*
X122322490Y-141855960D01*
X122408237Y-141863421D01*
X122479123Y-141884361D01*
X122538034Y-141917632D01*
X122597073Y-141971069D01*
X122647211Y-142038043D01*
X122673290Y-141957302D01*
X122719995Y-141900779D01*
X122783422Y-141868090D01*
X122873990Y-141855960D01*
X122935852Y-141861969D01*
G37*
G36*
X124625334Y-143046034D02*
G01*
X124711728Y-143058758D01*
X124766628Y-143092196D01*
X124800154Y-143147123D01*
X124812912Y-143233612D01*
X124799892Y-143320107D01*
X124765285Y-143376372D01*
X124709020Y-143410979D01*
X124622525Y-143424000D01*
X123631265Y-143424000D01*
X123544770Y-143410979D01*
X123488505Y-143376372D01*
X123453899Y-143320107D01*
X123440878Y-143233612D01*
X123453607Y-143147111D01*
X123487040Y-143092196D01*
X123542042Y-143058753D01*
X123628457Y-143046034D01*
X123950491Y-143046034D01*
X123950491Y-142474750D01*
X123940093Y-142403339D01*
X123912633Y-142357147D01*
X123867529Y-142328722D01*
X123796496Y-142317946D01*
X123692815Y-142317946D01*
X123603497Y-142305230D01*
X123545903Y-142271784D01*
X123519904Y-142237831D01*
X123503134Y-142191997D01*
X123496932Y-142130489D01*
X123503100Y-142068875D01*
X123519851Y-142022449D01*
X123545903Y-141987607D01*
X123603639Y-141953050D01*
X123692815Y-141939980D01*
X124034510Y-141939980D01*
X124143329Y-141950605D01*
X124225181Y-141979399D01*
X124286447Y-142024000D01*
X124331042Y-142085268D01*
X124359838Y-142167156D01*
X124370466Y-142276058D01*
X124370466Y-143046034D01*
X124625334Y-143046034D01*
G37*
G36*
X124140878Y-141696470D02*
G01*
X124066442Y-141689329D01*
X124006301Y-141669403D01*
X123957452Y-141637729D01*
X123919693Y-141594407D01*
X123896849Y-141542086D01*
X123888819Y-141477995D01*
X123896849Y-141413989D01*
X123919690Y-141361750D01*
X123957452Y-141318504D01*
X124006310Y-141286761D01*
X124066451Y-141266795D01*
X124140878Y-141259642D01*
X124215304Y-141266798D01*
X124275400Y-141286765D01*
X124324182Y-141318504D01*
X124361944Y-141361750D01*
X124384785Y-141413989D01*
X124392815Y-141477995D01*
X124384785Y-141542086D01*
X124361941Y-141594407D01*
X124324182Y-141637729D01*
X124275409Y-141669398D01*
X124215313Y-141689326D01*
X124140878Y-141696470D01*
G37*
G36*
X125763261Y-143451965D02*
G01*
X125586918Y-143442196D01*
X125507738Y-143428664D01*
X125437075Y-143408612D01*
X125370483Y-143381242D01*
X125308359Y-143347063D01*
X125250472Y-143305135D01*
X125194908Y-143253152D01*
X125159924Y-143212355D01*
X125136046Y-143172063D01*
X125121628Y-143127715D01*
X125116506Y-143074000D01*
X125127694Y-142996259D01*
X125158516Y-142939666D01*
X125207438Y-142902185D01*
X125273310Y-142889230D01*
X125330707Y-142897656D01*
X125390913Y-142928431D01*
X125475807Y-142992249D01*
X125567256Y-143043225D01*
X125664410Y-143076959D01*
X125763261Y-143088043D01*
X125859859Y-143083891D01*
X125941070Y-143068382D01*
X125973248Y-143053982D01*
X125997124Y-143034799D01*
X126012643Y-143009587D01*
X126018129Y-142976058D01*
X126012840Y-142944385D01*
X125997124Y-142917196D01*
X125941070Y-142872499D01*
X125859859Y-142840259D01*
X125763261Y-142816445D01*
X125546251Y-142764666D01*
X125442873Y-142728756D01*
X125353055Y-142681990D01*
X125275921Y-142620216D01*
X125214448Y-142540573D01*
X125186217Y-142479508D01*
X125167949Y-142403657D01*
X125161325Y-142309642D01*
X125172030Y-142197293D01*
X125201869Y-142106676D01*
X125251568Y-142028621D01*
X125319472Y-141965259D01*
X125403020Y-141917550D01*
X125508516Y-141882583D01*
X125624624Y-141862995D01*
X125763261Y-141855960D01*
X125930227Y-141868502D01*
X126082487Y-141905053D01*
X126177812Y-141944142D01*
X126253300Y-141990459D01*
X126312075Y-142043539D01*
X126351276Y-142101058D01*
X126363439Y-142139404D01*
X126368129Y-142194847D01*
X126355931Y-142276479D01*
X126323310Y-142330646D01*
X126272440Y-142364895D01*
X126205707Y-142376808D01*
X126130114Y-142364230D01*
X126095942Y-142347846D01*
X126065756Y-142323563D01*
X126022850Y-142290156D01*
X125952305Y-142253588D01*
X125870100Y-142229040D01*
X125763261Y-142220004D01*
X125684859Y-142227087D01*
X125627462Y-142246627D01*
X125592535Y-142280210D01*
X125581300Y-142329181D01*
X125585266Y-142358288D01*
X125596688Y-142382426D01*
X125637232Y-142420161D01*
X125696094Y-142445441D01*
X125763261Y-142463637D01*
X125988697Y-142518225D01*
X126103864Y-142556749D01*
X126207050Y-142606397D01*
X126298224Y-142671326D01*
X126372281Y-142753431D01*
X126407855Y-142817120D01*
X126430176Y-142893122D01*
X126438104Y-142984362D01*
X126431050Y-143078162D01*
X126411419Y-143155080D01*
X126380707Y-143218225D01*
X126314174Y-143299441D01*
X126229521Y-143360985D01*
X126130605Y-143404074D01*
X126013854Y-143432304D01*
X125890990Y-143446998D01*
X125763261Y-143451965D01*
G37*
G36*
X127788889Y-141976372D02*
G01*
X127810366Y-141933923D01*
X127837860Y-141906397D01*
X127872966Y-141889914D01*
X127917727Y-141884048D01*
X128021090Y-141894876D01*
X128084301Y-141921906D01*
X128113962Y-141950949D01*
X128132262Y-141989537D01*
X128138889Y-142040852D01*
X128133272Y-142096784D01*
X128116541Y-142161142D01*
X127682521Y-143451965D01*
X127633551Y-143593382D01*
X127564919Y-143758612D01*
X127476747Y-143915294D01*
X127424392Y-143983260D01*
X127371722Y-144031554D01*
X127260328Y-144102202D01*
X127154713Y-144146348D01*
X127049537Y-144172343D01*
X126965791Y-144180053D01*
X126876104Y-144167991D01*
X126818757Y-144136578D01*
X126792875Y-144104312D01*
X126776061Y-144059516D01*
X126769786Y-143997970D01*
X126769786Y-143992353D01*
X126781950Y-143916487D01*
X126810330Y-143859362D01*
X126839141Y-143831229D01*
X126876917Y-143813858D01*
X126926590Y-143807583D01*
X126971732Y-143802779D01*
X127007678Y-143789387D01*
X127072159Y-143743225D01*
X127132364Y-143685828D01*
X127174374Y-143631117D01*
X127205149Y-143573720D01*
X127231771Y-143505210D01*
X127262546Y-143424000D01*
X126797752Y-142150029D01*
X126778090Y-142087014D01*
X126772595Y-142032426D01*
X126785848Y-141965157D01*
X126822909Y-141920441D01*
X126879479Y-141893954D01*
X126960173Y-141884048D01*
X127022323Y-141890419D01*
X127060923Y-141906397D01*
X127089774Y-141933635D01*
X127111360Y-141973563D01*
X127450124Y-142905960D01*
X127788889Y-141976372D01*
G37*
G36*
X79579951Y-117797965D02*
G01*
X79403607Y-117788196D01*
X79324427Y-117774664D01*
X79253764Y-117754612D01*
X79187172Y-117727242D01*
X79125048Y-117693063D01*
X79067162Y-117651135D01*
X79011598Y-117599152D01*
X78976614Y-117558355D01*
X78952735Y-117518063D01*
X78938317Y-117473715D01*
X78933196Y-117420000D01*
X78944383Y-117342259D01*
X78975205Y-117285666D01*
X79024128Y-117248185D01*
X79090000Y-117235230D01*
X79147397Y-117243656D01*
X79207602Y-117274431D01*
X79292497Y-117338249D01*
X79383946Y-117389225D01*
X79481099Y-117422959D01*
X79579951Y-117434043D01*
X79676549Y-117429891D01*
X79757759Y-117414382D01*
X79789938Y-117399982D01*
X79813813Y-117380799D01*
X79829332Y-117355587D01*
X79834818Y-117322058D01*
X79829529Y-117290385D01*
X79813813Y-117263196D01*
X79757759Y-117218499D01*
X79676549Y-117186259D01*
X79579951Y-117162445D01*
X79362941Y-117110666D01*
X79259562Y-117074756D01*
X79169745Y-117027990D01*
X79092611Y-116966216D01*
X79031137Y-116886573D01*
X79002906Y-116825508D01*
X78984638Y-116749657D01*
X78978014Y-116655642D01*
X78988720Y-116543293D01*
X79018558Y-116452676D01*
X79068258Y-116374621D01*
X79136161Y-116311259D01*
X79219709Y-116263550D01*
X79325205Y-116228583D01*
X79441313Y-116208995D01*
X79579951Y-116201960D01*
X79746916Y-116214502D01*
X79899176Y-116251053D01*
X79994501Y-116290142D01*
X80069989Y-116336459D01*
X80128764Y-116389539D01*
X80167965Y-116447058D01*
X80180128Y-116485404D01*
X80184818Y-116540847D01*
X80172620Y-116622479D01*
X80140000Y-116676646D01*
X80089130Y-116710895D01*
X80022397Y-116722808D01*
X79946803Y-116710230D01*
X79912632Y-116693846D01*
X79882445Y-116669563D01*
X79839539Y-116636156D01*
X79768995Y-116599588D01*
X79686789Y-116575040D01*
X79579951Y-116566004D01*
X79501549Y-116573087D01*
X79444152Y-116592627D01*
X79409225Y-116626210D01*
X79397990Y-116675181D01*
X79401956Y-116704288D01*
X79413377Y-116728426D01*
X79453921Y-116766161D01*
X79512784Y-116791441D01*
X79579951Y-116809637D01*
X79805387Y-116864225D01*
X79920554Y-116902749D01*
X80023740Y-116952397D01*
X80114913Y-117017326D01*
X80188970Y-117099431D01*
X80224544Y-117163120D01*
X80246866Y-117239122D01*
X80254794Y-117330362D01*
X80247740Y-117424162D01*
X80228109Y-117501080D01*
X80197397Y-117564225D01*
X80130863Y-117645441D01*
X80046210Y-117706985D01*
X79947294Y-117750074D01*
X79830544Y-117778304D01*
X79707679Y-117792998D01*
X79579951Y-117797965D01*
G37*
G36*
X81012069Y-117588039D02*
G01*
X81005445Y-117657070D01*
X80987604Y-117708363D01*
X80960167Y-117746186D01*
X80922354Y-117773553D01*
X80871062Y-117791355D01*
X80802020Y-117797965D01*
X80732977Y-117791355D01*
X80681685Y-117773553D01*
X80643872Y-117746186D01*
X80616505Y-117708373D01*
X80598704Y-117657081D01*
X80592093Y-117588039D01*
X80592093Y-115902397D01*
X80598371Y-115835047D01*
X80615241Y-115785108D01*
X80641064Y-115748401D01*
X80676841Y-115721451D01*
X80723780Y-115704256D01*
X80785289Y-115697965D01*
X80873359Y-115711252D01*
X80939162Y-115748401D01*
X80970697Y-115785936D01*
X80990697Y-115835934D01*
X80998025Y-115902397D01*
X80998025Y-116509951D01*
X81035179Y-116415257D01*
X81081950Y-116340271D01*
X81137976Y-116281828D01*
X81205202Y-116237769D01*
X81280969Y-116211152D01*
X81367686Y-116201960D01*
X81496919Y-116213660D01*
X81605579Y-116246779D01*
X81701949Y-116300202D01*
X81780579Y-116368656D01*
X81842882Y-116451983D01*
X81888412Y-116550617D01*
X81915528Y-116658390D01*
X81924804Y-116776053D01*
X81924804Y-117588039D01*
X81918194Y-117657081D01*
X81900392Y-117708373D01*
X81873025Y-117746186D01*
X81835212Y-117773553D01*
X81783920Y-117791355D01*
X81714877Y-117797965D01*
X81645751Y-117791352D01*
X81594423Y-117773548D01*
X81556608Y-117746186D01*
X81529241Y-117708373D01*
X81511439Y-117657081D01*
X81504829Y-117588039D01*
X81504829Y-116859951D01*
X81493593Y-116764818D01*
X81478775Y-116719280D01*
X81457201Y-116679455D01*
X81428569Y-116645143D01*
X81392843Y-116617784D01*
X81350284Y-116600309D01*
X81294780Y-116593970D01*
X81232423Y-116599737D01*
X81177177Y-116616441D01*
X81127938Y-116643579D01*
X81087662Y-116679455D01*
X81055591Y-116722942D01*
X81031608Y-116773244D01*
X81017056Y-116827904D01*
X81012069Y-116888039D01*
X81012069Y-117588039D01*
G37*
G36*
X83466289Y-116207969D02*
G01*
X83508320Y-116223564D01*
X83536074Y-116246779D01*
X83559024Y-116299419D01*
X83558422Y-116386852D01*
X83524839Y-116680799D01*
X83510917Y-116976210D01*
X83514707Y-117126994D01*
X83526304Y-117284200D01*
X83546515Y-117444156D01*
X83578084Y-117618813D01*
X83585278Y-117706659D01*
X83569658Y-117755956D01*
X83547072Y-117777227D01*
X83508503Y-117792038D01*
X83446437Y-117797965D01*
X83354269Y-117786520D01*
X83282672Y-117754612D01*
X83244796Y-117721270D01*
X83216350Y-117676862D01*
X83197309Y-117618813D01*
X83180457Y-117523558D01*
X83155300Y-117568377D01*
X83078302Y-117668155D01*
X82985917Y-117739225D01*
X82915543Y-117771077D01*
X82834553Y-117790976D01*
X82740819Y-117797965D01*
X82641706Y-117788218D01*
X82544815Y-117758764D01*
X82455789Y-117709032D01*
X82375432Y-117635666D01*
X82309951Y-117542740D01*
X82255020Y-117420000D01*
X82221259Y-117280842D01*
X82208859Y-117103583D01*
X82209515Y-117092348D01*
X82628834Y-117092348D01*
X82642084Y-117227347D01*
X82677805Y-117327676D01*
X82717181Y-117379510D01*
X82766916Y-117409541D01*
X82830457Y-117420000D01*
X82882880Y-117413214D01*
X82936824Y-117392034D01*
X82986518Y-117357568D01*
X83033422Y-117306549D01*
X83071477Y-117243575D01*
X83103398Y-117159637D01*
X83122832Y-117065123D01*
X83130020Y-116943970D01*
X83121594Y-116795593D01*
X83109609Y-116731350D01*
X83092285Y-116680799D01*
X83067172Y-116637668D01*
X83036231Y-116606671D01*
X82997805Y-116587035D01*
X82948060Y-116580048D01*
X82873848Y-116590765D01*
X82810795Y-116622058D01*
X82757287Y-116670197D01*
X82711388Y-116734043D01*
X82676345Y-116808017D01*
X82649839Y-116896465D01*
X82634202Y-116990518D01*
X82628834Y-117092348D01*
X82209515Y-117092348D01*
X82219609Y-116919520D01*
X82250868Y-116750774D01*
X82303855Y-116593683D01*
X82374089Y-116463789D01*
X82433211Y-116387679D01*
X82500237Y-116324101D01*
X82575711Y-116272058D01*
X82658527Y-116233647D01*
X82750303Y-116210097D01*
X82852927Y-116201960D01*
X82938673Y-116209421D01*
X83009559Y-116230361D01*
X83068471Y-116263632D01*
X83127510Y-116317069D01*
X83177648Y-116384043D01*
X83203727Y-116303302D01*
X83250432Y-116246779D01*
X83313859Y-116214090D01*
X83404427Y-116201960D01*
X83466289Y-116207969D01*
G37*
G36*
X84209330Y-117797965D02*
G01*
X84140319Y-117791287D01*
X84090058Y-117773445D01*
X84053869Y-117746186D01*
X84028102Y-117708611D01*
X84011202Y-117657335D01*
X84004898Y-117588039D01*
X84004898Y-116406392D01*
X84011336Y-116339174D01*
X84028675Y-116289227D01*
X84055334Y-116252397D01*
X84092165Y-116225737D01*
X84142112Y-116208398D01*
X84209330Y-116201960D01*
X84276530Y-116208435D01*
X84325916Y-116225796D01*
X84361859Y-116252397D01*
X84387751Y-116289114D01*
X84404660Y-116339053D01*
X84410952Y-116406392D01*
X84410952Y-116509951D01*
X84443433Y-116440474D01*
X84483736Y-116379769D01*
X84532724Y-116326933D01*
X84590104Y-116283171D01*
X84654952Y-116248914D01*
X84730055Y-116222965D01*
X84810582Y-116207384D01*
X84900903Y-116201960D01*
X85015631Y-116212428D01*
X85105334Y-116241161D01*
X85182047Y-116289167D01*
X85243942Y-116354612D01*
X85290439Y-116434501D01*
X85323688Y-116532421D01*
X85342374Y-116639144D01*
X85348967Y-116762009D01*
X85348967Y-116789975D01*
X85342346Y-116859008D01*
X85324507Y-116910347D01*
X85297065Y-116948244D01*
X85259252Y-116975612D01*
X85207961Y-116993413D01*
X85138918Y-117000024D01*
X85069874Y-116993416D01*
X85018535Y-116975617D01*
X84980648Y-116948244D01*
X84953276Y-116910358D01*
X84935477Y-116859019D01*
X84928869Y-116789975D01*
X84928869Y-116784357D01*
X84923251Y-116700460D01*
X84902247Y-116631828D01*
X84883223Y-116605423D01*
X84856085Y-116584200D01*
X84822203Y-116570970D01*
X84774874Y-116566004D01*
X84708269Y-116571220D01*
X84641884Y-116587009D01*
X84579259Y-116612556D01*
X84525624Y-116645872D01*
X84479777Y-116687542D01*
X84443070Y-116736852D01*
X84418969Y-116792159D01*
X84410952Y-116851646D01*
X84410952Y-117588039D01*
X84404798Y-117657457D01*
X84388330Y-117708725D01*
X84363325Y-117746186D01*
X84328017Y-117773385D01*
X84278322Y-117791250D01*
X84209330Y-117797965D01*
G37*
G36*
X86578981Y-116209165D02*
G01*
X86664765Y-116229295D01*
X86736144Y-116260823D01*
X86800357Y-116305118D01*
X86854690Y-116359397D01*
X86899909Y-116424588D01*
X86949904Y-116536804D01*
X86983928Y-116676646D01*
X87001546Y-116827021D01*
X87007742Y-116997215D01*
X87001180Y-117134805D01*
X86981120Y-117277240D01*
X86943571Y-117414523D01*
X86885865Y-117536259D01*
X86834852Y-117608729D01*
X86773120Y-117671478D01*
X86699752Y-117725181D01*
X86618226Y-117764089D01*
X86518774Y-117789004D01*
X86397379Y-117797965D01*
X86310220Y-117789441D01*
X86232958Y-117764697D01*
X86163517Y-117723838D01*
X86106324Y-117668320D01*
X86065911Y-117599760D01*
X86041762Y-117515254D01*
X86041762Y-118092034D01*
X86035151Y-118161076D01*
X86017349Y-118212368D01*
X85989982Y-118250181D01*
X85952167Y-118277543D01*
X85900839Y-118295347D01*
X85831713Y-118301960D01*
X85762670Y-118295350D01*
X85711378Y-118277548D01*
X85673565Y-118250181D01*
X85646198Y-118212368D01*
X85628397Y-118161076D01*
X85621786Y-118092034D01*
X85621786Y-116943970D01*
X86041762Y-116943970D01*
X86041762Y-117055956D01*
X86046716Y-117127488D01*
X86061301Y-117194563D01*
X86085487Y-117257248D01*
X86117355Y-117310823D01*
X86158059Y-117356124D01*
X86206870Y-117390690D01*
X86262495Y-117412565D01*
X86324595Y-117420000D01*
X86402691Y-117409542D01*
X86460272Y-117380799D01*
X86505903Y-117336010D01*
X86540139Y-117278583D01*
X86563323Y-117213277D01*
X86577875Y-117139975D01*
X86587766Y-116994406D01*
X86577875Y-116851646D01*
X86563638Y-116781021D01*
X86541482Y-116718656D01*
X86509121Y-116663421D01*
X86465889Y-116619249D01*
X86411745Y-116590322D01*
X86341325Y-116580048D01*
X86281137Y-116586340D01*
X86223722Y-116605205D01*
X86172007Y-116635954D01*
X86128590Y-116677990D01*
X86093802Y-116729473D01*
X86065575Y-116792784D01*
X86047963Y-116862606D01*
X86041762Y-116943970D01*
X85621786Y-116943970D01*
X85621786Y-116406392D01*
X85628064Y-116339042D01*
X85644934Y-116289104D01*
X85670757Y-116252397D01*
X85706755Y-116225910D01*
X85756959Y-116208495D01*
X85826095Y-116201960D01*
X85895369Y-116208359D01*
X85947760Y-116225688D01*
X85987173Y-116252397D01*
X86016222Y-116289576D01*
X86034879Y-116339548D01*
X86041762Y-116406392D01*
X86041762Y-116535230D01*
X86096350Y-116406392D01*
X86133262Y-116348828D01*
X86178904Y-116300024D01*
X86233870Y-116260369D01*
X86302124Y-116228583D01*
X86378979Y-116209078D01*
X86475781Y-116201960D01*
X86578981Y-116209165D01*
G37*
G36*
X89093454Y-117797965D02*
G01*
X89011653Y-117784281D01*
X88953381Y-117746186D01*
X88926737Y-117708549D01*
X88909458Y-117658091D01*
X88903066Y-117590847D01*
X88903066Y-116372808D01*
X88909855Y-116315693D01*
X88928335Y-116273562D01*
X88957655Y-116242627D01*
X89017010Y-116212494D01*
X89090645Y-116201960D01*
X89170832Y-116213864D01*
X89229253Y-116246779D01*
X89267499Y-116299284D01*
X89281032Y-116372808D01*
X89281032Y-116426053D01*
X89315221Y-116331449D01*
X89369204Y-116262166D01*
X89416485Y-116229874D01*
X89476437Y-116209381D01*
X89552630Y-116201960D01*
X89631841Y-116210529D01*
X89691396Y-116233884D01*
X89736057Y-116270593D01*
X89785545Y-116344080D01*
X89812993Y-116426053D01*
X89841692Y-116344466D01*
X89895547Y-116270593D01*
X89943779Y-116234039D01*
X90007947Y-116210587D01*
X90093018Y-116201960D01*
X90160649Y-116207788D01*
X90218925Y-116224431D01*
X90270670Y-116252251D01*
X90312714Y-116290254D01*
X90345505Y-116337625D01*
X90370111Y-116396622D01*
X90384641Y-116461949D01*
X90389773Y-116538039D01*
X90389773Y-117590847D01*
X90383675Y-117658328D01*
X90367258Y-117708773D01*
X90342145Y-117746186D01*
X90307269Y-117774114D01*
X90262549Y-117791632D01*
X90205003Y-117797965D01*
X90147463Y-117791595D01*
X90101165Y-117773718D01*
X90063586Y-117744842D01*
X90036045Y-117706193D01*
X90018321Y-117655172D01*
X90011807Y-117588039D01*
X90011807Y-116669563D01*
X90006275Y-116621944D01*
X89990802Y-116584200D01*
X89964260Y-116558137D01*
X89924979Y-116549152D01*
X89885989Y-116558184D01*
X89860621Y-116584200D01*
X89846251Y-116621843D01*
X89841081Y-116669563D01*
X89841081Y-117604769D01*
X89834245Y-117667793D01*
X89815626Y-117715082D01*
X89786371Y-117750460D01*
X89726126Y-117785736D01*
X89650572Y-117797965D01*
X89575240Y-117785692D01*
X89516116Y-117750460D01*
X89487785Y-117715214D01*
X89469664Y-117667935D01*
X89462993Y-117604769D01*
X89462993Y-116669563D01*
X89457103Y-116622046D01*
X89440523Y-116584200D01*
X89412519Y-116558236D01*
X89370669Y-116549152D01*
X89331101Y-116558090D01*
X89303381Y-116584200D01*
X89286892Y-116622037D01*
X89281032Y-116669563D01*
X89281032Y-117588039D01*
X89274809Y-117655403D01*
X89257944Y-117706413D01*
X89231939Y-117744842D01*
X89196072Y-117773619D01*
X89150843Y-117791533D01*
X89093454Y-117797965D01*
G37*
G36*
X91471421Y-116209614D02*
G01*
X91567944Y-116231124D01*
X91649577Y-116264975D01*
X91758065Y-116338722D01*
X91842773Y-116431671D01*
X91905989Y-116541768D01*
X91949263Y-116669685D01*
X91973418Y-116805211D01*
X91981503Y-116943970D01*
X91969829Y-117028202D01*
X91939494Y-117081235D01*
X91889221Y-117113793D01*
X91810655Y-117126053D01*
X91051915Y-117126053D01*
X91073392Y-117205544D01*
X91100764Y-117266004D01*
X91136225Y-117317759D01*
X91175013Y-117357107D01*
X91219152Y-117387022D01*
X91265994Y-117406078D01*
X91365401Y-117420000D01*
X91453897Y-117412684D01*
X91540401Y-117390690D01*
X91618655Y-117358351D01*
X91662278Y-117330362D01*
X91719675Y-117296779D01*
X91779881Y-117285544D01*
X91827034Y-117292553D01*
X91865505Y-117312768D01*
X91897484Y-117347215D01*
X91928858Y-117412534D01*
X91939494Y-117487166D01*
X91935199Y-117530641D01*
X91922641Y-117569842D01*
X91898819Y-117606784D01*
X91849856Y-117655205D01*
X91757411Y-117715411D01*
X91644082Y-117760230D01*
X91506817Y-117788196D01*
X91343053Y-117797965D01*
X91228674Y-117790623D01*
X91129067Y-117769720D01*
X91042023Y-117736416D01*
X90961351Y-117689794D01*
X90891207Y-117633487D01*
X90830631Y-117567034D01*
X90757768Y-117451767D01*
X90704602Y-117316441D01*
X90673363Y-117170651D01*
X90662714Y-117013946D01*
X90671850Y-116861410D01*
X90679835Y-116817941D01*
X91054602Y-116817941D01*
X91595111Y-116817941D01*
X91620268Y-116809637D01*
X91628695Y-116778740D01*
X91624470Y-116740559D01*
X91611842Y-116704612D01*
X91590992Y-116671897D01*
X91560062Y-116641598D01*
X91522075Y-116616918D01*
X91474577Y-116596901D01*
X91421830Y-116584521D01*
X91357096Y-116580048D01*
X91297385Y-116584449D01*
X91246454Y-116596901D01*
X91199952Y-116617313D01*
X91159626Y-116644406D01*
X91124847Y-116678150D01*
X91095268Y-116718656D01*
X91072107Y-116764384D01*
X91054602Y-116817941D01*
X90679835Y-116817941D01*
X90699106Y-116713039D01*
X90747601Y-116573204D01*
X90818053Y-116452676D01*
X90878125Y-116382585D01*
X90949574Y-116322024D01*
X91033597Y-116270593D01*
X91124805Y-116233649D01*
X91231651Y-116210254D01*
X91357096Y-116201960D01*
X91471421Y-116209614D01*
G37*
G36*
X92450327Y-117797965D02*
G01*
X92368527Y-117784281D01*
X92310254Y-117746186D01*
X92283611Y-117708549D01*
X92266332Y-117658091D01*
X92259940Y-117590847D01*
X92259940Y-116372808D01*
X92266729Y-116315693D01*
X92285209Y-116273562D01*
X92314528Y-116242627D01*
X92373883Y-116212494D01*
X92447519Y-116201960D01*
X92527705Y-116213864D01*
X92586127Y-116246779D01*
X92624373Y-116299284D01*
X92637906Y-116372808D01*
X92637906Y-116426053D01*
X92672095Y-116331449D01*
X92726078Y-116262166D01*
X92773358Y-116229874D01*
X92833311Y-116209381D01*
X92909504Y-116201960D01*
X92988714Y-116210529D01*
X93048269Y-116233884D01*
X93092930Y-116270593D01*
X93142419Y-116344080D01*
X93169867Y-116426053D01*
X93198565Y-116344466D01*
X93252421Y-116270593D01*
X93300653Y-116234039D01*
X93364821Y-116210587D01*
X93449891Y-116201960D01*
X93517523Y-116207788D01*
X93575799Y-116224431D01*
X93627543Y-116252251D01*
X93669588Y-116290254D01*
X93702379Y-116337625D01*
X93726985Y-116396622D01*
X93741515Y-116461949D01*
X93746646Y-116538039D01*
X93746646Y-117590847D01*
X93740548Y-117658328D01*
X93724132Y-117708773D01*
X93699019Y-117746186D01*
X93664142Y-117774114D01*
X93619423Y-117791632D01*
X93561877Y-117797965D01*
X93504336Y-117791595D01*
X93458039Y-117773718D01*
X93420460Y-117744842D01*
X93392919Y-117706193D01*
X93375195Y-117655172D01*
X93368681Y-117588039D01*
X93368681Y-116669563D01*
X93363149Y-116621944D01*
X93347676Y-116584200D01*
X93321133Y-116558137D01*
X93281852Y-116549152D01*
X93242863Y-116558184D01*
X93217494Y-116584200D01*
X93203124Y-116621843D01*
X93197955Y-116669563D01*
X93197955Y-117604769D01*
X93191119Y-117667793D01*
X93172500Y-117715082D01*
X93143244Y-117750460D01*
X93083000Y-117785736D01*
X93007445Y-117797965D01*
X92932113Y-117785692D01*
X92872990Y-117750460D01*
X92844658Y-117715214D01*
X92826538Y-117667935D01*
X92819867Y-117604769D01*
X92819867Y-116669563D01*
X92813977Y-116622046D01*
X92797397Y-116584200D01*
X92769392Y-116558236D01*
X92727543Y-116549152D01*
X92687975Y-116558090D01*
X92660254Y-116584200D01*
X92643766Y-116622037D01*
X92637906Y-116669563D01*
X92637906Y-117588039D01*
X92631683Y-117655403D01*
X92614818Y-117706413D01*
X92588813Y-117744842D01*
X92552945Y-117773619D01*
X92507717Y-117791533D01*
X92450327Y-117797965D01*
G37*
G36*
X94800190Y-116209612D02*
G01*
X94900258Y-116231465D01*
X94988255Y-116266441D01*
X95106726Y-116342410D01*
X95202456Y-116439975D01*
X95276448Y-116556677D01*
X95329951Y-116693377D01*
X95361257Y-116840694D01*
X95371960Y-117000024D01*
X95361303Y-117156905D01*
X95329951Y-117303862D01*
X95276520Y-117440700D01*
X95202456Y-117558607D01*
X95140922Y-117627031D01*
X95069828Y-117685202D01*
X94988255Y-117733607D01*
X94900264Y-117768514D01*
X94800196Y-117790328D01*
X94685882Y-117797965D01*
X94571651Y-117790331D01*
X94471578Y-117768521D01*
X94383510Y-117733607D01*
X94301936Y-117685202D01*
X94230843Y-117627031D01*
X94169309Y-117558607D01*
X94095339Y-117440708D01*
X94041936Y-117303862D01*
X94010583Y-117156905D01*
X93999926Y-117000024D01*
X94419902Y-117000024D01*
X94423825Y-117088301D01*
X94435289Y-117170750D01*
X94455729Y-117248537D01*
X94484260Y-117313632D01*
X94522753Y-117369631D01*
X94568279Y-117411573D01*
X94622331Y-117438691D01*
X94685882Y-117447965D01*
X94749520Y-117438683D01*
X94803485Y-117411573D01*
X94849085Y-117369616D01*
X94887505Y-117313632D01*
X94916036Y-117248537D01*
X94936475Y-117170750D01*
X94948031Y-117088298D01*
X94951985Y-117000024D01*
X94947998Y-116909167D01*
X94936475Y-116826367D01*
X94915975Y-116748789D01*
X94887505Y-116684951D01*
X94849175Y-116630087D01*
X94803485Y-116588353D01*
X94749520Y-116561243D01*
X94685882Y-116551960D01*
X94622331Y-116561235D01*
X94568279Y-116588353D01*
X94522762Y-116630315D01*
X94484260Y-116686416D01*
X94455734Y-116751406D01*
X94435289Y-116829176D01*
X94423826Y-116911640D01*
X94419902Y-117000024D01*
X93999926Y-117000024D01*
X94010583Y-116843143D01*
X94041936Y-116696186D01*
X94095351Y-116559255D01*
X94169309Y-116441441D01*
X94230843Y-116373017D01*
X94301936Y-116314846D01*
X94383510Y-116266441D01*
X94471584Y-116231458D01*
X94571657Y-116209608D01*
X94685882Y-116201960D01*
X94800190Y-116209612D01*
G37*
G36*
X95958387Y-117797965D02*
G01*
X95889377Y-117791287D01*
X95839116Y-117773445D01*
X95802927Y-117746186D01*
X95777160Y-117708611D01*
X95760260Y-117657335D01*
X95753956Y-117588039D01*
X95753956Y-116406392D01*
X95760394Y-116339174D01*
X95777733Y-116289227D01*
X95804392Y-116252397D01*
X95841223Y-116225737D01*
X95891170Y-116208398D01*
X95958387Y-116201960D01*
X96025588Y-116208435D01*
X96074974Y-116225796D01*
X96110917Y-116252397D01*
X96136809Y-116289114D01*
X96153718Y-116339053D01*
X96160010Y-116406392D01*
X96160010Y-116509951D01*
X96192491Y-116440474D01*
X96232794Y-116379769D01*
X96281782Y-116326933D01*
X96339162Y-116283171D01*
X96404010Y-116248914D01*
X96479113Y-116222965D01*
X96559640Y-116207384D01*
X96649961Y-116201960D01*
X96764689Y-116212428D01*
X96854392Y-116241161D01*
X96931105Y-116289167D01*
X96993000Y-116354612D01*
X97039497Y-116434501D01*
X97072745Y-116532421D01*
X97091431Y-116639144D01*
X97098025Y-116762009D01*
X97098025Y-116789975D01*
X97091404Y-116859008D01*
X97073565Y-116910347D01*
X97046123Y-116948244D01*
X97008310Y-116975612D01*
X96957018Y-116993413D01*
X96887976Y-117000024D01*
X96818932Y-116993416D01*
X96767593Y-116975617D01*
X96729706Y-116948244D01*
X96702334Y-116910358D01*
X96684534Y-116859019D01*
X96677927Y-116789975D01*
X96677927Y-116784357D01*
X96672309Y-116700460D01*
X96651304Y-116631828D01*
X96632281Y-116605423D01*
X96605143Y-116584200D01*
X96571261Y-116570970D01*
X96523932Y-116566004D01*
X96457327Y-116571220D01*
X96390942Y-116587009D01*
X96328317Y-116612556D01*
X96274682Y-116645872D01*
X96228835Y-116687542D01*
X96192128Y-116736852D01*
X96168026Y-116792159D01*
X96160010Y-116851646D01*
X96160010Y-117588039D01*
X96153856Y-117657457D01*
X96137388Y-117708725D01*
X96112383Y-117746186D01*
X96077075Y-117773385D01*
X96027380Y-117791250D01*
X95958387Y-117797965D01*
G37*
G36*
X98389947Y-116322372D02*
G01*
X98411424Y-116279923D01*
X98438918Y-116252397D01*
X98474024Y-116235914D01*
X98518785Y-116230048D01*
X98622148Y-116240876D01*
X98685359Y-116267906D01*
X98715020Y-116296949D01*
X98733320Y-116335537D01*
X98739947Y-116386852D01*
X98734330Y-116442784D01*
X98717599Y-116507142D01*
X98283579Y-117797965D01*
X98234609Y-117939382D01*
X98165976Y-118104612D01*
X98077805Y-118261294D01*
X98025450Y-118329260D01*
X97972780Y-118377554D01*
X97861386Y-118448202D01*
X97755771Y-118492348D01*
X97650595Y-118518343D01*
X97566849Y-118526053D01*
X97477162Y-118513991D01*
X97419815Y-118482578D01*
X97393933Y-118450312D01*
X97377119Y-118405516D01*
X97370844Y-118343970D01*
X97370844Y-118338353D01*
X97383008Y-118262487D01*
X97411388Y-118205362D01*
X97440199Y-118177229D01*
X97477975Y-118159858D01*
X97527648Y-118153583D01*
X97572790Y-118148779D01*
X97608736Y-118135387D01*
X97673217Y-118089225D01*
X97733422Y-118031828D01*
X97775432Y-117977117D01*
X97806207Y-117919720D01*
X97832829Y-117851210D01*
X97863604Y-117770000D01*
X97398810Y-116496029D01*
X97379148Y-116433014D01*
X97373653Y-116378426D01*
X97386906Y-116311157D01*
X97423967Y-116266441D01*
X97480537Y-116239954D01*
X97561231Y-116230048D01*
X97623381Y-116236419D01*
X97661981Y-116252397D01*
X97690832Y-116279635D01*
X97712418Y-116319563D01*
X98051182Y-117251960D01*
X98389947Y-116322372D01*
G37*
G36*
X101930769Y-115704589D02*
G01*
X101982061Y-115722430D01*
X102019884Y-115749867D01*
X102047252Y-115787680D01*
X102065053Y-115838971D01*
X102071664Y-115908014D01*
X102071664Y-117593656D01*
X102065385Y-117661006D01*
X102048516Y-117710944D01*
X102022693Y-117747651D01*
X101986703Y-117774063D01*
X101936465Y-117791442D01*
X101867233Y-117797965D01*
X101798032Y-117791583D01*
X101745678Y-117774295D01*
X101706277Y-117747651D01*
X101677228Y-117710472D01*
X101658570Y-117660500D01*
X101651688Y-117593656D01*
X101651688Y-117464818D01*
X101596978Y-117593656D01*
X101560138Y-117651206D01*
X101514424Y-117700024D01*
X101459536Y-117739638D01*
X101391203Y-117771343D01*
X101314363Y-117790850D01*
X101217669Y-117797965D01*
X101114462Y-117790777D01*
X101028633Y-117770689D01*
X100957184Y-117739225D01*
X100892958Y-117694865D01*
X100838626Y-117640582D01*
X100793419Y-117575460D01*
X100743516Y-117463253D01*
X100709521Y-117323401D01*
X100691901Y-117172933D01*
X100685810Y-117005642D01*
X101105683Y-117005642D01*
X101115453Y-117148401D01*
X101129682Y-117218937D01*
X101151845Y-117281392D01*
X101184279Y-117336640D01*
X101227438Y-117380799D01*
X101281686Y-117409730D01*
X101352124Y-117420000D01*
X101414537Y-117413605D01*
X101471071Y-117394842D01*
X101521677Y-117364111D01*
X101564860Y-117322058D01*
X101599647Y-117270574D01*
X101627875Y-117207264D01*
X101645489Y-117137336D01*
X101651688Y-117055956D01*
X101651688Y-116943970D01*
X101646704Y-116872442D01*
X101632027Y-116805362D01*
X101607929Y-116742701D01*
X101576095Y-116689225D01*
X101535364Y-116643959D01*
X101486458Y-116609480D01*
X101430929Y-116587515D01*
X101368855Y-116580048D01*
X101290653Y-116590509D01*
X101233056Y-116619249D01*
X101187497Y-116664024D01*
X101153189Y-116721465D01*
X101129967Y-116786491D01*
X101115453Y-116858607D01*
X101105683Y-117005642D01*
X100685810Y-117005642D01*
X100685708Y-117002833D01*
X100692292Y-116862891D01*
X100712208Y-116721465D01*
X100749707Y-116585359D01*
X100807463Y-116463911D01*
X100858555Y-116391360D01*
X100920330Y-116328572D01*
X100993698Y-116274867D01*
X101075232Y-116235890D01*
X101174684Y-116210935D01*
X101296071Y-116201960D01*
X101383220Y-116210499D01*
X101460438Y-116235284D01*
X101529811Y-116276210D01*
X101587015Y-116331726D01*
X101627470Y-116400287D01*
X101651688Y-116484794D01*
X101651688Y-115908014D01*
X101658299Y-115838971D01*
X101676100Y-115787680D01*
X101703468Y-115749867D01*
X101741293Y-115722435D01*
X101792622Y-115704592D01*
X101861737Y-115697965D01*
X101930769Y-115704589D01*
G37*
G36*
X103618576Y-117392034D02*
G01*
X103704970Y-117404758D01*
X103759870Y-117438196D01*
X103793396Y-117493123D01*
X103806154Y-117579612D01*
X103793134Y-117666107D01*
X103758527Y-117722372D01*
X103702262Y-117756979D01*
X103615767Y-117770000D01*
X102624508Y-117770000D01*
X102538012Y-117756979D01*
X102481748Y-117722372D01*
X102447141Y-117666107D01*
X102434120Y-117579612D01*
X102446849Y-117493111D01*
X102480282Y-117438196D01*
X102535284Y-117404753D01*
X102621699Y-117392034D01*
X102943733Y-117392034D01*
X102943733Y-116820750D01*
X102933335Y-116749339D01*
X102905875Y-116703147D01*
X102860771Y-116674722D01*
X102789738Y-116663946D01*
X102686057Y-116663946D01*
X102596739Y-116651230D01*
X102539145Y-116617784D01*
X102513146Y-116583831D01*
X102496376Y-116537997D01*
X102490174Y-116476489D01*
X102496342Y-116414875D01*
X102513093Y-116368449D01*
X102539145Y-116333607D01*
X102596882Y-116299050D01*
X102686057Y-116285980D01*
X103027752Y-116285980D01*
X103136571Y-116296605D01*
X103218423Y-116325399D01*
X103279689Y-116370000D01*
X103324284Y-116431268D01*
X103353080Y-116513156D01*
X103363709Y-116622058D01*
X103363709Y-117392034D01*
X103618576Y-117392034D01*
G37*
G36*
X103134120Y-116042470D02*
G01*
X103059684Y-116035329D01*
X102999543Y-116015403D01*
X102950694Y-115983729D01*
X102912935Y-115940407D01*
X102890091Y-115888086D01*
X102882062Y-115823995D01*
X102890091Y-115759989D01*
X102912933Y-115707750D01*
X102950694Y-115664504D01*
X102999552Y-115632761D01*
X103059693Y-115612795D01*
X103134120Y-115605642D01*
X103208546Y-115612798D01*
X103268642Y-115632765D01*
X103317424Y-115664504D01*
X103355186Y-115707750D01*
X103378027Y-115759989D01*
X103386057Y-115823995D01*
X103378027Y-115888086D01*
X103355184Y-115940407D01*
X103317424Y-115983729D01*
X103268651Y-116015398D01*
X103208555Y-116035326D01*
X103134120Y-116042470D01*
G37*
G36*
X104756503Y-117797965D02*
G01*
X104580160Y-117788196D01*
X104500980Y-117774664D01*
X104430317Y-117754612D01*
X104363725Y-117727242D01*
X104301601Y-117693063D01*
X104243714Y-117651135D01*
X104188150Y-117599152D01*
X104153167Y-117558355D01*
X104129288Y-117518063D01*
X104114870Y-117473715D01*
X104109748Y-117420000D01*
X104120936Y-117342259D01*
X104151758Y-117285666D01*
X104200681Y-117248185D01*
X104266552Y-117235230D01*
X104323949Y-117243656D01*
X104384155Y-117274431D01*
X104469049Y-117338249D01*
X104560498Y-117389225D01*
X104657652Y-117422959D01*
X104756503Y-117434043D01*
X104853101Y-117429891D01*
X104934312Y-117414382D01*
X104966490Y-117399982D01*
X104990366Y-117380799D01*
X105005885Y-117355587D01*
X105011371Y-117322058D01*
X105006082Y-117290385D01*
X104990366Y-117263196D01*
X104934312Y-117218499D01*
X104853101Y-117186259D01*
X104756503Y-117162445D01*
X104539494Y-117110666D01*
X104436115Y-117074756D01*
X104346297Y-117027990D01*
X104269163Y-116966216D01*
X104207690Y-116886573D01*
X104179459Y-116825508D01*
X104161191Y-116749657D01*
X104154567Y-116655642D01*
X104165272Y-116543293D01*
X104195111Y-116452676D01*
X104244811Y-116374621D01*
X104312714Y-116311259D01*
X104396262Y-116263550D01*
X104501758Y-116228583D01*
X104617866Y-116208995D01*
X104756503Y-116201960D01*
X104923469Y-116214502D01*
X105075729Y-116251053D01*
X105171054Y-116290142D01*
X105246542Y-116336459D01*
X105305317Y-116389539D01*
X105344518Y-116447058D01*
X105356681Y-116485404D01*
X105361371Y-116540847D01*
X105349173Y-116622479D01*
X105316552Y-116676646D01*
X105265682Y-116710895D01*
X105198949Y-116722808D01*
X105123356Y-116710230D01*
X105089184Y-116693846D01*
X105058998Y-116669563D01*
X105016092Y-116636156D01*
X104945547Y-116599588D01*
X104863342Y-116575040D01*
X104756503Y-116566004D01*
X104678101Y-116573087D01*
X104620704Y-116592627D01*
X104585778Y-116626210D01*
X104574542Y-116675181D01*
X104578508Y-116704288D01*
X104589930Y-116728426D01*
X104630474Y-116766161D01*
X104689337Y-116791441D01*
X104756503Y-116809637D01*
X104981939Y-116864225D01*
X105097106Y-116902749D01*
X105200293Y-116952397D01*
X105291466Y-117017326D01*
X105365523Y-117099431D01*
X105401097Y-117163120D01*
X105423419Y-117239122D01*
X105431346Y-117330362D01*
X105424293Y-117424162D01*
X105404661Y-117501080D01*
X105373949Y-117564225D01*
X105307416Y-117645441D01*
X105222763Y-117706985D01*
X105123847Y-117750074D01*
X105007096Y-117778304D01*
X104884232Y-117792998D01*
X104756503Y-117797965D01*
G37*
G36*
X106720223Y-116209165D02*
G01*
X106806007Y-116229295D01*
X106877386Y-116260823D01*
X106941599Y-116305118D01*
X106995932Y-116359397D01*
X107041151Y-116424588D01*
X107091146Y-116536804D01*
X107125170Y-116676646D01*
X107142789Y-116827021D01*
X107148984Y-116997215D01*
X107142422Y-117134805D01*
X107122362Y-117277240D01*
X107084813Y-117414523D01*
X107027107Y-117536259D01*
X106976094Y-117608729D01*
X106914362Y-117671478D01*
X106840994Y-117725181D01*
X106759468Y-117764089D01*
X106660016Y-117789004D01*
X106538621Y-117797965D01*
X106451462Y-117789441D01*
X106374200Y-117764697D01*
X106304759Y-117723838D01*
X106247566Y-117668320D01*
X106207153Y-117599760D01*
X106183004Y-117515254D01*
X106183004Y-118092034D01*
X106176393Y-118161076D01*
X106158592Y-118212368D01*
X106131224Y-118250181D01*
X106093409Y-118277543D01*
X106042081Y-118295347D01*
X105972955Y-118301960D01*
X105903912Y-118295350D01*
X105852620Y-118277548D01*
X105814808Y-118250181D01*
X105787440Y-118212368D01*
X105769639Y-118161076D01*
X105763028Y-118092034D01*
X105763028Y-116943970D01*
X106183004Y-116943970D01*
X106183004Y-117055956D01*
X106187958Y-117127488D01*
X106202543Y-117194563D01*
X106226729Y-117257248D01*
X106258597Y-117310823D01*
X106299302Y-117356124D01*
X106348112Y-117390690D01*
X106403737Y-117412565D01*
X106465837Y-117420000D01*
X106543933Y-117409542D01*
X106601514Y-117380799D01*
X106647145Y-117336010D01*
X106681381Y-117278583D01*
X106704565Y-117213277D01*
X106719117Y-117139975D01*
X106729009Y-116994406D01*
X106719117Y-116851646D01*
X106704880Y-116781021D01*
X106682725Y-116718656D01*
X106650363Y-116663421D01*
X106607131Y-116619249D01*
X106552987Y-116590322D01*
X106482568Y-116580048D01*
X106422380Y-116586340D01*
X106364965Y-116605205D01*
X106313249Y-116635954D01*
X106269832Y-116677990D01*
X106235045Y-116729473D01*
X106206817Y-116792784D01*
X106189205Y-116862606D01*
X106183004Y-116943970D01*
X105763028Y-116943970D01*
X105763028Y-116406392D01*
X105769307Y-116339042D01*
X105786176Y-116289104D01*
X105811999Y-116252397D01*
X105847997Y-116225910D01*
X105898201Y-116208495D01*
X105967337Y-116201960D01*
X106036611Y-116208359D01*
X106089002Y-116225688D01*
X106128415Y-116252397D01*
X106157464Y-116289576D01*
X106176121Y-116339548D01*
X106183004Y-116406392D01*
X106183004Y-116535230D01*
X106237592Y-116406392D01*
X106274504Y-116348828D01*
X106320146Y-116300024D01*
X106375113Y-116260369D01*
X106443367Y-116228583D01*
X106520221Y-116209078D01*
X106617023Y-116201960D01*
X106720223Y-116209165D01*
G37*
G36*
X108253450Y-117013946D02*
G01*
X108259970Y-117159035D01*
X108276579Y-117258929D01*
X108299612Y-117324867D01*
X108336974Y-117379526D01*
X108381406Y-117409814D01*
X108435411Y-117420000D01*
X108513813Y-117413039D01*
X108592215Y-117389225D01*
X108652847Y-117369376D01*
X108701690Y-117365810D01*
X108742058Y-117375303D01*
X108795493Y-117410885D01*
X108841465Y-117473244D01*
X108866866Y-117530624D01*
X108875036Y-117578648D01*
X108869309Y-117620157D01*
X108837716Y-117675145D01*
X108776985Y-117719563D01*
X108677344Y-117759329D01*
X108576828Y-117782578D01*
X108473577Y-117794067D01*
X108365436Y-117797965D01*
X108238956Y-117786929D01*
X108134382Y-117755956D01*
X108043517Y-117702087D01*
X107967808Y-117622965D01*
X107910598Y-117523289D01*
X107867058Y-117392034D01*
X107842536Y-117245132D01*
X107833475Y-117058764D01*
X107833475Y-116269249D01*
X107821986Y-116192862D01*
X107791465Y-116143220D01*
X107741823Y-116112699D01*
X107665436Y-116101210D01*
X107581416Y-116101210D01*
X107495001Y-116088491D01*
X107440000Y-116055048D01*
X107406557Y-116000047D01*
X107393838Y-115913632D01*
X107406566Y-115827130D01*
X107440000Y-115772215D01*
X107495001Y-115738773D01*
X107581416Y-115726053D01*
X107917372Y-115726053D01*
X108026275Y-115736681D01*
X108108163Y-115765478D01*
X108169431Y-115810073D01*
X108214021Y-115871267D01*
X108242819Y-115953108D01*
X108253450Y-116062009D01*
X108253450Y-117013946D01*
G37*
G36*
X110321278Y-116207969D02*
G01*
X110363310Y-116223564D01*
X110391064Y-116246779D01*
X110414013Y-116299419D01*
X110413412Y-116386852D01*
X110379829Y-116680799D01*
X110365907Y-116976210D01*
X110369697Y-117126994D01*
X110381294Y-117284200D01*
X110401505Y-117444156D01*
X110433073Y-117618813D01*
X110440268Y-117706659D01*
X110424647Y-117755956D01*
X110402062Y-117777227D01*
X110363492Y-117792038D01*
X110301427Y-117797965D01*
X110209259Y-117786520D01*
X110137662Y-117754612D01*
X110099785Y-117721270D01*
X110071339Y-117676862D01*
X110052299Y-117618813D01*
X110035446Y-117523558D01*
X110010289Y-117568377D01*
X109933292Y-117668155D01*
X109840907Y-117739225D01*
X109770533Y-117771077D01*
X109689542Y-117790976D01*
X109595809Y-117797965D01*
X109496696Y-117788218D01*
X109399804Y-117758764D01*
X109310778Y-117709032D01*
X109230422Y-117635666D01*
X109164941Y-117542740D01*
X109110010Y-117420000D01*
X109076248Y-117280842D01*
X109063848Y-117103583D01*
X109064504Y-117092348D01*
X109483824Y-117092348D01*
X109497074Y-117227347D01*
X109532794Y-117327676D01*
X109572171Y-117379510D01*
X109621906Y-117409541D01*
X109685446Y-117420000D01*
X109737870Y-117413214D01*
X109791814Y-117392034D01*
X109841507Y-117357568D01*
X109888412Y-117306549D01*
X109926466Y-117243575D01*
X109958387Y-117159637D01*
X109977821Y-117065123D01*
X109985010Y-116943970D01*
X109976584Y-116795593D01*
X109964598Y-116731350D01*
X109947274Y-116680799D01*
X109922162Y-116637668D01*
X109891221Y-116606671D01*
X109852795Y-116587035D01*
X109803049Y-116580048D01*
X109728837Y-116590765D01*
X109665785Y-116622058D01*
X109612276Y-116670197D01*
X109566378Y-116734043D01*
X109531335Y-116808017D01*
X109504829Y-116896465D01*
X109489191Y-116990518D01*
X109483824Y-117092348D01*
X109064504Y-117092348D01*
X109074599Y-116919520D01*
X109105858Y-116750774D01*
X109158845Y-116593683D01*
X109229078Y-116463789D01*
X109288201Y-116387679D01*
X109355227Y-116324101D01*
X109430701Y-116272058D01*
X109513517Y-116233647D01*
X109605293Y-116210097D01*
X109707916Y-116201960D01*
X109793663Y-116209421D01*
X109864549Y-116230361D01*
X109923461Y-116263632D01*
X109982499Y-116317069D01*
X110032637Y-116384043D01*
X110058716Y-116303302D01*
X110105422Y-116246779D01*
X110168848Y-116214090D01*
X110259417Y-116201960D01*
X110321278Y-116207969D01*
G37*
G36*
X111817442Y-116322372D02*
G01*
X111838919Y-116279923D01*
X111866413Y-116252397D01*
X111901518Y-116235914D01*
X111946280Y-116230048D01*
X112049642Y-116240876D01*
X112112854Y-116267906D01*
X112142515Y-116296949D01*
X112160815Y-116335537D01*
X112167442Y-116386852D01*
X112161824Y-116442784D01*
X112145094Y-116507142D01*
X111711074Y-117797965D01*
X111662103Y-117939382D01*
X111593471Y-118104612D01*
X111505300Y-118261294D01*
X111452945Y-118329260D01*
X111400275Y-118377554D01*
X111288880Y-118448202D01*
X111183265Y-118492348D01*
X111078090Y-118518343D01*
X110994344Y-118526053D01*
X110904656Y-118513991D01*
X110847309Y-118482578D01*
X110821428Y-118450312D01*
X110804614Y-118405516D01*
X110798339Y-118343970D01*
X110798339Y-118338353D01*
X110810503Y-118262487D01*
X110838883Y-118205362D01*
X110867693Y-118177229D01*
X110905470Y-118159858D01*
X110955143Y-118153583D01*
X111000285Y-118148779D01*
X111036231Y-118135387D01*
X111100711Y-118089225D01*
X111160917Y-118031828D01*
X111202927Y-117977117D01*
X111233702Y-117919720D01*
X111260324Y-117851210D01*
X111291099Y-117770000D01*
X110826304Y-116496029D01*
X110806643Y-116433014D01*
X110801147Y-116378426D01*
X110814401Y-116311157D01*
X110851461Y-116266441D01*
X110908032Y-116239954D01*
X110988726Y-116230048D01*
X111050876Y-116236419D01*
X111089476Y-116252397D01*
X111118327Y-116279635D01*
X111139912Y-116319563D01*
X111478677Y-117251960D01*
X111817442Y-116322372D01*
G37*
X62480000Y-63500000D02*
X125480000Y-63500000D01*
X125480000Y-114500000D01*
X62480000Y-114500000D01*
X62480000Y-63500000D01*
D11*
X52503666Y-112214820D02*
X52503666Y-112929105D01*
X52503666Y-112929105D02*
X52456047Y-113071962D01*
X52456047Y-113071962D02*
X52360809Y-113167201D01*
X52360809Y-113167201D02*
X52217952Y-113214820D01*
X52217952Y-113214820D02*
X52122714Y-113214820D01*
X53122714Y-112643391D02*
X53027476Y-112595772D01*
X53027476Y-112595772D02*
X52979857Y-112548153D01*
X52979857Y-112548153D02*
X52932238Y-112452915D01*
X52932238Y-112452915D02*
X52932238Y-112405296D01*
X52932238Y-112405296D02*
X52979857Y-112310058D01*
X52979857Y-112310058D02*
X53027476Y-112262439D01*
X53027476Y-112262439D02*
X53122714Y-112214820D01*
X53122714Y-112214820D02*
X53313190Y-112214820D01*
X53313190Y-112214820D02*
X53408428Y-112262439D01*
X53408428Y-112262439D02*
X53456047Y-112310058D01*
X53456047Y-112310058D02*
X53503666Y-112405296D01*
X53503666Y-112405296D02*
X53503666Y-112452915D01*
X53503666Y-112452915D02*
X53456047Y-112548153D01*
X53456047Y-112548153D02*
X53408428Y-112595772D01*
X53408428Y-112595772D02*
X53313190Y-112643391D01*
X53313190Y-112643391D02*
X53122714Y-112643391D01*
X53122714Y-112643391D02*
X53027476Y-112691010D01*
X53027476Y-112691010D02*
X52979857Y-112738629D01*
X52979857Y-112738629D02*
X52932238Y-112833867D01*
X52932238Y-112833867D02*
X52932238Y-113024343D01*
X52932238Y-113024343D02*
X52979857Y-113119581D01*
X52979857Y-113119581D02*
X53027476Y-113167201D01*
X53027476Y-113167201D02*
X53122714Y-113214820D01*
X53122714Y-113214820D02*
X53313190Y-113214820D01*
X53313190Y-113214820D02*
X53408428Y-113167201D01*
X53408428Y-113167201D02*
X53456047Y-113119581D01*
X53456047Y-113119581D02*
X53503666Y-113024343D01*
X53503666Y-113024343D02*
X53503666Y-112833867D01*
X53503666Y-112833867D02*
X53456047Y-112738629D01*
X53456047Y-112738629D02*
X53408428Y-112691010D01*
X53408428Y-112691010D02*
X53313190Y-112643391D01*
X53031580Y-115482666D02*
X53079200Y-115530285D01*
X53079200Y-115530285D02*
X53126819Y-115673142D01*
X53126819Y-115673142D02*
X53126819Y-115768380D01*
X53126819Y-115768380D02*
X53079200Y-115911237D01*
X53079200Y-115911237D02*
X52983961Y-116006475D01*
X52983961Y-116006475D02*
X52888723Y-116054094D01*
X52888723Y-116054094D02*
X52698247Y-116101713D01*
X52698247Y-116101713D02*
X52555390Y-116101713D01*
X52555390Y-116101713D02*
X52364914Y-116054094D01*
X52364914Y-116054094D02*
X52269676Y-116006475D01*
X52269676Y-116006475D02*
X52174438Y-115911237D01*
X52174438Y-115911237D02*
X52126819Y-115768380D01*
X52126819Y-115768380D02*
X52126819Y-115673142D01*
X52126819Y-115673142D02*
X52174438Y-115530285D01*
X52174438Y-115530285D02*
X52222057Y-115482666D01*
X52222057Y-115101713D02*
X52174438Y-115054094D01*
X52174438Y-115054094D02*
X52126819Y-114958856D01*
X52126819Y-114958856D02*
X52126819Y-114720761D01*
X52126819Y-114720761D02*
X52174438Y-114625523D01*
X52174438Y-114625523D02*
X52222057Y-114577904D01*
X52222057Y-114577904D02*
X52317295Y-114530285D01*
X52317295Y-114530285D02*
X52412533Y-114530285D01*
X52412533Y-114530285D02*
X52555390Y-114577904D01*
X52555390Y-114577904D02*
X53126819Y-115149332D01*
X53126819Y-115149332D02*
X53126819Y-114530285D01*
X54546666Y-143624819D02*
X54213333Y-143148628D01*
X53975238Y-143624819D02*
X53975238Y-142624819D01*
X53975238Y-142624819D02*
X54356190Y-142624819D01*
X54356190Y-142624819D02*
X54451428Y-142672438D01*
X54451428Y-142672438D02*
X54499047Y-142720057D01*
X54499047Y-142720057D02*
X54546666Y-142815295D01*
X54546666Y-142815295D02*
X54546666Y-142958152D01*
X54546666Y-142958152D02*
X54499047Y-143053390D01*
X54499047Y-143053390D02*
X54451428Y-143101009D01*
X54451428Y-143101009D02*
X54356190Y-143148628D01*
X54356190Y-143148628D02*
X53975238Y-143148628D01*
X54975238Y-143101009D02*
X55308571Y-143101009D01*
X55451428Y-143624819D02*
X54975238Y-143624819D01*
X54975238Y-143624819D02*
X54975238Y-142624819D01*
X54975238Y-142624819D02*
X55451428Y-142624819D01*
X56213333Y-143101009D02*
X55880000Y-143101009D01*
X55880000Y-143624819D02*
X55880000Y-142624819D01*
X55880000Y-142624819D02*
X56356190Y-142624819D01*
X56880000Y-142624819D02*
X56880000Y-142862914D01*
X56641905Y-142767676D02*
X56880000Y-142862914D01*
X56880000Y-142862914D02*
X57118095Y-142767676D01*
X56737143Y-143053390D02*
X56880000Y-142862914D01*
X56880000Y-142862914D02*
X57022857Y-143053390D01*
X57641905Y-142624819D02*
X57641905Y-142862914D01*
X57403810Y-142767676D02*
X57641905Y-142862914D01*
X57641905Y-142862914D02*
X57880000Y-142767676D01*
X57499048Y-143053390D02*
X57641905Y-142862914D01*
X57641905Y-142862914D02*
X57784762Y-143053390D01*
X145986666Y-143624819D02*
X145653333Y-143148628D01*
X145415238Y-143624819D02*
X145415238Y-142624819D01*
X145415238Y-142624819D02*
X145796190Y-142624819D01*
X145796190Y-142624819D02*
X145891428Y-142672438D01*
X145891428Y-142672438D02*
X145939047Y-142720057D01*
X145939047Y-142720057D02*
X145986666Y-142815295D01*
X145986666Y-142815295D02*
X145986666Y-142958152D01*
X145986666Y-142958152D02*
X145939047Y-143053390D01*
X145939047Y-143053390D02*
X145891428Y-143101009D01*
X145891428Y-143101009D02*
X145796190Y-143148628D01*
X145796190Y-143148628D02*
X145415238Y-143148628D01*
X146415238Y-143101009D02*
X146748571Y-143101009D01*
X146891428Y-143624819D02*
X146415238Y-143624819D01*
X146415238Y-143624819D02*
X146415238Y-142624819D01*
X146415238Y-142624819D02*
X146891428Y-142624819D01*
X147653333Y-143101009D02*
X147320000Y-143101009D01*
X147320000Y-143624819D02*
X147320000Y-142624819D01*
X147320000Y-142624819D02*
X147796190Y-142624819D01*
X148320000Y-142624819D02*
X148320000Y-142862914D01*
X148081905Y-142767676D02*
X148320000Y-142862914D01*
X148320000Y-142862914D02*
X148558095Y-142767676D01*
X148177143Y-143053390D02*
X148320000Y-142862914D01*
X148320000Y-142862914D02*
X148462857Y-143053390D01*
X149081905Y-142624819D02*
X149081905Y-142862914D01*
X148843810Y-142767676D02*
X149081905Y-142862914D01*
X149081905Y-142862914D02*
X149320000Y-142767676D01*
X148939048Y-143053390D02*
X149081905Y-142862914D01*
X149081905Y-142862914D02*
X149224762Y-143053390D01*
X54546666Y-60906819D02*
X54213333Y-60430628D01*
X53975238Y-60906819D02*
X53975238Y-59906819D01*
X53975238Y-59906819D02*
X54356190Y-59906819D01*
X54356190Y-59906819D02*
X54451428Y-59954438D01*
X54451428Y-59954438D02*
X54499047Y-60002057D01*
X54499047Y-60002057D02*
X54546666Y-60097295D01*
X54546666Y-60097295D02*
X54546666Y-60240152D01*
X54546666Y-60240152D02*
X54499047Y-60335390D01*
X54499047Y-60335390D02*
X54451428Y-60383009D01*
X54451428Y-60383009D02*
X54356190Y-60430628D01*
X54356190Y-60430628D02*
X53975238Y-60430628D01*
X54975238Y-60383009D02*
X55308571Y-60383009D01*
X55451428Y-60906819D02*
X54975238Y-60906819D01*
X54975238Y-60906819D02*
X54975238Y-59906819D01*
X54975238Y-59906819D02*
X55451428Y-59906819D01*
X56213333Y-60383009D02*
X55880000Y-60383009D01*
X55880000Y-60906819D02*
X55880000Y-59906819D01*
X55880000Y-59906819D02*
X56356190Y-59906819D01*
X56880000Y-59906819D02*
X56880000Y-60144914D01*
X56641905Y-60049676D02*
X56880000Y-60144914D01*
X56880000Y-60144914D02*
X57118095Y-60049676D01*
X56737143Y-60335390D02*
X56880000Y-60144914D01*
X56880000Y-60144914D02*
X57022857Y-60335390D01*
X57641905Y-59906819D02*
X57641905Y-60144914D01*
X57403810Y-60049676D02*
X57641905Y-60144914D01*
X57641905Y-60144914D02*
X57880000Y-60049676D01*
X57499048Y-60335390D02*
X57641905Y-60144914D01*
X57641905Y-60144914D02*
X57784762Y-60335390D01*
X145986666Y-60906819D02*
X145653333Y-60430628D01*
X145415238Y-60906819D02*
X145415238Y-59906819D01*
X145415238Y-59906819D02*
X145796190Y-59906819D01*
X145796190Y-59906819D02*
X145891428Y-59954438D01*
X145891428Y-59954438D02*
X145939047Y-60002057D01*
X145939047Y-60002057D02*
X145986666Y-60097295D01*
X145986666Y-60097295D02*
X145986666Y-60240152D01*
X145986666Y-60240152D02*
X145939047Y-60335390D01*
X145939047Y-60335390D02*
X145891428Y-60383009D01*
X145891428Y-60383009D02*
X145796190Y-60430628D01*
X145796190Y-60430628D02*
X145415238Y-60430628D01*
X146415238Y-60383009D02*
X146748571Y-60383009D01*
X146891428Y-60906819D02*
X146415238Y-60906819D01*
X146415238Y-60906819D02*
X146415238Y-59906819D01*
X146415238Y-59906819D02*
X146891428Y-59906819D01*
X147653333Y-60383009D02*
X147320000Y-60383009D01*
X147320000Y-60906819D02*
X147320000Y-59906819D01*
X147320000Y-59906819D02*
X147796190Y-59906819D01*
X148320000Y-59906819D02*
X148320000Y-60144914D01*
X148081905Y-60049676D02*
X148320000Y-60144914D01*
X148320000Y-60144914D02*
X148558095Y-60049676D01*
X148177143Y-60335390D02*
X148320000Y-60144914D01*
X148320000Y-60144914D02*
X148462857Y-60335390D01*
X149081905Y-59906819D02*
X149081905Y-60144914D01*
X148843810Y-60049676D02*
X149081905Y-60144914D01*
X149081905Y-60144914D02*
X149320000Y-60049676D01*
X148939048Y-60335390D02*
X149081905Y-60144914D01*
X149081905Y-60144914D02*
X149224762Y-60335390D01*
X80859333Y-54556819D02*
X80526000Y-54080628D01*
X80287905Y-54556819D02*
X80287905Y-53556819D01*
X80287905Y-53556819D02*
X80668857Y-53556819D01*
X80668857Y-53556819D02*
X80764095Y-53604438D01*
X80764095Y-53604438D02*
X80811714Y-53652057D01*
X80811714Y-53652057D02*
X80859333Y-53747295D01*
X80859333Y-53747295D02*
X80859333Y-53890152D01*
X80859333Y-53890152D02*
X80811714Y-53985390D01*
X80811714Y-53985390D02*
X80764095Y-54033009D01*
X80764095Y-54033009D02*
X80668857Y-54080628D01*
X80668857Y-54080628D02*
X80287905Y-54080628D01*
X81192667Y-53556819D02*
X81811714Y-53556819D01*
X81811714Y-53556819D02*
X81478381Y-53937771D01*
X81478381Y-53937771D02*
X81621238Y-53937771D01*
X81621238Y-53937771D02*
X81716476Y-53985390D01*
X81716476Y-53985390D02*
X81764095Y-54033009D01*
X81764095Y-54033009D02*
X81811714Y-54128247D01*
X81811714Y-54128247D02*
X81811714Y-54366342D01*
X81811714Y-54366342D02*
X81764095Y-54461580D01*
X81764095Y-54461580D02*
X81716476Y-54509200D01*
X81716476Y-54509200D02*
X81621238Y-54556819D01*
X81621238Y-54556819D02*
X81335524Y-54556819D01*
X81335524Y-54556819D02*
X81240286Y-54509200D01*
X81240286Y-54509200D02*
X81192667Y-54461580D01*
X148044819Y-120141904D02*
X148854342Y-120141904D01*
X148854342Y-120141904D02*
X148949580Y-120094285D01*
X148949580Y-120094285D02*
X148997200Y-120046666D01*
X148997200Y-120046666D02*
X149044819Y-119951428D01*
X149044819Y-119951428D02*
X149044819Y-119760952D01*
X149044819Y-119760952D02*
X148997200Y-119665714D01*
X148997200Y-119665714D02*
X148949580Y-119618095D01*
X148949580Y-119618095D02*
X148854342Y-119570476D01*
X148854342Y-119570476D02*
X148044819Y-119570476D01*
X149044819Y-118570476D02*
X149044819Y-119141904D01*
X149044819Y-118856190D02*
X148044819Y-118856190D01*
X148044819Y-118856190D02*
X148187676Y-118951428D01*
X148187676Y-118951428D02*
X148282914Y-119046666D01*
X148282914Y-119046666D02*
X148330533Y-119141904D01*
D12*
X149643338Y-129630472D02*
X148886660Y-129630472D01*
X148886660Y-129630472D02*
X148797639Y-129674982D01*
X148797639Y-129674982D02*
X148753129Y-129719493D01*
X148753129Y-129719493D02*
X148708618Y-129808514D01*
X148708618Y-129808514D02*
X148708618Y-129986556D01*
X148708618Y-129986556D02*
X148753129Y-130075577D01*
X148753129Y-130075577D02*
X148797639Y-130120087D01*
X148797639Y-130120087D02*
X148886660Y-130164598D01*
X148886660Y-130164598D02*
X149643338Y-130164598D01*
X148753129Y-130565191D02*
X148708618Y-130698723D01*
X148708618Y-130698723D02*
X148708618Y-130921275D01*
X148708618Y-130921275D02*
X148753129Y-131010296D01*
X148753129Y-131010296D02*
X148797639Y-131054807D01*
X148797639Y-131054807D02*
X148886660Y-131099317D01*
X148886660Y-131099317D02*
X148975681Y-131099317D01*
X148975681Y-131099317D02*
X149064702Y-131054807D01*
X149064702Y-131054807D02*
X149109212Y-131010296D01*
X149109212Y-131010296D02*
X149153723Y-130921275D01*
X149153723Y-130921275D02*
X149198233Y-130743233D01*
X149198233Y-130743233D02*
X149242744Y-130654212D01*
X149242744Y-130654212D02*
X149287254Y-130609702D01*
X149287254Y-130609702D02*
X149376275Y-130565191D01*
X149376275Y-130565191D02*
X149465296Y-130565191D01*
X149465296Y-130565191D02*
X149554317Y-130609702D01*
X149554317Y-130609702D02*
X149598828Y-130654212D01*
X149598828Y-130654212D02*
X149643338Y-130743233D01*
X149643338Y-130743233D02*
X149643338Y-130965786D01*
X149643338Y-130965786D02*
X149598828Y-131099317D01*
X149198233Y-131811485D02*
X149153723Y-131945017D01*
X149153723Y-131945017D02*
X149109212Y-131989527D01*
X149109212Y-131989527D02*
X149020191Y-132034038D01*
X149020191Y-132034038D02*
X148886660Y-132034038D01*
X148886660Y-132034038D02*
X148797639Y-131989527D01*
X148797639Y-131989527D02*
X148753129Y-131945017D01*
X148753129Y-131945017D02*
X148708618Y-131855996D01*
X148708618Y-131855996D02*
X148708618Y-131499912D01*
X148708618Y-131499912D02*
X149643338Y-131499912D01*
X149643338Y-131499912D02*
X149643338Y-131811485D01*
X149643338Y-131811485D02*
X149598828Y-131900506D01*
X149598828Y-131900506D02*
X149554317Y-131945017D01*
X149554317Y-131945017D02*
X149465296Y-131989527D01*
X149465296Y-131989527D02*
X149376275Y-131989527D01*
X149376275Y-131989527D02*
X149287254Y-131945017D01*
X149287254Y-131945017D02*
X149242744Y-131900506D01*
X149242744Y-131900506D02*
X149198233Y-131811485D01*
X149198233Y-131811485D02*
X149198233Y-131499912D01*
D11*
X114641333Y-149871580D02*
X114593714Y-149919200D01*
X114593714Y-149919200D02*
X114450857Y-149966819D01*
X114450857Y-149966819D02*
X114355619Y-149966819D01*
X114355619Y-149966819D02*
X114212762Y-149919200D01*
X114212762Y-149919200D02*
X114117524Y-149823961D01*
X114117524Y-149823961D02*
X114069905Y-149728723D01*
X114069905Y-149728723D02*
X114022286Y-149538247D01*
X114022286Y-149538247D02*
X114022286Y-149395390D01*
X114022286Y-149395390D02*
X114069905Y-149204914D01*
X114069905Y-149204914D02*
X114117524Y-149109676D01*
X114117524Y-149109676D02*
X114212762Y-149014438D01*
X114212762Y-149014438D02*
X114355619Y-148966819D01*
X114355619Y-148966819D02*
X114450857Y-148966819D01*
X114450857Y-148966819D02*
X114593714Y-149014438D01*
X114593714Y-149014438D02*
X114641333Y-149062057D01*
X114974667Y-148966819D02*
X115593714Y-148966819D01*
X115593714Y-148966819D02*
X115260381Y-149347771D01*
X115260381Y-149347771D02*
X115403238Y-149347771D01*
X115403238Y-149347771D02*
X115498476Y-149395390D01*
X115498476Y-149395390D02*
X115546095Y-149443009D01*
X115546095Y-149443009D02*
X115593714Y-149538247D01*
X115593714Y-149538247D02*
X115593714Y-149776342D01*
X115593714Y-149776342D02*
X115546095Y-149871580D01*
X115546095Y-149871580D02*
X115498476Y-149919200D01*
X115498476Y-149919200D02*
X115403238Y-149966819D01*
X115403238Y-149966819D02*
X115117524Y-149966819D01*
X115117524Y-149966819D02*
X115022286Y-149919200D01*
X115022286Y-149919200D02*
X114974667Y-149871580D01*
X130897333Y-149458819D02*
X130564000Y-148982628D01*
X130325905Y-149458819D02*
X130325905Y-148458819D01*
X130325905Y-148458819D02*
X130706857Y-148458819D01*
X130706857Y-148458819D02*
X130802095Y-148506438D01*
X130802095Y-148506438D02*
X130849714Y-148554057D01*
X130849714Y-148554057D02*
X130897333Y-148649295D01*
X130897333Y-148649295D02*
X130897333Y-148792152D01*
X130897333Y-148792152D02*
X130849714Y-148887390D01*
X130849714Y-148887390D02*
X130802095Y-148935009D01*
X130802095Y-148935009D02*
X130706857Y-148982628D01*
X130706857Y-148982628D02*
X130325905Y-148982628D01*
X131278286Y-148554057D02*
X131325905Y-148506438D01*
X131325905Y-148506438D02*
X131421143Y-148458819D01*
X131421143Y-148458819D02*
X131659238Y-148458819D01*
X131659238Y-148458819D02*
X131754476Y-148506438D01*
X131754476Y-148506438D02*
X131802095Y-148554057D01*
X131802095Y-148554057D02*
X131849714Y-148649295D01*
X131849714Y-148649295D02*
X131849714Y-148744533D01*
X131849714Y-148744533D02*
X131802095Y-148887390D01*
X131802095Y-148887390D02*
X131230667Y-149458819D01*
X131230667Y-149458819D02*
X131849714Y-149458819D01*
X89894819Y-53043333D02*
X90609104Y-53043333D01*
X90609104Y-53043333D02*
X90751961Y-53090952D01*
X90751961Y-53090952D02*
X90847200Y-53186190D01*
X90847200Y-53186190D02*
X90894819Y-53329047D01*
X90894819Y-53329047D02*
X90894819Y-53424285D01*
X89894819Y-52138571D02*
X89894819Y-52329047D01*
X89894819Y-52329047D02*
X89942438Y-52424285D01*
X89942438Y-52424285D02*
X89990057Y-52471904D01*
X89990057Y-52471904D02*
X90132914Y-52567142D01*
X90132914Y-52567142D02*
X90323390Y-52614761D01*
X90323390Y-52614761D02*
X90704342Y-52614761D01*
X90704342Y-52614761D02*
X90799580Y-52567142D01*
X90799580Y-52567142D02*
X90847200Y-52519523D01*
X90847200Y-52519523D02*
X90894819Y-52424285D01*
X90894819Y-52424285D02*
X90894819Y-52233809D01*
X90894819Y-52233809D02*
X90847200Y-52138571D01*
X90847200Y-52138571D02*
X90799580Y-52090952D01*
X90799580Y-52090952D02*
X90704342Y-52043333D01*
X90704342Y-52043333D02*
X90466247Y-52043333D01*
X90466247Y-52043333D02*
X90371009Y-52090952D01*
X90371009Y-52090952D02*
X90323390Y-52138571D01*
X90323390Y-52138571D02*
X90275771Y-52233809D01*
X90275771Y-52233809D02*
X90275771Y-52424285D01*
X90275771Y-52424285D02*
X90323390Y-52519523D01*
X90323390Y-52519523D02*
X90371009Y-52567142D01*
X90371009Y-52567142D02*
X90466247Y-52614761D01*
X106364819Y-66373333D02*
X107079104Y-66373333D01*
X107079104Y-66373333D02*
X107221961Y-66420952D01*
X107221961Y-66420952D02*
X107317200Y-66516190D01*
X107317200Y-66516190D02*
X107364819Y-66659047D01*
X107364819Y-66659047D02*
X107364819Y-66754285D01*
X107364819Y-65373333D02*
X107364819Y-65944761D01*
X107364819Y-65659047D02*
X106364819Y-65659047D01*
X106364819Y-65659047D02*
X106507676Y-65754285D01*
X106507676Y-65754285D02*
X106602914Y-65849523D01*
X106602914Y-65849523D02*
X106650533Y-65944761D01*
X114514333Y-145140819D02*
X114181000Y-144664628D01*
X113942905Y-145140819D02*
X113942905Y-144140819D01*
X113942905Y-144140819D02*
X114323857Y-144140819D01*
X114323857Y-144140819D02*
X114419095Y-144188438D01*
X114419095Y-144188438D02*
X114466714Y-144236057D01*
X114466714Y-144236057D02*
X114514333Y-144331295D01*
X114514333Y-144331295D02*
X114514333Y-144474152D01*
X114514333Y-144474152D02*
X114466714Y-144569390D01*
X114466714Y-144569390D02*
X114419095Y-144617009D01*
X114419095Y-144617009D02*
X114323857Y-144664628D01*
X114323857Y-144664628D02*
X113942905Y-144664628D01*
X115371476Y-144474152D02*
X115371476Y-145140819D01*
X115133381Y-144093200D02*
X114895286Y-144807485D01*
X114895286Y-144807485D02*
X115514333Y-144807485D01*
X56983333Y-113324819D02*
X56650000Y-112848628D01*
X56411905Y-113324819D02*
X56411905Y-112324819D01*
X56411905Y-112324819D02*
X56792857Y-112324819D01*
X56792857Y-112324819D02*
X56888095Y-112372438D01*
X56888095Y-112372438D02*
X56935714Y-112420057D01*
X56935714Y-112420057D02*
X56983333Y-112515295D01*
X56983333Y-112515295D02*
X56983333Y-112658152D01*
X56983333Y-112658152D02*
X56935714Y-112753390D01*
X56935714Y-112753390D02*
X56888095Y-112801009D01*
X56888095Y-112801009D02*
X56792857Y-112848628D01*
X56792857Y-112848628D02*
X56411905Y-112848628D01*
X57888095Y-112324819D02*
X57411905Y-112324819D01*
X57411905Y-112324819D02*
X57364286Y-112801009D01*
X57364286Y-112801009D02*
X57411905Y-112753390D01*
X57411905Y-112753390D02*
X57507143Y-112705771D01*
X57507143Y-112705771D02*
X57745238Y-112705771D01*
X57745238Y-112705771D02*
X57840476Y-112753390D01*
X57840476Y-112753390D02*
X57888095Y-112801009D01*
X57888095Y-112801009D02*
X57935714Y-112896247D01*
X57935714Y-112896247D02*
X57935714Y-113134342D01*
X57935714Y-113134342D02*
X57888095Y-113229580D01*
X57888095Y-113229580D02*
X57840476Y-113277200D01*
X57840476Y-113277200D02*
X57745238Y-113324819D01*
X57745238Y-113324819D02*
X57507143Y-113324819D01*
X57507143Y-113324819D02*
X57411905Y-113277200D01*
X57411905Y-113277200D02*
X57364286Y-113229580D01*
X130476666Y-119699819D02*
X130476666Y-120414104D01*
X130476666Y-120414104D02*
X130429047Y-120556961D01*
X130429047Y-120556961D02*
X130333809Y-120652200D01*
X130333809Y-120652200D02*
X130190952Y-120699819D01*
X130190952Y-120699819D02*
X130095714Y-120699819D01*
X131429047Y-119699819D02*
X130952857Y-119699819D01*
X130952857Y-119699819D02*
X130905238Y-120176009D01*
X130905238Y-120176009D02*
X130952857Y-120128390D01*
X130952857Y-120128390D02*
X131048095Y-120080771D01*
X131048095Y-120080771D02*
X131286190Y-120080771D01*
X131286190Y-120080771D02*
X131381428Y-120128390D01*
X131381428Y-120128390D02*
X131429047Y-120176009D01*
X131429047Y-120176009D02*
X131476666Y-120271247D01*
X131476666Y-120271247D02*
X131476666Y-120509342D01*
X131476666Y-120509342D02*
X131429047Y-120604580D01*
X131429047Y-120604580D02*
X131381428Y-120652200D01*
X131381428Y-120652200D02*
X131286190Y-120699819D01*
X131286190Y-120699819D02*
X131048095Y-120699819D01*
X131048095Y-120699819D02*
X130952857Y-120652200D01*
X130952857Y-120652200D02*
X130905238Y-120604580D01*
X112214820Y-150696333D02*
X112929105Y-150696333D01*
X112929105Y-150696333D02*
X113071962Y-150743952D01*
X113071962Y-150743952D02*
X113167201Y-150839190D01*
X113167201Y-150839190D02*
X113214820Y-150982047D01*
X113214820Y-150982047D02*
X113214820Y-151077285D01*
X112214820Y-150315380D02*
X112214820Y-149648714D01*
X112214820Y-149648714D02*
X113214820Y-150077285D01*
X131304819Y-84153333D02*
X132019104Y-84153333D01*
X132019104Y-84153333D02*
X132161961Y-84200952D01*
X132161961Y-84200952D02*
X132257200Y-84296190D01*
X132257200Y-84296190D02*
X132304819Y-84439047D01*
X132304819Y-84439047D02*
X132304819Y-84534285D01*
X131304819Y-83772380D02*
X131304819Y-83153333D01*
X131304819Y-83153333D02*
X131685771Y-83486666D01*
X131685771Y-83486666D02*
X131685771Y-83343809D01*
X131685771Y-83343809D02*
X131733390Y-83248571D01*
X131733390Y-83248571D02*
X131781009Y-83200952D01*
X131781009Y-83200952D02*
X131876247Y-83153333D01*
X131876247Y-83153333D02*
X132114342Y-83153333D01*
X132114342Y-83153333D02*
X132209580Y-83200952D01*
X132209580Y-83200952D02*
X132257200Y-83248571D01*
X132257200Y-83248571D02*
X132304819Y-83343809D01*
X132304819Y-83343809D02*
X132304819Y-83629523D01*
X132304819Y-83629523D02*
X132257200Y-83724761D01*
X132257200Y-83724761D02*
X132209580Y-83772380D01*
X130897333Y-146410819D02*
X130564000Y-145934628D01*
X130325905Y-146410819D02*
X130325905Y-145410819D01*
X130325905Y-145410819D02*
X130706857Y-145410819D01*
X130706857Y-145410819D02*
X130802095Y-145458438D01*
X130802095Y-145458438D02*
X130849714Y-145506057D01*
X130849714Y-145506057D02*
X130897333Y-145601295D01*
X130897333Y-145601295D02*
X130897333Y-145744152D01*
X130897333Y-145744152D02*
X130849714Y-145839390D01*
X130849714Y-145839390D02*
X130802095Y-145887009D01*
X130802095Y-145887009D02*
X130706857Y-145934628D01*
X130706857Y-145934628D02*
X130325905Y-145934628D01*
X131849714Y-146410819D02*
X131278286Y-146410819D01*
X131564000Y-146410819D02*
X131564000Y-145410819D01*
X131564000Y-145410819D02*
X131468762Y-145553676D01*
X131468762Y-145553676D02*
X131373524Y-145648914D01*
X131373524Y-145648914D02*
X131278286Y-145696533D01*
X149526666Y-75884818D02*
X149526666Y-76599103D01*
X149526666Y-76599103D02*
X149479047Y-76741960D01*
X149479047Y-76741960D02*
X149383809Y-76837199D01*
X149383809Y-76837199D02*
X149240952Y-76884818D01*
X149240952Y-76884818D02*
X149145714Y-76884818D01*
X150431428Y-76218151D02*
X150431428Y-76884818D01*
X150193333Y-75837199D02*
X149955238Y-76551484D01*
X149955238Y-76551484D02*
X150574285Y-76551484D01*
X149544818Y-63833333D02*
X150259103Y-63833333D01*
X150259103Y-63833333D02*
X150401960Y-63880952D01*
X150401960Y-63880952D02*
X150497199Y-63976190D01*
X150497199Y-63976190D02*
X150544818Y-64119047D01*
X150544818Y-64119047D02*
X150544818Y-64214285D01*
X149640056Y-63404761D02*
X149592437Y-63357142D01*
X149592437Y-63357142D02*
X149544818Y-63261904D01*
X149544818Y-63261904D02*
X149544818Y-63023809D01*
X149544818Y-63023809D02*
X149592437Y-62928571D01*
X149592437Y-62928571D02*
X149640056Y-62880952D01*
X149640056Y-62880952D02*
X149735294Y-62833333D01*
X149735294Y-62833333D02*
X149830532Y-62833333D01*
X149830532Y-62833333D02*
X149973389Y-62880952D01*
X149973389Y-62880952D02*
X150544818Y-63452380D01*
X150544818Y-63452380D02*
X150544818Y-62833333D01*
X87717333Y-53793580D02*
X87669714Y-53841200D01*
X87669714Y-53841200D02*
X87526857Y-53888819D01*
X87526857Y-53888819D02*
X87431619Y-53888819D01*
X87431619Y-53888819D02*
X87288762Y-53841200D01*
X87288762Y-53841200D02*
X87193524Y-53745961D01*
X87193524Y-53745961D02*
X87145905Y-53650723D01*
X87145905Y-53650723D02*
X87098286Y-53460247D01*
X87098286Y-53460247D02*
X87098286Y-53317390D01*
X87098286Y-53317390D02*
X87145905Y-53126914D01*
X87145905Y-53126914D02*
X87193524Y-53031676D01*
X87193524Y-53031676D02*
X87288762Y-52936438D01*
X87288762Y-52936438D02*
X87431619Y-52888819D01*
X87431619Y-52888819D02*
X87526857Y-52888819D01*
X87526857Y-52888819D02*
X87669714Y-52936438D01*
X87669714Y-52936438D02*
X87717333Y-52984057D01*
X88669714Y-53888819D02*
X88098286Y-53888819D01*
X88384000Y-53888819D02*
X88384000Y-52888819D01*
X88384000Y-52888819D02*
X88288762Y-53031676D01*
X88288762Y-53031676D02*
X88193524Y-53126914D01*
X88193524Y-53126914D02*
X88098286Y-53174533D01*
X127321819Y-84429333D02*
X128036104Y-84429333D01*
X128036104Y-84429333D02*
X128178961Y-84476952D01*
X128178961Y-84476952D02*
X128274200Y-84572190D01*
X128274200Y-84572190D02*
X128321819Y-84715047D01*
X128321819Y-84715047D02*
X128321819Y-84810285D01*
X128321819Y-83953142D02*
X127321819Y-83953142D01*
X127321819Y-83953142D02*
X127321819Y-83572190D01*
X127321819Y-83572190D02*
X127369438Y-83476952D01*
X127369438Y-83476952D02*
X127417057Y-83429333D01*
X127417057Y-83429333D02*
X127512295Y-83381714D01*
X127512295Y-83381714D02*
X127655152Y-83381714D01*
X127655152Y-83381714D02*
X127750390Y-83429333D01*
X127750390Y-83429333D02*
X127798009Y-83476952D01*
X127798009Y-83476952D02*
X127845628Y-83572190D01*
X127845628Y-83572190D02*
X127845628Y-83953142D01*
X128321819Y-82429333D02*
X128321819Y-83000761D01*
X128321819Y-82715047D02*
X127321819Y-82715047D01*
X127321819Y-82715047D02*
X127464676Y-82810285D01*
X127464676Y-82810285D02*
X127559914Y-82905523D01*
X127559914Y-82905523D02*
X127607533Y-83000761D01*
X129121819Y-81329331D02*
X129121819Y-80710284D01*
X129121819Y-80710284D02*
X129502771Y-81043617D01*
X129502771Y-81043617D02*
X129502771Y-80900760D01*
X129502771Y-80900760D02*
X129550390Y-80805522D01*
X129550390Y-80805522D02*
X129598009Y-80757903D01*
X129598009Y-80757903D02*
X129693247Y-80710284D01*
X129693247Y-80710284D02*
X129931342Y-80710284D01*
X129931342Y-80710284D02*
X130026580Y-80757903D01*
X130026580Y-80757903D02*
X130074200Y-80805522D01*
X130074200Y-80805522D02*
X130121819Y-80900760D01*
X130121819Y-80900760D02*
X130121819Y-81186474D01*
X130121819Y-81186474D02*
X130074200Y-81281712D01*
X130074200Y-81281712D02*
X130026580Y-81329331D01*
X130121819Y-85910286D02*
X130121819Y-86481714D01*
X130121819Y-86196000D02*
X129121819Y-86196000D01*
X129121819Y-86196000D02*
X129264676Y-86291238D01*
X129264676Y-86291238D02*
X129359914Y-86386476D01*
X129359914Y-86386476D02*
X129407533Y-86481714D01*
D13*
%TO.C,J8*%
X54562000Y-111870001D02*
X51802000Y-111870001D01*
X51802001Y-91330001D01*
X54562000Y-91330001D01*
X54562000Y-111870001D01*
X59762001Y-110490001D02*
X59762000Y-111760001D01*
X59762000Y-111760001D02*
X58492000Y-111760002D01*
X57414642Y-108380001D02*
X57029358Y-108380001D01*
X57414642Y-107520001D02*
X57029358Y-107520001D01*
X57414642Y-105840001D02*
X57029357Y-105840001D01*
X57414642Y-104980001D02*
X57029358Y-104980002D01*
X57414642Y-103300001D02*
X57029358Y-103300001D01*
X57414642Y-102440001D02*
X57029358Y-102440000D01*
X57414642Y-100760001D02*
X57029358Y-100760001D01*
X57414642Y-99900001D02*
X57029358Y-99900001D01*
X57414642Y-98220001D02*
X57029358Y-98220001D01*
X57414642Y-97360001D02*
X57029358Y-97360001D01*
X57414642Y-95680001D02*
X57029357Y-95680001D01*
X57414642Y-94820001D02*
X57029358Y-94820001D01*
X57414642Y-93140001D02*
X57029358Y-93140001D01*
X57414642Y-92280001D02*
X57029357Y-92280001D01*
X57332000Y-110920001D02*
X57029358Y-110920001D01*
X57332000Y-110060001D02*
X57029358Y-110060001D01*
X54874643Y-110920001D02*
X54562000Y-110920001D01*
X54874643Y-110060001D02*
X54562000Y-110060001D01*
X54874643Y-100760001D02*
X54562000Y-100760001D01*
X54874643Y-97360001D02*
X54562000Y-97360001D01*
X54874642Y-108380001D02*
X54562000Y-108380001D01*
X54874642Y-107520000D02*
X54562000Y-107520001D01*
X54874642Y-105840001D02*
X54562000Y-105840001D01*
X54874642Y-104980001D02*
X54562000Y-104980001D01*
X54874642Y-103300001D02*
X54562000Y-103300001D01*
X54874642Y-102440001D02*
X54562000Y-102440001D01*
X54874642Y-99900001D02*
X54562000Y-99900001D01*
X54874642Y-98220001D02*
X54562000Y-98220001D01*
X54874642Y-95680001D02*
X54562000Y-95680001D01*
X54874642Y-94820001D02*
X54562000Y-94820001D01*
X54874642Y-93140001D02*
X54562000Y-93140001D01*
X54874642Y-92280001D02*
X54562000Y-92280001D01*
X54562000Y-109220001D02*
X51802000Y-109220001D01*
X54562000Y-106680001D02*
X51802000Y-106680001D01*
X54562000Y-104140001D02*
X51802001Y-104140001D01*
X54562000Y-101600001D02*
X51802000Y-101600001D01*
X54562000Y-99060001D02*
X51802000Y-99060001D01*
X54562000Y-96520001D02*
X51802000Y-96520001D01*
X54562000Y-93980001D02*
X51802001Y-93980001D01*
%TO.C,C2*%
X54612000Y-115462267D02*
X54612000Y-115169733D01*
X53592000Y-115462267D02*
X53592000Y-115169733D01*
%TO.C,R3*%
X81280724Y-54976500D02*
X80771276Y-54976500D01*
X81280724Y-56021500D02*
X80771276Y-56021500D01*
%TO.C,U1*%
X98990000Y-121910000D02*
X149990000Y-121910000D01*
X98990000Y-139710000D02*
X98990000Y-121910000D01*
X149990000Y-121910000D02*
X149990000Y-139710001D01*
X149990000Y-124390001D02*
X98990000Y-124390000D01*
X149990000Y-126810000D02*
X151190000Y-126810000D01*
X149990000Y-137189999D02*
X98990000Y-137190000D01*
X149990000Y-139710001D02*
X98990000Y-139710000D01*
X150290000Y-121610000D02*
X147890000Y-121610000D01*
X150290000Y-123909999D02*
X150290000Y-121610000D01*
X151190000Y-126810000D02*
X151190000Y-134810000D01*
X151190000Y-134810000D02*
X149990000Y-134810000D01*
%TO.C,C3*%
X114954267Y-147572000D02*
X114661733Y-147572000D01*
X114954267Y-148592000D02*
X114661733Y-148592000D01*
%TO.C,R2*%
X131318724Y-147051500D02*
X130809276Y-147051500D01*
X131318724Y-148096500D02*
X130809276Y-148096500D01*
%TO.C,J6*%
X91440000Y-59635000D02*
X91439999Y-58365000D01*
X92280000Y-54747643D02*
X92280000Y-54435000D01*
X92280000Y-57205000D02*
X92280000Y-56902358D01*
X92710000Y-59635001D02*
X91440000Y-59635000D01*
X93140000Y-54747643D02*
X93140000Y-54435000D01*
X93140000Y-57205000D02*
X93140000Y-56902358D01*
X93980000Y-54435000D02*
X93980000Y-51675000D01*
X94820000Y-54747642D02*
X94820000Y-54435000D01*
X94820000Y-57287642D02*
X94820000Y-56902358D01*
X95680000Y-57287642D02*
X95680000Y-56902358D01*
X95680001Y-54747642D02*
X95680000Y-54435000D01*
X96520000Y-54435000D02*
X96520000Y-51675000D01*
X97360000Y-54747642D02*
X97360000Y-54435000D01*
X97360000Y-57287642D02*
X97360000Y-56902357D01*
X98220000Y-54747642D02*
X98220000Y-54435000D01*
X98220000Y-57287642D02*
X98219999Y-56902358D01*
X99060000Y-54435000D02*
X99060000Y-51675001D01*
X99900000Y-54747642D02*
X99900000Y-54435000D01*
X99900000Y-57287642D02*
X99900000Y-56902358D01*
X100760000Y-54747642D02*
X100760000Y-54435000D01*
X100760000Y-57287642D02*
X100760001Y-56902358D01*
X101600000Y-54435000D02*
X101600000Y-51675000D01*
X102440000Y-54747643D02*
X102440000Y-54435000D01*
X102440000Y-57287642D02*
X102440000Y-56902358D01*
X103300000Y-54747642D02*
X103300000Y-54435000D01*
X103300000Y-57287642D02*
X103300000Y-56902358D01*
X104140000Y-54435000D02*
X104140000Y-51675000D01*
X104980000Y-54747642D02*
X104980000Y-54435000D01*
X104980000Y-57287642D02*
X104980000Y-56902358D01*
X105840000Y-54747643D02*
X105840000Y-54435000D01*
X105840000Y-57287642D02*
X105840000Y-56902358D01*
X106680000Y-54435000D02*
X106680000Y-51675000D01*
X107520000Y-54747642D02*
X107520000Y-54435000D01*
X107520000Y-57287642D02*
X107520000Y-56902357D01*
X108380000Y-54747642D02*
X108380000Y-54435000D01*
X108380000Y-57287642D02*
X108380000Y-56902358D01*
X109220000Y-54435000D02*
X109220000Y-51675001D01*
X110060000Y-54747642D02*
X110060000Y-54435000D01*
X110060000Y-57287642D02*
X110060000Y-56902358D01*
X110920000Y-54747642D02*
X110920000Y-54435000D01*
X110920000Y-57287642D02*
X110920000Y-56902357D01*
X111870000Y-54435000D02*
X91330000Y-54435000D01*
X91330000Y-51675000D01*
X111870000Y-51675001D01*
X111870000Y-54435000D01*
%TO.C,J1*%
X82490000Y-64710000D02*
X82490000Y-67370000D01*
X102869999Y-64710000D02*
X82490000Y-64710000D01*
X102869999Y-64710000D02*
X102869999Y-67370000D01*
X102869999Y-67370000D02*
X82490000Y-67370000D01*
X105470000Y-66040000D02*
X105470000Y-67370000D01*
X105470000Y-67370000D02*
X104140000Y-67370000D01*
%TO.C,R4*%
X114935724Y-142733500D02*
X114426276Y-142733500D01*
X114935724Y-143778500D02*
X114426276Y-143778500D01*
%TO.C,R5*%
X56895276Y-113777500D02*
X57404724Y-113777500D01*
X56895276Y-114822500D02*
X57404724Y-114822500D01*
%TO.C,J5*%
X129480000Y-116204999D02*
X129480000Y-95825000D01*
X129480000Y-118805000D02*
X129480000Y-117475000D01*
X130810000Y-118805000D02*
X129480000Y-118805000D01*
X132140000Y-95825000D02*
X129480000Y-95825000D01*
X132140000Y-116204999D02*
X129480000Y-116204999D01*
X132140000Y-116204999D02*
X132140000Y-95825000D01*
%TO.C,J7*%
X92280001Y-145785358D02*
X92280001Y-146170643D01*
X92280001Y-148325358D02*
X92280001Y-148638000D01*
X93140001Y-145785358D02*
X93140001Y-146170642D01*
X93140001Y-148325358D02*
X93140001Y-148638000D01*
X93980001Y-148638000D02*
X93980001Y-151397999D01*
X94820001Y-145785358D02*
X94820001Y-146170642D01*
X94820001Y-148325358D02*
X94820001Y-148638000D01*
X95680001Y-145785358D02*
X95680001Y-146170643D01*
X95680001Y-148325358D02*
X95680001Y-148638000D01*
X96520001Y-148638000D02*
X96520001Y-151398000D01*
X97360001Y-145785358D02*
X97360001Y-146170642D01*
X97360001Y-148325357D02*
X97360001Y-148638000D01*
X98220001Y-145785358D02*
X98220001Y-146170642D01*
X98220001Y-148325358D02*
X98220001Y-148638000D01*
X99060001Y-148638000D02*
X99060001Y-151398000D01*
X99900001Y-145785358D02*
X99900001Y-146170642D01*
X99900001Y-148325358D02*
X99900001Y-148638000D01*
X100760001Y-145785358D02*
X100760001Y-146170642D01*
X100760001Y-148325357D02*
X100760001Y-148638000D01*
X101600001Y-148638000D02*
X101600001Y-151398000D01*
X102440001Y-145785358D02*
X102440000Y-146170642D01*
X102440001Y-148325358D02*
X102440001Y-148638000D01*
X103300001Y-145785358D02*
X103300001Y-146170642D01*
X103300001Y-148325358D02*
X103300001Y-148638000D01*
X104140001Y-148638000D02*
X104140001Y-151397999D01*
X104980001Y-145785358D02*
X104980002Y-146170642D01*
X104980001Y-148325358D02*
X104980001Y-148638000D01*
X105840001Y-145785358D02*
X105840001Y-146170643D01*
X105840001Y-148325358D02*
X105840001Y-148638000D01*
X106680001Y-148638000D02*
X106680001Y-151398000D01*
X107520000Y-148325358D02*
X107520001Y-148638000D01*
X107520001Y-145785358D02*
X107520001Y-146170642D01*
X108380001Y-145785358D02*
X108380001Y-146170642D01*
X108380001Y-148325358D02*
X108380001Y-148638000D01*
X109220001Y-148638000D02*
X109220001Y-151398000D01*
X110060001Y-145868000D02*
X110060001Y-146170642D01*
X110060001Y-148325357D02*
X110060001Y-148638000D01*
X110490001Y-143437999D02*
X111760001Y-143438000D01*
X110920001Y-145868000D02*
X110920001Y-146170642D01*
X110920001Y-148325357D02*
X110920001Y-148638000D01*
X111760001Y-143438000D02*
X111760002Y-144708000D01*
X111870001Y-151398000D02*
X91330001Y-151397999D01*
X91330001Y-148638000D01*
X111870001Y-148638000D01*
X111870001Y-151398000D01*
%TO.C,J3*%
X133290000Y-82490000D02*
X134620000Y-82490000D01*
X133290000Y-83820000D02*
X133290000Y-82490000D01*
X135890001Y-82490000D02*
X138490000Y-82490000D01*
X135890001Y-85150000D02*
X135890001Y-82490000D01*
X135890001Y-85150000D02*
X138490000Y-85150000D01*
X138490000Y-85150000D02*
X138490000Y-82490000D01*
%TO.C,R1*%
X131318724Y-144003500D02*
X130809276Y-144003500D01*
X131318724Y-145048500D02*
X130809276Y-145048500D01*
%TO.C,J4*%
X148530000Y-72389998D02*
X148530000Y-67250000D01*
X148530000Y-74989999D02*
X148530000Y-73659999D01*
X149860000Y-74989999D02*
X148530000Y-74989999D01*
X151190000Y-67250000D02*
X148530000Y-67250000D01*
X151190000Y-72389998D02*
X148530000Y-72389998D01*
X151190000Y-72389998D02*
X151190000Y-67250000D01*
%TO.C,J2*%
X133289999Y-62170000D02*
X133289999Y-64830000D01*
X146049998Y-62170000D02*
X133289999Y-62170000D01*
X146049998Y-62170000D02*
X146049998Y-64830000D01*
X146049998Y-64830000D02*
X133289999Y-64830000D01*
X148649999Y-63500000D02*
X148649999Y-64830000D01*
X148649999Y-64830000D02*
X147319999Y-64830000D01*
%TO.C,C1*%
X87737733Y-54354000D02*
X88030267Y-54354000D01*
X87737733Y-55374000D02*
X88030267Y-55374000D01*
%TO.C,JP1*%
X128667000Y-81546000D02*
X130667000Y-81546000D01*
X128667000Y-85646000D02*
X128667000Y-81546000D01*
X130667000Y-81546000D02*
X130667000Y-85646000D01*
X130667000Y-85646000D02*
X128667000Y-85646000D01*
%TD*%
M02*
