M48
; DRILL file KiCad 10.0.5 date 2026-08-29T00:28:10
; FORMAT={-:-/ absolute / metric / decimal}
; #@! TF.CreationDate,2026-08-29T00:28:10-07:00
; #@! TF.GenerationSoftware,Kicad,Pcbnew,10.0.5
; #@! TF.FileFunction,Plated,1,4,PTH
FMAT,2
METRIC
; #@! TA.AperFunction,Plated,PTH,ViaDrill
T1C0.300
; #@! TA.AperFunction,Plated,PTH,ComponentDrill
T2C1.000
; #@! TA.AperFunction,Plated,PTH,ComponentDrill
T3C1.100
; #@! TA.AperFunction,Plated,PTH,ComponentDrill
T4C3.200
%
G90
G05
T1
X54.102Y-117.247
X56.312Y-113.325
X57.262Y-113.426
X61.214Y-113.284
X61.78Y-112.718
X61.976Y-106.045
X62.317Y-102.951
X62.317Y-103.799
X62.351Y-105.15
X62.992Y-108.585
X63.246Y-106.68
X63.627Y-107.442
X63.754Y-109.22
X64.164Y-110.871
X65.278Y-111.506
X83.566Y-58.166
X84.836Y-58.166
X85.598Y-54.864
X96.647Y-64.262
X97.79Y-64.262
X99.568Y-149.987
X101.854Y-149.352
X102.977Y-131.973
X103.886Y-131.953
X107.696Y-108.966
X108.585Y-109.855
X109.093Y-53.975
X109.536Y-148.936
X109.855Y-53.34
X111.887Y-148.844
X115.062Y-146.05
X115.57Y-145.161
X118.491Y-147.574
X119.38Y-147.574
X125.73Y-147.482
X125.73Y-148.844
X126.619Y-146.812
X126.619Y-149.098
X127.889Y-146.812
X128.524Y-146.05
X129.159Y-88.138
X130.302Y-88.138
X132.842Y-149.098
X132.969Y-148.082
T2
X55.952Y-92.71
X55.952Y-95.25
X55.952Y-97.79
X55.952Y-100.33
X55.952Y-102.87
X55.952Y-105.41
X55.952Y-107.95
X55.952Y-110.49
X58.492Y-92.71
X58.492Y-95.25
X58.492Y-97.79
X58.492Y-100.33
X58.492Y-102.87
X58.492Y-105.41
X58.492Y-107.95
X58.492Y-110.49
X83.82Y-66.04
X86.36Y-66.04
X88.9Y-66.04
X91.44Y-66.04
X92.71Y-55.825
X92.71Y-58.365
X92.71Y-144.708
X92.71Y-147.248
X93.98Y-66.04
X95.25Y-55.825
X95.25Y-58.365
X95.25Y-144.708
X95.25Y-147.248
X96.52Y-66.04
X97.79Y-58.365
X97.79Y-55.825
X97.79Y-144.708
X97.79Y-147.248
X99.06Y-66.04
X100.33Y-55.825
X100.33Y-58.365
X100.33Y-144.708
X100.33Y-147.248
X101.6Y-66.04
X102.87Y-55.825
X102.87Y-58.365
X102.87Y-144.708
X102.87Y-147.248
X104.14Y-66.04
X105.41Y-55.825
X105.41Y-58.365
X105.41Y-147.248
X105.41Y-144.708
X107.95Y-55.825
X107.95Y-58.365
X107.95Y-144.708
X107.95Y-147.248
X110.49Y-55.825
X110.49Y-58.365
X110.49Y-144.708
X110.49Y-147.248
X130.81Y-97.155
X130.81Y-99.695
X130.81Y-102.235
X130.81Y-104.775
X130.81Y-107.315
X130.81Y-109.855
X130.81Y-112.395
X130.81Y-114.935
X130.81Y-117.475
X134.62Y-63.5
X134.62Y-83.82
X137.16Y-63.5
X137.16Y-83.82
X139.7Y-63.5
X142.24Y-63.5
X144.78Y-63.5
X147.32Y-63.5
X149.86Y-68.58
X149.86Y-71.12
X149.86Y-73.66
T3
X100.33Y-123.19
X100.33Y-138.43
X102.87Y-123.19
X102.87Y-138.43
X105.41Y-123.19
X105.41Y-138.43
X107.95Y-123.19
X107.95Y-138.43
X110.49Y-138.43
X110.49Y-123.19
X113.03Y-123.19
X113.03Y-138.43
X115.57Y-123.19
X115.57Y-138.43
X118.11Y-123.19
X118.11Y-138.43
X120.65Y-138.43
X120.65Y-123.19
X123.19Y-123.19
X123.19Y-138.43
X125.73Y-123.19
X125.73Y-138.43
X128.27Y-123.19
X128.27Y-138.43
X130.81Y-123.19
X130.81Y-138.43
X133.35Y-123.19
X133.35Y-138.43
X135.89Y-123.19
X135.89Y-138.43
X138.43Y-123.19
X138.43Y-138.43
X140.97Y-123.19
X140.97Y-138.43
X143.51Y-138.43
X143.51Y-123.19
X146.05Y-123.19
X146.05Y-138.43
X148.59Y-123.19
X148.59Y-138.43
T4
X55.88Y-55.88
X55.88Y-147.32
X147.32Y-55.88
X147.32Y-147.32
M30
