%TF.GenerationSoftware,KiCad,Pcbnew,10.0.5*%
%TF.CreationDate,2026-08-29T00:27:55-07:00*%
%TF.ProjectId,daisy_carrier,64616973-795f-4636-9172-726965722e6b,rev?*%
%TF.SameCoordinates,Original*%
%TF.FileFunction,Soldermask,Top*%
%TF.FilePolarity,Negative*%
%FSLAX46Y46*%
G04 Gerber Fmt 4.6, Leading zero omitted, Abs format (unit mm)*
G04 Created by KiCad (PCBNEW 10.0.5) date 2026-08-29 00:27:55*
%MOMM*%
%LPD*%
G01*
G04 APERTURE LIST*
G04 Aperture macros list*
%AMRoundRect*
0 Rectangle with rounded corners*
0 $1 Rounding radius*
0 $2 $3 $4 $5 $6 $7 $8 $9 X,Y pos of 4 corners*
0 Add a 4 corners polygon primitive as box body*
4,1,4,$2,$3,$4,$5,$6,$7,$8,$9,$2,$3,0*
0 Add four circle primitives for the rounded corners*
1,1,$1+$1,$2,$3*
1,1,$1+$1,$4,$5*
1,1,$1+$1,$6,$7*
1,1,$1+$1,$8,$9*
0 Add four rect primitives between the rounded corners*
20,1,$1+$1,$2,$3,$4,$5,0*
20,1,$1+$1,$4,$5,$6,$7,0*
20,1,$1+$1,$6,$7,$8,$9,0*
20,1,$1+$1,$8,$9,$2,$3,0*%
G04 Aperture macros list end*
%ADD10C,0.000000*%
%ADD11C,1.700000*%
%ADD12R,1.700000X1.700000*%
%ADD13RoundRect,0.237500X0.237500X-0.300000X0.237500X0.300000X-0.237500X0.300000X-0.237500X-0.300000X0*%
%ADD14C,6.400000*%
%ADD15RoundRect,0.237500X0.250000X0.237500X-0.250000X0.237500X-0.250000X-0.237500X0.250000X-0.237500X0*%
%ADD16RoundRect,0.237500X0.300000X0.237500X-0.300000X0.237500X-0.300000X-0.237500X0.300000X-0.237500X0*%
%ADD17RoundRect,0.237500X-0.250000X-0.237500X0.250000X-0.237500X0.250000X0.237500X-0.250000X0.237500X0*%
%ADD18RoundRect,0.237500X-0.300000X-0.237500X0.300000X-0.237500X0.300000X0.237500X-0.300000X0.237500X0*%
%ADD19R,1.500000X1.000000*%
G04 APERTURE END LIST*
D10*
%TO.C,JP1*%
G36*
X130417001Y-84396000D02*
G01*
X128916999Y-84396000D01*
X128916999Y-82796000D01*
X130417001Y-82796000D01*
X130417001Y-84396000D01*
G37*
%TD*%
D11*
%TO.C,J8*%
X55952000Y-92710001D03*
X58492000Y-92710000D03*
X55952000Y-95250001D03*
X58492000Y-95250001D03*
X55952000Y-97790001D03*
X58492000Y-97790001D03*
X55952000Y-100330001D03*
X58492000Y-100330001D03*
X55952000Y-102870001D03*
X58492000Y-102870001D03*
X55952000Y-105410001D03*
X58492000Y-105410002D03*
X55952000Y-107950001D03*
X58492000Y-107950001D03*
X55952000Y-110490001D03*
D12*
X58492000Y-110490001D03*
%TD*%
D13*
%TO.C,C2*%
X54102000Y-114453499D03*
X54102000Y-116178501D03*
%TD*%
D14*
%TO.C,REF\u002A\u002A*%
X55880000Y-147320000D03*
%TD*%
%TO.C,REF\u002A\u002A*%
X147320000Y-147320000D03*
%TD*%
%TO.C,REF\u002A\u002A*%
X55880000Y-55880000D03*
%TD*%
%TO.C,REF\u002A\u002A*%
X147320000Y-55880000D03*
%TD*%
D15*
%TO.C,R3*%
X81938500Y-55499000D03*
X80113500Y-55499000D03*
%TD*%
D12*
%TO.C,U1*%
X148590000Y-123190000D03*
D11*
X146050000Y-123190000D03*
X143510001Y-123190000D03*
X140970000Y-123190000D03*
X138430000Y-123190000D03*
X135890000Y-123190000D03*
X133350000Y-123190000D03*
X130809999Y-123190000D03*
X128270000Y-123190000D03*
X125730000Y-123190000D03*
X123190000Y-123190000D03*
X120650001Y-123190000D03*
X118110000Y-123190000D03*
X115570000Y-123190000D03*
X113030000Y-123190000D03*
X110490001Y-123190000D03*
X107949999Y-123190000D03*
X105410000Y-123190000D03*
X102870000Y-123190000D03*
X100330000Y-123190000D03*
X100330000Y-138430000D03*
X102870000Y-138430000D03*
X105410000Y-138430000D03*
X107950000Y-138430000D03*
X110490000Y-138430000D03*
X113030000Y-138430000D03*
X115570000Y-138430000D03*
X118110000Y-138430000D03*
X120650000Y-138430000D03*
X123190000Y-138430000D03*
X125730000Y-138430000D03*
X128270000Y-138430000D03*
X130810000Y-138430000D03*
X133350000Y-138430000D03*
X135890000Y-138430000D03*
X138430000Y-138430000D03*
X140970000Y-138430000D03*
X143510000Y-138430000D03*
X146050000Y-138430000D03*
X148590000Y-138430000D03*
%TD*%
D16*
%TO.C,C3*%
X115670501Y-148082000D03*
X113945499Y-148082000D03*
%TD*%
D15*
%TO.C,R2*%
X131976500Y-147574000D03*
X130151500Y-147574000D03*
%TD*%
D12*
%TO.C,J6*%
X92710000Y-58365000D03*
D11*
X92710000Y-55825000D03*
X95250000Y-58365000D03*
X95250000Y-55825000D03*
X97789999Y-58365000D03*
X97790000Y-55825000D03*
X100330000Y-58365000D03*
X100330000Y-55825000D03*
X102870000Y-58365000D03*
X102870000Y-55825000D03*
X105410000Y-58365000D03*
X105410000Y-55825000D03*
X107950000Y-58365000D03*
X107950000Y-55825000D03*
X110490001Y-58365000D03*
X110490000Y-55825000D03*
%TD*%
D12*
%TO.C,J1*%
X104140000Y-66040000D03*
D11*
X101600000Y-66040000D03*
X99060001Y-66040000D03*
X96520000Y-66040000D03*
X93980000Y-66040000D03*
X91440000Y-66040000D03*
X88900000Y-66040000D03*
X86359999Y-66040000D03*
X83820000Y-66040000D03*
%TD*%
D15*
%TO.C,R4*%
X115593500Y-143256000D03*
X113768500Y-143256000D03*
%TD*%
D17*
%TO.C,R5*%
X56237500Y-114300000D03*
X58062500Y-114300000D03*
%TD*%
D12*
%TO.C,J5*%
X130810000Y-117475000D03*
D11*
X130810000Y-114935000D03*
X130810000Y-112395001D03*
X130810000Y-109855000D03*
X130810000Y-107315000D03*
X130810000Y-104775000D03*
X130810000Y-102235000D03*
X130810000Y-99694999D03*
X130810000Y-97155000D03*
%TD*%
D12*
%TO.C,J7*%
X110490001Y-144708000D03*
D11*
X110490001Y-147248000D03*
X107950001Y-144708000D03*
X107950001Y-147248000D03*
X105410002Y-144708000D03*
X105410001Y-147248000D03*
X102870001Y-144708000D03*
X102870001Y-147248000D03*
X100330001Y-144708000D03*
X100330001Y-147248000D03*
X97790001Y-144708000D03*
X97790001Y-147248000D03*
X95250001Y-144708000D03*
X95250001Y-147248000D03*
X92710000Y-144708000D03*
X92710001Y-147248000D03*
%TD*%
D12*
%TO.C,J3*%
X134620000Y-83820000D03*
D11*
X137160000Y-83820000D03*
%TD*%
D15*
%TO.C,R1*%
X131976500Y-144526000D03*
X130151500Y-144526000D03*
%TD*%
D12*
%TO.C,J4*%
X149860000Y-73659999D03*
D11*
X149860000Y-71119999D03*
X149860000Y-68580000D03*
%TD*%
D12*
%TO.C,J2*%
X147319999Y-63500000D03*
D11*
X144779999Y-63500000D03*
X142240000Y-63500000D03*
X139699999Y-63500000D03*
X137159999Y-63500000D03*
X134619999Y-63500000D03*
%TD*%
D18*
%TO.C,C1*%
X87021500Y-54864000D03*
X88746500Y-54864000D03*
%TD*%
D19*
%TO.C,JP1*%
X129667000Y-84896000D03*
X129667000Y-83596000D03*
X129667000Y-82296000D03*
%TD*%
M02*
