%TF.GenerationSoftware,KiCad,Pcbnew,10.0.5*%
%TF.CreationDate,2026-08-30T10:07:25-07:00*%
%TF.ProjectId,daisy_pots_breakout,64616973-795f-4706-9f74-735f62726561,rev?*%
%TF.SameCoordinates,Original*%
%TF.FileFunction,Copper,L1,Top*%
%TF.FilePolarity,Positive*%
%FSLAX46Y46*%
G04 Gerber Fmt 4.6, Leading zero omitted, Abs format (unit mm)*
G04 Created by KiCad (PCBNEW 10.0.5) date 2026-08-30 10:07:25*
%MOMM*%
%LPD*%
G01*
G04 APERTURE LIST*
G04 Aperture macros list*
%AMRoundRect*
0 Rectangle with rounded corners*
0 $1 Rounding radius*
0 $2 $3 $4 $5 $6 $7 $8 $9 X,Y pos of 4 corners*
0 Add a 4 corners polygon primitive as box body*
4,1,4,$2,$3,$4,$5,$6,$7,$8,$9,$2,$3,0*
0 Add four circle primitives for the rounded corners*
1,1,$1+$1,$2,$3*
1,1,$1+$1,$4,$5*
1,1,$1+$1,$6,$7*
1,1,$1+$1,$8,$9*
0 Add four rect primitives between the rounded corners*
20,1,$1+$1,$2,$3,$4,$5,0*
20,1,$1+$1,$4,$5,$6,$7,0*
20,1,$1+$1,$6,$7,$8,$9,0*
20,1,$1+$1,$8,$9,$2,$3,0*%
G04 Aperture macros list end*
%TA.AperFunction,ComponentPad*%
%ADD10R,1.700000X1.700000*%
%TD*%
%TA.AperFunction,ComponentPad*%
%ADD11C,1.700000*%
%TD*%
%TA.AperFunction,ComponentPad*%
%ADD12C,6.400000*%
%TD*%
%TA.AperFunction,ComponentPad*%
%ADD13R,1.500000X1.500000*%
%TD*%
%TA.AperFunction,ComponentPad*%
%ADD14C,1.500000*%
%TD*%
%TA.AperFunction,ComponentPad*%
%ADD15C,4.350000*%
%TD*%
%TA.AperFunction,SMDPad,CuDef*%
%ADD16RoundRect,0.237500X0.300000X0.237500X-0.300000X0.237500X-0.300000X-0.237500X0.300000X-0.237500X0*%
%TD*%
%TA.AperFunction,ComponentPad*%
%ADD17R,2.000000X2.000000*%
%TD*%
%TA.AperFunction,ComponentPad*%
%ADD18C,2.000000*%
%TD*%
%TA.AperFunction,ComponentPad*%
%ADD19R,3.200000X2.000000*%
%TD*%
%TA.AperFunction,SMDPad,CuDef*%
%ADD20RoundRect,0.150000X0.150000X-0.825000X0.150000X0.825000X-0.150000X0.825000X-0.150000X-0.825000X0*%
%TD*%
%TA.AperFunction,ComponentPad*%
%ADD21R,1.800000X1.800000*%
%TD*%
%TA.AperFunction,ComponentPad*%
%ADD22C,1.800000*%
%TD*%
%TA.AperFunction,ComponentPad*%
%ADD23RoundRect,0.750000X-1.250000X-0.750000X1.250000X-0.750000X1.250000X0.750000X-1.250000X0.750000X0*%
%TD*%
%TA.AperFunction,ComponentPad*%
%ADD24RoundRect,0.750000X1.250000X0.750000X-1.250000X0.750000X-1.250000X-0.750000X1.250000X-0.750000X0*%
%TD*%
%TA.AperFunction,SMDPad,CuDef*%
%ADD25RoundRect,0.237500X-0.237500X0.300000X-0.237500X-0.300000X0.237500X-0.300000X0.237500X0.300000X0*%
%TD*%
%TA.AperFunction,ViaPad*%
%ADD26C,0.600000*%
%TD*%
%TA.AperFunction,Conductor*%
%ADD27C,0.200000*%
%TD*%
%TA.AperFunction,Conductor*%
%ADD28C,0.400000*%
%TD*%
%TA.AperFunction,Conductor*%
%ADD29C,0.300000*%
%TD*%
G04 APERTURE END LIST*
D10*
%TO.P,J1,1*%
%TO.N,GND*%
X91110000Y-88100000D03*
D11*
%TO.P,J1,2*%
%TO.N,/ADC*%
X91110000Y-90640000D03*
%TO.P,J1,3*%
%TO.N,GND*%
X93650000Y-88100000D03*
%TO.P,J1,4*%
%TO.N,unconnected-(J1-Pin_4-Pad4)*%
X93650000Y-90640000D03*
%TO.P,J1,5*%
%TO.N,unconnected-(J1-Pin_5-Pad5)*%
X96190000Y-88100000D03*
%TO.P,J1,6*%
%TO.N,unconnected-(J1-Pin_6-Pad6)*%
X96190000Y-90640000D03*
%TO.P,J1,7*%
%TO.N,/A_S0*%
X98730000Y-88100000D03*
%TO.P,J1,8*%
%TO.N,/A_S1*%
X98730000Y-90640000D03*
%TO.P,J1,9*%
%TO.N,/A_S2*%
X101270000Y-88100000D03*
%TO.P,J1,10*%
%TO.N,unconnected-(J1-Pin_10-Pad10)*%
X101270000Y-90640000D03*
%TO.P,J1,11*%
%TO.N,/ENC_A*%
X103810000Y-88100000D03*
%TO.P,J1,12*%
%TO.N,/ENC_B*%
X103810000Y-90640000D03*
%TO.P,J1,13*%
%TO.N,GND*%
X106350000Y-88100000D03*
%TO.P,J1,14*%
%TO.N,/ENC_SW*%
X106350000Y-90640000D03*
%TO.P,J1,15*%
%TO.N,+3.3VA*%
X108890000Y-88100000D03*
%TO.P,J1,16*%
%TO.N,GND*%
X108890000Y-90640000D03*
%TD*%
D12*
%TO.P,REF\u002A\u002A,1*%
%TO.N,N/C*%
X54280000Y-42280000D03*
%TD*%
D13*
%TO.P,VR3,1,CCW_1*%
%TO.N,GND*%
X134000000Y-48500000D03*
D14*
%TO.P,VR3,2,WIPER1_2*%
%TO.N,/JOY3_X*%
X134000000Y-46000000D03*
%TO.P,VR3,3,CW_3*%
%TO.N,+3.3VA*%
X134000000Y-43500000D03*
D15*
%TO.P,VR3,5,MH1_5*%
%TO.N,unconnected-(VR3-MH1-Pad5)*%
X124000000Y-52750000D03*
%TO.P,VR3,6,MH2_6*%
%TO.N,unconnected-(VR3-MH2-Pad6)*%
X124000000Y-41750000D03*
D14*
%TO.P,VR3,A2,WIPER2_A2*%
%TO.N,/JOY3_Y*%
X134000000Y-51000000D03*
%TD*%
D16*
%TO.P,C2,1*%
%TO.N,+3.3VA*%
X107542501Y-84000000D03*
%TO.P,C2,2*%
%TO.N,GND*%
X105817499Y-84000000D03*
%TD*%
D13*
%TO.P,VR2,1,CCW_1*%
%TO.N,GND*%
X110000000Y-48500000D03*
D14*
%TO.P,VR2,2,WIPER1_2*%
%TO.N,/JOY2_X*%
X110000000Y-46000000D03*
%TO.P,VR2,3,CW_3*%
%TO.N,+3.3VA*%
X110000000Y-43500000D03*
D15*
%TO.P,VR2,5,MH1_5*%
%TO.N,unconnected-(VR2-MH1-Pad5)*%
X100000000Y-52750000D03*
%TO.P,VR2,6,MH2_6*%
%TO.N,unconnected-(VR2-MH2-Pad6)*%
X100000000Y-41750000D03*
D14*
%TO.P,VR2,A2,WIPER2_A2*%
%TO.N,/JOY2_Y*%
X110000000Y-51000000D03*
%TD*%
D12*
%TO.P,REF\u002A\u002A,1*%
%TO.N,N/C*%
X54280000Y-95720000D03*
%TD*%
D17*
%TO.P,SW1,A,A_A*%
%TO.N,/ENC_A*%
X92500000Y-66500000D03*
D18*
%TO.P,SW1,B,B_B*%
%TO.N,/ENC_B*%
X92500000Y-71500000D03*
%TO.P,SW1,C,C_C*%
%TO.N,GND*%
X92500000Y-69000000D03*
D19*
%TO.P,SW1,MP*%
%TO.N,N/C*%
X100000000Y-63400000D03*
X100000000Y-74600000D03*
D18*
%TO.P,SW1,S1,S1_S1*%
%TO.N,/ENC_SW*%
X107000000Y-71500000D03*
%TO.P,SW1,S2,S2_S2*%
%TO.N,GND*%
X107000000Y-66500000D03*
%TD*%
D20*
%TO.P,U1,1*%
%TO.N,/JOY1_Y*%
X73555000Y-82475000D03*
%TO.P,U1,2*%
%TO.N,/JOY1_X*%
X74825000Y-82475000D03*
%TO.P,U1,3*%
%TO.N,/ADC*%
X76095000Y-82475000D03*
%TO.P,U1,4*%
%TO.N,/JOY2_Y*%
X77365000Y-82475000D03*
%TO.P,U1,5*%
%TO.N,/JOY2_X*%
X78635000Y-82475000D03*
%TO.P,U1,6*%
%TO.N,GND*%
X79905000Y-82475000D03*
%TO.P,U1,7*%
X81175000Y-82475000D03*
%TO.P,U1,8*%
X82445000Y-82475000D03*
%TO.P,U1,9*%
%TO.N,/A_S2*%
X82445000Y-77525000D03*
%TO.P,U1,10*%
%TO.N,/A_S1*%
X81175000Y-77525000D03*
%TO.P,U1,11*%
%TO.N,/A_S0*%
X79905000Y-77525000D03*
%TO.P,U1,12*%
%TO.N,/JOY3_X*%
X78635000Y-77525000D03*
%TO.P,U1,13*%
%TO.N,/JOY3_Y*%
X77365000Y-77525000D03*
%TO.P,U1,14*%
%TO.N,/POT2*%
X76095000Y-77525000D03*
%TO.P,U1,15*%
%TO.N,/POT1*%
X74825000Y-77525000D03*
%TO.P,U1,16*%
%TO.N,+3.3VA*%
X73555000Y-77525000D03*
%TD*%
D12*
%TO.P,REF\u002A\u002A,1*%
%TO.N,N/C*%
X145720000Y-42280000D03*
%TD*%
D21*
%TO.P,RV2,1,1_1*%
%TO.N,+3.3VA*%
X136000000Y-66500000D03*
D22*
%TO.P,RV2,2,2_2*%
%TO.N,/POT2*%
X136000000Y-69000000D03*
%TO.P,RV2,3,3_3*%
%TO.N,GND*%
X136000000Y-71500000D03*
D23*
%TO.P,RV2,MP*%
%TO.N,N/C*%
X143000000Y-64600000D03*
X143000000Y-73400000D03*
%TD*%
D21*
%TO.P,RV1,1,1_1*%
%TO.N,+3.3VA*%
X64000000Y-71500000D03*
D22*
%TO.P,RV1,2,2_2*%
%TO.N,/POT1*%
X64000000Y-69000000D03*
%TO.P,RV1,3,3_3*%
%TO.N,GND*%
X64000000Y-66500000D03*
D24*
%TO.P,RV1,MP*%
%TO.N,N/C*%
X57000000Y-73400000D03*
X57000000Y-64600000D03*
%TD*%
D13*
%TO.P,VR1,1,CCW_1*%
%TO.N,GND*%
X86000000Y-48500000D03*
D14*
%TO.P,VR1,2,WIPER1_2*%
%TO.N,/JOY1_X*%
X86000000Y-46000000D03*
%TO.P,VR1,3,CW_3*%
%TO.N,+3.3VA*%
X86000000Y-43500000D03*
D15*
%TO.P,VR1,5,MH1_5*%
%TO.N,unconnected-(VR1-MH1-Pad5)*%
X76000000Y-52750000D03*
%TO.P,VR1,6,MH2_6*%
%TO.N,unconnected-(VR1-MH2-Pad6)*%
X76000000Y-41750000D03*
D14*
%TO.P,VR1,A2,WIPER2_A2*%
%TO.N,/JOY1_Y*%
X86000000Y-51000000D03*
%TD*%
D25*
%TO.P,C1,1*%
%TO.N,+3.3VA*%
X72000000Y-77637500D03*
%TO.P,C1,2*%
%TO.N,GND*%
X72000000Y-79362500D03*
%TD*%
D12*
%TO.P,REF\u002A\u002A,1*%
%TO.N,N/C*%
X145720000Y-95720000D03*
%TD*%
D26*
%TO.N,GND*%
X104648000Y-84074000D03*
%TO.N,+3.3VA*%
X109220000Y-83820000D03*
%TO.N,GND*%
X72000000Y-80862000D03*
X81175000Y-84675000D03*
%TO.N,/JOY3_X*%
X94000000Y-74200000D03*
X103400000Y-64200000D03*
%TO.N,/JOY3_Y*%
X116000000Y-64200000D03*
X92000000Y-73400000D03*
%TO.N,/JOY2_X*%
X78600000Y-79200000D03*
X90600000Y-64200000D03*
%TO.N,/JOY2_Y*%
X77400000Y-79200000D03*
X95800000Y-63400000D03*
%TO.N,/ENC_B*%
X96600000Y-75800000D03*
X111000000Y-87376000D03*
%TO.N,/JOY1_Y*%
X73600000Y-81600000D03*
X75600000Y-75800000D03*
%TO.N,/JOY1_X*%
X74800000Y-75400000D03*
X74800000Y-79200000D03*
%TO.N,/A_S1*%
X81200000Y-78800000D03*
%TD*%
%TO.N,GND*%
D27*
X104722000Y-84000000D02*
X104648000Y-84074000D01*
X105817499Y-84000000D02*
X104722000Y-84000000D01*
%TO.N,/ENC_B*%
X103800000Y-90600000D02*
X103810000Y-90640000D01*
X110400000Y-92600000D02*
X105600000Y-92600000D01*
X111000000Y-87376000D02*
X111000000Y-92000000D01*
X111000000Y-92000000D02*
X110400000Y-92600000D01*
X103800000Y-90800000D02*
X103800000Y-90600000D01*
X105600000Y-92600000D02*
X103800000Y-90800000D01*
%TO.N,+3.3VA*%
D28*
X107722501Y-83820000D02*
X109220000Y-83820000D01*
X107542501Y-84000000D02*
X107722501Y-83820000D01*
X107542501Y-86752501D02*
X107542501Y-84000000D01*
X108890000Y-88100000D02*
X107542501Y-86752501D01*
%TO.N,GND*%
D29*
X79905000Y-82475000D02*
X82445000Y-82475000D01*
X72000000Y-79362000D02*
X72000000Y-80862000D01*
X81175000Y-82475000D02*
X81175000Y-84675000D01*
%TO.N,/JOY3_X*%
D27*
X78600000Y-76400000D02*
X80800000Y-74200000D01*
X103400000Y-64200000D02*
X121600000Y-46000000D01*
X78600000Y-77600000D02*
X78600000Y-76400000D01*
X121600000Y-46000000D02*
X134000000Y-46000000D01*
X80800000Y-74200000D02*
X94000000Y-74200000D01*
X78635000Y-77525000D02*
X78600000Y-77600000D01*
%TO.N,+3.3VA*%
D28*
X111000000Y-44600000D02*
X133000000Y-44600000D01*
X86000000Y-43600000D02*
X87000000Y-44600000D01*
X64000000Y-71600000D02*
X63400000Y-71600000D01*
X78600000Y-44600000D02*
X85000000Y-44600000D01*
X134000000Y-43500000D02*
X134000000Y-43600000D01*
X86000000Y-43600000D02*
X86000000Y-43500000D01*
X134000000Y-43600000D02*
X134400000Y-43600000D01*
X136000000Y-66400000D02*
X136000000Y-66500000D01*
X110000000Y-43500000D02*
X110000000Y-43600000D01*
X62400000Y-60800000D02*
X78600000Y-44600000D01*
X66000000Y-71600000D02*
X64000000Y-71600000D01*
X64000000Y-71600000D02*
X64000000Y-71500000D01*
X110000000Y-43600000D02*
X110000000Y-43500000D01*
X73600000Y-77600000D02*
X72000000Y-77600000D01*
X72000000Y-77600000D02*
X66000000Y-71600000D01*
X85000000Y-44600000D02*
X86000000Y-43600000D01*
X87000000Y-44600000D02*
X109000000Y-44600000D01*
X63400000Y-71600000D02*
X62400000Y-70600000D01*
X134000000Y-43600000D02*
X134000000Y-43500000D01*
X64000000Y-71500000D02*
X64000000Y-71600000D01*
X110000000Y-43600000D02*
X111000000Y-44600000D01*
X109000000Y-44600000D02*
X110000000Y-43600000D01*
X136000000Y-45200000D02*
X136000000Y-66400000D01*
X73555000Y-77525000D02*
X73600000Y-77600000D01*
X108800000Y-88000000D02*
X108890000Y-88100000D01*
X86000000Y-43500000D02*
X86000000Y-43600000D01*
X134400000Y-43600000D02*
X136000000Y-45200000D01*
X133000000Y-44600000D02*
X134000000Y-43600000D01*
X72000000Y-77600000D02*
X72000000Y-77638000D01*
X62400000Y-70600000D02*
X62400000Y-60800000D01*
X72000000Y-77638000D02*
X72000000Y-77600000D01*
%TO.N,/JOY3_Y*%
D27*
X120800000Y-64200000D02*
X134000000Y-51000000D01*
X80400000Y-73400000D02*
X92000000Y-73400000D01*
X116000000Y-64200000D02*
X120800000Y-64200000D01*
X77365000Y-77525000D02*
X77400000Y-77600000D01*
X77400000Y-77600000D02*
X77400000Y-76400000D01*
X77400000Y-76400000D02*
X80400000Y-73400000D01*
%TO.N,/JOY2_X*%
X108800000Y-47200000D02*
X110000000Y-46000000D01*
X78600000Y-82400000D02*
X78600000Y-79200000D01*
X94000000Y-64200000D02*
X108800000Y-49400000D01*
X78635000Y-82475000D02*
X78600000Y-82400000D01*
X108800000Y-49400000D02*
X108800000Y-47200000D01*
X90600000Y-64200000D02*
X94000000Y-64200000D01*
%TO.N,/JOY2_Y*%
X77400000Y-82400000D02*
X77400000Y-79200000D01*
X108200000Y-51000000D02*
X110000000Y-51000000D01*
X95800000Y-63400000D02*
X108200000Y-51000000D01*
X77365000Y-82475000D02*
X77400000Y-82400000D01*
%TO.N,/ENC_A*%
X92400000Y-66400000D02*
X92500000Y-66500000D01*
X97400000Y-70800000D02*
X93000000Y-66400000D01*
X93000000Y-66400000D02*
X92400000Y-66400000D01*
X97400000Y-81600000D02*
X97400000Y-70800000D01*
X103800000Y-88000000D02*
X97400000Y-81600000D01*
X103810000Y-88100000D02*
X103800000Y-88000000D01*
%TO.N,/ENC_B*%
X92400000Y-71600000D02*
X92500000Y-71500000D01*
X96600000Y-75800000D02*
X92400000Y-71600000D01*
%TO.N,/ENC_SW*%
X106400000Y-90600000D02*
X106400000Y-90800000D01*
X107000000Y-71600000D02*
X107000000Y-71500000D01*
X110200000Y-92000000D02*
X110200000Y-74800000D01*
X106350000Y-90640000D02*
X106400000Y-90600000D01*
X110200000Y-74800000D02*
X107000000Y-71600000D01*
X106400000Y-90800000D02*
X107600000Y-92000000D01*
X107600000Y-92000000D02*
X110200000Y-92000000D01*
%TO.N,/JOY1_Y*%
X73600000Y-82400000D02*
X73600000Y-81600000D01*
X75600000Y-75800000D02*
X86000000Y-65400000D01*
X73555000Y-82475000D02*
X73600000Y-82400000D01*
X86000000Y-65400000D02*
X86000000Y-51000000D01*
%TO.N,/JOY1_X*%
X84800000Y-65400000D02*
X84800000Y-47200000D01*
X74825000Y-82475000D02*
X74800000Y-82400000D01*
X84800000Y-47200000D02*
X86000000Y-46000000D01*
X74800000Y-82400000D02*
X74800000Y-79200000D01*
X74800000Y-75400000D02*
X84800000Y-65400000D01*
%TO.N,/ADC*%
X91200000Y-90600000D02*
X91110000Y-90640000D01*
X76095000Y-82475000D02*
X76000000Y-82400000D01*
X76000000Y-82400000D02*
X76000000Y-83400000D01*
X76000000Y-83400000D02*
X83200000Y-90600000D01*
X83200000Y-90600000D02*
X91200000Y-90600000D01*
%TO.N,/A_S2*%
X82400000Y-77600000D02*
X91000000Y-77600000D01*
X101200000Y-88000000D02*
X101270000Y-88100000D01*
X82445000Y-77525000D02*
X82400000Y-77600000D01*
X91000000Y-77600000D02*
X101200000Y-87800000D01*
X101200000Y-87800000D02*
X101200000Y-88000000D01*
%TO.N,/A_S1*%
X81200000Y-77600000D02*
X81200000Y-78800000D01*
X81175000Y-77525000D02*
X81200000Y-77600000D01*
%TO.N,/A_S0*%
X80000000Y-78600000D02*
X81200000Y-79800000D01*
X90600000Y-79800000D02*
X98800000Y-88000000D01*
X79905000Y-77525000D02*
X80000000Y-77600000D01*
X98800000Y-88000000D02*
X98730000Y-88100000D01*
X81200000Y-79800000D02*
X90600000Y-79800000D01*
X80000000Y-77600000D02*
X80000000Y-78600000D01*
%TO.N,/POT2*%
X131600000Y-65000000D02*
X135600000Y-69000000D01*
X135600000Y-69000000D02*
X136000000Y-69000000D01*
X76000000Y-77600000D02*
X76000000Y-76600000D01*
X76095000Y-77525000D02*
X76000000Y-77600000D01*
X87600000Y-65000000D02*
X131600000Y-65000000D01*
X76000000Y-76600000D02*
X87600000Y-65000000D01*
%TO.N,/POT1*%
X74825000Y-77525000D02*
X74800000Y-77600000D01*
X67400000Y-69000000D02*
X64000000Y-69000000D01*
X74800000Y-76400000D02*
X67400000Y-69000000D01*
X74800000Y-77600000D02*
X74800000Y-76400000D01*
%TD*%
M02*
