%TF.GenerationSoftware,KiCad,Pcbnew,10.0.5*%
%TF.CreationDate,2026-08-30T10:07:26-07:00*%
%TF.ProjectId,daisy_pots_breakout,64616973-795f-4706-9f74-735f62726561,rev?*%
%TF.SameCoordinates,Original*%
%TF.FileFunction,Legend,Top*%
%TF.FilePolarity,Positive*%
%FSLAX46Y46*%
G04 Gerber Fmt 4.6, Leading zero omitted, Abs format (unit mm)*
G04 Created by KiCad (PCBNEW 10.0.5) date 2026-08-30 10:07:26*
%MOMM*%
%LPD*%
G01*
G04 APERTURE LIST*
%ADD10C,0.300000*%
%ADD11C,0.150000*%
%ADD12C,0.254000*%
%ADD13C,0.120000*%
%ADD14C,0.200000*%
%ADD15C,0.100000*%
G04 APERTURE END LIST*
D10*
G36*
X124561090Y-82684589D02*
G01*
X124612382Y-82702430D01*
X124650205Y-82729867D01*
X124677573Y-82767680D01*
X124695374Y-82818971D01*
X124701985Y-82888014D01*
X124701985Y-84573656D01*
X124695706Y-84641006D01*
X124678837Y-84690944D01*
X124653014Y-84727651D01*
X124617024Y-84754063D01*
X124566786Y-84771442D01*
X124497554Y-84777965D01*
X124428353Y-84771583D01*
X124375999Y-84754295D01*
X124336598Y-84727651D01*
X124307549Y-84690472D01*
X124288891Y-84640500D01*
X124282009Y-84573656D01*
X124282009Y-84444818D01*
X124227299Y-84573656D01*
X124190459Y-84631206D01*
X124144745Y-84680024D01*
X124089857Y-84719638D01*
X124021524Y-84751343D01*
X123944684Y-84770850D01*
X123847990Y-84777965D01*
X123744783Y-84770777D01*
X123658954Y-84750689D01*
X123587505Y-84719225D01*
X123523279Y-84674865D01*
X123468947Y-84620582D01*
X123423740Y-84555460D01*
X123373837Y-84443253D01*
X123339842Y-84303401D01*
X123322222Y-84152933D01*
X123316131Y-83985642D01*
X123736004Y-83985642D01*
X123745774Y-84128401D01*
X123760003Y-84198937D01*
X123782166Y-84261392D01*
X123814600Y-84316640D01*
X123857759Y-84360799D01*
X123912007Y-84389730D01*
X123982445Y-84400000D01*
X124044858Y-84393605D01*
X124101392Y-84374842D01*
X124151998Y-84344111D01*
X124195181Y-84302058D01*
X124229968Y-84250574D01*
X124258196Y-84187264D01*
X124275810Y-84117336D01*
X124282009Y-84035956D01*
X124282009Y-83923970D01*
X124277025Y-83852442D01*
X124262348Y-83785362D01*
X124238250Y-83722701D01*
X124206416Y-83669225D01*
X124165685Y-83623959D01*
X124116779Y-83589480D01*
X124061250Y-83567515D01*
X123999176Y-83560048D01*
X123920974Y-83570509D01*
X123863377Y-83599249D01*
X123817818Y-83644024D01*
X123783510Y-83701465D01*
X123760288Y-83766491D01*
X123745774Y-83838607D01*
X123736004Y-83985642D01*
X123316131Y-83985642D01*
X123316029Y-83982833D01*
X123322613Y-83842891D01*
X123342529Y-83701465D01*
X123380028Y-83565359D01*
X123437784Y-83443911D01*
X123488876Y-83371360D01*
X123550651Y-83308572D01*
X123624019Y-83254867D01*
X123705553Y-83215890D01*
X123805005Y-83190935D01*
X123926392Y-83181960D01*
X124013541Y-83190499D01*
X124090759Y-83215284D01*
X124160132Y-83256210D01*
X124217336Y-83311726D01*
X124257791Y-83380287D01*
X124282009Y-83464794D01*
X124282009Y-82888014D01*
X124288620Y-82818971D01*
X124306421Y-82767680D01*
X124333789Y-82729867D01*
X124371614Y-82702435D01*
X124422943Y-82684592D01*
X124492058Y-82677965D01*
X124561090Y-82684589D01*
G37*
G36*
X126237852Y-83187969D02*
G01*
X126279884Y-83203564D01*
X126307637Y-83226779D01*
X126330587Y-83279419D01*
X126329986Y-83366852D01*
X126296402Y-83660799D01*
X126282480Y-83956210D01*
X126286271Y-84106994D01*
X126297868Y-84264200D01*
X126318079Y-84424156D01*
X126349647Y-84598813D01*
X126356842Y-84686659D01*
X126341221Y-84735956D01*
X126318636Y-84757227D01*
X126280066Y-84772038D01*
X126218000Y-84777965D01*
X126125832Y-84766520D01*
X126054235Y-84734612D01*
X126016359Y-84701270D01*
X125987913Y-84656862D01*
X125968872Y-84598813D01*
X125952020Y-84503558D01*
X125926863Y-84548377D01*
X125849866Y-84648155D01*
X125757480Y-84719225D01*
X125687107Y-84751077D01*
X125606116Y-84770976D01*
X125512383Y-84777965D01*
X125413269Y-84768218D01*
X125316378Y-84738764D01*
X125227352Y-84689032D01*
X125146995Y-84615666D01*
X125081514Y-84522740D01*
X125026584Y-84400000D01*
X124992822Y-84260842D01*
X124980422Y-84083583D01*
X124981078Y-84072348D01*
X125400397Y-84072348D01*
X125413648Y-84207347D01*
X125449368Y-84307676D01*
X125488744Y-84359510D01*
X125538480Y-84389541D01*
X125602020Y-84400000D01*
X125654443Y-84393214D01*
X125708387Y-84372034D01*
X125758081Y-84337568D01*
X125804986Y-84286549D01*
X125843040Y-84223575D01*
X125874961Y-84139637D01*
X125894395Y-84045123D01*
X125901584Y-83923970D01*
X125893157Y-83775593D01*
X125881172Y-83711350D01*
X125863848Y-83660799D01*
X125838735Y-83617668D01*
X125807794Y-83586671D01*
X125769369Y-83567035D01*
X125719623Y-83560048D01*
X125645411Y-83570765D01*
X125582358Y-83602058D01*
X125528850Y-83650197D01*
X125482951Y-83714043D01*
X125447908Y-83788017D01*
X125421402Y-83876465D01*
X125405765Y-83970518D01*
X125400397Y-84072348D01*
X124981078Y-84072348D01*
X124991172Y-83899520D01*
X125022431Y-83730774D01*
X125075419Y-83573683D01*
X125145652Y-83443789D01*
X125204774Y-83367679D01*
X125271800Y-83304101D01*
X125347274Y-83252058D01*
X125430090Y-83213647D01*
X125521866Y-83190097D01*
X125624490Y-83181960D01*
X125710237Y-83189421D01*
X125781123Y-83210361D01*
X125840034Y-83243632D01*
X125899073Y-83297069D01*
X125949211Y-83364043D01*
X125975290Y-83283302D01*
X126021995Y-83226779D01*
X126085422Y-83194090D01*
X126175990Y-83181960D01*
X126237852Y-83187969D01*
G37*
G36*
X127927334Y-84372034D02*
G01*
X128013728Y-84384758D01*
X128068628Y-84418196D01*
X128102154Y-84473123D01*
X128114912Y-84559612D01*
X128101892Y-84646107D01*
X128067285Y-84702372D01*
X128011020Y-84736979D01*
X127924525Y-84750000D01*
X126933265Y-84750000D01*
X126846770Y-84736979D01*
X126790505Y-84702372D01*
X126755899Y-84646107D01*
X126742878Y-84559612D01*
X126755607Y-84473111D01*
X126789040Y-84418196D01*
X126844042Y-84384753D01*
X126930457Y-84372034D01*
X127252491Y-84372034D01*
X127252491Y-83800750D01*
X127242093Y-83729339D01*
X127214633Y-83683147D01*
X127169529Y-83654722D01*
X127098496Y-83643946D01*
X126994815Y-83643946D01*
X126905497Y-83631230D01*
X126847903Y-83597784D01*
X126821904Y-83563831D01*
X126805134Y-83517997D01*
X126798932Y-83456489D01*
X126805100Y-83394875D01*
X126821851Y-83348449D01*
X126847903Y-83313607D01*
X126905639Y-83279050D01*
X126994815Y-83265980D01*
X127336510Y-83265980D01*
X127445329Y-83276605D01*
X127527181Y-83305399D01*
X127588447Y-83350000D01*
X127633042Y-83411268D01*
X127661838Y-83493156D01*
X127672466Y-83602058D01*
X127672466Y-84372034D01*
X127927334Y-84372034D01*
G37*
G36*
X127442878Y-83022470D02*
G01*
X127368442Y-83015329D01*
X127308301Y-82995403D01*
X127259452Y-82963729D01*
X127221693Y-82920407D01*
X127198849Y-82868086D01*
X127190819Y-82803995D01*
X127198849Y-82739989D01*
X127221690Y-82687750D01*
X127259452Y-82644504D01*
X127308310Y-82612761D01*
X127368451Y-82592795D01*
X127442878Y-82585642D01*
X127517304Y-82592798D01*
X127577400Y-82612765D01*
X127626182Y-82644504D01*
X127663944Y-82687750D01*
X127686785Y-82739989D01*
X127694815Y-82803995D01*
X127686785Y-82868086D01*
X127663941Y-82920407D01*
X127626182Y-82963729D01*
X127577409Y-82995398D01*
X127517313Y-83015326D01*
X127442878Y-83022470D01*
G37*
G36*
X129065261Y-84777965D02*
G01*
X128888918Y-84768196D01*
X128809738Y-84754664D01*
X128739075Y-84734612D01*
X128672483Y-84707242D01*
X128610359Y-84673063D01*
X128552472Y-84631135D01*
X128496908Y-84579152D01*
X128461924Y-84538355D01*
X128438046Y-84498063D01*
X128423628Y-84453715D01*
X128418506Y-84400000D01*
X128429694Y-84322259D01*
X128460516Y-84265666D01*
X128509438Y-84228185D01*
X128575310Y-84215230D01*
X128632707Y-84223656D01*
X128692913Y-84254431D01*
X128777807Y-84318249D01*
X128869256Y-84369225D01*
X128966410Y-84402959D01*
X129065261Y-84414043D01*
X129161859Y-84409891D01*
X129243070Y-84394382D01*
X129275248Y-84379982D01*
X129299124Y-84360799D01*
X129314643Y-84335587D01*
X129320129Y-84302058D01*
X129314840Y-84270385D01*
X129299124Y-84243196D01*
X129243070Y-84198499D01*
X129161859Y-84166259D01*
X129065261Y-84142445D01*
X128848251Y-84090666D01*
X128744873Y-84054756D01*
X128655055Y-84007990D01*
X128577921Y-83946216D01*
X128516448Y-83866573D01*
X128488217Y-83805508D01*
X128469949Y-83729657D01*
X128463325Y-83635642D01*
X128474030Y-83523293D01*
X128503869Y-83432676D01*
X128553568Y-83354621D01*
X128621472Y-83291259D01*
X128705020Y-83243550D01*
X128810516Y-83208583D01*
X128926624Y-83188995D01*
X129065261Y-83181960D01*
X129232227Y-83194502D01*
X129384487Y-83231053D01*
X129479812Y-83270142D01*
X129555300Y-83316459D01*
X129614075Y-83369539D01*
X129653276Y-83427058D01*
X129665439Y-83465404D01*
X129670129Y-83520847D01*
X129657931Y-83602479D01*
X129625310Y-83656646D01*
X129574440Y-83690895D01*
X129507707Y-83702808D01*
X129432114Y-83690230D01*
X129397942Y-83673846D01*
X129367756Y-83649563D01*
X129324850Y-83616156D01*
X129254305Y-83579588D01*
X129172100Y-83555040D01*
X129065261Y-83546004D01*
X128986859Y-83553087D01*
X128929462Y-83572627D01*
X128894535Y-83606210D01*
X128883300Y-83655181D01*
X128887266Y-83684288D01*
X128898688Y-83708426D01*
X128939232Y-83746161D01*
X128998094Y-83771441D01*
X129065261Y-83789637D01*
X129290697Y-83844225D01*
X129405864Y-83882749D01*
X129509050Y-83932397D01*
X129600224Y-83997326D01*
X129674281Y-84079431D01*
X129709855Y-84143120D01*
X129732176Y-84219122D01*
X129740104Y-84310362D01*
X129733050Y-84404162D01*
X129713419Y-84481080D01*
X129682707Y-84544225D01*
X129616174Y-84625441D01*
X129531521Y-84686985D01*
X129432605Y-84730074D01*
X129315854Y-84758304D01*
X129192990Y-84772998D01*
X129065261Y-84777965D01*
G37*
G36*
X131090889Y-83302372D02*
G01*
X131112366Y-83259923D01*
X131139860Y-83232397D01*
X131174966Y-83215914D01*
X131219727Y-83210048D01*
X131323090Y-83220876D01*
X131386301Y-83247906D01*
X131415962Y-83276949D01*
X131434262Y-83315537D01*
X131440889Y-83366852D01*
X131435272Y-83422784D01*
X131418541Y-83487142D01*
X130984521Y-84777965D01*
X130935551Y-84919382D01*
X130866919Y-85084612D01*
X130778747Y-85241294D01*
X130726392Y-85309260D01*
X130673722Y-85357554D01*
X130562328Y-85428202D01*
X130456713Y-85472348D01*
X130351537Y-85498343D01*
X130267791Y-85506053D01*
X130178104Y-85493991D01*
X130120757Y-85462578D01*
X130094875Y-85430312D01*
X130078061Y-85385516D01*
X130071786Y-85323970D01*
X130071786Y-85318353D01*
X130083950Y-85242487D01*
X130112330Y-85185362D01*
X130141141Y-85157229D01*
X130178917Y-85139858D01*
X130228590Y-85133583D01*
X130273732Y-85128779D01*
X130309678Y-85115387D01*
X130374159Y-85069225D01*
X130434364Y-85011828D01*
X130476374Y-84957117D01*
X130507149Y-84899720D01*
X130533771Y-84831210D01*
X130564546Y-84750000D01*
X130099752Y-83476029D01*
X130080090Y-83413014D01*
X130074595Y-83358426D01*
X130087848Y-83291157D01*
X130124909Y-83246441D01*
X130181479Y-83219954D01*
X130262173Y-83210048D01*
X130324323Y-83216419D01*
X130362923Y-83232397D01*
X130391774Y-83259635D01*
X130413360Y-83299563D01*
X130752124Y-84231960D01*
X131090889Y-83302372D01*
G37*
G36*
X134385854Y-83189165D02*
G01*
X134471638Y-83209295D01*
X134543018Y-83240823D01*
X134607231Y-83285118D01*
X134661564Y-83339397D01*
X134706782Y-83404588D01*
X134756778Y-83516804D01*
X134790802Y-83656646D01*
X134808420Y-83807021D01*
X134814616Y-83977215D01*
X134808054Y-84114805D01*
X134787993Y-84257240D01*
X134750445Y-84394523D01*
X134692739Y-84516259D01*
X134641726Y-84588729D01*
X134579994Y-84651478D01*
X134506625Y-84705181D01*
X134425100Y-84744089D01*
X134325647Y-84769004D01*
X134204253Y-84777965D01*
X134117094Y-84769441D01*
X134039832Y-84744697D01*
X133970390Y-84703838D01*
X133913197Y-84648320D01*
X133872785Y-84579760D01*
X133848635Y-84495254D01*
X133848635Y-85072034D01*
X133842025Y-85141076D01*
X133824223Y-85192368D01*
X133796856Y-85230181D01*
X133759041Y-85257543D01*
X133707713Y-85275347D01*
X133638586Y-85281960D01*
X133569544Y-85275350D01*
X133518252Y-85257548D01*
X133480439Y-85230181D01*
X133453072Y-85192368D01*
X133435270Y-85141076D01*
X133428660Y-85072034D01*
X133428660Y-83923970D01*
X133848635Y-83923970D01*
X133848635Y-84035956D01*
X133853589Y-84107488D01*
X133868175Y-84174563D01*
X133892361Y-84237248D01*
X133924228Y-84290823D01*
X133964933Y-84336124D01*
X134013743Y-84370690D01*
X134069369Y-84392565D01*
X134131468Y-84400000D01*
X134209564Y-84389542D01*
X134267145Y-84360799D01*
X134312776Y-84316010D01*
X134347013Y-84258583D01*
X134370196Y-84193277D01*
X134384748Y-84119975D01*
X134394640Y-83974406D01*
X134384748Y-83831646D01*
X134370511Y-83761021D01*
X134348356Y-83698656D01*
X134315994Y-83643421D01*
X134272763Y-83599249D01*
X134218619Y-83570322D01*
X134148199Y-83560048D01*
X134088011Y-83566340D01*
X134030596Y-83585205D01*
X133978881Y-83615954D01*
X133935464Y-83657990D01*
X133900676Y-83709473D01*
X133872449Y-83772784D01*
X133854837Y-83842606D01*
X133848635Y-83923970D01*
X133428660Y-83923970D01*
X133428660Y-83386392D01*
X133434938Y-83319042D01*
X133451808Y-83269104D01*
X133477630Y-83232397D01*
X133513629Y-83205910D01*
X133563832Y-83188495D01*
X133632969Y-83181960D01*
X133702243Y-83188359D01*
X133754634Y-83205688D01*
X133794047Y-83232397D01*
X133823095Y-83269576D01*
X133841753Y-83319548D01*
X133848635Y-83386392D01*
X133848635Y-83515230D01*
X133903224Y-83386392D01*
X133940135Y-83328828D01*
X133985778Y-83280024D01*
X134040744Y-83240369D01*
X134108998Y-83208583D01*
X134185853Y-83189078D01*
X134282655Y-83181960D01*
X134385854Y-83189165D01*
G37*
G36*
X135893316Y-83189612D02*
G01*
X135993384Y-83211465D01*
X136081381Y-83246441D01*
X136199853Y-83322410D01*
X136295582Y-83419975D01*
X136369575Y-83536677D01*
X136423077Y-83673377D01*
X136454384Y-83820694D01*
X136465087Y-83980024D01*
X136454430Y-84136905D01*
X136423077Y-84283862D01*
X136369647Y-84420700D01*
X136295582Y-84538607D01*
X136234048Y-84607031D01*
X136162954Y-84665202D01*
X136081381Y-84713607D01*
X135993391Y-84748514D01*
X135893322Y-84770328D01*
X135779009Y-84777965D01*
X135664777Y-84770331D01*
X135564704Y-84748521D01*
X135476636Y-84713607D01*
X135395063Y-84665202D01*
X135323969Y-84607031D01*
X135262435Y-84538607D01*
X135188466Y-84420708D01*
X135135062Y-84283862D01*
X135103710Y-84136905D01*
X135093053Y-83980024D01*
X135513028Y-83980024D01*
X135516951Y-84068301D01*
X135528415Y-84150750D01*
X135548855Y-84228537D01*
X135577386Y-84293632D01*
X135615880Y-84349631D01*
X135661406Y-84391573D01*
X135715458Y-84418691D01*
X135779009Y-84427965D01*
X135842646Y-84418683D01*
X135896612Y-84391573D01*
X135942211Y-84349616D01*
X135980631Y-84293632D01*
X136009162Y-84228537D01*
X136029602Y-84150750D01*
X136041158Y-84068298D01*
X136045111Y-83980024D01*
X136041124Y-83889167D01*
X136029602Y-83806367D01*
X136009101Y-83728789D01*
X135980631Y-83664951D01*
X135942302Y-83610087D01*
X135896612Y-83568353D01*
X135842646Y-83541243D01*
X135779009Y-83531960D01*
X135715458Y-83541235D01*
X135661406Y-83568353D01*
X135615888Y-83610315D01*
X135577386Y-83666416D01*
X135548860Y-83731406D01*
X135528415Y-83809176D01*
X135516952Y-83891640D01*
X135513028Y-83980024D01*
X135093053Y-83980024D01*
X135103710Y-83823143D01*
X135135062Y-83676186D01*
X135188477Y-83539255D01*
X135262435Y-83421441D01*
X135323969Y-83353017D01*
X135395063Y-83294846D01*
X135476636Y-83246441D01*
X135564711Y-83211458D01*
X135664784Y-83189608D01*
X135779009Y-83181960D01*
X135893316Y-83189612D01*
G37*
G36*
X137939092Y-83265980D02*
G01*
X138025805Y-83278687D01*
X138081852Y-83312264D01*
X138116399Y-83367325D01*
X138129480Y-83453681D01*
X138116459Y-83540176D01*
X138081852Y-83596441D01*
X138025686Y-83630945D01*
X137939092Y-83643946D01*
X137527543Y-83643946D01*
X137527543Y-83993946D01*
X137534062Y-84139035D01*
X137550672Y-84238929D01*
X137573705Y-84304867D01*
X137611067Y-84359526D01*
X137655499Y-84389814D01*
X137709504Y-84400000D01*
X137787906Y-84393039D01*
X137866308Y-84369225D01*
X137926942Y-84349372D01*
X137975739Y-84345812D01*
X138016029Y-84355303D01*
X138069463Y-84390885D01*
X138115436Y-84453244D01*
X138140911Y-84510631D01*
X138149117Y-84558653D01*
X138143401Y-84600157D01*
X138111809Y-84655145D01*
X138051078Y-84699563D01*
X137951436Y-84739329D01*
X137850921Y-84762578D01*
X137747670Y-84774067D01*
X137639528Y-84777965D01*
X137513049Y-84766929D01*
X137408475Y-84735956D01*
X137317609Y-84682087D01*
X137241901Y-84602965D01*
X137184663Y-84503292D01*
X137141029Y-84372034D01*
X137116506Y-84225132D01*
X137107445Y-84038764D01*
X137107445Y-83643946D01*
X136877857Y-83643946D01*
X136793899Y-83631326D01*
X136739249Y-83597784D01*
X136705716Y-83543220D01*
X136693087Y-83459176D01*
X136699170Y-83395599D01*
X136715546Y-83348390D01*
X136740715Y-83313607D01*
X136775497Y-83288439D01*
X136822706Y-83272063D01*
X136886284Y-83265980D01*
X137107445Y-83265980D01*
X137107445Y-82985956D01*
X137114056Y-82916913D01*
X137131858Y-82865621D01*
X137159225Y-82827808D01*
X137197112Y-82800436D01*
X137248450Y-82782636D01*
X137317494Y-82776029D01*
X137386537Y-82782639D01*
X137437829Y-82800441D01*
X137475642Y-82827808D01*
X137503079Y-82865631D01*
X137520919Y-82916924D01*
X137527543Y-82985956D01*
X137527543Y-83265980D01*
X137939092Y-83265980D01*
G37*
G36*
X139135882Y-84777965D02*
G01*
X138959539Y-84768196D01*
X138880359Y-84754664D01*
X138809696Y-84734612D01*
X138743104Y-84707242D01*
X138680980Y-84673063D01*
X138623093Y-84631135D01*
X138567529Y-84579152D01*
X138532545Y-84538355D01*
X138508667Y-84498063D01*
X138494249Y-84453715D01*
X138489127Y-84400000D01*
X138500315Y-84322259D01*
X138531137Y-84265666D01*
X138580060Y-84228185D01*
X138645931Y-84215230D01*
X138703328Y-84223656D01*
X138763534Y-84254431D01*
X138848428Y-84318249D01*
X138939877Y-84369225D01*
X139037031Y-84402959D01*
X139135882Y-84414043D01*
X139232480Y-84409891D01*
X139313691Y-84394382D01*
X139345869Y-84379982D01*
X139369745Y-84360799D01*
X139385264Y-84335587D01*
X139390750Y-84302058D01*
X139385461Y-84270385D01*
X139369745Y-84243196D01*
X139313691Y-84198499D01*
X139232480Y-84166259D01*
X139135882Y-84142445D01*
X138918872Y-84090666D01*
X138815494Y-84054756D01*
X138725676Y-84007990D01*
X138648542Y-83946216D01*
X138587069Y-83866573D01*
X138558838Y-83805508D01*
X138540570Y-83729657D01*
X138533946Y-83635642D01*
X138544651Y-83523293D01*
X138574490Y-83432676D01*
X138624190Y-83354621D01*
X138692093Y-83291259D01*
X138775641Y-83243550D01*
X138881137Y-83208583D01*
X138997245Y-83188995D01*
X139135882Y-83181960D01*
X139302848Y-83194502D01*
X139455108Y-83231053D01*
X139550433Y-83270142D01*
X139625921Y-83316459D01*
X139684696Y-83369539D01*
X139723897Y-83427058D01*
X139736060Y-83465404D01*
X139740750Y-83520847D01*
X139728552Y-83602479D01*
X139695931Y-83656646D01*
X139645061Y-83690895D01*
X139578328Y-83702808D01*
X139502735Y-83690230D01*
X139468563Y-83673846D01*
X139438377Y-83649563D01*
X139395471Y-83616156D01*
X139324926Y-83579588D01*
X139242721Y-83555040D01*
X139135882Y-83546004D01*
X139057480Y-83553087D01*
X139000083Y-83572627D01*
X138965157Y-83606210D01*
X138953921Y-83655181D01*
X138957887Y-83684288D01*
X138969309Y-83708426D01*
X139009853Y-83746161D01*
X139068715Y-83771441D01*
X139135882Y-83789637D01*
X139361318Y-83844225D01*
X139476485Y-83882749D01*
X139579672Y-83932397D01*
X139670845Y-83997326D01*
X139744902Y-84079431D01*
X139780476Y-84143120D01*
X139802797Y-84219122D01*
X139810725Y-84310362D01*
X139803672Y-84404162D01*
X139784040Y-84481080D01*
X139753328Y-84544225D01*
X139686795Y-84625441D01*
X139602142Y-84686985D01*
X139503226Y-84730074D01*
X139386475Y-84758304D01*
X139263611Y-84772998D01*
X139135882Y-84777965D01*
G37*
D11*
X87794819Y-94083333D02*
X88509104Y-94083333D01*
X88509104Y-94083333D02*
X88651961Y-94130952D01*
X88651961Y-94130952D02*
X88747200Y-94226190D01*
X88747200Y-94226190D02*
X88794819Y-94369047D01*
X88794819Y-94369047D02*
X88794819Y-94464285D01*
X88794819Y-93083333D02*
X88794819Y-93654761D01*
X88794819Y-93369047D02*
X87794819Y-93369047D01*
X87794819Y-93369047D02*
X87937676Y-93464285D01*
X87937676Y-93464285D02*
X88032914Y-93559523D01*
X88032914Y-93559523D02*
X88080533Y-93654761D01*
X53276666Y-47444819D02*
X52943333Y-46968628D01*
X52705238Y-47444819D02*
X52705238Y-46444819D01*
X52705238Y-46444819D02*
X53086190Y-46444819D01*
X53086190Y-46444819D02*
X53181428Y-46492438D01*
X53181428Y-46492438D02*
X53229047Y-46540057D01*
X53229047Y-46540057D02*
X53276666Y-46635295D01*
X53276666Y-46635295D02*
X53276666Y-46778152D01*
X53276666Y-46778152D02*
X53229047Y-46873390D01*
X53229047Y-46873390D02*
X53181428Y-46921009D01*
X53181428Y-46921009D02*
X53086190Y-46968628D01*
X53086190Y-46968628D02*
X52705238Y-46968628D01*
X53705238Y-46921009D02*
X54038571Y-46921009D01*
X54181428Y-47444819D02*
X53705238Y-47444819D01*
X53705238Y-47444819D02*
X53705238Y-46444819D01*
X53705238Y-46444819D02*
X54181428Y-46444819D01*
X54943333Y-46921009D02*
X54610000Y-46921009D01*
X54610000Y-47444819D02*
X54610000Y-46444819D01*
X54610000Y-46444819D02*
X55086190Y-46444819D01*
X55610000Y-46444819D02*
X55610000Y-46682914D01*
X55371905Y-46587676D02*
X55610000Y-46682914D01*
X55610000Y-46682914D02*
X55848095Y-46587676D01*
X55467143Y-46873390D02*
X55610000Y-46682914D01*
X55610000Y-46682914D02*
X55752857Y-46873390D01*
X56371905Y-46444819D02*
X56371905Y-46682914D01*
X56133810Y-46587676D02*
X56371905Y-46682914D01*
X56371905Y-46682914D02*
X56610000Y-46587676D01*
X56229048Y-46873390D02*
X56371905Y-46682914D01*
X56371905Y-46682914D02*
X56514762Y-46873390D01*
D12*
X125329318Y-48913094D02*
X126599318Y-48489761D01*
X126599318Y-48489761D02*
X125329318Y-48066427D01*
X126599318Y-46917380D02*
X125994556Y-47340714D01*
X126599318Y-47643095D02*
X125329318Y-47643095D01*
X125329318Y-47643095D02*
X125329318Y-47159285D01*
X125329318Y-47159285D02*
X125389794Y-47038333D01*
X125389794Y-47038333D02*
X125450270Y-46977856D01*
X125450270Y-46977856D02*
X125571222Y-46917380D01*
X125571222Y-46917380D02*
X125752651Y-46917380D01*
X125752651Y-46917380D02*
X125873603Y-46977856D01*
X125873603Y-46977856D02*
X125934080Y-47038333D01*
X125934080Y-47038333D02*
X125994556Y-47159285D01*
X125994556Y-47159285D02*
X125994556Y-47643095D01*
X125329318Y-46494047D02*
X125329318Y-45707856D01*
X125329318Y-45707856D02*
X125813127Y-46131190D01*
X125813127Y-46131190D02*
X125813127Y-45949761D01*
X125813127Y-45949761D02*
X125873603Y-45828809D01*
X125873603Y-45828809D02*
X125934080Y-45768333D01*
X125934080Y-45768333D02*
X126055032Y-45707856D01*
X126055032Y-45707856D02*
X126357413Y-45707856D01*
X126357413Y-45707856D02*
X126478365Y-45768333D01*
X126478365Y-45768333D02*
X126538842Y-45828809D01*
X126538842Y-45828809D02*
X126599318Y-45949761D01*
X126599318Y-45949761D02*
X126599318Y-46312618D01*
X126599318Y-46312618D02*
X126538842Y-46433571D01*
X126538842Y-46433571D02*
X126478365Y-46494047D01*
D11*
X106513333Y-85789580D02*
X106465714Y-85837200D01*
X106465714Y-85837200D02*
X106322857Y-85884819D01*
X106322857Y-85884819D02*
X106227619Y-85884819D01*
X106227619Y-85884819D02*
X106084762Y-85837200D01*
X106084762Y-85837200D02*
X105989524Y-85741961D01*
X105989524Y-85741961D02*
X105941905Y-85646723D01*
X105941905Y-85646723D02*
X105894286Y-85456247D01*
X105894286Y-85456247D02*
X105894286Y-85313390D01*
X105894286Y-85313390D02*
X105941905Y-85122914D01*
X105941905Y-85122914D02*
X105989524Y-85027676D01*
X105989524Y-85027676D02*
X106084762Y-84932438D01*
X106084762Y-84932438D02*
X106227619Y-84884819D01*
X106227619Y-84884819D02*
X106322857Y-84884819D01*
X106322857Y-84884819D02*
X106465714Y-84932438D01*
X106465714Y-84932438D02*
X106513333Y-84980057D01*
X106894286Y-84980057D02*
X106941905Y-84932438D01*
X106941905Y-84932438D02*
X107037143Y-84884819D01*
X107037143Y-84884819D02*
X107275238Y-84884819D01*
X107275238Y-84884819D02*
X107370476Y-84932438D01*
X107370476Y-84932438D02*
X107418095Y-84980057D01*
X107418095Y-84980057D02*
X107465714Y-85075295D01*
X107465714Y-85075295D02*
X107465714Y-85170533D01*
X107465714Y-85170533D02*
X107418095Y-85313390D01*
X107418095Y-85313390D02*
X106846667Y-85884819D01*
X106846667Y-85884819D02*
X107465714Y-85884819D01*
D12*
X101329318Y-48913094D02*
X102599318Y-48489761D01*
X102599318Y-48489761D02*
X101329318Y-48066427D01*
X102599318Y-46917380D02*
X101994556Y-47340714D01*
X102599318Y-47643095D02*
X101329318Y-47643095D01*
X101329318Y-47643095D02*
X101329318Y-47159285D01*
X101329318Y-47159285D02*
X101389794Y-47038333D01*
X101389794Y-47038333D02*
X101450270Y-46977856D01*
X101450270Y-46977856D02*
X101571222Y-46917380D01*
X101571222Y-46917380D02*
X101752651Y-46917380D01*
X101752651Y-46917380D02*
X101873603Y-46977856D01*
X101873603Y-46977856D02*
X101934080Y-47038333D01*
X101934080Y-47038333D02*
X101994556Y-47159285D01*
X101994556Y-47159285D02*
X101994556Y-47643095D01*
X101450270Y-46433571D02*
X101389794Y-46373095D01*
X101389794Y-46373095D02*
X101329318Y-46252142D01*
X101329318Y-46252142D02*
X101329318Y-45949761D01*
X101329318Y-45949761D02*
X101389794Y-45828809D01*
X101389794Y-45828809D02*
X101450270Y-45768333D01*
X101450270Y-45768333D02*
X101571222Y-45707856D01*
X101571222Y-45707856D02*
X101692175Y-45707856D01*
X101692175Y-45707856D02*
X101873603Y-45768333D01*
X101873603Y-45768333D02*
X102599318Y-46494047D01*
X102599318Y-46494047D02*
X102599318Y-45707856D01*
D11*
X52946666Y-92024819D02*
X52613333Y-91548628D01*
X52375238Y-92024819D02*
X52375238Y-91024819D01*
X52375238Y-91024819D02*
X52756190Y-91024819D01*
X52756190Y-91024819D02*
X52851428Y-91072438D01*
X52851428Y-91072438D02*
X52899047Y-91120057D01*
X52899047Y-91120057D02*
X52946666Y-91215295D01*
X52946666Y-91215295D02*
X52946666Y-91358152D01*
X52946666Y-91358152D02*
X52899047Y-91453390D01*
X52899047Y-91453390D02*
X52851428Y-91501009D01*
X52851428Y-91501009D02*
X52756190Y-91548628D01*
X52756190Y-91548628D02*
X52375238Y-91548628D01*
X53375238Y-91501009D02*
X53708571Y-91501009D01*
X53851428Y-92024819D02*
X53375238Y-92024819D01*
X53375238Y-92024819D02*
X53375238Y-91024819D01*
X53375238Y-91024819D02*
X53851428Y-91024819D01*
X54613333Y-91501009D02*
X54280000Y-91501009D01*
X54280000Y-92024819D02*
X54280000Y-91024819D01*
X54280000Y-91024819D02*
X54756190Y-91024819D01*
X55280000Y-91024819D02*
X55280000Y-91262914D01*
X55041905Y-91167676D02*
X55280000Y-91262914D01*
X55280000Y-91262914D02*
X55518095Y-91167676D01*
X55137143Y-91453390D02*
X55280000Y-91262914D01*
X55280000Y-91262914D02*
X55422857Y-91453390D01*
X56041905Y-91024819D02*
X56041905Y-91262914D01*
X55803810Y-91167676D02*
X56041905Y-91262914D01*
X56041905Y-91262914D02*
X56280000Y-91167676D01*
X55899048Y-91453390D02*
X56041905Y-91262914D01*
X56041905Y-91262914D02*
X56184762Y-91453390D01*
X93966667Y-62207200D02*
X94109524Y-62254819D01*
X94109524Y-62254819D02*
X94347619Y-62254819D01*
X94347619Y-62254819D02*
X94442857Y-62207200D01*
X94442857Y-62207200D02*
X94490476Y-62159580D01*
X94490476Y-62159580D02*
X94538095Y-62064342D01*
X94538095Y-62064342D02*
X94538095Y-61969104D01*
X94538095Y-61969104D02*
X94490476Y-61873866D01*
X94490476Y-61873866D02*
X94442857Y-61826247D01*
X94442857Y-61826247D02*
X94347619Y-61778628D01*
X94347619Y-61778628D02*
X94157143Y-61731009D01*
X94157143Y-61731009D02*
X94061905Y-61683390D01*
X94061905Y-61683390D02*
X94014286Y-61635771D01*
X94014286Y-61635771D02*
X93966667Y-61540533D01*
X93966667Y-61540533D02*
X93966667Y-61445295D01*
X93966667Y-61445295D02*
X94014286Y-61350057D01*
X94014286Y-61350057D02*
X94061905Y-61302438D01*
X94061905Y-61302438D02*
X94157143Y-61254819D01*
X94157143Y-61254819D02*
X94395238Y-61254819D01*
X94395238Y-61254819D02*
X94538095Y-61302438D01*
X94871429Y-61254819D02*
X95109524Y-62254819D01*
X95109524Y-62254819D02*
X95300000Y-61540533D01*
X95300000Y-61540533D02*
X95490476Y-62254819D01*
X95490476Y-62254819D02*
X95728572Y-61254819D01*
X96633333Y-62254819D02*
X96061905Y-62254819D01*
X96347619Y-62254819D02*
X96347619Y-61254819D01*
X96347619Y-61254819D02*
X96252381Y-61397676D01*
X96252381Y-61397676D02*
X96157143Y-61492914D01*
X96157143Y-61492914D02*
X96061905Y-61540533D01*
X77454819Y-86561904D02*
X78264342Y-86561904D01*
X78264342Y-86561904D02*
X78359580Y-86514285D01*
X78359580Y-86514285D02*
X78407200Y-86466666D01*
X78407200Y-86466666D02*
X78454819Y-86371428D01*
X78454819Y-86371428D02*
X78454819Y-86180952D01*
X78454819Y-86180952D02*
X78407200Y-86085714D01*
X78407200Y-86085714D02*
X78359580Y-86038095D01*
X78359580Y-86038095D02*
X78264342Y-85990476D01*
X78264342Y-85990476D02*
X77454819Y-85990476D01*
X78454819Y-84990476D02*
X78454819Y-85561904D01*
X78454819Y-85276190D02*
X77454819Y-85276190D01*
X77454819Y-85276190D02*
X77597676Y-85371428D01*
X77597676Y-85371428D02*
X77692914Y-85466666D01*
X77692914Y-85466666D02*
X77740533Y-85561904D01*
X144716666Y-47444819D02*
X144383333Y-46968628D01*
X144145238Y-47444819D02*
X144145238Y-46444819D01*
X144145238Y-46444819D02*
X144526190Y-46444819D01*
X144526190Y-46444819D02*
X144621428Y-46492438D01*
X144621428Y-46492438D02*
X144669047Y-46540057D01*
X144669047Y-46540057D02*
X144716666Y-46635295D01*
X144716666Y-46635295D02*
X144716666Y-46778152D01*
X144716666Y-46778152D02*
X144669047Y-46873390D01*
X144669047Y-46873390D02*
X144621428Y-46921009D01*
X144621428Y-46921009D02*
X144526190Y-46968628D01*
X144526190Y-46968628D02*
X144145238Y-46968628D01*
X145145238Y-46921009D02*
X145478571Y-46921009D01*
X145621428Y-47444819D02*
X145145238Y-47444819D01*
X145145238Y-47444819D02*
X145145238Y-46444819D01*
X145145238Y-46444819D02*
X145621428Y-46444819D01*
X146383333Y-46921009D02*
X146050000Y-46921009D01*
X146050000Y-47444819D02*
X146050000Y-46444819D01*
X146050000Y-46444819D02*
X146526190Y-46444819D01*
X147050000Y-46444819D02*
X147050000Y-46682914D01*
X146811905Y-46587676D02*
X147050000Y-46682914D01*
X147050000Y-46682914D02*
X147288095Y-46587676D01*
X146907143Y-46873390D02*
X147050000Y-46682914D01*
X147050000Y-46682914D02*
X147192857Y-46873390D01*
X147811905Y-46444819D02*
X147811905Y-46682914D01*
X147573810Y-46587676D02*
X147811905Y-46682914D01*
X147811905Y-46682914D02*
X148050000Y-46587676D01*
X147669048Y-46873390D02*
X147811905Y-46682914D01*
X147811905Y-46682914D02*
X147954762Y-46873390D01*
X141454761Y-61804819D02*
X141121428Y-61328628D01*
X140883333Y-61804819D02*
X140883333Y-60804819D01*
X140883333Y-60804819D02*
X141264285Y-60804819D01*
X141264285Y-60804819D02*
X141359523Y-60852438D01*
X141359523Y-60852438D02*
X141407142Y-60900057D01*
X141407142Y-60900057D02*
X141454761Y-60995295D01*
X141454761Y-60995295D02*
X141454761Y-61138152D01*
X141454761Y-61138152D02*
X141407142Y-61233390D01*
X141407142Y-61233390D02*
X141359523Y-61281009D01*
X141359523Y-61281009D02*
X141264285Y-61328628D01*
X141264285Y-61328628D02*
X140883333Y-61328628D01*
X141740476Y-60804819D02*
X142073809Y-61804819D01*
X142073809Y-61804819D02*
X142407142Y-60804819D01*
X142692857Y-60900057D02*
X142740476Y-60852438D01*
X142740476Y-60852438D02*
X142835714Y-60804819D01*
X142835714Y-60804819D02*
X143073809Y-60804819D01*
X143073809Y-60804819D02*
X143169047Y-60852438D01*
X143169047Y-60852438D02*
X143216666Y-60900057D01*
X143216666Y-60900057D02*
X143264285Y-60995295D01*
X143264285Y-60995295D02*
X143264285Y-61090533D01*
X143264285Y-61090533D02*
X143216666Y-61233390D01*
X143216666Y-61233390D02*
X142645238Y-61804819D01*
X142645238Y-61804819D02*
X143264285Y-61804819D01*
X57354761Y-77104819D02*
X57021428Y-76628628D01*
X56783333Y-77104819D02*
X56783333Y-76104819D01*
X56783333Y-76104819D02*
X57164285Y-76104819D01*
X57164285Y-76104819D02*
X57259523Y-76152438D01*
X57259523Y-76152438D02*
X57307142Y-76200057D01*
X57307142Y-76200057D02*
X57354761Y-76295295D01*
X57354761Y-76295295D02*
X57354761Y-76438152D01*
X57354761Y-76438152D02*
X57307142Y-76533390D01*
X57307142Y-76533390D02*
X57259523Y-76581009D01*
X57259523Y-76581009D02*
X57164285Y-76628628D01*
X57164285Y-76628628D02*
X56783333Y-76628628D01*
X57640476Y-76104819D02*
X57973809Y-77104819D01*
X57973809Y-77104819D02*
X58307142Y-76104819D01*
X59164285Y-77104819D02*
X58592857Y-77104819D01*
X58878571Y-77104819D02*
X58878571Y-76104819D01*
X58878571Y-76104819D02*
X58783333Y-76247676D01*
X58783333Y-76247676D02*
X58688095Y-76342914D01*
X58688095Y-76342914D02*
X58592857Y-76390533D01*
D12*
X77329318Y-48913094D02*
X78599318Y-48489761D01*
X78599318Y-48489761D02*
X77329318Y-48066427D01*
X78599318Y-46917380D02*
X77994556Y-47340714D01*
X78599318Y-47643095D02*
X77329318Y-47643095D01*
X77329318Y-47643095D02*
X77329318Y-47159285D01*
X77329318Y-47159285D02*
X77389794Y-47038333D01*
X77389794Y-47038333D02*
X77450270Y-46977856D01*
X77450270Y-46977856D02*
X77571222Y-46917380D01*
X77571222Y-46917380D02*
X77752651Y-46917380D01*
X77752651Y-46917380D02*
X77873603Y-46977856D01*
X77873603Y-46977856D02*
X77934080Y-47038333D01*
X77934080Y-47038333D02*
X77994556Y-47159285D01*
X77994556Y-47159285D02*
X77994556Y-47643095D01*
X78599318Y-45707856D02*
X78599318Y-46433571D01*
X78599318Y-46070714D02*
X77329318Y-46070714D01*
X77329318Y-46070714D02*
X77510746Y-46191666D01*
X77510746Y-46191666D02*
X77631699Y-46312618D01*
X77631699Y-46312618D02*
X77692175Y-46433571D01*
D11*
X70759580Y-78666666D02*
X70807200Y-78714285D01*
X70807200Y-78714285D02*
X70854819Y-78857142D01*
X70854819Y-78857142D02*
X70854819Y-78952380D01*
X70854819Y-78952380D02*
X70807200Y-79095237D01*
X70807200Y-79095237D02*
X70711961Y-79190475D01*
X70711961Y-79190475D02*
X70616723Y-79238094D01*
X70616723Y-79238094D02*
X70426247Y-79285713D01*
X70426247Y-79285713D02*
X70283390Y-79285713D01*
X70283390Y-79285713D02*
X70092914Y-79238094D01*
X70092914Y-79238094D02*
X69997676Y-79190475D01*
X69997676Y-79190475D02*
X69902438Y-79095237D01*
X69902438Y-79095237D02*
X69854819Y-78952380D01*
X69854819Y-78952380D02*
X69854819Y-78857142D01*
X69854819Y-78857142D02*
X69902438Y-78714285D01*
X69902438Y-78714285D02*
X69950057Y-78666666D01*
X70854819Y-77714285D02*
X70854819Y-78285713D01*
X70854819Y-77999999D02*
X69854819Y-77999999D01*
X69854819Y-77999999D02*
X69997676Y-78095237D01*
X69997676Y-78095237D02*
X70092914Y-78190475D01*
X70092914Y-78190475D02*
X70140533Y-78285713D01*
X144386666Y-92024819D02*
X144053333Y-91548628D01*
X143815238Y-92024819D02*
X143815238Y-91024819D01*
X143815238Y-91024819D02*
X144196190Y-91024819D01*
X144196190Y-91024819D02*
X144291428Y-91072438D01*
X144291428Y-91072438D02*
X144339047Y-91120057D01*
X144339047Y-91120057D02*
X144386666Y-91215295D01*
X144386666Y-91215295D02*
X144386666Y-91358152D01*
X144386666Y-91358152D02*
X144339047Y-91453390D01*
X144339047Y-91453390D02*
X144291428Y-91501009D01*
X144291428Y-91501009D02*
X144196190Y-91548628D01*
X144196190Y-91548628D02*
X143815238Y-91548628D01*
X144815238Y-91501009D02*
X145148571Y-91501009D01*
X145291428Y-92024819D02*
X144815238Y-92024819D01*
X144815238Y-92024819D02*
X144815238Y-91024819D01*
X144815238Y-91024819D02*
X145291428Y-91024819D01*
X146053333Y-91501009D02*
X145720000Y-91501009D01*
X145720000Y-92024819D02*
X145720000Y-91024819D01*
X145720000Y-91024819D02*
X146196190Y-91024819D01*
X146720000Y-91024819D02*
X146720000Y-91262914D01*
X146481905Y-91167676D02*
X146720000Y-91262914D01*
X146720000Y-91262914D02*
X146958095Y-91167676D01*
X146577143Y-91453390D02*
X146720000Y-91262914D01*
X146720000Y-91262914D02*
X146862857Y-91453390D01*
X147481905Y-91024819D02*
X147481905Y-91262914D01*
X147243810Y-91167676D02*
X147481905Y-91262914D01*
X147481905Y-91262914D02*
X147720000Y-91167676D01*
X147339048Y-91453390D02*
X147481905Y-91262914D01*
X147481905Y-91262914D02*
X147624762Y-91453390D01*
%TO.C,J1*%
D13*
X107620000Y-98600000D02*
X107620000Y-92100000D01*
X90018095Y-98600000D02*
X90018095Y-92100000D01*
X90136190Y-98600000D02*
X90136190Y-92100000D01*
X90490476Y-98600000D02*
X90490476Y-92100000D01*
X90608571Y-98600000D02*
X90608571Y-92100000D01*
X90372381Y-98600000D02*
X90372381Y-92100000D01*
X89780000Y-98600000D02*
X89780000Y-92100000D01*
X89900000Y-98600000D02*
X89900000Y-92100000D01*
X90254286Y-98600000D02*
X90254286Y-92100000D01*
X90726667Y-98600000D02*
X90726667Y-92100000D01*
X90962857Y-98600000D02*
X90962857Y-92100000D01*
X91080952Y-98600000D02*
X91080952Y-92100000D01*
X90844762Y-98600000D02*
X90844762Y-92100000D01*
X91199048Y-98600000D02*
X91199048Y-92100000D01*
X91317143Y-98600000D02*
X91317143Y-92100000D01*
X92261905Y-98600000D02*
X92261905Y-92100000D01*
X92380000Y-98600000D02*
X92380000Y-92100000D01*
X91435238Y-98600000D02*
X91435238Y-92100000D01*
X91907619Y-98600000D02*
X91907619Y-92100000D01*
X91553333Y-98600000D02*
X91553333Y-92100000D01*
X91671429Y-98600000D02*
X91671429Y-92100000D01*
X92025714Y-98600000D02*
X92025714Y-92100000D01*
X91789524Y-98600000D02*
X91789524Y-92100000D01*
X92143810Y-98600000D02*
X92143810Y-92100000D01*
X89780000Y-86990000D02*
X91110000Y-86990000D01*
X89780000Y-88100000D02*
X89780000Y-86990000D01*
X89780000Y-92100000D02*
X110220000Y-92100000D01*
X89780000Y-98600000D02*
X110220000Y-98600000D01*
X90750000Y-89590000D02*
X90750000Y-89210000D01*
X90750000Y-92100000D02*
X90750000Y-91690000D01*
X91470000Y-89590000D02*
X91470000Y-89210000D01*
X91470000Y-92100000D02*
X91470000Y-91690000D01*
X93290000Y-89590000D02*
X93290000Y-89150000D01*
X93290000Y-92100000D02*
X93290000Y-91690000D01*
X94010000Y-89590000D02*
X94010000Y-89150000D01*
X94010000Y-92100000D02*
X94010000Y-91690000D01*
X94920000Y-98600000D02*
X94920000Y-92100000D01*
X95830000Y-89590000D02*
X95830000Y-89150000D01*
X95830000Y-92100000D02*
X95830000Y-91690000D01*
X96550000Y-89590000D02*
X96550000Y-89150000D01*
X96550000Y-92100000D02*
X96550000Y-91690000D01*
X97460000Y-98600000D02*
X97460000Y-92100000D01*
X98370000Y-89590000D02*
X98370000Y-89150000D01*
X98370000Y-92100000D02*
X98370000Y-91690000D01*
X99090000Y-89590000D02*
X99090000Y-89150000D01*
X99090000Y-92100000D02*
X99090000Y-91690000D01*
X100000000Y-98600000D02*
X100000000Y-92100000D01*
X100910000Y-89590000D02*
X100910000Y-89150000D01*
X100910000Y-92100000D02*
X100910000Y-91690000D01*
X101630000Y-89590000D02*
X101630000Y-89150000D01*
X101630000Y-92100000D02*
X101630000Y-91690000D01*
X102540000Y-98600000D02*
X102540000Y-92100000D01*
X103450000Y-89590000D02*
X103450000Y-89150000D01*
X103450000Y-92100000D02*
X103450000Y-91690000D01*
X104170000Y-89590000D02*
X104170000Y-89150000D01*
X104170000Y-92100000D02*
X104170000Y-91690000D01*
X105080000Y-98600000D02*
X105080000Y-92100000D01*
X105990000Y-89590000D02*
X105990000Y-89150000D01*
X105990000Y-92100000D02*
X105990000Y-91690000D01*
X106710000Y-89590000D02*
X106710000Y-89150000D01*
X106710000Y-92100000D02*
X106710000Y-91690000D01*
X108530000Y-89590000D02*
X108530000Y-89150000D01*
X108530000Y-92100000D02*
X108530000Y-91690000D01*
X109250000Y-89590000D02*
X109250000Y-89150000D01*
X109250000Y-92100000D02*
X109250000Y-91690000D01*
X110220000Y-98600000D02*
X110220000Y-92100000D01*
%TO.C,VR3*%
D14*
X117300000Y-41250000D02*
X120000000Y-41250000D01*
X117300000Y-53250000D02*
X117300000Y-41250000D01*
X120000000Y-53250000D02*
X117300000Y-53250000D01*
X128000000Y-53250000D02*
X132300000Y-53250000D01*
X132300000Y-41250000D02*
X128000000Y-41250000D01*
X132300000Y-53250000D02*
X132300000Y-41250000D01*
D15*
X135200000Y-48500000D02*
X135200000Y-48500000D01*
X135300000Y-48500000D02*
X135300000Y-48500000D01*
X135200000Y-48500000D02*
G75*
G02*
X135300000Y-48500000I50000J0D01*
G01*
X135300000Y-48500000D02*
G75*
G02*
X135200000Y-48500000I-50000J0D01*
G01*
%TO.C,C2*%
D13*
X106826267Y-84510000D02*
X106533733Y-84510000D01*
X106826267Y-83490000D02*
X106533733Y-83490000D01*
%TO.C,VR2*%
D14*
X93300000Y-41250000D02*
X96000000Y-41250000D01*
X93300000Y-53250000D02*
X93300000Y-41250000D01*
X96000000Y-53250000D02*
X93300000Y-53250000D01*
X104000000Y-53250000D02*
X108300000Y-53250000D01*
X108300000Y-41250000D02*
X104000000Y-41250000D01*
X108300000Y-53250000D02*
X108300000Y-41250000D01*
D15*
X111200000Y-48500000D02*
X111200000Y-48500000D01*
X111300000Y-48500000D02*
X111300000Y-48500000D01*
X111200000Y-48500000D02*
G75*
G02*
X111300000Y-48500000I50000J0D01*
G01*
X111300000Y-48500000D02*
G75*
G02*
X111200000Y-48500000I-50000J0D01*
G01*
%TO.C,SW1*%
D13*
X92200000Y-64900000D02*
X92800000Y-64900000D01*
X92500000Y-65200000D02*
X92200000Y-64900000D01*
X92800000Y-64900000D02*
X92500000Y-65200000D01*
X93900000Y-63100000D02*
X93900000Y-74900000D01*
X98000000Y-63100000D02*
X93900000Y-63100000D01*
X98000000Y-74900000D02*
X93900000Y-74900000D01*
X99500000Y-69000000D02*
X100500000Y-69000000D01*
X100000000Y-68500000D02*
X100000000Y-69500000D01*
X102000000Y-63100000D02*
X106100000Y-63100000D01*
X106100000Y-63100000D02*
X106100000Y-65500000D01*
X106100000Y-67700000D02*
X106100000Y-70300000D01*
X106100000Y-72500000D02*
X106100000Y-74900000D01*
X106100000Y-74900000D02*
X102000000Y-74900000D01*
X103000000Y-69000000D02*
G75*
G02*
X97000000Y-69000000I-3000000J0D01*
G01*
X97000000Y-69000000D02*
G75*
G02*
X103000000Y-69000000I3000000J0D01*
G01*
%TO.C,U1*%
X72940000Y-77940000D02*
X72995000Y-77940000D01*
X72940000Y-82060000D02*
X72940000Y-77940000D01*
X72995000Y-82060000D02*
X72940000Y-82060000D01*
X83005000Y-77940000D02*
X83060000Y-77940000D01*
X83060000Y-77940000D02*
X83060000Y-82060000D01*
X83060000Y-82060000D02*
X83005000Y-82060000D01*
X72990000Y-82600000D02*
X72660000Y-82840000D01*
X72660000Y-82360000D01*
X72990000Y-82600000D01*
G36*
X72990000Y-82600000D02*
G01*
X72660000Y-82840000D01*
X72660000Y-82360000D01*
X72990000Y-82600000D01*
G37*
%TO.C,RV2*%
X136880000Y-63979000D02*
X136880000Y-65300000D01*
X136880000Y-63979000D02*
X140817000Y-63979000D01*
X136880000Y-67750000D02*
X136880000Y-68130000D01*
X136880000Y-69871000D02*
X136880000Y-70630000D01*
X136880000Y-72370000D02*
X136880000Y-74020000D01*
X136880000Y-74020000D02*
X140817000Y-74020000D01*
X145184000Y-63979000D02*
X149120000Y-63979000D01*
X145184000Y-74020000D02*
X149120000Y-74020000D01*
X149120000Y-63979000D02*
X149120000Y-74020000D01*
%TO.C,RV1*%
X50880000Y-74021000D02*
X50880000Y-63980000D01*
X54816000Y-63980000D02*
X50880000Y-63980000D01*
X54816000Y-74021000D02*
X50880000Y-74021000D01*
X63120000Y-63980000D02*
X59183000Y-63980000D01*
X63120000Y-65630000D02*
X63120000Y-63980000D01*
X63120000Y-68129000D02*
X63120000Y-67370000D01*
X63120000Y-70250000D02*
X63120000Y-69870000D01*
X63120000Y-74021000D02*
X59183000Y-74021000D01*
X63120000Y-74021000D02*
X63120000Y-72700000D01*
%TO.C,VR1*%
D14*
X69300000Y-41250000D02*
X72000000Y-41250000D01*
X69300000Y-53250000D02*
X69300000Y-41250000D01*
X72000000Y-53250000D02*
X69300000Y-53250000D01*
X80000000Y-53250000D02*
X84300000Y-53250000D01*
X84300000Y-41250000D02*
X80000000Y-41250000D01*
X84300000Y-53250000D02*
X84300000Y-41250000D01*
D15*
X87200000Y-48500000D02*
X87200000Y-48500000D01*
X87300000Y-48500000D02*
X87300000Y-48500000D01*
X87200000Y-48500000D02*
G75*
G02*
X87300000Y-48500000I50000J0D01*
G01*
X87300000Y-48500000D02*
G75*
G02*
X87200000Y-48500000I-50000J0D01*
G01*
%TO.C,C1*%
D13*
X71490000Y-78353733D02*
X71490000Y-78646267D01*
X72510000Y-78353733D02*
X72510000Y-78646267D01*
%TD*%
M02*
