M48
; DRILL file KiCad 10.0.5 date 2026-08-30T10:08:41
; FORMAT={-:-/ absolute / metric / decimal}
; #@! TF.CreationDate,2026-08-30T10:08:41-07:00
; #@! TF.GenerationSoftware,Kicad,Pcbnew,10.0.5
; #@! TF.FileFunction,Plated,1,2,PTH
FMAT,2
METRIC
; #@! TA.AperFunction,Plated,PTH,ViaDrill
T1C0.300
; #@! TA.AperFunction,Plated,PTH,ComponentDrill
T2C1.000
; #@! TA.AperFunction,Plated,PTH,ComponentDrill
T3C1.500
; #@! TA.AperFunction,Plated,PTH,ComponentDrill
T4C1.800
; #@! TA.AperFunction,Plated,PTH,ComponentDrill
T5C2.900
; #@! TA.AperFunction,Plated,PTH,ComponentDrill
T6C3.200
%
G90
G05
T1
X72.0Y-80.862
X73.6Y-81.6
X74.8Y-75.4
X74.8Y-79.2
X75.6Y-75.8
X77.4Y-79.2
X78.6Y-79.2
X81.175Y-84.675
X81.2Y-78.8
X90.6Y-64.2
X92.0Y-73.4
X94.0Y-74.2
X95.8Y-63.4
X96.6Y-75.8
X103.4Y-64.2
X104.648Y-84.074
X109.22Y-83.82
X111.0Y-87.376
X116.0Y-64.2
T2
X64.0Y-66.5
X64.0Y-69.0
X64.0Y-71.5
X86.0Y-43.5
X86.0Y-46.0
X86.0Y-48.5
X86.0Y-51.0
X91.11Y-88.1
X91.11Y-90.64
X92.5Y-66.5
X92.5Y-69.0
X92.5Y-71.5
X93.65Y-88.1
X93.65Y-90.64
X96.19Y-88.1
X96.19Y-90.64
X98.73Y-88.1
X98.73Y-90.64
X101.27Y-88.1
X101.27Y-90.64
X103.81Y-88.1
X103.81Y-90.64
X106.35Y-88.1
X106.35Y-90.64
X107.0Y-66.5
X107.0Y-71.5
X108.89Y-88.1
X108.89Y-90.64
X110.0Y-43.5
X110.0Y-46.0
X110.0Y-48.5
X110.0Y-51.0
X134.0Y-43.5
X134.0Y-46.0
X134.0Y-48.5
X134.0Y-51.0
X136.0Y-66.5
X136.0Y-69.0
X136.0Y-71.5
T5
X76.0Y-41.75
X76.0Y-52.75
X100.0Y-41.75
X100.0Y-52.75
X124.0Y-41.75
X124.0Y-52.75
T6
X54.28Y-42.28
X54.28Y-95.72
X145.72Y-42.28
X145.72Y-95.72
T3
X99.35Y-63.4G85X100.65Y-63.4
G05
X99.35Y-74.6G85X100.65Y-74.6
G05
T4
X57.15Y-64.6G85X56.85Y-64.6
G05
X57.15Y-73.4G85X56.85Y-73.4
G05
X142.85Y-64.6G85X143.15Y-64.6
G05
X142.85Y-73.4G85X143.15Y-73.4
G05
M30
