%TF.GenerationSoftware,KiCad,Pcbnew,10.0.5*%
%TF.CreationDate,2026-08-30T10:07:26-07:00*%
%TF.ProjectId,daisy_pots_breakout,64616973-795f-4706-9f74-735f62726561,rev?*%
%TF.SameCoordinates,Original*%
%TF.FileFunction,Soldermask,Bot*%
%TF.FilePolarity,Negative*%
%FSLAX46Y46*%
G04 Gerber Fmt 4.6, Leading zero omitted, Abs format (unit mm)*
G04 Created by KiCad (PCBNEW 10.0.5) date 2026-08-30 10:07:26*
%MOMM*%
%LPD*%
G01*
G04 APERTURE LIST*
G04 Aperture macros list*
%AMRoundRect*
0 Rectangle with rounded corners*
0 $1 Rounding radius*
0 $2 $3 $4 $5 $6 $7 $8 $9 X,Y pos of 4 corners*
0 Add a 4 corners polygon primitive as box body*
4,1,4,$2,$3,$4,$5,$6,$7,$8,$9,$2,$3,0*
0 Add four circle primitives for the rounded corners*
1,1,$1+$1,$2,$3*
1,1,$1+$1,$4,$5*
1,1,$1+$1,$6,$7*
1,1,$1+$1,$8,$9*
0 Add four rect primitives between the rounded corners*
20,1,$1+$1,$2,$3,$4,$5,0*
20,1,$1+$1,$4,$5,$6,$7,0*
20,1,$1+$1,$6,$7,$8,$9,0*
20,1,$1+$1,$8,$9,$2,$3,0*%
G04 Aperture macros list end*
%ADD10R,1.700000X1.700000*%
%ADD11C,1.700000*%
%ADD12C,6.400000*%
%ADD13R,1.500000X1.500000*%
%ADD14C,1.500000*%
%ADD15C,4.350000*%
%ADD16R,2.000000X2.000000*%
%ADD17C,2.000000*%
%ADD18R,3.200000X2.000000*%
%ADD19R,1.800000X1.800000*%
%ADD20C,1.800000*%
%ADD21RoundRect,0.750000X-1.250000X-0.750000X1.250000X-0.750000X1.250000X0.750000X-1.250000X0.750000X0*%
%ADD22RoundRect,0.750000X1.250000X0.750000X-1.250000X0.750000X-1.250000X-0.750000X1.250000X-0.750000X0*%
G04 APERTURE END LIST*
D10*
%TO.C,J1*%
X91110000Y-88100000D03*
D11*
X91110000Y-90640000D03*
X93650000Y-88100000D03*
X93650000Y-90640000D03*
X96190000Y-88100000D03*
X96190000Y-90640000D03*
X98730000Y-88100000D03*
X98730000Y-90640000D03*
X101270000Y-88100000D03*
X101270000Y-90640000D03*
X103810000Y-88100000D03*
X103810000Y-90640000D03*
X106350000Y-88100000D03*
X106350000Y-90640000D03*
X108890000Y-88100000D03*
X108890000Y-90640000D03*
%TD*%
D12*
%TO.C,REF\u002A\u002A*%
X54280000Y-42280000D03*
%TD*%
D13*
%TO.C,VR3*%
X134000000Y-48500000D03*
D14*
X134000000Y-46000000D03*
X134000000Y-43500000D03*
D15*
X124000000Y-52750000D03*
X124000000Y-41750000D03*
D14*
X134000000Y-51000000D03*
%TD*%
D13*
%TO.C,VR2*%
X110000000Y-48500000D03*
D14*
X110000000Y-46000000D03*
X110000000Y-43500000D03*
D15*
X100000000Y-52750000D03*
X100000000Y-41750000D03*
D14*
X110000000Y-51000000D03*
%TD*%
D12*
%TO.C,REF\u002A\u002A*%
X54280000Y-95720000D03*
%TD*%
D16*
%TO.C,SW1*%
X92500000Y-66500000D03*
D17*
X92500000Y-71500000D03*
X92500000Y-69000000D03*
D18*
X100000000Y-63400000D03*
X100000000Y-74600000D03*
D17*
X107000000Y-71500000D03*
X107000000Y-66500000D03*
%TD*%
D12*
%TO.C,REF\u002A\u002A*%
X145720000Y-42280000D03*
%TD*%
D19*
%TO.C,RV2*%
X136000000Y-66500000D03*
D20*
X136000000Y-69000000D03*
X136000000Y-71500000D03*
D21*
X143000000Y-64600000D03*
X143000000Y-73400000D03*
%TD*%
D19*
%TO.C,RV1*%
X64000000Y-71500000D03*
D20*
X64000000Y-69000000D03*
X64000000Y-66500000D03*
D22*
X57000000Y-73400000D03*
X57000000Y-64600000D03*
%TD*%
D13*
%TO.C,VR1*%
X86000000Y-48500000D03*
D14*
X86000000Y-46000000D03*
X86000000Y-43500000D03*
D15*
X76000000Y-52750000D03*
X76000000Y-41750000D03*
D14*
X86000000Y-51000000D03*
%TD*%
D12*
%TO.C,REF\u002A\u002A*%
X145720000Y-95720000D03*
%TD*%
M02*
